<svg width="519" height="20" viewBox="0 0 519 20" fill="none" xmlns="http://www.w3.org/2000/svg">
<path d="M330.612 11.1739C330.514 11.5221 330.318 11.8159 330.002 12.0552C329.698 12.2946 329.371 12.4143 329.023 12.4143H316.674C316.326 12.4143 316.076 12.2946 315.902 12.0552C315.728 11.8159 315.695 11.5221 315.793 11.1739L318.546 1.25122C318.643 0.90305 318.839 0.60929 319.144 0.36993C319.449 0.13056 319.764 0.01088 320.112 0.01088H332.472C332.831 0.01088 333.092 0.13056 333.266 0.36993C333.44 0.60929 333.473 0.90305 333.364 1.2621L333.038 2.43716H320.678L318.589 9.988H330.938L330.612 11.1739ZM337.912 0.02176H335.442L332.015 12.4034H334.485L337.912 0.02176ZM300.604 0H298.134L295.882 8.1166L285.97 0.02176L282.532 12.4469H285.002L287.232 4.38471L297.144 12.4687L300.604 0ZM316.696 0.35905C316.522 0.11968 316.261 0 315.902 0H302.345L301.67 2.42628H314.009L313.29 5.01576H300.963L298.907 12.3925H301.377L302.748 7.44203H313.845C314.193 7.44203 314.52 7.32235 314.825 7.08299C315.129 6.84362 315.336 6.54986 315.434 6.20169L316.805 1.24034C316.903 0.89217 316.859 0.59841 316.696 0.35905Z" fill="#21317D"/>
<path d="M342.581 0.0078125L345.703 6.22039L339.143 12.4221L342.581 0.0078125Z" fill="#00895D"/>
<path d="M340.389 0.0078125L343.501 6.22039L336.94 12.4221L340.389 0.0078125Z" fill="#F36700"/>
<path d="M338.28 14.4285C338.226 14.3632 338.182 14.2979 338.128 14.2327C337.965 14.0477 337.812 13.9171 337.66 13.8192C337.54 13.743 337.432 13.6886 337.323 13.656C337.203 13.6125 337.083 13.6016 336.964 13.6016C336.735 13.6016 336.539 13.6451 336.376 13.743C336.213 13.841 336.104 13.9824 336.05 14.1674C336.028 14.2435 336.028 14.3088 336.05 14.3741V14.385C336.05 14.3959 336.061 14.4176 336.061 14.4394H335.647L335.593 14.6352H335.995L335.517 16.4196H335.81L336.289 14.6352H338.215L338.095 15.0922H336.92C336.877 15.0922 336.844 15.1031 336.79 15.1139C336.735 15.1357 336.703 15.1683 336.692 15.2336C336.681 15.2663 336.692 15.3207 336.822 15.4839L336.844 15.5056C336.953 15.6362 337.029 15.7015 337.083 15.7015C337.16 15.7015 337.203 15.6688 337.214 15.6362L337.301 15.2989H338.052L337.747 16.4304H338.03L338.509 14.6461H339.542L339.39 15.2119H339.129C339.107 15.2119 339.096 15.2227 339.085 15.2227C339.02 15.2336 338.987 15.2663 338.977 15.2989C338.955 15.3751 338.998 15.473 339.118 15.5927C339.238 15.7124 339.336 15.7668 339.412 15.7668C339.477 15.7668 339.531 15.7341 339.553 15.6797C339.564 15.658 339.575 15.6362 339.575 15.6036L339.836 14.6461H340.522L340.043 16.4304H340.337L340.815 14.6461H341.675L341.501 15.2771H341.305C341.283 15.2771 341.25 15.2771 341.218 15.288C341.174 15.2989 341.142 15.3315 341.12 15.3859C341.109 15.4404 341.153 15.5274 341.261 15.6471C341.37 15.7668 341.457 15.832 341.522 15.832C341.577 15.832 341.62 15.8103 341.642 15.7776C341.653 15.7668 341.653 15.745 341.653 15.7232L341.718 15.473H342.513L342.251 16.4196H342.534L343.013 14.6352H343.394L343.448 14.4394H338.28V14.4285ZM342.752 14.6243L342.578 15.2554H341.784L341.958 14.6243H342.752ZM336.539 13.8954C336.659 13.8192 336.768 13.7866 336.888 13.7866C337.007 13.7866 337.127 13.8192 337.247 13.8627C337.312 13.8954 337.377 13.928 337.432 13.9607C337.573 14.0477 337.704 14.1565 337.812 14.2979L337.845 14.3306C337.867 14.3632 337.889 14.385 337.91 14.4176H336.322C336.311 14.3959 336.311 14.385 336.311 14.3741V14.3632C336.3 14.2979 336.3 14.2327 336.322 14.1783C336.354 14.0695 336.431 13.9715 336.539 13.8954ZM325.235 14.4285H334.189L334.135 14.6243H333.754L333.275 16.4087H332.992L333.297 15.2771H332.546L332.459 15.6144C332.438 15.658 332.394 15.6797 332.329 15.6797C332.274 15.6797 332.209 15.6253 332.089 15.4839C331.948 15.3098 331.937 15.2445 331.948 15.2227C331.959 15.1683 332.002 15.1248 332.046 15.1031C332.089 15.0922 332.133 15.0813 332.176 15.0813H333.351L333.471 14.6243H331.545L331.067 16.4087H330.784L331.263 14.6243H330.577L330.098 16.4087H329.815L330.142 15.1901H329.315C329.206 15.1901 329.119 15.2119 329.065 15.2445C329.01 15.2771 328.978 15.3207 328.956 15.3859C328.912 15.56 328.967 15.7559 329.108 15.9517C329.163 16.0279 329.25 16.1149 329.358 16.2128L329.38 16.2346L329.152 16.3869L329.141 16.376C329.021 16.2672 328.923 16.1693 328.858 16.0823C328.673 15.8429 328.619 15.6144 328.673 15.3968C328.706 15.2663 328.771 15.1792 328.88 15.1139C328.978 15.0487 329.097 15.016 329.239 15.016H330.196L330.305 14.6352H328.347L327.868 16.4196H327.574L328.053 14.6352H327.367L327.106 15.5927C327.106 15.6253 327.095 15.658 327.085 15.6797C327.052 15.7341 327.008 15.7668 326.943 15.7668C326.856 15.7668 326.769 15.7124 326.649 15.5927C326.541 15.473 326.486 15.3751 326.508 15.2989C326.519 15.2445 326.584 15.2227 326.617 15.2227C326.628 15.2227 326.628 15.2227 326.638 15.2227H326.66H326.921L327.074 14.657H326.029L325.561 16.3978C325.637 16.4196 325.703 16.4522 325.757 16.5066C325.844 16.5936 325.866 16.7025 325.833 16.8221C325.79 16.9636 325.703 17.0833 325.55 17.1703C325.409 17.2573 325.224 17.3009 325.017 17.3009C324.767 17.3009 324.539 17.2356 324.332 17.105C324.256 17.0615 324.19 16.9962 324.103 16.8983L324.082 16.8765L324.31 16.6916L324.321 16.7133C324.386 16.8004 324.441 16.8548 324.495 16.8983C324.647 17.0289 324.821 17.0941 325.017 17.0941C325.137 17.0941 325.246 17.0615 325.344 17.018C325.442 16.9636 325.507 16.8983 325.529 16.8004C325.55 16.746 325.54 16.6916 325.496 16.6589C325.463 16.6154 325.409 16.6045 325.333 16.6045C325.268 16.6045 325.191 16.6263 325.115 16.6807C325.093 16.6916 325.072 16.7133 325.017 16.7569L325.006 16.7677L324.821 16.5936L324.843 16.5828C324.908 16.5392 324.963 16.5066 325.006 16.4848C325.093 16.4413 325.18 16.4196 325.268 16.3978L325.496 15.56H324.8L324.734 15.8212C324.734 15.8429 324.724 15.8756 324.713 15.8973C324.691 15.9408 324.636 15.9408 324.593 15.9408C324.56 15.9408 324.495 15.9191 324.321 15.7341C324.147 15.5492 324.136 15.4839 324.147 15.4512C324.158 15.4186 324.18 15.3968 324.223 15.3642C324.267 15.3424 324.288 15.3315 324.31 15.3315H324.582L324.745 14.744C324.756 14.7005 324.756 14.6679 324.734 14.6352C324.713 14.6135 324.658 14.5917 324.582 14.5917C324.517 14.5917 324.473 14.6026 324.43 14.6352C324.386 14.6679 324.354 14.7114 324.343 14.7658C324.332 14.8093 324.332 14.8637 324.343 14.9072C324.343 14.9072 324.354 14.9181 324.354 14.929L324.375 14.9616H324.071L324.06 14.9507C324.049 14.929 324.049 14.9072 324.038 14.8963V14.8855C324.027 14.8202 324.027 14.7767 324.038 14.744C324.071 14.6243 324.147 14.5373 324.245 14.472C324.354 14.4176 324.473 14.385 324.604 14.385C324.734 14.385 324.843 14.4176 324.908 14.4829C324.985 14.5482 325.006 14.6352 324.985 14.744L324.832 15.3098H325.529L325.714 14.6243H325.17L325.235 14.4285ZM319.708 14.0477C319.61 13.8301 319.458 13.6995 319.251 13.656C319.186 13.6451 319.12 13.6342 319.033 13.6342C318.859 13.6342 318.718 13.6778 318.598 13.743C318.478 13.8192 318.391 13.9389 318.348 14.0912C318.326 14.1674 318.337 14.2544 318.359 14.3523C318.359 14.3741 318.37 14.3959 318.38 14.4285H312.995L312.94 14.6243H314.115L313.996 15.0704C313.974 15.1357 313.941 15.1901 313.876 15.2336C313.811 15.2771 313.735 15.2989 313.637 15.2989C313.582 15.2989 313.528 15.288 313.484 15.2771C313.43 15.2554 313.419 15.2336 313.419 15.2227L313.299 14.9399L313.038 15.0704L313.049 15.0922C313.082 15.1575 313.104 15.2119 313.114 15.2554C313.169 15.386 313.245 15.5274 313.343 15.7015C313.408 15.8103 313.495 15.9408 313.593 16.0714C313.669 16.1802 313.756 16.289 313.854 16.3978L313.865 16.4087L314.115 16.2455L314.094 16.2237C314.061 16.1911 314.039 16.1693 314.017 16.1476C313.996 16.1258 313.974 16.104 313.963 16.0823C313.92 16.0279 313.887 15.9844 313.854 15.9408C313.811 15.8864 313.778 15.8429 313.745 15.7994L313.55 15.4621C313.658 15.4839 313.789 15.4621 313.93 15.4186C314.028 15.386 314.115 15.3315 314.17 15.2771C314.224 15.2227 314.257 15.1575 314.279 15.0922L314.409 14.6135H315.16L314.681 16.3978H314.964L315.443 14.6135H316.096L315.9 15.3207C315.856 15.473 315.9 15.5927 316.009 15.6906C316.117 15.7885 316.27 15.832 316.455 15.832C316.531 15.832 316.618 15.8212 316.705 15.7885C316.759 15.7776 316.814 15.7559 316.879 15.7341C316.89 15.8212 316.933 15.9082 316.999 15.9844C317.009 16.0061 317.031 16.0279 317.053 16.0388V16.0496C317.162 16.1476 317.292 16.2237 317.445 16.2564L316.476 16.9201H316.901L317.63 16.3543L318.01 16.9201H318.359L317.858 16.2781C317.989 16.2672 318.098 16.2346 318.195 16.1911C318.337 16.1367 318.478 16.0496 318.609 15.9191L318.631 15.8973L318.413 15.7776L318.402 15.7885C318.217 15.9735 317.989 16.0605 317.728 16.0605C317.532 16.0605 317.379 16.0061 317.271 15.8864C317.173 15.7885 317.14 15.6797 317.151 15.56C317.151 15.5383 317.162 15.5165 317.162 15.4948C317.173 15.473 317.173 15.4621 317.184 15.4404C317.216 15.3751 317.271 15.3098 317.347 15.2663C317.434 15.201 317.543 15.1683 317.651 15.1683H318.478L318.631 14.5917H319.49L319.011 16.376H319.294L319.773 14.5917H320.72C320.752 14.6352 320.785 14.6679 320.796 14.7005C320.839 14.7984 320.861 14.8746 320.839 14.9507C320.807 15.0595 320.752 15.1357 320.654 15.1901C320.578 15.2336 320.48 15.2554 320.361 15.2554C320.35 15.2554 320.328 15.2554 320.295 15.2445C320.284 15.2445 320.263 15.2445 320.252 15.2336C320.241 15.2336 320.219 15.2227 320.208 15.2227H320.186V15.2445C320.143 15.4295 320.176 15.5927 320.284 15.745C320.393 15.8973 320.589 15.9735 320.861 15.9735H320.872C321.035 15.9735 321.187 15.9408 321.329 15.8864C321.362 15.8756 321.405 15.8538 321.449 15.832L321.296 16.3869H321.59L322.069 14.6026H322.45L322.504 14.4067H319.773C319.784 14.2544 319.751 14.1239 319.708 14.0477ZM321.111 14.7223C321.1 14.7005 321.09 14.6679 321.068 14.6243H321.808L321.557 15.5383C321.481 15.6036 321.427 15.6471 321.383 15.6688C321.231 15.7559 321.079 15.8103 320.926 15.8103H320.915C320.72 15.8103 320.589 15.7559 320.524 15.6253C320.502 15.5927 320.491 15.5383 320.48 15.4621C320.589 15.4404 320.687 15.4186 320.752 15.3859C320.959 15.2989 321.09 15.1683 321.133 14.9834C321.166 14.9181 321.155 14.8202 321.111 14.7223ZM318.75 13.8954C318.816 13.841 318.892 13.8192 319.001 13.8192C319.077 13.8192 319.142 13.8301 319.196 13.8518C319.316 13.8954 319.403 13.9933 319.468 14.1347C319.501 14.2 319.523 14.2979 319.545 14.4285H318.663C318.652 14.4067 318.642 14.385 318.631 14.3632V14.3523C318.609 14.2653 318.609 14.1891 318.631 14.1021C318.652 14.0151 318.696 13.9389 318.75 13.8954ZM316.912 15.473V15.4948C316.912 15.5165 316.901 15.5383 316.901 15.5492C316.879 15.56 316.857 15.5709 316.825 15.5818C316.716 15.6253 316.618 15.6471 316.509 15.6471C316.389 15.6471 316.302 15.6144 316.248 15.5709C316.193 15.5165 316.172 15.4512 316.193 15.3533L316.335 14.8093L316.912 15.473ZM318.37 14.6243L318.272 14.9943H317.651C317.51 14.9943 317.379 15.0269 317.26 15.0922C317.227 15.1031 317.205 15.1248 317.184 15.1466C317.118 15.1901 317.075 15.2336 317.031 15.288L316.465 14.6352H318.37V14.6243ZM308.708 14.0477C308.61 13.8301 308.458 13.6995 308.251 13.656C308.197 13.6451 308.12 13.6342 308.033 13.6342C307.859 13.6342 307.718 13.6778 307.598 13.7539C307.468 13.8301 307.391 13.9498 307.348 14.1021C307.326 14.1783 307.337 14.2653 307.359 14.3632C307.359 14.385 307.37 14.4067 307.381 14.4394H301.995L301.94 14.6352H302.484L302.3 15.3207H301.603L301.756 14.7549C301.788 14.6461 301.755 14.5591 301.679 14.4938C301.603 14.4285 301.505 14.3959 301.375 14.3959C301.244 14.3959 301.124 14.4285 301.016 14.4829C300.907 14.5482 300.842 14.6352 300.809 14.7549C300.798 14.7984 300.798 14.8419 300.809 14.8963C300.809 14.9181 300.82 14.9399 300.831 14.9616L300.842 14.9725H301.114L301.081 14.9399C301.07 14.929 301.07 14.929 301.07 14.9181C301.059 14.8746 301.059 14.8202 301.07 14.7767C301.081 14.7223 301.114 14.6787 301.157 14.6461C301.201 14.6135 301.255 14.6026 301.309 14.6026C301.386 14.6026 301.44 14.6135 301.462 14.6461C301.483 14.6679 301.483 14.7114 301.473 14.7549L301.309 15.3533H301.048C301.027 15.3533 300.994 15.3642 300.95 15.3859C300.907 15.4077 300.885 15.4295 300.874 15.473C300.874 15.4948 300.852 15.5492 301.048 15.7559C301.222 15.9408 301.288 15.9626 301.32 15.9626C301.364 15.9626 301.418 15.9626 301.44 15.9191C301.451 15.8973 301.462 15.8647 301.462 15.8429L301.527 15.5818H302.223L301.984 16.4631H302.267L302.746 14.6787H303.431L302.952 16.4631H303.246L303.725 14.6787H305.172L305.052 15.1248C305.03 15.1901 304.998 15.2445 304.933 15.288C304.867 15.3315 304.791 15.3533 304.693 15.3533C304.639 15.3533 304.584 15.3424 304.541 15.3315C304.486 15.3098 304.476 15.288 304.476 15.2771L304.356 14.9943L304.095 15.1248L304.106 15.1466C304.127 15.201 304.149 15.2554 304.182 15.3207C304.236 15.4512 304.312 15.5927 304.41 15.7668C304.465 15.8647 304.541 15.9735 304.661 16.1367C304.748 16.2564 304.835 16.3652 304.922 16.4631L304.933 16.474L305.183 16.3108L305.161 16.289C305.107 16.2346 305.063 16.1802 305.03 16.1476L304.987 16.0932C304.911 16.0061 304.856 15.93 304.813 15.8647L304.617 15.5274C304.726 15.5492 304.856 15.5274 304.998 15.4839C305.107 15.4512 305.183 15.3968 305.237 15.3424C305.292 15.288 305.324 15.2227 305.346 15.1575L305.477 14.6787H307.5L307.391 15.0595H306.434C306.293 15.0595 306.173 15.0922 306.075 15.1575C305.977 15.2227 305.901 15.3207 305.868 15.4404C305.814 15.658 305.868 15.8864 306.053 16.1258C306.118 16.2128 306.216 16.3108 306.336 16.4196L306.347 16.4304L306.575 16.2781L306.554 16.2564C306.445 16.1584 306.358 16.0714 306.303 15.9952C306.151 15.7994 306.097 15.6036 306.151 15.4295C306.173 15.3642 306.205 15.3207 306.26 15.288C306.325 15.2554 306.401 15.2336 306.51 15.2336H307.348L307.021 16.4522H307.304L307.783 14.6679H308.469L307.99 16.4522H308.273L308.751 14.6679H309.698C309.742 14.7114 309.763 14.744 309.774 14.7767C309.818 14.8637 309.839 14.9399 309.818 15.016C309.785 15.1248 309.731 15.201 309.644 15.2554C309.567 15.2989 309.47 15.3207 309.35 15.3207C309.339 15.3207 309.317 15.3207 309.285 15.3098C309.274 15.3098 309.263 15.3098 309.252 15.2989C309.241 15.2989 309.219 15.288 309.208 15.288H309.187V15.3098C309.132 15.4948 309.165 15.658 309.285 15.8103C309.393 15.9626 309.589 16.0388 309.861 16.0388H309.872C310.035 16.0388 310.188 16.0061 310.34 15.9517C310.373 15.9408 310.416 15.9191 310.46 15.8973L310.307 16.4522H310.59L311.069 14.6679H311.45L311.504 14.472H308.773C308.784 14.2544 308.751 14.1239 308.708 14.0477ZM310.111 14.7223C310.101 14.7005 310.09 14.6679 310.068 14.6243H310.797L310.558 15.5383C310.481 15.6036 310.427 15.6471 310.383 15.6688C310.231 15.7559 310.079 15.8103 309.927 15.8103H309.916C309.72 15.8103 309.589 15.745 309.524 15.6253C309.502 15.5818 309.491 15.5274 309.48 15.4621C309.589 15.4404 309.687 15.4186 309.752 15.3859C309.959 15.2989 310.079 15.1683 310.133 14.9834C310.155 14.9181 310.155 14.8202 310.111 14.7223ZM307.75 13.8954C307.816 13.841 307.892 13.8192 308.001 13.8192C308.077 13.8192 308.142 13.8301 308.197 13.8518C308.316 13.8954 308.403 13.9933 308.469 14.1347C308.501 14.1891 308.523 14.2871 308.545 14.4285H307.663C307.653 14.4067 307.642 14.3741 307.631 14.3523C307.609 14.2653 307.609 14.1783 307.631 14.1021C307.642 14.0151 307.685 13.9389 307.75 13.8954Z" fill="#333333"/>
<path d="M280.42 19.9007L280.996 17.8117L281.932 19.0411C281.954 19.0738 281.986 19.1173 282.008 19.1499C282.03 19.1935 282.062 19.237 282.084 19.2805L282.476 17.8878H282.781L282.204 19.9768L281.246 18.7256C281.225 18.693 281.203 18.6603 281.17 18.6168C281.149 18.5842 281.127 18.5406 281.116 18.4971L280.724 19.9007H280.42ZM284.413 19.9115L284.021 17.8226L282.465 19.9115H282.813L283.194 19.3893H283.989L284.076 19.9115H284.413ZM283.717 18.6603C283.738 18.6277 283.76 18.595 283.782 18.5515C283.804 18.508 283.825 18.4754 283.847 18.4318C283.847 18.4754 283.847 18.5189 283.847 18.5624C283.847 18.6059 283.847 18.6386 283.858 18.6603L283.934 19.1173H283.368L283.717 18.6603ZM285.936 18.1707L286.012 17.8878H284.62L284.543 18.1707H285.077L284.598 19.9007H284.924L285.403 18.1707H285.936ZM286.099 19.9007L286.654 17.8878H286.328L285.773 19.9007H286.099ZM288.798 18.8997C288.841 18.7582 288.852 18.6277 288.83 18.4971C288.809 18.3666 288.765 18.2578 288.689 18.149C288.613 18.051 288.515 17.9749 288.406 17.9205C288.286 17.8661 288.167 17.8443 288.014 17.8443C287.873 17.8443 287.72 17.8661 287.579 17.9205C287.438 17.9749 287.296 18.051 287.166 18.149C287.035 18.2469 286.926 18.3666 286.839 18.4862C286.752 18.6168 286.687 18.7474 286.643 18.8888C286.6 19.0303 286.589 19.1717 286.611 19.2914C286.632 19.4219 286.676 19.5307 286.752 19.6287C286.828 19.7266 286.915 19.8027 287.035 19.8571C287.155 19.9115 287.285 19.9333 287.427 19.9333C287.568 19.9333 287.71 19.9007 287.862 19.8571C288.014 19.8136 288.145 19.7266 288.275 19.6287C288.406 19.5307 288.515 19.4111 288.602 19.2914C288.689 19.1826 288.754 19.052 288.798 18.8997ZM288.46 18.8997C288.428 18.9976 288.384 19.0955 288.33 19.1826C288.265 19.2696 288.188 19.3567 288.101 19.4219C288.014 19.4981 287.916 19.5525 287.818 19.5851C287.72 19.6178 287.623 19.6395 287.525 19.6395C287.427 19.6395 287.34 19.6178 287.253 19.5851C287.176 19.5525 287.111 19.4981 287.057 19.4219C287.002 19.3458 286.981 19.2696 286.97 19.1826C286.959 19.0955 286.97 18.9976 286.992 18.8997C287.024 18.8018 287.068 18.7038 287.133 18.6059C287.198 18.5189 287.274 18.4318 287.361 18.3666C287.448 18.2904 287.546 18.236 287.644 18.2034C287.742 18.1598 287.84 18.149 287.938 18.149C288.036 18.149 288.123 18.1707 288.21 18.2034C288.286 18.2469 288.352 18.2904 288.395 18.3666C288.449 18.4427 288.471 18.5189 288.482 18.6059C288.493 18.7038 288.482 18.8018 288.46 18.8997ZM289.135 19.9007L289.527 18.4971C289.548 18.5406 289.559 18.5733 289.581 18.6168C289.603 18.6494 289.625 18.693 289.657 18.7256L290.615 19.9768L291.191 17.8878H290.887L290.495 19.2805C290.473 19.2261 290.441 19.1826 290.419 19.1499C290.397 19.1064 290.364 19.0738 290.343 19.0411L289.407 17.8117L288.83 19.9007H289.135ZM292.823 19.9115L292.432 17.8226L290.876 19.9115H291.224L291.605 19.3893H292.399L292.486 19.9115H292.823ZM292.127 18.6603C292.149 18.6277 292.17 18.595 292.192 18.5515C292.214 18.508 292.236 18.4754 292.258 18.4318C292.258 18.4754 292.258 18.5189 292.258 18.5624C292.258 18.6059 292.258 18.6386 292.268 18.6603L292.345 19.1173H291.779L292.127 18.6603ZM294.129 19.9007L294.205 19.6069H293.476L293.955 17.8878H293.628L293.074 19.9007H294.129ZM295.989 18.9976H296.055C296.196 18.9976 296.316 18.9867 296.381 18.9758C296.457 18.965 296.523 18.9323 296.588 18.8997C296.664 18.8562 296.729 18.7909 296.795 18.7147C296.849 18.6386 296.892 18.5515 296.925 18.4536C296.947 18.3557 296.958 18.2686 296.947 18.1925C296.936 18.1163 296.903 18.051 296.849 18.0075C296.805 17.9749 296.751 17.9422 296.686 17.9314C296.62 17.9205 296.512 17.9096 296.37 17.9096H295.87L295.315 19.9224H295.619L295.87 19.0194H295.989V18.9976ZM296.109 18.1707H296.196C296.37 18.1707 296.479 18.1925 296.533 18.236C296.588 18.2795 296.599 18.3557 296.566 18.4645C296.533 18.5624 296.49 18.6386 296.414 18.6712C296.338 18.7147 296.218 18.7256 296.033 18.7256H295.946L296.109 18.1707ZM298.155 19.9115L297.763 17.8226L296.207 19.9115H296.544L296.925 19.3893H297.719L297.806 19.9115H298.155ZM297.458 18.6603C297.48 18.6277 297.502 18.595 297.524 18.5515C297.545 18.508 297.567 18.4754 297.589 18.4318C297.589 18.4754 297.589 18.5189 297.589 18.5624C297.589 18.6059 297.589 18.6386 297.6 18.6603L297.676 19.1173H297.11L297.458 18.6603ZM298.666 19.9007L298.927 18.9758L299.928 17.8878H299.602L298.981 18.5624C298.96 18.5842 298.938 18.6168 298.916 18.6386C298.894 18.6712 298.873 18.693 298.851 18.7256C298.84 18.693 298.84 18.6603 298.829 18.6386C298.818 18.6059 298.818 18.5842 298.807 18.5733L298.579 17.8878H298.231L298.601 18.9758L298.34 19.9007H298.666ZM301.266 19.9007H301.571L301.669 17.8008L300.733 19.0738C300.722 19.0847 300.711 19.1064 300.69 19.1282C300.624 19.2152 300.57 19.2914 300.537 19.3458C300.526 19.2805 300.526 19.2152 300.516 19.1717C300.505 19.1282 300.505 19.0955 300.505 19.0738L300.265 17.8008L299.21 19.9007H299.515L300.004 18.9106C300.026 18.8562 300.048 18.8126 300.069 18.7691C300.091 18.7256 300.102 18.6821 300.113 18.6386C300.113 18.6821 300.113 18.7256 300.124 18.7691C300.124 18.8126 300.135 18.8562 300.146 18.8997L300.363 19.9986L301.19 18.9214C301.223 18.8779 301.255 18.8235 301.288 18.78C301.321 18.7365 301.342 18.693 301.364 18.6386C301.364 18.6821 301.353 18.7256 301.342 18.78C301.332 18.8453 301.321 18.8888 301.321 18.9106L301.266 19.9007ZM303.018 19.9007L303.094 19.6069H302.3L302.485 18.9541H303.279L303.355 18.6712H302.561L302.702 18.1707H303.497L303.573 17.8987H302.452L301.897 19.9115H303.018V19.9007ZM303.747 19.9007L304.139 18.4971C304.16 18.5406 304.171 18.5733 304.193 18.6168C304.215 18.6494 304.237 18.693 304.269 18.7256L305.227 19.9768L305.803 17.8878H305.499L305.107 19.2805C305.085 19.2261 305.053 19.1826 305.031 19.1499C305.009 19.1064 304.976 19.0738 304.955 19.0411L304.019 17.8117L303.442 19.9007H303.747ZM307.424 18.1707L307.501 17.8878H306.108L306.032 18.1707H306.565L306.086 19.9007H306.413L306.891 18.1707H307.424ZM307.25 19.4981C307.24 19.6395 307.283 19.7592 307.37 19.8354C307.457 19.9115 307.588 19.9551 307.762 19.9551C307.968 19.9551 308.143 19.9007 308.295 19.7919C308.447 19.6831 308.545 19.5307 308.6 19.3349C308.632 19.2043 308.632 19.0955 308.578 19.0085C308.523 18.9215 308.415 18.8344 308.24 18.7365C308.23 18.7365 308.219 18.7256 308.208 18.7147C308.012 18.6059 307.925 18.4971 307.958 18.3774C307.979 18.3013 308.023 18.236 308.088 18.1925C308.153 18.149 308.23 18.1272 308.317 18.1272C308.382 18.1272 308.425 18.1381 308.469 18.1707C308.512 18.2034 308.545 18.2469 308.567 18.3122L308.861 18.1816C308.85 18.0728 308.806 17.9966 308.719 17.9314C308.632 17.877 308.523 17.8443 308.371 17.8443C308.186 17.8443 308.034 17.8987 307.892 17.9966C307.751 18.0946 307.664 18.236 307.62 18.3992C307.588 18.5298 307.588 18.6277 307.642 18.7147C307.696 18.8018 307.816 18.8997 308.001 19.0085C308.012 19.0194 308.034 19.0303 308.056 19.0411C308.23 19.1282 308.295 19.237 308.262 19.3567C308.24 19.4437 308.186 19.5199 308.121 19.5743C308.045 19.6287 307.968 19.6504 307.871 19.6504C307.773 19.6504 307.686 19.6287 307.642 19.5743C307.588 19.5307 307.566 19.4546 307.566 19.3675L307.25 19.4981ZM311.744 18.051C311.657 17.9858 311.57 17.9314 311.472 17.8987C311.374 17.8661 311.265 17.8443 311.145 17.8443C310.993 17.8443 310.852 17.8661 310.71 17.9205C310.569 17.9749 310.427 18.051 310.308 18.149C310.177 18.2469 310.068 18.3557 309.981 18.4862C309.894 18.6168 309.829 18.7582 309.785 18.8997C309.742 19.052 309.731 19.1826 309.753 19.3131C309.764 19.4437 309.807 19.5525 309.883 19.6504C309.96 19.7483 310.047 19.8245 310.166 19.868C310.286 19.9224 310.417 19.9442 310.569 19.9442C310.689 19.9442 310.808 19.9333 310.917 19.9007C311.026 19.868 311.135 19.8245 311.243 19.7592L311.341 19.3893C311.222 19.4763 311.102 19.5416 310.982 19.5851C310.863 19.6287 310.743 19.6504 310.623 19.6504C310.417 19.6504 310.264 19.5851 310.177 19.4437C310.079 19.3023 310.068 19.1282 310.123 18.9106C310.188 18.6821 310.308 18.508 310.482 18.3666C310.656 18.2251 310.852 18.1598 311.08 18.1598C311.189 18.1598 311.298 18.1816 311.385 18.2142C311.472 18.2578 311.559 18.3122 311.624 18.3883L311.744 18.051ZM313.953 18.8997C313.996 18.7582 314.007 18.6277 313.985 18.4971C313.963 18.3666 313.92 18.2578 313.844 18.149C313.768 18.051 313.67 17.9749 313.561 17.9205C313.441 17.8661 313.322 17.8443 313.169 17.8443C313.028 17.8443 312.875 17.8661 312.734 17.9205C312.593 17.9749 312.451 18.051 312.321 18.149C312.19 18.2469 312.081 18.3666 311.994 18.4862C311.907 18.6168 311.842 18.7474 311.798 18.8888C311.755 19.0303 311.744 19.1717 311.766 19.2914C311.787 19.4219 311.831 19.5307 311.907 19.6287C311.983 19.7266 312.07 19.8027 312.19 19.8571C312.31 19.9115 312.44 19.9333 312.582 19.9333C312.723 19.9333 312.865 19.9007 313.017 19.8571C313.169 19.8136 313.3 19.7266 313.43 19.6287C313.561 19.5307 313.67 19.4111 313.757 19.2914C313.844 19.1826 313.909 19.052 313.953 18.8997ZM313.615 18.8997C313.583 18.9976 313.539 19.0955 313.485 19.1826C313.419 19.2696 313.343 19.3567 313.256 19.4219C313.169 19.4981 313.071 19.5525 312.973 19.5851C312.875 19.6178 312.778 19.6395 312.68 19.6395C312.582 19.6395 312.495 19.6178 312.408 19.5851C312.331 19.5525 312.266 19.4981 312.212 19.4219C312.157 19.3458 312.136 19.2696 312.125 19.1826C312.114 19.0955 312.125 18.9976 312.146 18.8997C312.179 18.8018 312.223 18.7038 312.288 18.6059C312.353 18.5189 312.429 18.4318 312.516 18.3666C312.603 18.2904 312.701 18.236 312.799 18.2034C312.897 18.1598 312.995 18.149 313.093 18.149C313.191 18.149 313.278 18.1707 313.365 18.2034C313.441 18.2469 313.506 18.2904 313.55 18.3666C313.604 18.4427 313.626 18.5189 313.637 18.6059C313.648 18.7038 313.637 18.8018 313.615 18.8997ZM314.638 19.0085L315.051 19.9115H315.421L314.986 18.9976C315.139 18.9759 315.269 18.9214 315.378 18.8344C315.476 18.7474 315.552 18.6168 315.595 18.4536C315.617 18.3666 315.628 18.2795 315.617 18.2034C315.606 18.1272 315.574 18.0619 315.53 18.0184C315.487 17.9749 315.432 17.9531 315.367 17.9314C315.302 17.9096 315.193 17.9096 315.062 17.9096H314.605L314.05 19.9224H314.355L314.605 19.0194H314.638V19.0085ZM314.856 18.1707H314.91C315.073 18.1707 315.182 18.1925 315.226 18.236C315.269 18.2795 315.28 18.3557 315.247 18.4754C315.215 18.5733 315.171 18.6494 315.106 18.693C315.041 18.7365 314.921 18.7582 314.747 18.7582H314.692L314.856 18.1707ZM316.368 18.9976H316.433C316.575 18.9976 316.694 18.9867 316.76 18.9758C316.836 18.965 316.901 18.9323 316.966 18.8997C317.043 18.8562 317.108 18.7909 317.173 18.7147C317.227 18.6386 317.271 18.5515 317.304 18.4536C317.336 18.3557 317.336 18.2686 317.325 18.1925C317.315 18.1163 317.282 18.051 317.227 18.0075C317.184 17.9749 317.13 17.9422 317.064 17.9314C316.999 17.9205 316.89 17.9096 316.749 17.9096H316.237L315.683 19.9224H315.987L316.237 19.0194H316.368V18.9976ZM316.488 18.1707H316.575C316.749 18.1707 316.858 18.1925 316.912 18.236C316.966 18.2795 316.977 18.3557 316.945 18.4645C316.912 18.5624 316.868 18.6386 316.792 18.6712C316.716 18.7147 316.596 18.7256 316.411 18.7256H316.324L316.488 18.1707ZM319.523 18.8997C319.567 18.7582 319.578 18.6277 319.556 18.4971C319.534 18.3666 319.491 18.2578 319.414 18.149C319.338 18.051 319.24 17.9749 319.132 17.9205C319.012 17.8661 318.881 17.8443 318.74 17.8443C318.598 17.8443 318.446 17.8661 318.305 17.9205C318.163 17.9749 318.022 18.051 317.891 18.149C317.761 18.2469 317.652 18.3666 317.565 18.4862C317.478 18.6168 317.412 18.7474 317.369 18.8888C317.325 19.0303 317.315 19.1717 317.336 19.2914C317.358 19.4219 317.402 19.5307 317.478 19.6287C317.554 19.7266 317.641 19.8027 317.761 19.8571C317.88 19.9115 318.011 19.9333 318.152 19.9333C318.294 19.9333 318.435 19.9007 318.588 19.8571C318.74 19.8136 318.87 19.7266 319.001 19.6287C319.132 19.5307 319.24 19.4111 319.327 19.2914C319.414 19.1826 319.48 19.052 319.523 18.8997ZM319.186 18.8997C319.153 18.9976 319.11 19.0955 319.055 19.1826C318.99 19.2696 318.914 19.3567 318.827 19.4219C318.74 19.4981 318.642 19.5525 318.544 19.5851C318.446 19.6178 318.348 19.6395 318.25 19.6395C318.152 19.6395 318.065 19.6178 317.978 19.5851C317.902 19.5525 317.837 19.4981 317.782 19.4219C317.728 19.3458 317.706 19.2696 317.695 19.1826C317.684 19.0955 317.695 18.9976 317.717 18.8997C317.75 18.8018 317.793 18.7038 317.859 18.6059C317.924 18.5189 318 18.4318 318.087 18.3666C318.174 18.2904 318.272 18.236 318.37 18.2034C318.468 18.1598 318.566 18.149 318.664 18.149C318.762 18.149 318.849 18.1707 318.936 18.2034C319.012 18.2469 319.077 18.2904 319.121 18.3666C319.175 18.4427 319.197 18.5189 319.208 18.6059C319.219 18.7038 319.208 18.8018 319.186 18.8997ZM320.1 19.0085L320.524 19.9115H320.894L320.459 18.9976C320.611 18.9759 320.742 18.9214 320.851 18.8344C320.959 18.7474 321.025 18.6168 321.068 18.4536C321.09 18.3666 321.101 18.2795 321.09 18.2034C321.079 18.1272 321.046 18.0619 321.003 18.0184C320.959 17.9749 320.905 17.9531 320.84 17.9314C320.774 17.9096 320.666 17.9096 320.535 17.9096H320.078L319.523 19.9224H319.828L320.078 19.0194H320.1V19.0085ZM320.317 18.1707H320.372C320.535 18.1707 320.644 18.1925 320.687 18.236C320.731 18.2795 320.742 18.3557 320.709 18.4754C320.677 18.5733 320.633 18.6494 320.568 18.693C320.502 18.7365 320.383 18.7582 320.209 18.7582H320.154L320.317 18.1707ZM322.874 19.9115L322.483 17.8226L320.927 19.9115H321.275L321.656 19.3893H322.45L322.537 19.9115H322.874ZM322.178 18.6603C322.2 18.6277 322.221 18.595 322.243 18.5515C322.265 18.508 322.287 18.4754 322.309 18.4318C322.309 18.4754 322.309 18.5189 322.309 18.5624C322.309 18.6059 322.309 18.6386 322.319 18.6603L322.396 19.1173H321.83L322.178 18.6603ZM324.398 18.1707L324.474 17.8878H323.081L323.005 18.1707H323.538L323.059 19.9007H323.386L323.864 18.1707H324.398ZM324.561 19.9007L325.116 17.8878H324.789L324.234 19.9007H324.561ZM327.259 18.8997C327.303 18.7582 327.313 18.6277 327.292 18.4971C327.27 18.3666 327.226 18.2578 327.15 18.149C327.074 18.051 326.976 17.9749 326.867 17.9205C326.748 17.8661 326.628 17.8443 326.476 17.8443C326.334 17.8443 326.182 17.8661 326.04 17.9205C325.899 17.9749 325.758 18.051 325.627 18.149C325.496 18.2469 325.388 18.3666 325.301 18.4862C325.214 18.6168 325.148 18.7474 325.105 18.8888C325.061 19.0303 325.05 19.1717 325.072 19.2914C325.094 19.4219 325.137 19.5307 325.214 19.6287C325.29 19.7266 325.377 19.8027 325.496 19.8571C325.616 19.9115 325.747 19.9333 325.888 19.9333C326.03 19.9333 326.171 19.9007 326.323 19.8571C326.476 19.8136 326.606 19.7266 326.737 19.6287C326.867 19.5307 326.976 19.4111 327.063 19.2914C327.15 19.1826 327.215 19.052 327.259 18.8997ZM326.911 18.8997C326.878 18.9976 326.835 19.0955 326.78 19.1826C326.715 19.2696 326.639 19.3567 326.552 19.4219C326.465 19.4981 326.367 19.5525 326.269 19.5851C326.171 19.6178 326.073 19.6395 325.975 19.6395C325.877 19.6395 325.79 19.6178 325.703 19.5851C325.627 19.5525 325.562 19.4981 325.507 19.4219C325.453 19.3458 325.431 19.2696 325.42 19.1826C325.409 19.0955 325.42 18.9976 325.442 18.8997C325.475 18.8018 325.518 18.7038 325.583 18.6059C325.649 18.5189 325.725 18.4318 325.812 18.3666C325.899 18.2904 325.997 18.236 326.095 18.2034C326.193 18.1598 326.291 18.149 326.389 18.149C326.487 18.149 326.574 18.1707 326.661 18.2034C326.737 18.2469 326.802 18.2904 326.846 18.3666C326.9 18.4427 326.922 18.5189 326.933 18.6059C326.954 18.7038 326.943 18.8018 326.911 18.8997ZM327.542 19.9007L327.934 18.4971C327.955 18.5406 327.966 18.5733 327.988 18.6168C328.01 18.6494 328.031 18.693 328.064 18.7256L329.022 19.9768L329.598 17.8878H329.294L328.902 19.2805C328.88 19.2261 328.848 19.1826 328.826 19.1499C328.804 19.1064 328.771 19.0738 328.75 19.0411L327.814 17.8117L327.237 19.9007H327.542ZM332.471 18.8997C332.514 18.7582 332.525 18.6277 332.503 18.4971C332.481 18.3666 332.438 18.2578 332.362 18.149C332.286 18.051 332.188 17.9749 332.079 17.9205C331.959 17.8661 331.84 17.8443 331.687 17.8443C331.546 17.8443 331.393 17.8661 331.252 17.9205C331.111 17.9749 330.969 18.051 330.839 18.149C330.708 18.2469 330.599 18.3666 330.512 18.4862C330.425 18.6168 330.36 18.7474 330.316 18.8888C330.273 19.0303 330.262 19.1717 330.284 19.2914C330.305 19.4219 330.349 19.5307 330.425 19.6287C330.501 19.7266 330.588 19.8027 330.708 19.8571C330.828 19.9115 330.958 19.9333 331.1 19.9333C331.241 19.9333 331.383 19.9007 331.535 19.8571C331.687 19.8136 331.818 19.7266 331.948 19.6287C332.079 19.5307 332.188 19.4111 332.275 19.2914C332.362 19.1826 332.427 19.052 332.471 18.8997ZM332.122 18.8997C332.09 18.9976 332.046 19.0955 331.992 19.1826C331.927 19.2696 331.85 19.3567 331.763 19.4219C331.676 19.4981 331.578 19.5525 331.481 19.5851C331.383 19.6178 331.285 19.6395 331.187 19.6395C331.089 19.6395 331.002 19.6178 330.915 19.5851C330.839 19.5525 330.773 19.4981 330.719 19.4219C330.664 19.3458 330.643 19.2696 330.632 19.1826C330.621 19.0955 330.632 18.9976 330.654 18.8997C330.686 18.8018 330.73 18.7038 330.795 18.6059C330.86 18.5189 330.936 18.4318 331.024 18.3666C331.111 18.2904 331.209 18.236 331.306 18.2034C331.404 18.1598 331.502 18.149 331.6 18.149C331.698 18.149 331.785 18.1707 331.872 18.2034C331.948 18.2469 332.014 18.2904 332.057 18.3666C332.112 18.4427 332.133 18.5189 332.144 18.6059C332.166 18.7038 332.155 18.8018 332.122 18.8997ZM332.775 19.9007L333.036 18.9541H333.831L333.907 18.6712H333.113L333.254 18.1707H334.048L334.124 17.8987H333.004L332.449 19.9115H332.775V19.9007ZM335.114 19.9007L335.669 17.8878H335.343L334.788 19.9007H335.114ZM335.713 19.9007L336.105 18.4971C336.126 18.5406 336.137 18.5733 336.159 18.6168C336.181 18.6494 336.202 18.693 336.235 18.7256L337.193 19.9768L337.769 17.8878H337.465L337.073 19.2805C337.051 19.2261 337.019 19.1826 336.997 19.1499C336.975 19.1064 336.942 19.0738 336.921 19.0411L335.985 17.8117L335.408 19.9007H335.713ZM337.998 19.9007H338.085C338.324 19.9007 338.498 19.8898 338.618 19.8571C338.738 19.8245 338.857 19.781 338.955 19.7157C339.097 19.6287 339.216 19.509 339.314 19.3784C339.412 19.237 339.488 19.0847 339.532 18.8997C339.586 18.7256 339.597 18.5624 339.575 18.421C339.554 18.2795 339.499 18.1707 339.401 18.0837C339.336 18.0184 339.238 17.964 339.129 17.9422C339.02 17.9096 338.825 17.8987 338.531 17.8987H338.085L337.53 19.9115H337.998V19.9007ZM338.368 18.1816H338.487H338.607C338.781 18.1816 338.901 18.1925 338.966 18.2142C339.042 18.236 339.097 18.2686 339.14 18.3122C339.195 18.3774 339.238 18.4536 339.249 18.5515C339.26 18.6494 339.249 18.7582 339.216 18.8888C339.184 19.0194 339.129 19.1282 339.064 19.2261C338.999 19.324 338.923 19.4002 338.825 19.4655C338.759 19.509 338.683 19.5525 338.596 19.5634C338.52 19.5851 338.4 19.596 338.248 19.596H337.976L338.368 18.1816ZM339.804 19.9007L340.359 17.8878H340.032L339.477 19.9007H339.804ZM341.947 19.9115L341.556 17.8226L340 19.9115H340.348L340.729 19.3893H341.523L341.61 19.9115H341.947ZM341.251 18.6603C341.273 18.6277 341.294 18.595 341.316 18.5515C341.338 18.508 341.36 18.4754 341.381 18.4318C341.381 18.4754 341.381 18.5189 341.381 18.5624C341.381 18.6059 341.381 18.6386 341.392 18.6603L341.468 19.1173H340.903L341.251 18.6603Z" fill="#333333"/>
<path d="M487.03 6.39389C486.993 9.17982 489.606 10.7346 491.573 11.6589C493.595 12.6074 494.274 13.2155 494.266 14.0636C494.251 15.3617 492.655 15.9346 491.158 15.9568C488.551 15.9959 487.034 15.2779 485.828 14.735L484.888 18.9734C486.098 19.5108 488.338 19.9795 490.661 20C496.113 20 499.68 17.4055 499.7 13.3829C499.72 8.27783 492.374 7.99515 492.424 5.71321C492.442 5.02138 493.126 4.28304 494.627 4.09521C495.37 4.00036 497.421 3.92783 499.746 4.96001L500.658 0.859213C499.409 0.420306 497.801 0 495.8 0C490.668 0 487.059 2.62971 487.03 6.39389ZM509.427 0.353353C508.432 0.353353 507.593 0.913143 507.218 1.77235L499.429 19.6987H504.878L505.963 16.8105H512.621L513.249 19.6987H518.052L513.861 0.353353H509.427ZM510.189 5.5793L511.762 12.8435H507.456L510.189 5.5793ZM480.424 0.353353L476.129 19.6987H481.32L485.614 0.353353H480.424ZM472.743 0.353353L467.34 13.5205L465.152 2.32471C464.896 1.07494 463.883 0.353353 462.758 0.353353H453.924L453.801 0.915001C455.615 1.2944 457.675 1.90626 458.924 2.5609C459.687 2.96075 459.905 3.31038 460.156 4.26073L464.297 19.6987H469.783L478.195 0.353353H472.743Z" fill="#0056A3"/>
<path d="M467.34 13.4953L465.152 2.29948C464.896 1.04971 463.883 0.328125 462.758 0.328125H453.924L453.801 0.889773C455.615 1.26917 457.675 1.88103 458.924 2.53567C459.687 2.93552 465.152 5.68827 466.925 11.3776L467.34 13.4953Z" fill="#FFA700"/>
<path d="M81.0014 0H0.987305V20H81.0014V0Z" fill="#0C297C"/>
<path d="M10.6128 4.54536L10.4716 6.01326H7.88869L7.64875 8.03161H10.2316L10.0623 9.51361H7.46526L6.97126 13.4938H5.48926L6.53372 4.53125L10.6128 4.54536Z" fill="white"/>
<path d="M11.36 4.54536L10.3438 13.4656C10.3438 13.4656 14.7333 13.5503 14.7333 13.4515C14.7333 13.3527 14.8885 12.04 14.8885 12.04H11.9528L12.2492 9.48538H15.199L15.3825 8.00338H12.4609L12.7008 5.98503H15.6365L15.806 4.53125L11.36 4.54536Z" fill="white"/>
<path d="M23.3874 4.54536L22.3711 13.4656C22.3711 13.4656 26.7607 13.5503 26.7607 13.4515C26.7607 13.3527 26.9159 12.04 26.9159 12.04H23.9802L24.2765 9.48538H27.2264L27.4099 8.00338H24.4883L24.7282 5.98503H27.664L27.8333 4.53125L23.3874 4.54536Z" fill="white"/>
<path d="M18.6875 4.57661L16.6974 4.5625L15.6953 13.4686H17.1491C17.4596 13.4968 19.2097 13.638 20.3106 13.0028C20.3106 13.0028 22.5548 12.0854 22.5407 8.38749C22.5125 8.37337 22.3855 4.98594 18.6875 4.57661ZM19.0404 12.0431C19.0404 12.0431 17.6571 12.1277 17.2902 12.0854L17.9818 6.01627L19.0686 6.00216C19.0686 6.00216 20.6211 6.00216 21.0728 8.00639C21.0728 8.02051 21.0729 8.03462 21.0869 8.04874C21.5245 10.067 20.226 11.8737 19.0404 12.0431Z" fill="white"/>
<path d="M33.238 13.4945L31.3607 9.65538C31.3607 9.65538 32.998 9.35898 33.1533 7.03012C33.1533 7.03012 33.1815 4.70126 30.8949 4.57422H28.7496L27.7334 13.4945H29.2295L29.6388 9.81067L29.8364 9.82472L31.6995 13.4945H33.238ZM30.0763 5.99977C30.0763 5.99977 31.5301 5.7316 31.7136 6.6208C31.7136 6.6208 32.0524 8.27218 30.5421 8.48389L29.7941 8.46978L30.0763 5.99977Z" fill="white"/>
<path d="M39.4623 13.4962H41.0007L38.4037 4.51953L33.4072 13.4822H35.101L36.0889 11.5908H38.9683L39.4623 13.4962ZM36.8652 10.1512L38.0508 7.87875L38.6295 10.1653L36.8652 10.1512Z" fill="white"/>
<path d="M59.4769 13.4962H61.0154L58.4183 4.51953L53.4219 13.4822H55.1155L56.1036 11.5908H58.9829L59.4769 13.4962ZM56.8657 10.1512L58.0513 7.87875L58.63 10.1653L56.8657 10.1512Z" fill="white"/>
<path d="M42.356 4.61567L41.3115 13.4936H45.3341L45.4893 12.0962H42.9911L43.7816 4.60156L42.356 4.61567Z" fill="white"/>
<path d="M52.6313 8.83675C52.6313 8.83675 53.831 7.82052 53.5204 6.46554C53.5204 6.46554 53.3794 4.7436 51.3468 4.57422H49.3849L48.3828 13.4804H49.6954H49.9072C49.9072 13.4804 50.1471 13.4804 50.6552 13.4804C50.6552 13.4804 52.6313 13.4945 53.2946 12.3794C53.2946 12.3794 54.5931 10.4175 52.6313 8.83675ZM50.8246 5.85863C50.8246 5.85863 51.728 5.78806 52.0526 6.3244C52.0526 6.3244 52.6877 7.56647 51.3327 8.15927L50.5423 8.20161L50.8105 5.99977L50.8246 5.85863ZM51.982 11.7161C51.982 11.7161 51.6009 12.2806 50.1189 12.0831H50.0766L50.387 9.51424C50.6412 9.50012 51.2198 9.45779 51.4175 9.58482C51.4033 9.59893 52.8571 9.95182 51.982 11.7161Z" fill="white"/>
<path d="M62.8639 4.50391L61.5654 13.4948H63.0051L63.7673 7.69375L68.6226 13.4524L69.8505 4.54626H68.3121L67.6769 9.89561L62.8639 4.50391Z" fill="white"/>
<path d="M76.4981 4.53365H74.8044L71.9392 7.66703L72.292 4.53365L70.7677 4.51953L69.7373 13.4962H71.2758L71.6852 9.93948L71.925 9.67126L74.5785 13.468H76.3288L73.026 8.4292L76.4981 4.53365Z" fill="white"/>
<path d="M81.0014 17.9961H0.987305V20.0003H81.0014V17.9961Z" fill="#FF9901"/>
<path fill-rule="evenodd" clip-rule="evenodd" d="M196.478 6.18918L192.64 0L180.358 20H187.999L196.478 6.18918ZM197.317 19.999H204.973L200.323 12.3996H192.669L197.317 19.999ZM209.723 9.78364L208.433 7.46641L207.08 9.78364H209.723ZM210.256 10.7518H206.534L205.566 12.3998H204.147L208.458 5.1566L212.613 12.3998H211.176L210.256 10.7518ZM213.125 5.59545L215.524 8.84304L212.789 12.3998H214.276L216.266 9.79212L218.191 12.3998H219.663L217.031 8.84304L219.535 5.59545H218.028L216.286 7.89396L214.62 5.59545H213.125ZM222.151 12.3998H220.84V5.5951H222.151V12.3998ZM227.636 7.09524L228.706 6.59738C228.142 5.83522 227.35 5.45361 226.348 5.45361C225.604 5.4529 224.981 5.63063 224.485 5.97974C223.987 6.32283 223.736 6.74473 223.736 7.25708C223.736 8.01677 224.326 8.59201 225.523 8.98422L226.363 9.25665C226.581 9.33757 226.768 9.40788 226.925 9.49092C227.082 9.56972 227.217 9.66406 227.313 9.75169C227.411 9.84497 227.486 9.94285 227.524 10.058C227.58 10.164 227.601 10.287 227.601 10.4184C227.601 10.7464 227.468 11.0202 227.195 11.2326C226.925 11.4523 226.588 11.5562 226.175 11.5562C225.66 11.5562 225.259 11.4068 224.991 11.1149C224.836 10.9601 224.736 10.6895 224.672 10.287L223.342 10.5174C223.466 11.1488 223.764 11.6393 224.253 11.9944C224.742 12.3488 225.367 12.5226 226.123 12.5226C226.919 12.5226 227.592 12.3173 228.126 11.9014C228.663 11.4993 228.928 10.9778 228.928 10.3541C228.928 9.88172 228.77 9.48845 228.439 9.16408C228.108 8.84501 227.592 8.56692 226.886 8.34997L226.017 8.06906C225.388 7.86801 225.071 7.60229 225.071 7.26556C225.071 7.02564 225.191 6.82741 225.43 6.67052C225.676 6.50587 225.977 6.4246 226.339 6.4246C226.637 6.4246 226.878 6.47088 227.065 6.56558C227.249 6.64862 227.436 6.82494 227.636 7.09524ZM235.389 11.4309H236.202C236.801 11.4309 237.238 11.3415 237.516 11.1624C237.807 10.9628 237.957 10.7136 237.957 10.4144C237.957 10.1183 237.807 9.87057 237.529 9.66527C237.253 9.47941 236.765 9.37412 236.054 9.37412H235.389V11.4309ZM235.389 8.51584H235.805C236.292 8.51584 236.654 8.43281 236.879 8.2632C237.103 8.09324 237.22 7.8452 237.22 7.52012C237.22 7.19504 237.103 6.95053 236.872 6.79152C236.635 6.62015 236.299 6.53676 235.854 6.53676H235.389V8.51584ZM234.077 12.3998V5.5951H235.389C235.972 5.5951 236.435 5.62549 236.782 5.69792C237.13 5.76612 237.424 5.89085 237.663 6.05091C237.91 6.23147 238.098 6.44525 238.244 6.70955C238.395 6.9636 238.468 7.23144 238.468 7.49821C238.468 7.98547 238.226 8.39747 237.748 8.73633C238.215 8.85894 238.575 9.07519 238.842 9.38436C239.116 9.68859 239.25 10.0405 239.25 10.4543C239.25 10.9815 239.011 11.4309 238.527 11.8009C238.24 12.0277 237.915 12.1871 237.554 12.2712C237.158 12.3585 236.665 12.3998 236.068 12.3998H234.077ZM243.609 7.46641L244.904 9.78364H242.25L243.609 7.46641ZM241.711 10.7518H245.438L246.344 12.3998H247.789L243.627 5.1566L239.323 12.3998H240.742L241.711 10.7518ZM248.645 12.4001V5.1223L254.991 10.3253V5.59542H256.306V12.8153L249.958 7.62998V12.4001H248.645ZM262.644 5.59545L259.253 8.31196V5.59545H257.936V12.3998H259.253V9.584L259.526 9.37129L262.66 12.3998H264.42L260.46 8.67838L264.393 5.59545H262.644Z" fill="#AE285D"/>
<path d="M164.358 0H97.0015V20H164.358V0Z" fill="#03428E"/>
<path d="M107.266 9.30078C106.881 9.30074 106.502 9.39504 106.163 9.57543C105.823 9.75581 105.533 10.0168 105.317 10.3354C105.571 10.1099 105.885 9.96263 106.221 9.91131C106.557 9.85999 106.901 9.90682 107.211 10.0462C107.521 10.1855 107.784 10.4114 107.968 10.6968C108.153 10.9821 108.251 11.3147 108.251 11.6545C108.251 11.9943 108.153 12.3269 107.968 12.6122C107.784 12.8975 107.521 13.1235 107.211 13.2628C106.901 13.4022 106.557 13.449 106.221 13.3977C105.885 13.3464 105.571 13.1991 105.317 12.9735C105.545 13.3099 105.855 13.5816 106.219 13.7623C106.583 13.943 106.987 14.0266 107.392 14.0048C107.798 13.9831 108.191 13.8568 108.533 13.6383C108.875 13.4197 109.155 13.1164 109.346 12.7576C109.536 12.3989 109.63 11.9971 109.619 11.5911C109.608 11.1852 109.493 10.789 109.283 10.441C109.074 10.0931 108.778 9.8052 108.425 9.6054C108.071 9.40559 107.672 9.30065 107.266 9.30078Z" fill="#F37024"/>
<path d="M107.527 6.9945C107.312 7.31303 107.178 7.67944 107.137 8.0617C107.096 8.44395 107.149 8.83042 107.292 9.1873C107.247 8.84959 107.3 8.50596 107.445 8.19785C107.591 7.88974 107.822 7.6303 108.112 7.45081C108.402 7.27132 108.737 7.17944 109.078 7.18626C109.418 7.19308 109.75 7.29829 110.032 7.48923C110.314 7.68016 110.535 7.94866 110.668 8.26235C110.802 8.57603 110.841 8.92152 110.782 9.25715C110.723 9.59277 110.569 9.90422 110.337 10.1539C110.105 10.4036 109.806 10.5809 109.475 10.6645C109.882 10.6646 110.281 10.5596 110.634 10.3598C110.988 10.16 111.284 9.87216 111.493 9.52421C111.702 9.17625 111.818 8.78005 111.829 8.37411C111.84 7.96818 111.746 7.56632 111.555 7.2076C111.365 6.84888 111.085 6.5455 110.743 6.32696C110.401 6.10841 110.008 5.98214 109.602 5.9604C109.197 5.93867 108.792 6.02222 108.429 6.20293C108.065 6.38364 107.754 6.65537 107.527 6.99169" fill="#F37024"/>
<path d="M105.962 12.4414C106.335 12.3479 106.679 12.1643 106.965 11.9066C107.25 11.6488 107.468 11.3249 107.599 10.9633C107.407 11.2441 107.138 11.4635 106.825 11.5951C106.511 11.7266 106.166 11.7647 105.831 11.7049C105.497 11.645 105.186 11.4897 104.938 11.2576C104.689 11.0255 104.513 10.7265 104.43 10.3966C104.348 10.0667 104.362 9.72 104.472 9.39818C104.582 9.07635 104.783 8.79312 105.05 8.58258C105.317 8.37203 105.639 8.24315 105.977 8.21143C106.316 8.17972 106.656 8.24652 106.958 8.4038C106.655 8.13319 106.288 7.94546 105.891 7.85886C105.495 7.77226 105.082 7.78973 104.694 7.90957C104.306 8.02941 103.956 8.24755 103.677 8.5428C103.399 8.83804 103.201 9.20035 103.104 9.59452C103.007 9.98869 103.013 10.4013 103.122 10.7923C103.232 11.1833 103.44 11.5394 103.728 11.8259C104.016 12.1124 104.372 12.3197 104.764 12.4275C105.155 12.5354 105.568 12.5402 105.962 12.4414Z" fill="#F37024"/>
<path d="M119.635 6.70523C119.044 6.28376 118.335 6.05893 117.609 6.06254H117.542C116.552 6.07845 115.578 6.51345 114.786 7.27869C114.008 8.04366 113.493 9.03634 113.316 10.1132C113.129 11.2602 113.368 12.2976 113.993 13.032C114.257 13.3399 114.586 13.5855 114.957 13.7513C115.327 13.917 115.73 13.9989 116.135 13.9909H116.192C117.296 13.9703 118.25 13.4764 118.601 13.2902L118.711 13.2341L119.061 11.1002L118.578 11.4454C118.172 11.7354 117.414 12.2752 116.52 12.2873C116.093 12.2939 115.756 12.1536 115.517 11.8739C115.191 11.4912 115.071 10.8607 115.189 10.146C115.454 8.5229 116.567 7.76702 117.485 7.75112C118.253 7.73895 118.701 8.14215 119.101 8.49951L119.435 8.80168L119.766 6.78381L119.635 6.70523Z" fill="#F37024"/>
<path d="M130.376 6.03516H126.8L125.534 14.0075L128.597 13.9551C129.432 13.942 130.224 13.7053 130.824 13.2927C131.13 13.0926 131.391 12.8314 131.591 12.5256C131.791 12.2197 131.926 11.8757 131.986 11.5153C132.096 10.8445 131.913 10.2617 131.482 9.91934C131.362 9.82052 131.227 9.74042 131.083 9.68173C131.136 9.6447 131.188 9.60472 131.237 9.56198C131.692 9.19619 131.997 8.67628 132.094 8.10073C132.188 7.52727 132.058 6.99872 131.73 6.61236C131.403 6.226 130.942 6.03703 130.373 6.03703M129.337 10.7145C129.657 10.7145 129.912 10.8006 130.041 10.9503C130.087 11.0097 130.12 11.0788 130.136 11.1524C130.152 11.2261 130.151 11.3025 130.134 11.3759C130.013 12.1243 129.136 12.2441 128.625 12.2515L127.639 12.2684L127.889 10.7398L129.309 10.7145H129.337ZM129.007 9.08488L128.153 9.10078L128.346 7.8996L129.626 7.87809H129.651C129.882 7.87809 130.071 7.93609 130.154 8.03619C130.186 8.08142 130.208 8.13326 130.218 8.18796C130.227 8.24265 130.225 8.29882 130.21 8.35238C130.109 8.97355 129.413 9.07739 129.008 9.08488" fill="#F37024"/>
<path d="M140.202 8.09886C140.296 7.5254 140.165 6.99685 139.836 6.61049C139.508 6.22413 139.048 6.03516 138.477 6.03516H134.905L133.64 14.0075L136.702 13.9551C137.539 13.942 138.33 13.7053 138.93 13.2927C139.236 13.0926 139.497 12.8315 139.697 12.5256C139.898 12.2197 140.032 11.8758 140.093 11.5153C140.202 10.8445 140.018 10.2617 139.587 9.91934C139.467 9.82075 139.333 9.74066 139.19 9.68173C139.243 9.6447 139.295 9.60472 139.344 9.56198C139.799 9.196 140.104 8.67623 140.202 8.10073M137.444 10.7126C137.762 10.7126 138.018 10.7987 138.146 10.9484C138.193 11.0076 138.225 11.0767 138.242 11.1504C138.258 11.2242 138.257 11.3006 138.239 11.374C138.12 12.1224 137.245 12.2422 136.733 12.2497L135.746 12.2665L135.995 10.7379L137.415 10.7126H137.444ZM137.11 9.08488L136.256 9.10078L136.452 7.8996L137.73 7.87809H137.753C137.983 7.87809 138.172 7.93609 138.257 8.03619C138.289 8.08167 138.31 8.13354 138.32 8.18817C138.329 8.24279 138.327 8.29884 138.312 8.35238C138.21 8.97355 137.516 9.07739 137.11 9.08488Z" fill="#F37024"/>
<path d="M145.583 12.4415L145.971 9.80903C146.077 9.08402 145.886 8.58259 145.403 8.31223C144.891 8.04528 144.32 7.91266 143.743 7.9268C142.76 7.9268 142.017 8.19062 141.532 8.70888C141.216 9.07011 141.002 9.50891 140.912 9.98022L140.892 10.0803H142.499L142.514 10.0317C142.564 9.84699 142.656 9.67638 142.783 9.53305C142.942 9.37308 143.191 9.2917 143.522 9.2917C143.822 9.2917 144.042 9.33192 144.177 9.41331C144.22 9.44044 144.352 9.51809 144.309 9.81557C144.284 9.98303 144.173 10.1046 143.972 10.1898C143.778 10.2553 143.577 10.298 143.373 10.317L142.856 10.3797C142.257 10.4536 141.789 10.5799 141.459 10.7539C140.85 11.0794 140.488 11.6136 140.381 12.3386C140.298 12.9065 140.416 13.3546 140.729 13.6689C141.041 13.9832 141.471 14.1366 142.009 14.1366C142.419 14.1389 142.823 14.0396 143.184 13.8476C143.422 13.7194 143.647 13.567 143.853 13.3929L143.745 13.9542H145.367L145.583 12.4415ZM144.098 11.2403L144.041 11.6332C143.964 12.1141 143.777 12.4415 143.496 12.6286C143.23 12.8026 142.92 12.8971 142.603 12.9008C142.443 12.9088 142.287 12.8556 142.166 12.7521C142.066 12.6586 142.031 12.4967 142.066 12.2694C142.078 12.147 142.121 12.0296 142.191 11.928C142.26 11.8264 142.354 11.7437 142.463 11.6875C142.683 11.5868 142.916 11.52 143.155 11.4892L143.499 11.4256C143.643 11.4018 143.785 11.3665 143.924 11.3199C143.983 11.3 144.041 11.276 144.098 11.2478" fill="#F37024"/>
<path d="M151.559 8.42043C151.211 8.09582 150.725 7.93023 150.115 7.93023C149.665 7.92031 149.223 8.04615 148.846 8.29133C148.672 8.41636 148.513 8.56142 148.374 8.72353L148.467 8.07804H146.864L146.004 13.9642H147.662L148.122 10.7957C148.156 10.499 148.247 10.2115 148.388 9.9481C148.627 9.53648 148.979 9.33816 149.465 9.33816C149.839 9.33816 150.069 9.46258 150.161 9.72171C150.216 9.87045 150.22 10.0903 150.176 10.3766L149.657 13.9614H151.354L151.93 10.0323C152.036 9.2839 151.912 8.74318 151.563 8.41576" fill="#F37024"/>
<path d="M158.293 8.09676H156.194L154.162 10.1043L154.753 6.07422H153.118L151.962 13.9661H153.598L153.862 12.125L154.481 11.5684L155.473 13.9661H157.193L155.703 10.5478L158.293 8.09676Z" fill="#F37024"/>
<path d="M123.239 7.70134C124.081 7.68731 124.642 8.07554 125.068 8.44974L125.536 8.86042L125.888 6.81356L125.58 6.61055C124.956 6.18853 124.219 5.96485 123.465 5.9688H123.395C121.741 5.99593 120.432 6.97259 120.214 8.33842C120.125 8.89223 120.235 9.37401 120.54 9.77628L120.552 9.79124C120.965 10.259 121.527 10.4611 122.297 10.6454H122.303C123.45 10.8895 123.505 11.1524 123.463 11.4209C123.377 11.9476 122.697 12.3264 122.141 12.3349C121.187 12.3489 120.43 11.724 120.083 11.39L119.783 11.086L119.435 13.1721L119.558 13.2657C120.217 13.7835 121.029 14.0666 121.867 14.0702H121.94C125.265 14.0412 125.45 11.7736 125.409 10.9541C125.408 10.7028 125.347 10.4554 125.232 10.2323C125.116 10.0092 124.949 9.81699 124.744 9.6715C124.299 9.33753 123.693 9.17288 123.161 9.05781C122.018 8.79494 122.051 8.58071 122.079 8.40858C122.133 8.07928 122.59 7.71444 123.235 7.70321" fill="#F37024"/>
<path d="M433.508 1.46817L437.801 9.99375L428.776 18.5234L433.508 1.46817Z" fill="#008C44"/>
<path d="M430.534 1.46817L434.821 9.99375L425.802 18.5234L430.534 1.46817Z" fill="#F47920"/>
<path d="M361.703 15.4219L365.983 -0.00123062H372.827C374.965 -0.00123062 376.394 0.337385 377.121 1.03517C377.843 1.72736 377.982 2.8572 377.547 4.44526C377.284 5.38075 376.884 6.16599 376.334 6.78642C375.789 7.40796 375.071 7.89944 374.186 8.26085C374.937 8.44137 375.414 8.7998 375.628 9.33725C375.841 9.8747 375.817 10.6585 375.558 11.6859L375.038 13.8402L375.036 13.8985C374.886 14.5017 374.93 14.8246 375.175 14.8508L375.017 15.4219H370.388C370.403 15.059 370.432 14.7346 370.463 14.4621C370.497 14.1833 370.538 13.9672 370.579 13.8189L371.011 12.2787C371.228 11.4777 371.242 10.919 371.04 10.5972C370.836 10.2668 370.38 10.1042 369.661 10.1042H367.715L366.231 15.4219H361.703ZM368.678 6.62869H370.762C371.492 6.62869 372.031 6.52442 372.363 6.30877C372.697 6.09124 372.944 5.72385 373.09 5.19238C373.24 4.65194 373.203 4.2752 372.987 4.06104C372.772 3.84352 372.256 3.73775 371.444 3.73775H369.48L368.678 6.62869Z" fill="#1B3281"/>
<path d="M390.253 4.03999L387.097 15.421H383.262L383.734 13.7537C383.059 14.4167 382.368 14.9202 381.672 15.242C380.981 15.5694 380.252 15.7305 379.485 15.7305C378.851 15.7305 378.306 15.6154 377.868 15.387C377.424 15.1594 377.094 14.8133 376.872 14.3569C376.674 13.9574 376.588 13.4641 376.622 12.8747C376.658 12.2946 376.862 11.3161 377.242 9.94596L378.877 4.03999H383.072L381.44 9.91831C381.202 10.7787 381.145 11.3834 381.261 11.7127C381.382 12.0449 381.705 12.2165 382.23 12.2165C382.759 12.2165 383.203 12.0251 383.57 11.6346C383.942 11.2474 384.229 10.6699 384.445 9.90149L386.064 4.03999H390.253Z" fill="#1B3281"/>
<path d="M388.731 15.4219L393.007 -0.00123062H398.889C400.187 -0.00123062 401.192 0.0753874 401.908 0.243574C402.623 0.40466 403.183 0.666284 403.6 1.03517C404.122 1.51768 404.442 2.11493 404.574 2.83141C404.697 3.54788 404.624 4.38246 404.353 5.36243C403.874 7.08654 403.034 8.40774 401.838 9.3309C400.637 10.2421 399.152 10.6999 397.38 10.6999H394.627L393.319 15.4219H388.731ZM395.669 6.9333H397.148C398.105 6.9333 398.777 6.81519 399.171 6.58721C399.552 6.35623 399.823 5.94585 399.988 5.36243C400.153 4.77116 400.111 4.3578 399.861 4.12682C399.621 3.89697 399.007 3.78073 398.024 3.78073H396.548L395.669 6.9333Z" fill="#1B3281"/>
<path d="M409.288 15.4211L409.33 14.3402C408.654 14.8466 407.969 15.2293 407.28 15.4685C406.594 15.7122 405.864 15.8359 405.082 15.8359C403.894 15.8359 403.065 15.513 402.586 14.8881C402.113 14.2621 402.035 13.3632 402.358 12.2166C402.667 11.0848 403.217 10.2518 404.01 9.71917C404.798 9.18022 406.115 8.79452 407.963 8.54784C408.197 8.50972 408.511 8.47907 408.905 8.43161C410.27 8.27351 411.037 7.90948 411.202 7.31559C411.288 6.99043 411.236 6.75049 411.034 6.60323C410.84 6.45037 410.476 6.37524 409.95 6.37524C409.514 6.37524 409.163 6.46569 408.875 6.65368C408.588 6.84355 408.373 7.12087 408.228 7.51106H404.139C404.508 6.22985 405.262 5.26185 406.395 4.61451C407.524 3.95597 409.012 3.63903 410.855 3.63903C411.722 3.63903 412.498 3.72013 413.184 3.89617C413.871 4.06473 414.373 4.30505 414.699 4.59583C415.1 4.95873 415.338 5.37247 415.405 5.82994C415.483 6.28629 415.398 6.94035 415.159 7.79623L413.4 14.1414C413.343 14.3492 413.332 14.5345 413.363 14.7031C413.4 14.8638 413.47 15.0014 413.594 15.0997L413.499 15.4211H409.288ZM410.307 10.3392C409.862 10.5182 409.283 10.6898 408.563 10.8782C407.434 11.1813 406.798 11.5857 406.66 12.0861C406.565 12.4079 406.604 12.6557 406.761 12.8441C406.916 13.0231 407.185 13.1136 407.565 13.1136C408.261 13.1136 408.82 12.9375 409.237 12.5899C409.655 12.2379 409.967 11.6851 410.186 10.9226C410.224 10.7604 410.258 10.6438 410.279 10.5567L410.307 10.3392Z" fill="#1B3281"/>
<path d="M413.531 19.9099L414.462 16.5413H415.663C416.064 16.5413 416.379 16.4621 416.602 16.3178C416.829 16.168 416.984 15.9153 417.073 15.5752C417.117 15.4253 417.144 15.2676 417.163 15.0886C417.175 14.8987 417.175 14.698 417.163 14.4655L416.522 4.0443H420.768L420.702 10.9497L424.409 4.0443H428.357L421.805 15.3704C421.061 16.6363 420.52 17.506 420.177 17.9806C419.839 18.4493 419.517 18.8137 419.205 19.0604C418.801 19.4016 418.35 19.6434 417.862 19.7843C417.374 19.9282 416.63 20 415.63 20C415.343 20 415.012 19.9944 414.654 19.9757C414.298 19.9619 413.919 19.9406 413.531 19.9099Z" fill="#1B3281"/>
</svg>
