<svg width="1440" height="160" viewBox="0 0 1440 160" fill="none" xmlns="http://www.w3.org/2000/svg">
<path d="M1431.23 88.2808L1408.59 91.9566L1381.41 84.605L1360.05 82.7672L1334.82 84.605L1292.75 69.902L1209.28 85.2177L1185.98 80.3167L1180.16 77.8661L1170.45 74.803L1162.04 76.0283C1162.04 76.0283 1134.21 72.3525 1131.63 70.5146C1129.04 68.6767 1119.33 71.7399 1119.33 71.7399L1117.39 72.0462C1104.64 69.1056 1091.31 66.8389 1077.92 65.6136L1071.44 65.001C1027.83 60.6513 1005.89 53.7286 1005.89 53.7286L988.421 46.2546C988.421 46.2546 981.562 47.9087 976.644 46.806C960.725 43.1915 951.019 40.986 951.019 40.986L918.793 38.658L908.633 41.0473L852.012 31.2453L840.04 26.8343L831.175 20.9531L811.18 22.546L803.803 26.0992C803.803 26.0992 786.46 29.8975 786.266 29.8975C763.1 29.8975 739.869 28.4884 716.508 28.4884C702.79 28.4884 678.523 30.0813 660.404 29.6524C647.074 29.3461 637.044 26.8956 637.044 26.8956L558.745 36.6976L517.653 34.921C517.653 34.921 504.905 40.6184 499.535 41.0473C484.91 42.2725 475.915 43.0077 475.915 43.0077L449.319 48.4601H437.542C373.22 59.0585 412.823 42.5176 363.707 56.4242H362.802L341.447 62.5505L209.438 65.001L190.672 68.6767L159.611 69.2894C159.611 69.2894 154.434 70.5146 143.433 76.6409C132.433 82.7672 131.786 72.9651 124.02 74.1904C116.255 75.4156 91.6651 77.8661 91.6651 77.8661L0 81.001V160.001H1440V92L1431.23 88.2808Z" fill="#FE7465"/>
<path opacity="0.25" d="M1027.44 58.873C1014.5 56.4225 1005.96 53.7269 1005.96 53.7269L996.446 49.6836L809.433 50.6025L1027.44 58.873Z" fill="#FE4731"/>
<path opacity="0.25" d="M1150.91 81.8469C1131.69 75.9656 1111.31 70.1457 1092.02 65.3672L978.781 72.4124L801.539 81.8469H1150.91Z" fill="#FE4731"/>
<path d="M496.494 70.5749C496.429 70.6362 496.3 70.6975 496.17 70.7587C493.517 71.984 488.146 75.3534 473.392 74.1894C467.762 73.7606 454.108 72.7191 450.873 71.1263C450.291 70.82 450.032 70.5749 450.226 70.2686C451.649 68.492 469.186 67.8181 472.292 68.0019C475.398 68.1244 495.07 69.1046 496.429 70.2686C496.623 70.3911 496.623 70.5137 496.494 70.5749Z" fill="#FD6F5C"/>
<path d="M496.494 70.5749L496.17 70.7587C496.17 70.7587 479.475 68.0632 470.092 68.5533C460.968 69.0434 451.261 71.0038 450.873 71.1263C450.291 70.82 450.032 70.5749 450.226 70.2686C451.649 68.492 469.186 67.8181 472.292 68.0019C475.398 68.1244 495.07 69.1046 496.429 70.2686C496.623 70.3911 496.623 70.5137 496.494 70.5749Z" fill="#FF503E"/>
<path d="M546.838 79.9474L533.378 80.4375C533.378 80.4375 524.966 81.1113 519.724 81.4177C517.524 81.5402 515.907 81.6015 515.712 81.5402C515.065 81.2951 506.329 80.0699 505.035 79.8248C505.035 79.8248 511.765 75.2914 515.518 73.2085C516.618 72.5958 517.524 72.167 517.848 72.167C519.401 72.0445 529.496 72.7184 530.855 73.1472C531.372 73.331 531.89 74.3112 532.343 75.4752C532.99 77.1905 533.378 79.2122 533.378 79.2122L546.838 79.9474Z" fill="#FD6F5C"/>
<path opacity="0.3" d="M519.66 81.4186C517.46 81.5412 515.842 81.6024 515.648 81.5412C515.001 81.2961 506.265 80.0709 504.971 79.8258C504.971 79.8258 511.701 75.2924 515.454 73.2094L517.783 72.168L516.683 76.0275L517.783 76.7627L517.266 79.2744L519.66 81.4186Z" fill="#570048"/>
<path d="M807.038 76.2101L831.952 77.9867L852.141 77.129L841.917 75.6587L853.63 74.6785H914.975L891.42 72.7794L886.697 67.6333L878.284 65.9792L874.207 65.1215L867.736 63.9575L870.648 36.1443L870.001 34.1839V15.0087L860.036 5.57422L856.8 14.5798L850.265 19.6034L844.376 44.2922C844.376 44.2922 834.993 46.4977 829.622 52.4402V65.2441L827.098 67.6946L825.416 73.0857L821.857 73.8821L807.038 76.2101Z" fill="#FD6F5C"/>
<path opacity="0.3" d="M829.557 52.4414L832.404 56.1172V59.9767L835.834 61.3245V73.6383L830.333 71.1878L829.557 65.2453V52.4414Z" fill="#570048"/>
<path opacity="0.3" d="M825.35 73.0859L829.556 76.4554L809.561 76.3941L825.35 73.0859Z" fill="#570048"/>
<path opacity="0.3" d="M844.311 44.2936L851.105 47.0504L852.982 66.2869L854.664 37.3097V22.9742L850.199 19.666L844.311 44.2936Z" fill="#570048"/>
<path opacity="0.3" d="M856.735 14.5795L858.871 15.1922L857.835 32.0394L861.071 14.5795L858.094 10.7812L856.735 14.5795Z" fill="#570048"/>
<path opacity="0.51" d="M832.404 56.1167C832.404 56.1167 835.251 56.6068 840.946 55.1365C846.64 53.6662 851.105 46.9885 851.105 46.9885L844.311 44.293C844.311 44.293 836.869 45.3344 829.557 52.4409L832.404 56.1167Z" fill="#DFDFA1"/>
<path opacity="0.51" d="M826.969 67.6966L828.522 70.4534L830.334 71.1886L829.557 65.2461L826.969 67.6966Z" fill="#DFDFA1"/>
<path opacity="0.51" d="M870.065 34.6133L867.606 37.3701L860.359 38.289L858.094 40.1269L861.07 39.1467H868.124V41.2909L870.648 36.1448L870.065 34.6133Z" fill="#DFDFA1"/>
<path opacity="0.51" d="M867.801 63.959L855.7 68.1861L866.636 69.105V69.8402H873.884H887.861L886.761 67.696L867.801 63.959Z" fill="#DFDFA1"/>
<path opacity="0.3" d="M855.7 68.1855V71.9226H856.736L856.218 74.7406L865.213 74.9244L866.636 69.8396V69.1045L855.7 68.1855Z" fill="#570048"/>
<path opacity="0.3" d="M848.452 47.1735C848.452 47.1735 847.223 51.2781 843.405 53.361C839.587 55.444 833.116 55.1377 833.116 55.1377C833.116 55.1377 831.11 54.0349 831.174 52.4421C831.239 50.8493 840.946 46.132 842.887 45.887C844.958 45.7032 848.452 47.1735 848.452 47.1735Z" fill="#570048"/>
<path d="M833.827 55.1364C833.827 55.1364 835.833 52.4408 839.91 50.4804C843.922 48.52 847.546 49.1939 847.546 49.1939C847.546 49.1939 846.834 51.3381 843.469 53.2985C840.104 55.3814 833.827 55.1364 833.827 55.1364Z" fill="#E53229"/>
<path d="M835.834 61.3242L845.994 59.5476L852.141 57.6484L852.982 66.2865L840.687 71.1875L836.546 68.1856L835.834 61.3242Z" fill="#FD6F5C"/>
<path opacity="0.16" d="M865.212 15.1947L864.371 24.4453L861.07 28.5499L858.094 31.3067L861.07 14.582L865.212 15.1947Z" fill="#DFDFA1"/>
<path d="M870.001 28.7324L867.671 29.9577L863.077 37.9218L861.071 39.1471L857.447 47.1725L856.412 47.4175L853.564 56.1168L856.735 47.6626L858.288 47.4175L861.394 39.3309L864.048 37.7993L868.124 30.2027L870.001 29.5288V28.7324Z" fill="#E53229"/>
<path d="M861.394 39.332L858.677 47.6638H858.094H856.735L858.288 47.4187L861.394 39.332Z" fill="#C64F59"/>
<path d="M868.124 30.2032L868.771 30.3257L870.001 29.9581V29.5293L868.124 30.2032Z" fill="#C64F59"/>
<path d="M867.672 39.1462L869.031 38.8398L868.125 41.2904L867.672 39.1462Z" fill="#C6685F"/>
<path d="M831.692 55.1367L832.404 57.0359L833.051 56.1782L831.692 55.1367Z" fill="#C6685F"/>
<path d="M865.795 68.9824L866.377 70.759L867.672 69.9014L866.636 69.105L865.795 68.9824Z" fill="#C6685F"/>
<path d="M848.258 57.5859L847.223 60.7103L848.258 59.1788V57.5859Z" fill="#E53229"/>
<path d="M848.258 57.5859V59.1788L847.223 60.7103L848.581 59.3626L848.258 57.5859Z" fill="#C64F59"/>
<path d="M856.217 40.4341L853.24 38.7188L854.599 40.0665L856.217 40.4341Z" fill="#E53229"/>
<path d="M856.217 40.4341L854.599 40.0665L853.24 38.7188L854.276 40.3116L856.217 40.4341Z" fill="#C64F59"/>
<path d="M929.535 74.9869L923.711 74.8031L905.009 74.2517H904.88C904.88 74.2517 905.009 74.0679 905.203 73.7003C906.304 71.8012 909.863 65.5524 911.416 65.2461C911.48 65.2461 911.545 65.2461 911.61 65.2461C913.357 65.4911 924.358 69.4732 925.134 70.2084C925.846 70.8823 929.535 74.9869 929.535 74.9869Z" fill="#FD6F5C"/>
<path opacity="0.3" d="M923.711 74.8031L904.88 74.6805C904.88 74.6805 904.945 74.4968 905.009 74.2517C905.074 74.1292 905.139 73.9454 905.203 73.7003C906.304 71.8012 909.863 65.5524 911.416 65.2461C911.48 65.2461 911.545 65.2461 911.61 65.2461L909.539 69.9021L913.81 71.2498L914.263 72.5976L923.711 74.8031Z" fill="#570048"/>
<path opacity="0.51" d="M925.069 70.1459C925.069 70.1459 924.098 70.9423 920.28 70.6972C916.462 70.5134 909.474 69.8396 909.474 69.8396L911.544 65.1836C913.292 65.4286 924.292 69.4107 925.069 70.1459Z" fill="#DFDFA1"/>
<path opacity="0.51" d="M532.342 75.4146C527.165 76.1498 516.747 75.966 516.747 75.966L517.847 72.1064C519.4 71.9839 529.495 72.6578 530.854 73.0867C531.372 73.2704 531.889 74.3119 532.342 75.4146Z" fill="#DFDFA1"/>
<path d="M261.919 97.2255L243.153 97.8993C243.153 97.8993 231.375 98.8183 224.063 99.2471C220.957 99.4309 218.692 99.4922 218.433 99.4309C217.527 99.0633 205.297 97.4092 203.55 97.0417C203.55 97.0417 212.998 90.7316 218.239 87.791C219.792 86.9333 221.022 86.3207 221.475 86.3207C223.61 86.1369 237.782 87.0558 239.658 87.7297C240.37 87.9748 241.147 89.3838 241.729 90.9767C242.635 93.3659 243.217 96.184 243.217 96.184L261.919 97.2255Z" fill="#FD6F5C"/>
<path opacity="0.3" d="M223.998 99.2467C220.891 99.4305 218.627 99.4918 218.368 99.4305C217.462 99.0629 205.232 97.4089 203.484 97.0413C203.484 97.0413 212.932 90.7312 218.174 87.7906L221.409 86.3203L219.856 91.7114L221.409 92.6916L220.633 96.1836L223.998 99.2467Z" fill="#570048"/>
<path opacity="0.51" d="M241.598 90.8517C234.415 91.8931 219.855 91.5868 219.855 91.5868L221.409 86.1957C223.544 86.0119 237.716 86.9308 239.592 87.6047C240.304 87.8498 241.016 89.2588 241.598 90.8517Z" fill="#DFDFA1"/>
<path d="M808.009 68.4319C807.945 68.5544 807.815 68.6769 807.686 68.7995C805.033 71.0662 790.667 74.3744 784.908 75.1708C779.278 75.9059 765.624 72.4752 762.389 69.4734C761.806 68.922 761.547 68.3706 761.741 67.9418C763.165 64.6949 780.702 63.4696 783.808 63.7759C786.914 64.0822 806.586 65.8589 807.945 67.9418C808.139 68.0643 808.074 68.2481 808.009 68.4319Z" fill="#FD6F5C"/>
<path d="M808.01 68.4319L807.686 68.7995C807.686 68.7995 791.638 64.8787 782.32 65.8589C773.196 66.7778 762.842 69.3508 762.454 69.4734C761.872 68.922 761.613 68.3706 761.807 67.9418C763.231 64.6949 780.767 63.4696 783.873 63.7759C786.979 64.0823 806.651 65.8589 808.01 67.9418C808.139 68.0643 808.075 68.2481 808.01 68.4319Z" fill="#FF503E"/>
<path d="M1192.39 93.3655C1192.32 93.488 1192.2 93.6105 1192.07 93.7331C1189.41 95.9998 1175.05 99.308 1169.29 100.104C1163.66 100.84 1150 97.4088 1146.77 94.407C1146.19 93.8556 1145.93 93.3042 1146.12 92.8754C1147.54 89.6285 1165.08 88.4032 1168.19 88.7095C1171.29 89.0158 1190.97 90.7925 1192.32 92.8754C1192.52 92.9979 1192.45 93.1817 1192.39 93.3655Z" fill="#FD6F5C"/>
<path d="M1192.39 93.3655L1192.07 93.7331C1192.07 93.7331 1176.02 89.8123 1166.7 90.7925C1157.57 91.7114 1147.22 94.2844 1146.83 94.407C1146.25 93.8556 1145.99 93.3042 1146.19 92.8754C1147.61 89.6285 1165.15 88.4032 1168.25 88.7095C1171.36 89.0158 1191.03 90.7925 1192.39 92.8754C1192.52 92.9979 1192.45 93.1817 1192.39 93.3655Z" fill="#FF503E"/>
<path d="M206.85 86.6253C206.785 86.7478 206.656 86.8703 206.527 86.9928C203.874 89.2596 189.508 92.5677 183.749 93.3641C178.119 94.0993 164.465 90.6686 161.229 87.6667C160.647 87.1154 160.388 86.564 160.582 86.1352C162.006 82.8882 179.542 81.663 182.649 81.9693C185.755 82.2756 205.427 84.0522 206.785 86.1352C206.98 86.2577 206.915 86.4415 206.85 86.6253Z" fill="#FD6F5C"/>
<path d="M206.851 86.6253L206.527 86.9928C206.527 86.9928 190.479 83.072 181.161 84.0522C172.037 84.9712 161.683 87.5442 161.295 87.6667C160.712 87.1154 160.454 86.564 160.648 86.1352C162.071 82.8882 179.608 81.663 182.714 81.9693C185.82 82.2756 205.492 84.0522 206.851 86.1352C206.98 86.2577 206.916 86.4415 206.851 86.6253Z" fill="#FF503E"/>
<path d="M964.997 66.3467C964.997 66.408 964.932 66.408 964.932 66.4692C964.738 66.7143 964.35 66.9593 963.961 67.2044C960.985 68.8585 953.284 70.0837 951.796 70.3288C947.395 71.0639 939.695 69.1035 937.171 67.572C936.33 67.0819 936.071 66.5918 936.589 66.3467C938.66 65.1214 966.226 64.2638 964.997 66.3467Z" fill="#FD6F5C"/>
<path d="M964.997 66.3467C964.997 66.408 964.932 66.408 964.932 66.4692L963.961 67.2044C963.961 67.2044 962.15 65.7953 961.567 65.7953C960.985 65.7953 949.596 65.1214 945.39 65.7953C941.183 66.4692 937.171 67.572 937.171 67.572H937.107C936.265 67.0819 936.007 66.5918 936.524 66.3467C938.66 65.1214 966.226 64.2638 964.997 66.3467Z" fill="#FF503E"/>
<path d="M730.68 51.7672L730.616 51.8284C730.421 51.951 730.033 52.0735 729.645 52.196C726.668 52.9924 718.968 53.6051 717.479 53.7276C713.079 54.0952 705.378 53.115 702.855 52.3798C702.013 52.1348 701.755 51.8897 702.272 51.7672C704.408 51.1545 731.974 50.787 730.68 51.7672Z" fill="#FD6F5C"/>
<path d="M730.68 51.7672L730.616 51.8284L729.645 52.196C729.645 52.196 727.833 51.5221 727.251 51.5221C726.668 51.5221 715.279 51.2158 711.073 51.5221C706.867 51.8284 702.855 52.3798 702.855 52.3798H702.79C701.949 52.1348 701.69 51.8897 702.208 51.7672C704.408 51.1545 731.975 50.787 730.68 51.7672Z" fill="#FF503E"/>
<path d="M977.55 63.5913C976.644 63.9589 974.767 64.2039 974.056 64.1427C973.409 64.1427 971.597 63.8976 970.561 63.5301H970.497C969.85 63.285 969.591 63.04 970.173 62.7337C971.144 62.2436 976.903 62.3048 977.809 62.9787C978.132 63.2238 977.938 63.4075 977.55 63.5913Z" fill="#FD6F5C"/>
<path d="M977.55 63.5913C976.903 63.4688 976.256 63.3463 975.479 63.285C973.214 63.1012 970.561 63.5301 970.561 63.5301H970.497C969.85 63.285 969.591 63.04 970.173 62.7337C971.144 62.2436 976.903 62.3048 977.809 62.9787C978.132 63.2238 977.938 63.4075 977.55 63.5913Z" fill="#FF503E"/>
<path d="M629.214 40.4956C628.308 40.8632 626.432 41.1083 625.72 41.047C625.073 41.047 623.261 40.8019 622.225 40.4344H622.161C621.514 40.1893 621.255 39.9443 621.837 39.638C622.808 39.1479 628.567 39.2091 629.473 39.883C629.861 40.1281 629.667 40.3118 629.214 40.4956Z" fill="#FD6F5C"/>
<path d="M629.214 40.4956C628.567 40.3731 627.92 40.2506 627.143 40.1893C624.879 40.0055 622.225 40.4344 622.225 40.4344H622.161C621.514 40.1893 621.255 39.9443 621.837 39.638C622.808 39.1479 628.567 39.2091 629.473 39.883C629.861 40.1281 629.667 40.3118 629.214 40.4956Z" fill="#FF503E"/>
<path d="M673.67 42.7007C672.764 43.0683 670.888 43.3133 670.176 43.2521C669.529 43.2521 667.717 43.007 666.682 42.6394H666.617C665.97 42.3944 665.711 42.1493 666.293 41.843C667.264 41.3529 673.023 41.4142 673.929 42.0881C674.253 42.3331 674.058 42.5169 673.67 42.7007Z" fill="#FD6F5C"/>
<path d="M673.67 42.7007C673.023 42.5782 672.376 42.4557 671.599 42.3944C669.335 42.2106 666.682 42.6394 666.682 42.6394H666.617C665.97 42.3944 665.711 42.1493 666.293 41.843C667.264 41.3529 673.023 41.4142 673.929 42.0881C674.253 42.3331 674.058 42.5169 673.67 42.7007Z" fill="#FF503E"/>
<path d="M554.733 88.8307C552.145 89.8722 546.515 90.5461 544.444 90.5461C542.568 90.5461 537.197 89.7497 534.22 88.7082L534.091 88.6469C532.279 87.973 531.438 87.1154 533.12 86.3189C535.903 84.9099 552.792 85.0937 555.574 87.1154C556.48 87.728 555.963 88.2794 554.733 88.8307Z" fill="#FD6F5C"/>
<path d="M554.733 88.8307C552.921 88.4631 550.851 88.0956 548.715 87.973C541.985 87.4217 534.22 88.7082 534.22 88.7082L534.091 88.6469C532.279 87.973 531.438 87.1154 533.12 86.3189C535.903 84.9099 552.792 85.0937 555.574 87.1154C556.48 87.728 555.963 88.2793 554.733 88.8307Z" fill="#FF503E"/>
<path d="M298.416 89.7496L298.351 89.8109C298.157 89.9334 297.768 90.0559 297.38 90.1784C294.404 90.9748 286.703 91.5875 285.215 91.71C280.814 92.0776 273.114 91.0974 270.59 90.3622C269.749 90.1172 269.49 89.8721 270.008 89.7496C272.143 89.137 299.71 88.7694 298.416 89.7496Z" fill="#FD6F5C"/>
<path d="M298.415 89.7496L298.35 89.8109L297.379 90.1784C297.379 90.1784 295.568 89.5045 294.985 89.5045C294.403 89.5045 283.014 89.1982 278.808 89.5045C274.601 89.8109 270.589 90.3622 270.589 90.3622H270.525C269.683 90.1172 269.425 89.8721 269.942 89.7496C272.142 89.137 299.709 88.7694 298.415 89.7496Z" fill="#FF503E"/>
<path d="M196.949 78.4781C196.043 78.8456 194.166 79.0907 193.454 79.0294C192.807 79.0294 190.995 78.7844 189.96 78.4168H189.895C189.248 78.1717 188.989 77.9267 189.572 77.6204C190.542 77.1303 196.301 77.1915 197.207 77.8654C197.596 78.1105 197.401 78.2943 196.949 78.4781Z" fill="#FD6F5C"/>
<path d="M196.949 78.4781C196.301 78.3555 195.654 78.233 194.878 78.1717C192.613 77.9879 189.96 78.4168 189.96 78.4168H189.895C189.248 78.1717 188.989 77.9267 189.572 77.6204C190.542 77.1303 196.301 77.1915 197.207 77.8654C197.596 78.1105 197.401 78.2943 196.949 78.4781Z" fill="#FF503E"/>
<path d="M241.406 80.6831C240.5 81.0507 238.623 81.2958 237.911 81.2345C237.264 81.2345 235.452 80.9895 234.417 80.6219H234.352C233.705 80.3768 233.446 80.1318 234.029 79.8255C234.999 79.3354 240.758 79.3966 241.664 80.0705C241.988 80.3156 241.794 80.4993 241.406 80.6831Z" fill="#FD6F5C"/>
<path d="M241.406 80.6831C240.758 80.5606 240.111 80.4381 239.335 80.3768C237.07 80.193 234.417 80.6219 234.417 80.6219H234.352C233.705 80.3768 233.446 80.1318 234.029 79.8255C234.999 79.3354 240.758 79.3966 241.664 80.0705C241.988 80.3156 241.794 80.4993 241.406 80.6831Z" fill="#FF503E"/>
<path d="M122.468 126.813C119.879 127.855 114.249 128.529 112.179 128.529C110.302 128.529 104.931 127.732 101.954 126.691L101.825 126.629C100.013 125.955 99.1719 125.098 100.854 124.301C103.637 122.892 120.526 123.076 123.309 125.098C124.215 125.71 123.697 126.262 122.468 126.813Z" fill="#FD6F5C"/>
<path d="M122.468 126.813C120.656 126.446 118.585 126.078 116.45 125.955C109.72 125.404 101.954 126.691 101.954 126.691L101.825 126.629C100.013 125.955 99.1719 125.098 100.854 124.301C103.637 122.892 120.526 123.076 123.309 125.098C124.215 125.71 123.697 126.262 122.468 126.813Z" fill="#FF503E"/>
<path d="M696.578 54.5842C695.672 55.1355 693.796 55.5031 693.084 55.5031C692.437 55.5031 690.625 55.0743 689.59 54.5229H689.525C688.878 54.1553 688.619 53.7265 689.201 53.2977C690.172 52.5625 695.931 52.6238 696.837 53.7265C697.225 54.0328 697.031 54.3391 696.578 54.5842Z" fill="#FD6F5C"/>
<path d="M696.578 54.5849C695.931 54.4011 695.284 54.2173 694.508 54.0948C692.243 53.7885 689.59 54.4624 689.59 54.4624H689.525C688.878 54.0948 688.619 53.666 689.201 53.2371C690.172 52.502 695.931 52.5632 696.837 53.6659C697.225 54.0335 697.031 54.3398 696.578 54.5849Z" fill="#FF503E"/>
<path d="M1326.66 106.904L1326.6 106.965C1326.41 107.088 1326.02 107.21 1325.63 107.333C1322.65 108.129 1314.95 108.742 1313.46 108.864C1309.06 109.232 1301.36 108.252 1298.84 107.517C1298 107.271 1297.74 107.026 1298.26 106.904C1300.39 106.291 1327.96 105.924 1326.66 106.904Z" fill="#FD6F5C"/>
<path d="M1326.66 106.904L1326.6 106.965L1325.63 107.333C1325.63 107.333 1323.82 106.659 1323.23 106.659C1322.65 106.659 1311.26 106.353 1307.06 106.659C1302.85 106.965 1298.84 107.517 1298.84 107.517H1298.77C1297.93 107.271 1297.67 107.026 1298.19 106.904C1300.39 106.291 1327.96 105.924 1326.66 106.904Z" fill="#FF503E"/>
<path d="M1225.2 95.6323C1224.29 95.9999 1222.41 96.245 1221.7 96.1837C1221.06 96.1837 1219.24 95.9387 1218.21 95.5711H1218.14C1217.5 95.326 1217.24 95.081 1217.82 94.7747C1218.79 94.2846 1224.55 94.3458 1225.46 95.0197C1225.84 95.2648 1225.65 95.4486 1225.2 95.6323Z" fill="#FD6F5C"/>
<path d="M1225.2 95.6324C1224.55 95.5098 1223.9 95.3873 1223.13 95.326C1220.86 95.1423 1218.21 95.5711 1218.21 95.5711H1218.14C1217.5 95.326 1217.24 95.081 1217.82 94.7747C1218.79 94.2846 1224.55 94.3458 1225.46 95.0197C1225.84 95.2648 1225.65 95.4486 1225.2 95.6324Z" fill="#FF503E"/>
<path d="M1269.65 97.8355C1268.75 98.203 1266.87 98.4481 1266.16 98.3868C1265.51 98.3868 1263.7 98.1418 1262.66 97.7742H1262.6C1261.95 97.5292 1261.69 97.2841 1262.28 96.9778C1263.25 96.4877 1269.01 96.549 1269.91 97.2228C1270.24 97.4679 1270.04 97.6517 1269.65 97.8355Z" fill="#FD6F5C"/>
<path d="M1269.65 97.8355C1269.01 97.7129 1268.36 97.5904 1267.58 97.5292C1265.32 97.3454 1262.66 97.7742 1262.66 97.7742H1262.6C1261.95 97.5292 1261.69 97.2841 1262.28 96.9778C1263.25 96.4877 1269.01 96.549 1269.91 97.2228C1270.24 97.4679 1270.04 97.6517 1269.65 97.8355Z" fill="#FF503E"/>
<path d="M1150.71 143.967C1148.13 145.009 1142.5 145.683 1140.43 145.683C1138.55 145.683 1133.18 144.886 1130.2 143.845L1130.07 143.784C1128.26 143.11 1127.42 142.252 1129.1 141.456C1131.88 140.047 1148.77 140.23 1151.56 142.252C1152.46 142.865 1151.94 143.416 1150.71 143.967Z" fill="#FD6F5C"/>
<path d="M1150.71 143.967C1148.9 143.6 1146.83 143.232 1144.7 143.11C1137.97 142.558 1130.2 143.845 1130.2 143.845L1130.07 143.784C1128.26 143.11 1127.42 142.252 1129.1 141.456C1131.88 140.047 1148.77 140.23 1151.56 142.252C1152.46 142.865 1151.94 143.416 1150.71 143.967Z" fill="#FF503E"/>
<path d="M1292.56 109.721C1291.65 110.272 1289.78 110.64 1289.07 110.64C1288.42 110.64 1286.61 110.211 1285.57 109.66H1285.51C1284.86 109.292 1284.6 108.863 1285.18 108.434C1286.15 107.699 1291.91 107.76 1292.82 108.863C1293.21 109.17 1293.01 109.476 1292.56 109.721Z" fill="#FD6F5C"/>
<path d="M1292.56 109.722C1291.91 109.538 1291.27 109.354 1290.49 109.232C1288.23 108.925 1285.57 109.599 1285.57 109.599H1285.51C1284.86 109.232 1284.6 108.803 1285.18 108.374C1286.15 107.639 1291.91 107.7 1292.82 108.803C1293.21 109.17 1293.01 109.477 1292.56 109.722Z" fill="#FF503E"/>
<path d="M517.654 34.9805L518.949 39.0238L546.515 40.7392L548.327 37.7373L558.745 36.6958L575.958 39.0238L609.414 37.7373L577.77 36.8796L571.817 35.103L558.745 36.4508L517.654 34.9805Z" fill="#FF9B99"/>
<path d="M637.109 26.957L621.644 28.7949L628.826 30.449L637.886 34.7374L635.621 28.7337L637.109 26.957Z" fill="#FF9B99"/>
<path d="M803.867 26.1602L813.379 27.4467L809.302 27.8755L803.414 30.8774L799.078 27.2016L803.867 26.1602Z" fill="#FF9B99"/>
<path d="M908.634 41.1693L911.934 42.8846L932.771 44.1711L938.595 42.4558L931.541 39.699L918.793 38.7188L908.634 41.1693Z" fill="#FF9B99"/>
<path d="M951.019 41.0469L968.943 47.602L978.456 48.4597L982.533 47.2344C982.533 47.2344 979.362 47.1731 977.55 46.7443C975.738 46.3155 951.019 41.0469 951.019 41.0469Z" fill="#FF9B99"/>
<path d="M500.894 40.7402L475.98 42.8844L453.396 51.4612L475.074 46.3151L492.74 48.4593L500.894 40.7402Z" fill="#FF9B99"/>
<path d="M438.19 48.6426L416.059 52.931L428.224 53.7886L438.19 48.6426Z" fill="#FF9B99"/>
<path d="M964.544 59.181L992.564 57.8945C992.564 57.8945 1007.06 58.3234 1015.15 58.7522L998.84 63.4694L1001.11 60.4676L964.544 59.181Z" fill="#FF9B99"/>
<path opacity="0.25" d="M298.609 90.852H857.642L680.4 81.4176L483.357 69.165L423.824 67.0208L442.266 64.2028L495.846 60.0369H508.724L523.672 59.6081L575.44 66.7758L849.812 59.6081L422.982 57.5251L423.306 57.3413L488.404 56.2386L583.852 48.7646L457.991 46.6816L449.319 48.4583H437.542L435.989 48.8871C429.195 49.7448 408.681 52.1953 407.258 52.1953C405.511 52.134 397.939 52.5016 395.933 51.3989C393.927 50.2961 385.903 50.2349 376.326 53.298C366.749 56.4224 362.866 56.4224 362.866 56.4224L341.512 62.5487L292.85 63.4064C292.85 63.4064 345.395 65.6118 355.101 63.7739C355.101 63.7739 346.042 68.6749 333.1 70.5128C320.158 72.3507 200.443 82.7654 200.443 82.7654L303.98 81.5401L262.565 91.3421L298.609 90.852Z" fill="#FE4731"/>
<path opacity="0.25" d="M404.54 75.5384H406.87L411.529 77.1312L418.776 78.2952L427.642 76.8862L470.933 78.479L384.027 81.5421L345.977 79.5205L347.207 78.2952L339.183 77.0087L349.73 71.25L354.584 72.7816L404.54 75.5384Z" fill="#FE7C6C"/>
<path opacity="0.3" d="M388.039 79.518L380.662 79.8243L384.027 81.5397L345.977 79.518L347.207 78.2928L339.183 77.0062L352.578 74.8008L361.896 78.354L382.539 77.8639L388.039 79.518Z" fill="#570048"/>
<path d="M394.704 77.3135C394.704 77.3135 365.39 78.6613 362.737 78.4775C360.084 78.2324 352.578 74.8017 352.578 74.8017L347.271 26.4655L349.925 24.5051V8.33172L349.989 8.2092C350.378 7.65783 352.966 4.28839 356.654 0L360.278 6.49384L360.861 6.61637C362.802 7.10647 369.273 8.82182 374.838 11.4561C374.968 11.5174 375.097 11.5786 375.291 11.6399L379.303 34.1846L379.885 34.8585L381.827 48.3362L383.509 48.5813L394.704 77.3135Z" fill="#FD6F5C"/>
<path opacity="0.3" d="M347.206 26.4648L349.859 29.8343L351.477 30.4469L350.83 31.6722L353.483 32.4073L355.748 63.4675L356.46 63.8963V66.8982L358.53 68.4298L361.895 78.3543L352.577 74.8011L347.206 26.4648Z" fill="#570048"/>
<path opacity="0.3" d="M367.461 45.3955V48.2749L369.467 50.8479L372.443 78.2936L370.955 77.1296L365.778 56.3003L364.549 55.4426L363.384 36.4512L365.066 41.3522L367.461 45.3955Z" fill="#570048"/>
<path opacity="0.51" d="M349.859 24.5039L347.206 26.4643L349.859 29.8338L351.477 30.4464L350.83 31.6716L353.483 32.4068L365.907 31.6716L357.43 29.5274L349.859 24.5039Z" fill="#DFDFA1"/>
<path opacity="0.51" d="M367.461 45.3948C367.461 45.3948 369.855 47.1102 370.955 47.1102C372.055 47.1102 377.62 46.2525 378.461 45.3948C379.303 44.5371 373.608 40.8001 370.955 39.2685C368.302 37.737 363.384 36.5117 363.384 36.5117L364.354 39.2685L365.131 41.4127L367.461 45.3948Z" fill="#DFDFA1"/>
<path opacity="0.51" d="M381.826 48.3984L380.985 50.4814L379.044 52.8093L381.762 52.0742L383.509 48.7048L381.826 48.3984Z" fill="#DFDFA1"/>
<path opacity="0.3" d="M364.872 38.0443C364.872 38.0443 366.425 42.0263 367.266 43.9255C368.108 45.8246 369.919 46.3147 371.408 46.4373C372.896 46.5598 376.585 45.9471 377.102 44.9669C377.62 43.9255 369.402 37.7992 364.872 38.0443Z" fill="#570048"/>
<path d="M366.102 41.1074C366.102 41.1074 369.337 41.9038 370.955 43.0066C372.508 44.1093 374.061 46.1922 374.061 46.1922C374.061 46.1922 370.696 46.8661 368.819 45.6409C366.878 44.4156 366.102 41.1074 366.102 41.1074Z" fill="#E53229"/>
<path opacity="0.16" d="M378.397 45.3945L379.885 62.4256L379.174 65.3662L379.044 73.0853L372.444 77.0673L369.467 50.8469L367.461 48.2739V45.3945C367.461 45.3945 370.114 47.0486 370.955 47.1099C371.797 47.2324 376.585 46.8648 378.397 45.3945Z" fill="#DFDFA1"/>
<path opacity="0.16" d="M358.53 68.4304L367.719 64.0195L370.955 77.1297H361.895L358.53 68.4304Z" fill="#DFDFA1"/>
<path opacity="0.16" d="M381.762 52.0726L387.845 66.8981L388.556 66.1017L389.98 68.9198L392.051 70.5739L383.509 48.7031L381.762 52.0726Z" fill="#DFDFA1"/>
<path opacity="0.16" d="M382.538 77.8645V61.201C382.538 61.201 394.898 59.4856 400.786 66.8984L402.21 71.4319L403.569 71.8607L405.316 78.232C405.316 78.232 390.821 79.6411 388.556 79.4573C386.291 79.2122 382.538 77.8645 382.538 77.8645Z" fill="#DFDFA1"/>
<path opacity="0.3" d="M399.686 67.6963C399.621 67.8801 399.233 68.1251 398.715 68.3702C397.421 68.9828 394.897 69.5954 392.05 68.8603C390.044 68.3702 387.456 66.6548 385.644 65.062C383.832 63.5304 382.732 62.1214 383.508 61.9988C394.897 60.9574 400.009 67.0224 399.686 67.6963Z" fill="#570048"/>
<path d="M398.715 68.3686C397.421 68.9812 394.897 69.5938 392.05 68.8587C390.044 68.3686 387.455 66.6532 385.644 65.0604C385.644 65.0604 391.209 64.8153 394.638 66.1631C396.58 66.8983 397.939 67.756 398.715 68.3686Z" fill="#E53229"/>
<path opacity="0.3" d="M382.538 61.2012V77.8646L388.038 79.5187V76.1493L387.327 75.843L386.938 70.268L386.227 68.4302L384.544 65.122C384.479 65.0607 383.315 64.6931 382.538 61.2012Z" fill="#570048"/>
<path opacity="0.51" d="M403.569 71.9237L398.715 74.1292H393.409L398.457 73.0264L402.21 71.4336L403.569 71.9237Z" fill="#DFDFA1"/>
<path d="M352.254 32.1016L353.548 33.8782L354.195 32.4079L352.254 32.1016Z" fill="#C6685F"/>
<path d="M367.201 44.9668L367.46 46.4371L367.719 45.7019L367.201 44.9668Z" fill="#C6685F"/>
<path d="M380.662 52.3805L382.215 53.1157L381.762 52.0742L380.662 52.3805Z" fill="#C6685F"/>
<path d="M399.686 74.8633L395.092 76.1498H398.716L399.686 74.8633Z" fill="#E53229"/>
<path d="M373.221 62.4258L374.45 64.3862L373.221 63.1609V62.4258Z" fill="#E53229"/>
<path d="M360.602 52.8086L359.566 56.0555L360.602 54.4627V52.8086Z" fill="#E53229"/>
<path d="M395.092 76.1498L398.522 75.8435L399.686 74.8633L398.716 76.1498H395.092Z" fill="#C64F59"/>
<path d="M373.221 62.4258L373.544 63.3447L374.45 64.3862L373.221 63.2835V62.4258Z" fill="#C64F59"/>
<path d="M360.602 52.8086V54.4627L359.566 56.0555L360.99 54.7077L360.602 52.8086Z" fill="#C64F59"/>
<path opacity="0.16" d="M367.721 11.5176L365.909 14.1519L364.55 25.6693L374.58 32.2856H375.874L379.239 33.8785L375.292 11.7014L367.721 11.5176Z" fill="#DFDFA1"/>
<path d="M379.044 32.4073L378.526 33.51L375.873 32.2848L374.514 32.101L365.714 26.4648L374.514 32.4073L375.873 32.7136L379.303 34.2452L379.044 32.4073Z" fill="#E53229"/>
<path d="M374.514 32.4082L375.873 32.9596L378.526 34.4911L379.885 34.9812L379.302 34.2461L375.873 32.7145L374.514 32.4082Z" fill="#C64F59"/>
<path d="M351.478 30.4473L359.631 32.0401L359.566 35.7159L358.531 36.0834L355.813 47.6621L358.79 36.2672L359.955 35.8384L359.825 32.4077L360.213 32.0401L351.478 30.4473Z" fill="#E53229"/>
<path opacity="0.16" d="M354.195 32.4066L353.548 33.8769L354.713 49.1926L355.813 48.1511L358.531 36.0824L359.566 35.7148L359.631 32.0391L354.195 32.4066Z" fill="#DFDFA1"/>
<path d="M359.954 35.8398L359.695 36.2687L359.048 36.4525L358.466 37.3714L358.789 36.2687L359.954 35.8398Z" fill="#C64F59"/>
<path opacity="0.51" d="M1064.46 94.0391L1047.31 100.043L1062.9 101.268V102.432H1073.13H1093.06L1091.44 99.3077L1064.46 94.0391Z" fill="#DFDFA1"/>
<path opacity="0.3" d="M1047.31 100.043V105.312H1048.73L1048.02 109.294L1060.83 109.6L1062.9 102.432V101.268L1047.31 100.043Z" fill="#570048"/>
<path d="M1152.33 109.723L1144.05 109.478L1117.45 108.682H1117.26C1117.26 108.682 1117.39 108.375 1117.65 107.885C1119.2 105.128 1124.25 96.2452 1126.51 95.8164C1126.58 95.8164 1126.71 95.8164 1126.77 95.8164C1129.23 96.1227 1144.89 101.82 1146.06 102.862C1147.16 103.842 1152.33 109.723 1152.33 109.723Z" fill="#FD6F5C"/>
<path opacity="0.3" d="M1144.05 109.477L1117.26 109.293C1117.26 109.293 1117.32 109.048 1117.45 108.619C1117.52 108.374 1117.58 108.129 1117.71 107.823C1119.27 105.066 1124.31 96.1827 1126.58 95.7539C1126.64 95.7539 1126.77 95.7539 1126.84 95.7539L1123.92 102.37L1130.01 104.269L1130.65 106.23L1144.05 109.477Z" fill="#570048"/>
<path opacity="0.51" d="M1145.99 102.862C1145.99 102.862 1144.63 103.964 1139.13 103.658C1133.7 103.352 1123.79 102.433 1123.79 102.433L1126.71 95.8164C1129.23 96.1227 1144.89 101.82 1145.99 102.862Z" fill="#DFDFA1"/>
<path d="M1114.48 109.539H1060.83L1062.9 102.433H1093.06L1091.44 99.3086L1098.95 104.7L1117.45 108.682L1114.48 109.539Z" fill="#FD6F5C"/>
<path d="M299.838 100.103L306.115 71.6157C306.115 71.6157 314.915 69.8391 320.092 70.268C325.334 70.6968 329.864 76.4555 330.575 77.5582C331.287 78.6609 330.575 93.0577 330.575 93.0577H332.258L333.746 99.0614C333.746 99.0614 322.034 101.451 319.122 101.634C316.21 101.757 299.838 100.103 299.838 100.103Z" fill="#FD6F5C"/>
<path opacity="0.51" d="M306.051 71.616C306.051 71.616 307.604 73.7602 309.61 75.353C311.681 76.9459 322.94 79.5189 325.529 79.3351C328.182 79.1513 330.511 77.5585 330.511 77.5585C330.511 77.5585 327.082 72.1061 321.905 70.6358C316.857 69.1655 306.051 71.616 306.051 71.616Z" fill="#F1F1A8"/>
<path opacity="0.3" d="M308.509 72.3518C308.509 72.3518 316.727 70.2076 321.257 71.4329C325.722 72.6581 329.151 77.1303 329.151 77.4979C329.151 77.9267 323.069 78.7844 319.51 77.9267C315.95 77.069 310.385 74.9861 309.997 74.8023C309.674 74.5572 308.509 72.3518 308.509 72.3518Z" fill="#570048"/>
<path d="M311.033 75.168C311.033 75.168 315.886 75.168 318.281 75.2905C320.675 75.4743 327.017 77.9861 327.017 77.9861C327.017 77.9861 323.328 78.7212 320.093 77.9861C316.857 77.3122 311.033 75.168 311.033 75.168Z" fill="#E53229"/>
<path opacity="0.3" d="M306.05 71.6152L299.838 100.102L311.033 101.144L312.392 90.3616L311.033 89.0138V83.3164L309.674 75.3523L306.05 71.6152Z" fill="#690058"/>
<path opacity="0.2" d="M327.081 100.288L333.682 96.3672L335.17 98.3276L362.995 96.3672L377.232 98.3276L333.682 99.0015L327.081 100.288Z" fill="#690058"/>
<path opacity="0.2" d="M318.28 89.9336L321.71 93.2418H320.027L318.28 89.9336Z" fill="#690058"/>
<path d="M318.28 89.9336L318.863 93.2418H321.71L319.704 92.3841L318.28 89.9336Z" fill="#D45B51"/>
<path d="M322.616 79.0275C322.616 79.0275 325.269 80.4366 325.593 80.1915C325.981 79.9465 327.728 78.8438 327.728 78.8438C327.728 78.8438 326.046 79.3339 325.593 79.2726C325.075 79.2726 322.616 79.0275 322.616 79.0275Z" fill="#DF8B83"/>
<path opacity="0.15" d="M306.244 98.6938C306.18 98.4487 306.115 98.1424 306.05 97.8974C305.985 97.5911 305.985 97.2847 305.985 96.9784C305.921 94.6504 305.791 92.3837 305.727 90.0557C305.727 91.281 305.727 92.5062 306.18 93.6702C306.309 93.9766 306.438 94.2829 306.503 94.6504C306.503 94.8342 306.438 95.0793 306.438 95.2631C306.438 95.6919 306.632 96.1207 306.956 96.4271C307.28 96.1207 307.28 95.6306 307.28 95.2018C307.344 91.9549 307.668 88.7692 307.991 85.5223C308.121 84.4196 308.186 83.3781 308.315 82.2754C308.315 83.3781 308.25 84.4808 308.25 85.5223C308.25 85.6448 308.25 85.8286 308.186 85.9512C308.121 86.0124 308.121 86.1349 308.056 86.1962C307.991 86.3187 308.056 86.4413 308.056 86.5638C308.186 87.2989 308.25 88.0953 308.38 88.8305C308.444 89.2593 308.509 89.8107 308.121 90.117C308.056 90.1783 307.991 90.2395 307.927 90.3008C307.862 90.4233 307.927 90.5458 307.991 90.6684C308.25 91.281 308.056 91.8936 307.927 92.5675C307.797 93.1801 307.862 93.854 307.862 94.5279C307.862 95.1405 307.927 95.7532 307.927 96.3658C307.927 96.6109 307.927 96.7946 308.056 96.9784C308.25 97.2235 308.703 97.346 308.768 97.6523C308.768 97.7748 308.768 97.8974 308.703 98.0199C308.574 98.6938 308.768 99.3677 309.027 100.042C309.156 100.348 309.221 100.654 309.35 101.022C309.286 100.899 308.121 100.838 307.991 100.838C307.538 100.777 307.021 100.899 306.632 100.838C306.18 100.777 306.309 100.532 306.309 100.042C306.374 99.6127 306.309 99.1226 306.244 98.6938Z" fill="#690058"/>
<path opacity="0.15" d="M301.974 99.1231C302.232 99.0618 302.297 98.8167 302.297 98.5717C302.362 97.1014 302.362 95.6311 302.362 94.1608C302.362 93.9157 302.362 93.6707 302.491 93.4869C302.621 93.3031 302.944 93.1806 303.138 93.3644C303.138 94.4058 303.203 95.5086 303.203 96.55C303.074 96.4888 302.88 96.6113 302.815 96.7338C302.75 96.8563 302.75 97.0401 302.75 97.1626C302.815 98.2654 302.944 99.3068 302.944 100.41C302.685 100.226 302.362 100.287 302.168 100.103C301.974 99.9195 302.038 99.3681 301.974 99.1231Z" fill="#690058"/>
<path opacity="0.15" d="M303.851 88.2793C303.851 88.0955 303.915 87.8504 303.98 87.6666C304.045 87.4828 304.174 87.3603 304.304 87.1765C305.533 85.3386 305.145 82.9494 305.986 80.9277C305.921 83.317 305.727 85.645 305.274 87.9729C304.951 88.0955 304.562 88.218 304.239 88.3405C304.239 89.4432 304.239 90.4847 304.174 91.5874C303.721 91.71 303.527 92.0775 303.398 92.4451C303.333 91.7712 303.527 91.0361 303.656 90.3622C303.656 89.627 303.786 88.9531 303.851 88.2793Z" fill="#690058"/>
<path opacity="0.15" d="M306.05 80.499C306.05 80.1927 306.05 79.8864 306.115 79.5801C306.179 79.5801 306.244 79.5801 306.373 79.5801C306.309 79.8864 306.309 80.254 306.309 80.5603C306.244 80.499 306.179 80.4378 306.05 80.499Z" fill="#690058"/>
<path opacity="0.15" d="M311.745 87.3605C311.81 87.3605 311.875 87.4218 311.939 87.4218C312.004 87.8506 312.133 88.3407 312.198 88.7696C312.198 88.5245 312.392 88.3407 312.457 88.0957C312.522 87.8506 312.522 87.6056 312.457 87.3605C312.392 87.1155 312.392 86.3191 312.004 86.2578C311.745 86.2578 311.745 87.1155 311.745 87.3605Z" fill="#690058"/>
<path opacity="0.15" d="M313.621 96.488C313.815 96.488 313.945 96.488 314.074 96.5493C314.203 97.3457 314.268 98.1421 314.398 98.9385C314.527 98.8772 314.592 98.816 314.721 98.816C314.915 99.6124 315.109 100.409 315.304 101.205C315.304 101.266 315.304 101.328 315.368 101.389C315.433 101.389 315.433 101.45 315.498 101.45C316.921 101.695 318.474 101.94 319.833 101.45C319.898 100.654 319.833 99.7962 319.704 98.9998C319.51 99.1223 319.316 99.1223 319.121 99.1223C318.992 99.6737 318.927 100.286 318.992 100.838C318.345 100.286 317.31 100.102 316.533 100.409C316.145 100.102 315.886 99.6737 315.757 99.1836C315.692 98.8772 315.692 98.5097 315.627 98.1421C315.562 97.7132 315.368 97.2844 315.174 96.9168C315.045 97.1006 314.851 97.2231 314.656 97.2231C314.656 96.5493 314.398 95.8754 313.815 95.4465C314.074 94.7114 314.203 93.9762 314.074 93.1798C314.009 92.751 313.945 92.2609 313.815 91.832C313.427 92.2609 313.686 96.488 313.621 96.488Z" fill="#690058"/>
<path opacity="0.51" d="M325.14 100.653V90.545L326.175 88.7684L325.593 80.2529L327.728 78.8439L330.511 77.4961V92.9955L329.152 94.4046L325.14 100.653Z" fill="#F1F1A8"/>
<path d="M324.945 92.078C325.139 91.4654 325.786 90.3014 325.333 89.75C325.01 90.0563 324.751 90.4851 324.686 90.914C324.621 91.2816 325.01 91.8942 324.945 92.078Z" fill="#DF8B83"/>
<path d="M1397.71 103.779L1391.44 75.2915C1391.44 75.2915 1382.64 73.5149 1377.46 73.9437C1372.22 74.3726 1367.69 80.1313 1366.98 81.234C1366.26 82.3367 1366.98 96.7334 1366.98 96.7334H1365.29L1363.81 102.737C1363.81 102.737 1375.52 105.126 1378.43 105.31C1381.28 105.433 1397.71 103.779 1397.71 103.779Z" fill="#FD6F5C"/>
<path opacity="0.51" d="M1391.44 75.2918C1391.44 75.2918 1389.88 77.436 1387.88 79.0288C1385.81 80.6216 1374.55 83.1947 1371.96 83.0109C1369.31 82.8271 1366.98 81.2343 1366.98 81.2343C1366.98 81.2343 1370.41 75.7819 1375.58 74.3116C1380.7 72.8413 1391.44 75.2918 1391.44 75.2918Z" fill="#F1F1A8"/>
<path opacity="0.3" d="M1388.98 76.0276C1388.98 76.0276 1380.76 73.8834 1376.23 75.1086C1371.77 76.3339 1368.34 80.8061 1368.34 81.1736C1368.34 81.6025 1374.42 82.4602 1377.98 81.6025C1381.54 80.7448 1387.1 78.6619 1387.49 78.4781C1387.88 78.233 1388.98 76.0276 1388.98 76.0276Z" fill="#570048"/>
<path d="M1386.45 78.8438C1386.45 78.8438 1381.6 78.8437 1379.21 78.9663C1376.81 79.1501 1370.47 81.6618 1370.47 81.6618C1370.47 81.6618 1374.16 82.397 1377.39 81.6618C1380.63 80.988 1386.45 78.8438 1386.45 78.8438Z" fill="#E53229"/>
<path opacity="0.3" d="M1391.44 75.293L1397.71 103.78L1386.45 104.822L1385.1 94.0393L1386.45 92.6916V86.9941L1387.88 79.03L1391.44 75.293Z" fill="#690058"/>
<path opacity="0.2" d="M1370.47 103.962L1363.81 100.041L1362.38 102.001L1334.56 100.041L1320.32 102.001L1363.81 102.675L1370.47 103.962Z" fill="#690058"/>
<path opacity="0.2" d="M1379.21 93.6094L1375.78 96.9175H1377.52L1379.21 93.6094Z" fill="#690058"/>
<path d="M1379.21 93.6094L1378.69 96.9175H1375.78L1377.85 96.0599L1379.21 93.6094Z" fill="#D45B51"/>
<path d="M1374.94 82.7033C1374.94 82.7033 1372.28 84.1124 1371.96 83.8673C1371.57 83.6223 1369.82 82.5195 1369.82 82.5195C1369.82 82.5195 1371.51 83.0096 1371.96 82.9484C1372.41 82.9484 1374.94 82.7033 1374.94 82.7033Z" fill="#DF8B83"/>
<path opacity="0.15" d="M1391.31 102.37C1391.37 102.125 1391.44 101.818 1391.5 101.573C1391.57 101.267 1391.57 100.961 1391.57 100.654C1391.63 98.3262 1391.76 96.0595 1391.82 93.7315C1391.82 94.9568 1391.82 96.182 1391.37 97.346C1391.24 97.6523 1391.11 97.9587 1391.05 98.3262C1391.05 98.51 1391.11 98.7551 1391.11 98.9389C1391.11 99.3677 1390.92 99.7965 1390.6 100.103C1390.27 99.7965 1390.27 99.3064 1390.27 98.8776C1390.21 95.6307 1389.88 92.445 1389.56 89.1981C1389.43 88.0954 1389.37 87.0539 1389.24 85.9512C1389.24 87.0539 1389.3 88.1566 1389.3 89.1981C1389.3 89.3206 1389.3 89.5044 1389.37 89.6269C1389.43 89.6882 1389.43 89.8107 1389.5 89.872C1389.56 89.9945 1389.5 90.117 1389.5 90.2396C1389.37 90.9747 1389.3 91.7711 1389.17 92.5063C1389.11 92.9351 1389.04 93.4865 1389.43 93.7928C1389.5 93.8541 1389.56 93.9153 1389.62 93.9766C1389.69 94.0991 1389.62 94.2216 1389.56 94.3442C1389.3 94.9568 1389.5 95.5694 1389.62 96.2433C1389.75 96.8559 1389.69 97.5298 1389.69 98.2037C1389.69 98.8163 1389.62 99.429 1389.62 100.042C1389.62 100.287 1389.62 100.47 1389.5 100.654C1389.3 100.899 1388.85 101.022 1388.78 101.328C1388.78 101.451 1388.78 101.573 1388.85 101.696C1388.98 102.37 1388.78 103.043 1388.52 103.717C1388.4 104.024 1388.33 104.33 1388.2 104.698C1388.27 104.575 1389.43 104.514 1389.56 104.514C1390.01 104.452 1390.53 104.575 1390.92 104.514C1391.37 104.452 1391.24 104.207 1391.24 103.717C1391.18 103.289 1391.18 102.798 1391.31 102.37Z" fill="#690058"/>
<path opacity="0.15" d="M1395.51 102.799C1395.26 102.738 1395.19 102.493 1395.19 102.247C1395.13 100.777 1395.13 99.3069 1395.13 97.8365C1395.13 97.5915 1395.13 97.3465 1395 97.1627C1394.87 96.9789 1394.54 96.8563 1394.35 97.0401C1394.35 98.0816 1394.28 99.1843 1394.28 100.226C1394.41 100.165 1394.61 100.287 1394.67 100.41C1394.74 100.532 1394.74 100.716 1394.74 100.838C1394.67 101.941 1394.54 102.983 1394.54 104.085C1394.8 103.902 1395.13 103.963 1395.32 103.779C1395.58 103.595 1395.51 103.044 1395.51 102.799Z" fill="#690058"/>
<path opacity="0.15" d="M1393.7 91.955C1393.7 91.7712 1393.64 91.5262 1393.57 91.3424C1393.51 91.1586 1393.38 91.0361 1393.25 90.8523C1392.02 89.0144 1392.41 86.6252 1391.57 84.6035C1391.63 86.9928 1391.82 89.3207 1392.28 91.6487C1392.6 91.7712 1392.99 91.8938 1393.31 92.0163C1393.31 93.119 1393.31 94.1605 1393.38 95.2632C1393.83 95.3857 1394.02 95.7533 1394.15 96.1209C1394.22 95.447 1394.02 94.7119 1393.9 94.038C1393.83 93.3028 1393.77 92.6289 1393.7 91.955Z" fill="#690058"/>
<path opacity="0.15" d="M1391.44 84.1748C1391.44 83.8685 1391.44 83.5622 1391.37 83.2559C1391.31 83.2559 1391.24 83.2559 1391.11 83.2559C1391.18 83.5622 1391.18 83.9297 1391.18 84.2361C1391.24 84.1748 1391.31 84.1135 1391.44 84.1748Z" fill="#690058"/>
<path opacity="0.15" d="M1385.81 91.0363C1385.74 91.0363 1385.68 91.0976 1385.61 91.0976C1385.55 91.5264 1385.42 92.0165 1385.35 92.4454C1385.35 92.2003 1385.16 92.0165 1385.1 91.7715C1385.03 91.5264 1385.03 91.2814 1385.1 91.0363C1385.16 90.7913 1385.16 89.9949 1385.55 89.9336C1385.74 89.9336 1385.74 90.7913 1385.81 91.0363Z" fill="#690058"/>
<path opacity="0.15" d="M1383.93 100.164C1383.74 100.164 1383.61 100.164 1383.48 100.225C1383.35 101.021 1383.28 101.818 1383.15 102.614C1383.02 102.553 1382.96 102.492 1382.83 102.492C1382.64 103.288 1382.44 104.085 1382.25 104.881C1382.25 104.942 1382.25 105.004 1382.18 105.065C1382.12 105.065 1382.12 105.126 1382.05 105.126C1380.63 105.371 1379.08 105.616 1377.72 105.126C1377.65 104.33 1377.72 103.472 1377.85 102.676C1378.04 102.798 1378.24 102.798 1378.43 102.798C1378.56 103.349 1378.62 103.962 1378.56 104.513C1379.21 103.962 1380.24 103.778 1381.02 104.085C1381.41 103.778 1381.67 103.349 1381.79 102.859C1381.86 102.553 1381.86 102.185 1381.92 101.818C1381.99 101.389 1382.18 100.96 1382.38 100.593C1382.51 100.776 1382.7 100.899 1382.89 100.899C1382.89 100.225 1383.15 99.5512 1383.74 99.1223C1383.48 98.3872 1383.35 97.652 1383.48 96.8556C1383.54 96.4268 1383.61 95.9367 1383.74 95.5078C1384.12 95.9367 1383.87 100.164 1383.93 100.164Z" fill="#690058"/>
<path opacity="0.51" d="M1372.35 104.329V94.2208L1371.31 92.4442L1371.96 83.9287L1369.76 82.5197L1366.98 81.1719V96.6713L1368.34 98.0804L1372.35 104.329Z" fill="#F1F1A8"/>
<path d="M1372.54 95.7538C1372.35 95.1411 1371.7 93.9771 1372.15 93.4258C1372.48 93.7321 1372.74 94.1609 1372.8 94.5898C1372.87 94.9573 1372.54 95.57 1372.54 95.7538Z" fill="#DF8B83"/>
<path d="M1204.1 92.569L1222.87 87.668L1283.05 92.569H1204.1Z" fill="#FF9B99"/>
<path d="M1317.35 78.416L1334.82 84.6036L1321.88 88.2793L1325.11 83.9909L1297.29 88.2793L1317.35 78.416Z" fill="#FF9B99"/>
<path d="M1162.04 76.026L1172.39 79.0892L1170.45 74.8008L1162.04 76.026Z" fill="#FF9B99"/>
<path d="M159.676 69.2886L126.674 84.6043L157.088 76.6401L179.089 78.478L181.095 68.4922L159.676 69.2886Z" fill="#FF9B99"/>
<path d="M209.503 65.0008L215.327 69.9018H245.741L228.334 64.2656L209.503 65.0008Z" fill="#FF9B99"/>
<path d="M115.608 75.4766L109.202 82.7668L102.084 79.7037L38.0205 92.5688L86.0356 78.2334L94.9009 77.3144L115.608 75.4766Z" fill="#FF9B99"/>
<path d="M1 81L15.2363 89.2507L32 80L1 81Z" fill="#FF9B99"/>
<path opacity="0.25" d="M0 94L142.204 106.045L212.738 102.37L148.675 114.01L110.496 104.82L0 105V94Z" fill="#FE4731"/>
<path opacity="0.25" d="M244.446 104.82L313.622 96.4883L517.524 100.532L244.446 104.82Z" fill="#FE4731"/>
<path opacity="0.25" d="M1004.79 117.684L1177.57 112.171L1200.22 99.918L1268.81 102.368L1195.69 107.882L1159.45 120.747L1004.79 117.684Z" fill="#FE4731"/>
<path opacity="0.25" d="M1439 91.9551L1407.94 102.37L1333.52 106.658L1404.06 110.334L1438.87 110.395L1439 91.9551Z" fill="#FE4731"/>
<path opacity="0.25" d="M1198.92 110.945L1345.17 115.846L1173.04 119.522L1198.92 110.945Z" fill="#FE4731"/>
<path opacity="0.25" d="M915.493 91.3431L1007.9 84.543L1121.98 90.7305L915.493 91.3431Z" fill="#FE4731"/>
<path opacity="0.25" d="M38.0205 112.785L107.261 109.109L136.38 114.623L38.0205 112.785Z" fill="#FE4731"/>
<path d="M466.338 111.131C466.274 111.254 466.144 111.376 466.015 111.499C463.362 113.765 448.996 117.074 443.237 117.87C437.607 118.605 423.953 115.174 420.718 112.173C420.135 111.621 419.876 111.07 420.071 110.641C421.494 107.394 439.031 106.169 442.137 106.475C445.243 106.781 464.915 108.558 466.274 110.641C466.468 110.764 466.468 110.947 466.338 111.131Z" fill="#FD6F5C"/>
<path d="M466.339 111.131L466.016 111.499C466.016 111.499 449.967 107.578 440.649 108.558C431.525 109.477 421.171 112.05 420.783 112.173C420.201 111.621 419.942 111.07 420.136 110.641C421.56 107.394 439.096 106.169 442.202 106.475C445.308 106.781 464.98 108.558 466.339 110.641C466.469 110.764 466.469 110.947 466.339 111.131Z" fill="#FF503E"/>
</svg>
