<svg width="81" height="61" viewBox="0 0 81 61" fill="none" xmlns="http://www.w3.org/2000/svg">
<path d="M51.9714 0C51.9714 0 43.664 1.33834 34.2129 10.2444H62.0455V0H51.9714Z" fill="#A12568"/>
<path d="M23.4429 0V10.2444H34.2129C43.6688 1.33834 51.9714 0 51.9714 0H23.4429Z" fill="#2A0944"/>
<path d="M43.4937 24.8585H52.39V24.8537H53.5142V24.8585H62.0455V14.5801H52.9691C52.9691 14.5801 45.8589 17.7483 43.4937 24.8585Z" fill="#35589A"/>
<path d="M23.4526 34.8496V35.1319H23.4478V45.3714H23.5354C23.5451 45.459 23.5548 45.5466 23.5597 45.6293H33.6386V45.3714L33.6435 38.1687C30.1784 38.2855 26.3678 37.1808 23.4526 34.8496Z" fill="#F14A16"/>
<path d="M52.9691 14.5801H40.5104C37.7656 14.5801 35.1667 15.2371 32.8648 16.4051C32.1007 16.7896 31.3756 17.2324 30.6797 17.7288C29.1564 18.8141 27.818 20.1427 26.7182 21.6562C26.2315 22.3278 25.7935 23.0335 25.4042 23.7733C25.3068 23.9631 25.2095 24.1529 25.1219 24.3427C25.1219 24.3475 25.1268 24.3524 25.1316 24.3524C24.0512 26.6057 23.4478 29.1315 23.4478 31.7984V34.8498C26.3629 37.1859 30.1735 38.2857 33.6386 38.1689V37.035V35.3024V31.7984C33.6386 29.5257 34.7287 27.5011 36.4078 26.2358C37.5563 25.3695 38.9822 24.8537 40.525 24.8537H43.4888C45.8589 17.7483 52.9691 14.5801 52.9691 14.5801Z" fill="#FC9918"/>
<path d="M5.30956 52.7549V54.2684H1.72768V55.9377H5.13436V57.4512H1.72768V60.4832H0V52.75H5.30956V52.7549Z" fill="white"/>
<path d="M8.98389 52.7559H10.7116V60.489H8.98389V52.7559Z" fill="white"/>
<path d="M20.2404 52.7559H21.968V60.489H20.2404L16.5563 55.6418V60.489H14.8286V52.7559H16.4444L20.2404 57.7345V52.7559Z" fill="white"/>
<path d="M31.3901 52.7549V54.2684H27.8034V55.9377H31.2101V57.4512H27.8034V60.4832H26.0806V52.75H31.3901V52.7549Z" fill="white"/>
<path d="M41.5712 59.4226C40.7877 60.1867 39.829 60.5663 38.6853 60.5663C37.5416 60.5663 36.578 60.1867 35.7993 59.4226C35.0158 58.6586 34.6265 57.7096 34.6265 56.5708C34.6265 55.4368 35.0158 54.483 35.7993 53.7238C36.5829 52.9597 37.5416 52.5801 38.6853 52.5801C39.829 52.5801 40.7926 52.9597 41.5712 53.7238C42.3548 54.4878 42.7441 55.4368 42.7441 56.5708C42.7441 57.7096 42.3548 58.6586 41.5712 59.4226ZM40.9872 56.5805C40.9872 55.8894 40.7682 55.3006 40.3254 54.8139C39.8825 54.3272 39.3374 54.0839 38.695 54.0839C38.0526 54.0839 37.5075 54.3272 37.0647 54.8139C36.6218 55.3006 36.4028 55.8894 36.4028 56.5805C36.4028 57.2716 36.6218 57.8556 37.0647 58.3422C37.5075 58.824 38.0526 59.0674 38.695 59.0674C39.3374 59.0674 39.8825 58.824 40.3254 58.3422C40.7634 57.8556 40.9872 57.2716 40.9872 56.5805Z" fill="white"/>
<path d="M52.6916 55.3255C52.6916 56.5665 52.2001 57.3646 51.2219 57.7247L53.1783 60.489H51.0515L49.3385 58.0216H48.1412V60.489H46.4136V52.7559H49.3482C50.5503 52.7559 51.4068 52.9603 51.9227 53.3642C52.4385 53.773 52.6916 54.4251 52.6916 55.3255ZM50.6135 56.2453C50.8277 56.0555 50.9347 55.7489 50.9347 55.3303C50.9347 54.9118 50.8228 54.6295 50.6038 54.4738C50.3848 54.3181 49.9955 54.2402 49.4407 54.2402H48.1461V56.5324H49.4066C49.9955 56.5324 50.3994 56.4351 50.6135 56.2453Z" fill="white"/>
<path d="M62.1864 60.4929L61.4661 58.8237H58.2249L57.5047 60.4929H55.6699L59.0133 52.7598H60.6826L64.026 60.4929H62.1864ZM59.8504 55.0568L58.8771 57.3053H60.814L59.8504 55.0568Z" fill="white"/>
<path d="M67.1309 60.4929V52.7598H68.8585V58.9551H72.1582V60.4929H67.1309Z" fill="white"/>
<path d="M75.6333 60.4929V52.7598H77.361V58.9551H80.6606V60.4929H75.6333Z" fill="white"/>
</svg>
