<svg width="115" height="90" viewBox="0 0 115 90" fill="none" xmlns="http://www.w3.org/2000/svg">
<path d="M82.9602 8.49841L100.609 13.1379L93.2737 20.8496L73.8379 15.395L82.9602 8.49841Z" fill="#0A726A"/>
<path d="M97.6623 44.58L100.609 13.1378L88.4773 18.561L85.123 44.8935L97.6623 44.58Z" fill="#199E8E"/>
<path d="M74.2138 40.348L68.7905 59.7839L73.6808 63.5457L80.4834 62.6052L84.9662 44.8622L74.2138 40.348Z" fill="#F9F3E5"/>
<path d="M73.6496 63.7022L68.6025 59.8464L74.1198 40.1284L85.1544 44.7679L85.123 44.8933L80.6089 62.7304L73.6496 63.7022ZM68.9474 59.721L73.7123 63.3574L80.3268 62.4483L84.7782 44.9247L74.3079 40.5359L68.9474 59.721Z" fill="#075955"/>
<path d="M94.9032 39.0944L95.6242 39.4078L102.207 56.6493L98.0067 62.2607L90.4518 60.4738L83.7119 45.0505L94.9032 39.0944Z" fill="#F9F3E5"/>
<path d="M98.07 62.4485L90.3583 60.599L83.5244 44.9562L94.9038 38.9374L95.7815 39.2822L95.8129 39.3449L102.427 56.6804L98.07 62.4485ZM90.5777 60.3482L97.9446 62.1037L102.051 56.6177L95.4994 39.5016L94.9038 39.2509L83.9319 45.0816L90.5777 60.3482Z" fill="#075955"/>
<path d="M67.0979 40.3484L70.9224 37.8405L64.9976 32.9816L67.0979 40.3484Z" fill="#F9F3E5"/>
<path d="M67.0033 40.5673L64.7148 32.5109L71.1726 37.8087L67.0033 40.5673ZM65.2791 33.42L67.1914 40.0971L70.6396 37.8087L65.2791 33.42Z" fill="#075955"/>
<path d="M69.9812 38.8434L64.5894 33.765L69.6051 20.8496C69.6051 20.8496 70.232 18.4358 73.7117 18.5925L75.2791 30.6302L71.4233 38.624C71.1411 39.1569 70.4201 39.2823 69.9812 38.8434Z" fill="#F9F3E5"/>
<path d="M69.9509 38.8745C69.0418 38.0281 68.164 37.1817 67.2236 36.3353L64.4963 33.8275L64.4336 33.7648L64.4649 33.7021C64.8725 32.6363 65.28 31.5391 65.6875 30.4732C66.095 29.4074 66.5339 28.3416 66.9728 27.2444C67.4117 26.1785 67.8505 25.1127 68.2581 24.0469C68.6969 22.981 69.1045 21.8838 69.512 20.818C69.6374 20.4105 69.8882 20.0343 70.1703 19.7208C70.4524 19.4073 70.7973 19.1566 71.1734 18.9371C71.5496 18.749 71.9571 18.6236 72.396 18.5296C72.6155 18.4982 72.8035 18.4669 73.023 18.4355H73.65H73.744V18.5296C74.0261 20.5359 74.3083 22.5422 74.5904 24.5484C74.8725 26.5547 75.1233 28.561 75.3741 30.5673V30.5986L75.3428 30.63C74.9666 31.4137 74.5591 32.1974 74.1829 32.9811L72.9916 35.3322L71.8004 37.6833L71.5183 38.2789C71.4242 38.467 71.3302 38.6865 71.1421 38.8432C70.86 39.2194 70.2957 39.188 69.9509 38.8745ZM69.9822 38.8432C70.2957 39.1567 70.8286 39.1567 71.1734 38.8745C71.3302 38.7492 71.4242 38.5297 71.5183 38.3416L71.8004 37.746L72.8976 35.3636L73.9948 32.9811C74.371 32.1974 74.7471 31.3823 75.1233 30.5986V30.6927C74.8725 28.6864 74.5904 26.6801 74.3396 24.6738C74.0888 22.6675 73.838 20.6613 73.6186 18.655L73.7127 18.749H73.0857C72.8663 18.7804 72.6782 18.7804 72.4587 18.8117C72.0512 18.8744 71.6437 18.9998 71.2675 19.1566C70.8913 19.3446 70.5465 19.5641 70.2644 19.8776C69.9822 20.1597 69.7628 20.5359 69.6374 20.9121C69.1985 21.9779 68.791 23.0751 68.3835 24.1409C67.9759 25.2067 67.5684 26.3039 67.1609 27.3698C66.7534 28.467 66.3458 29.5328 65.9383 30.5986C65.5308 31.6645 65.0919 32.7617 64.6844 33.8275L64.653 33.7021L67.2863 36.304C68.1954 37.1504 69.1045 37.9968 69.9822 38.8432Z" fill="#075955"/>
<path d="M42.0194 35.3327L47.5681 34.4863L50.9223 35.3327L52.3016 40.3484L49.543 42.8563L41.7373 41.8218L42.0194 35.3327Z" fill="#F9F3E5"/>
<path d="M42.0196 35.3323L44.7783 34.8621C45.6874 34.7053 46.6278 34.5486 47.5683 34.3918H47.5996H47.631L51.0166 35.2069L51.0793 35.2382L51.1106 35.3009L52.4899 40.3167L52.5213 40.4107L52.4586 40.4734C51.5495 41.3198 50.6404 42.1662 49.7313 42.9812L49.6686 43.0439H49.6059L45.6874 42.511C44.3707 42.3543 43.0855 42.1348 41.7689 41.9781H41.6748V41.8841L41.8629 38.6238L42.0196 35.3323ZM42.0196 35.3323L41.9256 38.5925L41.8315 41.8214L41.7375 41.7273C43.0541 41.8841 44.3394 42.0408 45.656 42.1975L49.5745 42.6991L49.4491 42.7305C50.3582 41.8841 51.2673 41.069 52.1764 40.2226L52.1451 40.3793L50.7971 35.3636L50.8912 35.4577L47.5369 34.5799H47.5683C46.6592 34.7053 45.7501 34.8307 44.8096 34.9561L42.0196 35.3323Z" fill="#075955"/>
<path d="M79.1671 16.1473L71.8003 18.7179L71.1733 24.9875L74.6216 41.2886L84.3396 46.6177L95.9384 40.0346L93.744 35.6459L92.3333 15.395L83.6499 13.42L79.1671 16.1473Z" fill="#F9F3E5"/>
<path d="M84.3395 46.7744L74.4961 41.3825V41.3198L71.0479 24.9874L71.6748 18.5924L79.1043 16.0218L83.6185 13.2632L92.4586 15.3008V15.4262L93.8693 35.6144L96.1264 40.0972L84.3395 46.7744ZM74.7783 41.163L84.3708 46.4295L95.7502 39.9718L93.6185 35.6458L92.1765 15.5203L83.6812 13.5453L79.2297 16.304L71.9569 18.8118L71.33 24.956L74.7783 41.163Z" fill="#075955"/>
<path d="M73.1174 19.5018C77.6629 22.1664 83.4936 20.693 86.2523 16.2416L86.3777 16.0221L85.3118 11.4453L71.9575 14.5801L73.1174 19.5018Z" fill="#F9F3E5"/>
<path d="M73.1168 19.5017C74.214 20.066 75.4366 20.4735 76.6905 20.6302C77.9444 20.787 79.1984 20.6929 80.4209 20.3794C81.6435 20.066 82.772 19.5017 83.8065 18.7807C84.3081 18.4045 84.7783 17.997 85.2172 17.5268C85.6561 17.0565 86.0009 16.555 86.3457 16.022V16.0534C86.0009 14.5173 85.6247 13.0126 85.2172 11.5079L85.3426 11.5706C83.1169 12.1349 80.8912 12.6678 78.6968 13.2007L75.3425 13.9844C74.2454 14.2352 73.1168 14.486 71.9883 14.7368L72.0823 14.58L72.6152 17.0565L73.1168 19.5017ZM73.1168 19.5017L72.4899 17.0565L71.8629 14.6114L71.8315 14.486L71.9569 14.4546C73.0541 14.1725 74.1827 13.8904 75.2798 13.6396L78.6027 12.8559C80.8285 12.3543 83.0542 11.8214 85.2799 11.3512L85.3739 11.3198L85.4053 11.4139C85.7188 12.9499 86.0636 14.486 86.4398 15.9907V16.022V16.0534C85.7815 17.1506 84.9351 18.1537 83.9319 18.9374C82.9288 19.7211 81.7376 20.3167 80.515 20.6616C79.2611 20.9751 77.9444 21.0691 76.6905 20.881C75.4052 20.6616 74.1827 20.2227 73.1168 19.5017Z" fill="#075955"/>
<path d="M69.8257 11.7586C71.1423 17.3699 75.437 19.3449 79.8884 18.3104C84.3399 17.2759 87.3806 13.953 86.0013 7.99683C84.9668 3.5454 80.484 0.75541 76.0326 1.82125C71.5498 2.82439 68.7598 7.30718 69.8257 11.7586Z" fill="#F9F3E5"/>
<path d="M69.8246 11.7585C70.1067 12.8244 70.4829 13.8902 71.0472 14.8307C71.6114 15.7711 72.3638 16.6175 73.2729 17.2445C74.182 17.8714 75.2478 18.2476 76.345 18.4043C77.4422 18.5611 78.5394 18.4984 79.6366 18.2476C80.7024 17.9968 81.7682 17.6206 82.7087 17.0564C83.6491 16.4921 84.4642 15.7398 85.0598 14.8307C85.6554 13.9216 86.0002 12.8557 86.1256 11.7899C86.251 10.6927 86.157 9.59551 85.9376 8.52967C85.7495 7.46384 85.3733 6.42935 84.7777 5.4889C84.2134 4.57981 83.4297 3.76475 82.5206 3.13779C80.7338 1.88386 78.4453 1.38229 76.2823 1.78982C74.1193 2.19735 72.1444 3.51397 70.9218 5.36351C70.3262 6.30396 69.8873 7.33844 69.6992 8.43563C69.5425 9.56416 69.5738 10.6927 69.8246 11.7585ZM69.8246 11.7585C69.5738 10.6927 69.5111 9.53281 69.6992 8.46698C69.8873 7.36979 70.2948 6.30396 70.8904 5.36351C71.4861 4.42307 72.2698 3.60801 73.1788 2.98105C74.0879 2.35409 75.1538 1.88386 76.251 1.66443C78.4453 1.1942 80.8278 1.66443 82.6773 2.9497C83.6178 3.57666 84.4015 4.42307 85.0285 5.36351C85.6241 6.30396 86.0316 7.40114 86.251 8.49833C86.4705 9.59551 86.5645 10.724 86.4078 11.8526C86.2824 12.9811 85.9062 14.0783 85.2792 15.0187C84.6523 15.9592 83.7745 16.7115 82.8027 17.2758C81.8309 17.8401 80.7651 18.2163 79.6679 18.4357C78.5707 18.6551 77.4422 18.7178 76.345 18.5297C75.2478 18.3416 74.182 17.9341 73.2729 17.3072C72.3638 16.6802 71.6114 15.8338 71.0472 14.862C70.4516 13.8902 70.0754 12.8244 69.8246 11.7585Z" fill="#075955"/>
<path d="M72.866 16.8682C72.051 16.2412 71.3613 15.4262 70.7657 14.3917C70.3582 13.6393 70.0447 12.7616 69.7939 11.7584C69.5118 10.5672 69.5118 9.37599 69.7312 8.24745C70.7657 6.93083 72.5839 5.45747 75.562 5.36342C81.0792 5.17533 83.305 9.9716 83.305 9.9716C83.305 9.9716 83.305 9.9716 83.493 11.0688C83.6811 12.166 82.7093 15.5202 79.073 16.8055C76.6905 17.6519 74.5588 17.5265 72.866 16.8682Z" fill="#0A726A"/>
<path d="M77.6621 11.1001C78.3547 11.1001 78.9161 10.5387 78.9161 9.84621C78.9161 9.15369 78.3547 8.59229 77.6621 8.59229C76.9696 8.59229 76.4082 9.15369 76.4082 9.84621C76.4082 10.5387 76.9696 11.1001 77.6621 11.1001Z" fill="#F9F3E5"/>
<path d="M86.2516 29.3763L84.9663 31.2886L91.6748 36.1162L93.2736 32.5739L86.2516 29.3763Z" fill="#F9F3E5"/>
<path d="M86.2515 29.3762L85.0289 31.3512L84.9976 31.2571C85.5618 31.6333 86.1261 32.0408 86.6904 32.417L88.3832 33.6082L91.7374 35.9907L91.5493 36.0534C91.8001 35.4578 92.0822 34.8621 92.3644 34.2979L93.1794 32.5424L93.2421 32.7305C92.6779 32.4483 92.0822 32.1976 91.518 31.9154L89.7938 31.1004C88.6026 30.5048 87.4427 29.9405 86.2515 29.3762ZM86.2515 29.3762C87.4114 29.8778 88.6026 30.3794 89.7625 30.8809L91.5493 31.6646C92.1449 31.9154 92.7406 32.1976 93.3362 32.4483L93.4616 32.511L93.3989 32.6364L92.6152 34.3919C92.3644 34.9875 92.0822 35.5832 91.8315 36.1474L91.7374 36.3042L91.5807 36.2101L88.2264 33.7963L86.565 32.5737C86.0007 32.1662 85.4678 31.7587 84.9035 31.3512L84.8408 31.3198L84.8722 31.2571L86.2515 29.3762Z" fill="#075955"/>
<path d="M53.7123 34.7367L49.543 32.4796L45.7812 36.2414C45.7812 36.2414 46.1888 37.4953 47.4114 37.1818C48.6026 36.8684 49.8565 35.9279 49.8565 35.9279L49.9506 37.2445C50.0759 39.2508 51.8628 40.7555 53.8691 40.5047L55.5305 40.3167L53.7123 34.7367Z" fill="#F9F3E5"/>
<path d="M53.7118 34.7366C52.3012 34.0156 50.8905 33.2946 49.5112 32.5736H49.6052C48.3513 33.8275 47.1287 35.1128 45.8748 36.3667L45.9062 36.21C46.0315 36.5548 46.2823 36.8683 46.5958 37.025C46.7526 37.0877 46.9406 37.1191 47.1287 37.1191C47.3168 37.0877 47.5049 37.0564 47.693 36.9937C48.4454 36.7429 49.135 36.304 49.762 35.8651L49.9814 35.7084L50.0128 35.9905L50.0755 37.0877C50.0755 37.4639 50.1382 37.7774 50.2322 38.1222C50.4203 38.7805 50.8592 39.3761 51.3921 39.7837C51.925 40.2225 52.6147 40.442 53.3357 40.4733C53.6805 40.5047 54.0253 40.442 54.4015 40.4106L55.4673 40.2852L55.3733 40.4106L54.5269 37.6206L53.7118 34.7366ZM53.7118 34.7366L54.6523 37.4952L55.5927 40.2852L55.6241 40.4106L55.4987 40.442L54.4329 40.5674C54.088 40.5987 53.7119 40.6614 53.3357 40.6614C52.9595 40.6614 52.5833 40.5987 52.2385 40.4733C51.8937 40.3479 51.5488 40.1598 51.2353 39.9404C50.6397 39.5015 50.1695 38.8432 49.9501 38.1222C49.8247 37.7774 49.7933 37.3699 49.762 37.025L49.6993 35.9278L49.9501 36.0532C49.6052 36.304 49.2604 36.5235 48.9156 36.7115C48.5708 36.8996 48.1946 37.0877 47.787 37.2131C47.599 37.2758 47.3795 37.3385 47.1601 37.3699C46.9406 37.4012 46.6899 37.3699 46.5018 37.2758C46.0942 37.0877 45.8121 36.7115 45.6554 36.304L45.624 36.2413L45.6867 36.1786C46.9406 34.9247 48.2259 33.7021 49.4798 32.4482L49.5425 32.3855L49.6052 32.4168C50.9846 33.2005 52.3639 33.9843 53.7118 34.7366Z" fill="#075955"/>
<path d="M78.916 20.8496C79.4176 22.9813 79.9192 25.113 80.3894 27.276L81.7687 33.7024L83.0853 40.1601L83.7123 43.3889C83.9004 44.4548 84.1198 45.552 84.3079 46.6178C84.0571 45.552 83.8063 44.4861 83.5555 43.4203L82.8345 40.2228L81.4552 33.7964L80.1386 27.3387C79.7311 25.1443 79.3235 22.9813 78.916 20.8496Z" fill="#075955"/>
<path d="M76.7522 37.8402L73.586 39.0314L70.0124 41.4139C70.0124 41.4139 70.4512 43.2634 73.0218 41.4139L68.6644 45.6459C68.3196 45.9907 68.3196 46.5237 68.6644 46.8685C68.9779 47.182 69.5108 47.2133 69.8556 46.8998L73.0531 43.7964L70.2945 47.4641C70.0437 47.8089 70.075 48.2791 70.3572 48.5926C70.702 48.9375 71.2976 48.9061 71.6111 48.5299L74.0563 45.4578L72.3008 49.0942C72.1127 49.5331 72.3008 50.0346 72.7396 50.1914C73.1472 50.3481 73.586 50.1914 73.7741 49.8152L75.5296 46.2729L75.0594 49.2823C74.9967 49.7525 75.3415 50.1914 75.8118 50.1914C76.1566 50.1914 76.4701 49.9406 76.5641 49.6271L77.5986 45.7086L80.608 41.8214L76.7522 37.8402Z" fill="#F9F3E5"/>
<path d="M76.7529 37.8402L73.6181 39.0941L70.0757 41.5079L70.1384 41.3825C70.2011 41.6333 70.3892 41.8841 70.6087 41.9781C70.8281 42.1035 71.1416 42.1035 71.3924 42.0722C71.6745 42.0095 71.9253 41.9154 72.2074 41.7587C72.4582 41.6333 72.709 41.4766 72.9598 41.2885L73.1165 41.5079C72.3328 42.2916 71.5491 43.044 70.7654 43.7963L69.5742 44.9562L68.9786 45.5205C68.8845 45.6145 68.7591 45.7086 68.6964 45.8026C68.6337 45.8967 68.571 45.9907 68.5397 46.1161C68.477 46.3355 68.571 46.6177 68.7278 46.7744C68.8845 46.9625 69.1353 47.0252 69.3861 46.9938C69.5115 46.9625 69.6369 46.9312 69.7309 46.8685C69.8249 46.8058 69.919 46.6804 70.013 46.5863L70.6087 46.0221L72.9911 43.7336L73.0852 43.7963L71.3924 46.0221L70.546 47.1506C70.4206 47.3387 70.2325 47.4954 70.1698 47.7149C70.1071 47.9343 70.1384 48.1537 70.2325 48.3418C70.3265 48.5299 70.546 48.6553 70.734 48.718C70.9535 48.7493 71.1729 48.718 71.361 48.5926C71.4551 48.5299 71.5178 48.4672 71.5804 48.3732L71.7999 48.091L72.2388 47.5268L73.9629 45.3324L74.5272 44.58L74.1196 45.4264L72.9911 47.8089C72.709 48.5613 71.8939 49.5017 72.6776 49.9719C72.9911 50.16 73.43 50.0033 73.5867 49.6898L74.1823 48.4986L75.3422 46.1474L75.8124 45.1757L75.6557 46.2415L75.2795 48.5926L75.1855 49.1882C75.1541 49.3763 75.1541 49.5017 75.2482 49.6584C75.4049 49.9406 75.7811 50.066 76.0632 49.9092C76.22 49.8465 76.314 49.7211 76.3767 49.5644C76.4394 49.4077 76.4708 49.1882 76.5335 49.0001L76.8469 47.8716L77.4739 45.5832V45.5518L77.5052 45.5205L80.546 41.6333V41.7587L78.6965 39.8151L76.7529 37.8402ZM76.7529 37.8088L78.7278 39.7211L80.7028 41.6647L80.7655 41.7274L80.7028 41.7901L77.7247 45.7086L77.756 45.6772L77.1604 47.9656L76.8469 49.0942C76.7842 49.2823 76.7529 49.4704 76.6902 49.6898C76.5962 49.9092 76.4394 50.0973 76.22 50.1914C76.0005 50.2854 75.7498 50.3168 75.5303 50.2541C75.3109 50.1914 75.1228 50.0346 74.9974 49.8152C74.9347 49.7211 74.9033 49.5957 74.9033 49.4704C74.872 49.345 74.9034 49.2196 74.9347 49.1255L75.0287 48.5299L75.3736 46.1788L75.6871 46.2728L74.4958 48.624L73.9002 49.7838C73.7748 50.0033 73.5554 50.1914 73.3359 50.2854C73.0852 50.3481 72.803 50.3168 72.5836 50.1914C72.3642 50.066 72.1761 49.8465 72.1134 49.5957C72.0507 49.345 72.1134 49.0628 72.2074 48.8747L72.803 47.6835L73.9629 45.3324L74.151 45.4578L72.4268 47.6522L71.988 48.1851L71.7685 48.4672C71.7058 48.5613 71.6118 48.6553 71.5178 48.718C71.2983 48.8747 71.0475 48.9061 70.7967 48.8434C70.546 48.7807 70.3265 48.624 70.2011 48.4045C70.0757 48.1851 70.0444 47.9343 70.1071 47.6835C70.1384 47.5581 70.2011 47.4641 70.2952 47.37L70.5146 47.0879L71.361 45.9907L73.0225 43.765L73.1165 43.8277L70.7654 46.1474L70.1698 46.7117C70.0757 46.8058 69.9817 46.8998 69.8563 46.9938C69.7309 47.0879 69.6055 47.1506 69.4488 47.1819C69.1353 47.2446 68.8218 47.1192 68.6024 46.8998C68.3829 46.6804 68.2889 46.3669 68.3516 46.0534C68.3829 45.8967 68.4456 45.7399 68.5397 45.6145C68.6337 45.4891 68.7278 45.3951 68.8218 45.301L69.4174 44.7368L70.6087 43.5769C71.3924 42.7932 72.1761 42.0408 72.9598 41.2885L73.1165 41.5079C72.8657 41.696 72.6149 41.8527 72.3328 41.9781C72.0507 42.1035 71.7685 42.2289 71.4551 42.2916C71.1416 42.3543 70.7967 42.3543 70.5146 42.1662C70.2325 42.0095 70.013 41.7274 69.919 41.3825L69.8876 41.2885L69.9503 41.2571L73.5554 38.906L76.7529 37.8088Z" fill="#075955"/>
<path d="M79.8568 11.3509C80.1858 11.3509 80.4525 11.0842 80.4525 10.7553C80.4525 10.4263 80.1858 10.1597 79.8568 10.1597C79.5279 10.1597 79.2612 10.4263 79.2612 10.7553C79.2612 11.0842 79.5279 11.3509 79.8568 11.3509Z" fill="#F9F3E5"/>
<path d="M83.1482 15.2694C82.5526 15.9904 81.8002 16.586 80.9852 17.0876C80.1701 17.5892 79.2924 17.934 78.3519 18.1221C77.8817 18.2161 77.4115 18.2475 76.9413 18.2475C76.471 18.2475 76.0008 18.1848 75.5306 18.0907C75.0604 17.9654 74.6215 17.84 74.1826 17.6519C73.7438 17.4638 73.3362 17.2443 72.9287 16.9936C73.3676 17.1816 73.7751 17.3697 74.214 17.5265C74.6529 17.6832 75.0917 17.7773 75.562 17.8713C76.4711 17.9967 77.4115 17.9967 78.2892 17.8086C79.1983 17.6205 80.0447 17.307 80.8911 16.8682C81.2987 16.6487 81.7062 16.3979 82.0824 16.1472C82.4585 15.865 82.8034 15.5829 83.1482 15.2694Z" fill="#075955"/>
<path d="M83.6391 13.3844C84.2779 13.3354 84.7312 12.456 84.6518 11.4202C84.5723 10.3845 83.9901 9.58454 83.3513 9.63355C82.7126 9.68256 82.2593 10.562 82.3387 11.5977C82.4182 12.6335 83.0004 13.4334 83.6391 13.3844Z" fill="#F9F3E5"/>
<path d="M82.3332 11.6016C82.3645 12.0091 82.4899 12.4166 82.678 12.7615C82.8661 13.1063 83.2423 13.3884 83.6185 13.3571C84.026 13.3257 84.2768 12.9496 84.4335 12.6047C84.5903 12.2286 84.6216 11.821 84.5903 11.4449C84.5589 11.0373 84.4649 10.6611 84.2768 10.3163C84.0887 9.97149 83.7752 9.65801 83.3677 9.68935C82.9601 9.7207 82.678 10.0655 82.5213 10.4417C82.3645 10.7865 82.3018 11.1941 82.3332 11.6016ZM82.3332 11.6016C82.3018 11.1941 82.3332 10.7865 82.4899 10.4104C82.5526 10.2223 82.678 10.0342 82.8034 9.87744C82.9602 9.7207 83.1482 9.62666 83.3677 9.59531C83.5871 9.56396 83.8065 9.65801 83.9633 9.7834C84.1514 9.90879 84.2768 10.0655 84.4022 10.2536C84.6216 10.5985 84.7156 11.0373 84.7783 11.4449C84.8097 11.8524 84.747 12.2913 84.5903 12.6674C84.4962 12.8555 84.4022 13.0436 84.2454 13.2003C84.0887 13.3571 83.9006 13.4511 83.6812 13.4825C83.4617 13.4825 83.2423 13.4198 83.0855 13.2944C82.9288 13.169 82.8034 13.0123 82.678 12.8242C82.4586 12.4166 82.3645 12.0091 82.3332 11.6016Z" fill="#075955"/>
<path d="M13.3356 41.9155L6.90918 61.9783L17.5676 66.0536L25.3419 43.5456L13.3356 41.9155Z" fill="#F9F3E5"/>
<path d="M17.6622 66.2414L6.72168 62.0721L6.75303 61.9154L13.2107 41.7272L25.5306 43.42L17.6622 66.2414ZM7.12921 61.884L17.4741 65.8339L25.123 43.6708L13.4615 42.072L7.12921 61.884Z" fill="#075955"/>
<path d="M83.4305 10.1597C83.211 10.5985 83.117 11.0374 83.117 11.4763C83.117 11.6957 83.1483 11.9152 83.211 12.1659L83.3051 12.5108C83.3364 12.6362 83.3678 12.7302 83.3991 12.8556C83.3051 12.7616 83.2424 12.6675 83.1797 12.5735C83.117 12.4794 83.0543 12.354 83.023 12.2286C82.9289 12.0092 82.8662 11.7584 82.8662 11.4763C82.8662 11.2255 82.8976 10.9434 83.023 10.7239C83.0543 10.5045 83.211 10.2851 83.4305 10.1597Z" fill="#075955"/>
<path d="M93.1799 33.1694L85.625 30.0659L87.1924 18.8746C87.5999 16.5549 90.0764 15.0188 92.6783 15.489C95.2802 15.9593 97.0671 18.2477 96.6595 20.5674L94.3084 32.6678C94.2144 33.1067 93.6815 33.3575 93.1799 33.1694Z" fill="#F9F3E5"/>
<path d="M93.1796 33.1692C90.6404 32.1347 88.1326 31.1002 85.5934 30.097H85.562V30.0657L86.8159 20.3164L86.9727 19.0938C87.004 18.9057 87.0354 18.6863 87.0981 18.4669C87.1294 18.3728 87.1608 18.2788 87.1921 18.1534C87.2235 18.0593 87.2548 17.9653 87.3175 17.8713C87.6623 17.0875 88.2893 16.4606 88.979 15.9904C90.421 15.1126 92.3019 15.0186 93.8379 15.7082C94.6216 16.0217 95.3113 16.5546 95.8442 17.2129C96.3458 17.8713 96.722 18.6863 96.7847 19.5327C96.816 19.7521 96.7847 19.9402 96.7847 20.1597C96.7533 20.3791 96.722 20.5672 96.6906 20.7866L96.4398 21.9779L95.9383 24.3917L94.9978 29.1879L94.5276 31.6017L94.4022 32.1974C94.3395 32.3854 94.3395 32.6049 94.2768 32.793C94.0574 33.2005 93.5558 33.3259 93.1796 33.1692ZM93.1796 33.1692C93.5558 33.3259 94.0574 33.2005 94.2455 32.8243C94.3082 32.6362 94.3395 32.4168 94.3708 32.2287L94.4962 31.6331L94.9665 29.2193L95.8756 24.3917L96.3144 21.9779L96.5339 20.7553C96.5652 20.5672 96.5966 20.3478 96.6279 20.1597C96.6279 19.9716 96.6279 19.7521 96.5966 19.5641C96.5339 18.7803 96.189 18.028 95.6875 17.401C95.1859 16.7741 94.5276 16.3038 93.7752 15.9904C92.3019 15.3634 90.5464 15.4574 89.1984 16.2725C88.5401 16.68 87.9445 17.2756 87.631 17.9966C87.4743 18.3728 87.3489 18.7177 87.3175 19.1252L87.1294 20.3478L85.6874 30.0657L85.6561 30.0343C88.1639 31.0688 90.6718 32.1033 93.1796 33.1692Z" fill="#075955"/>
<path d="M76.7851 39.5332L79.9199 42.3232C80.3901 42.7621 81.0798 42.8248 81.644 42.48L92.6786 35.8655C92.6786 35.8655 92.6786 32.6053 88.7914 30.6617C88.7914 30.6617 88.7601 30.6617 88.7601 30.6304C87.3494 29.9407 85.688 30.1601 84.4654 31.1633L76.7537 37.3702C76.0954 37.9345 76.1268 38.969 76.7851 39.5332Z" fill="#F9F3E5"/>
<path d="M76.7848 39.533L78.5716 41.1004L79.4494 41.8841L79.8882 42.2603C80.045 42.3857 80.2017 42.5111 80.3898 42.5738C80.766 42.6992 81.1735 42.6992 81.5183 42.5111C81.8632 42.323 82.1767 42.1036 82.5215 41.8841L84.5278 40.6302L88.5403 38.1537C89.8883 37.3386 91.2363 36.5236 92.5842 35.7085L92.5215 35.8339C92.4589 34.9875 92.1767 34.1411 91.7065 33.4201C91.2676 32.6678 90.672 32.0408 89.951 31.5079L89.4181 31.1317L88.8538 30.8182C88.4776 30.5988 88.0701 30.4734 87.6312 30.3794C86.7848 30.254 85.8757 30.3793 85.1234 30.7869C84.7472 30.975 84.4024 31.2571 84.0575 31.5392L83.0231 32.3543L80.9227 34.0157C79.5121 35.1129 78.1327 36.2101 76.7534 37.3386C76.4399 37.6208 76.2832 38.0283 76.2832 38.4358C76.2832 38.8434 76.4713 39.2509 76.7848 39.533ZM76.7848 39.533C76.4713 39.2509 76.2832 38.8434 76.2832 38.4358C76.2832 38.0283 76.4399 37.6208 76.7534 37.3073C78.1327 36.1788 79.5121 35.0816 80.8914 33.953L82.9604 32.2602L83.9948 31.4138C84.3397 31.1317 84.6845 30.8182 85.092 30.5988C85.8757 30.1599 86.8475 29.9718 87.7566 30.0972C88.1955 30.1599 88.6657 30.3167 89.0419 30.5361L89.6375 30.8809L90.2018 31.2571C91.6752 32.3229 92.7723 33.953 92.8664 35.8339V35.928L92.8037 35.9593C91.4557 36.7744 90.1077 37.5894 88.7284 38.3731L84.6532 40.7556L82.6155 41.9468C82.2707 42.1349 81.9259 42.3543 81.581 42.5424C81.2049 42.6992 80.7973 42.7305 80.4212 42.5738C80.2331 42.5111 80.0763 42.3857 79.9196 42.2603L79.4807 41.8528L78.603 41.0691L76.7848 39.533Z" fill="#075955"/>
<path d="M72.4263 43.1693C73.21 43.4828 73.9623 43.859 74.6833 44.2978C75.4043 44.7054 76.1254 45.1756 76.815 45.6772C76.0313 45.3637 75.279 44.9875 74.5579 44.5486C73.8369 44.1098 73.1159 43.6709 72.4263 43.1693Z" fill="#075955"/>
<path d="M53.4311 35.2696L53.8386 39.9405C53.9013 40.5988 54.4656 41.1317 55.1552 41.1317H66.6286C67.4124 41.1317 68.0707 40.5988 68.2901 39.7838C68.5409 38.8433 68.6663 37.464 68.1334 35.8652C67.1302 32.8245 65.3434 32.3542 65.3434 32.3542L54.5596 33.859C53.8699 33.953 53.3684 34.58 53.4311 35.2696Z" fill="#F9F3E5"/>
<path d="M53.4308 35.2696C53.5562 36.4609 53.6502 37.6834 53.807 38.8747L53.901 39.7838C53.9324 40.0972 53.9951 40.348 54.1831 40.5675C54.3712 40.7869 54.622 40.9123 54.8728 40.975C55.1236 41.0377 55.4684 40.975 55.7506 41.0063C58.1644 40.975 60.5782 41.0377 62.992 41.069C64.2146 41.069 65.4058 41.1004 66.6284 41.069C67.224 41.069 67.7569 40.6929 68.039 40.1599C68.1644 39.9092 68.2271 39.5957 68.2898 39.3135C68.3525 39.0314 68.3839 38.7179 68.3839 38.4358C68.4152 37.2446 68.1331 36.0533 67.6315 34.9875C67.3807 34.4546 67.0672 33.953 66.6911 33.5141C66.503 33.2947 66.2835 33.1066 66.0641 32.9185C65.8447 32.7618 65.5625 32.605 65.3117 32.511H65.3744L62.1769 32.9499C61.1111 33.1066 60.0453 33.232 58.9794 33.3574L55.7819 33.7336L54.9982 33.8276C54.7474 33.859 54.4653 33.859 54.2145 33.9844C53.7129 34.2038 53.3994 34.7367 53.4308 35.2696ZM53.3994 35.2696C53.3367 34.7367 53.6816 34.1724 54.1831 33.953C54.4339 33.8276 54.7161 33.8276 54.9669 33.7649L55.7506 33.6395L58.9167 33.1066C59.9826 32.9499 61.0484 32.7618 62.0829 32.6364L65.249 32.1975H65.2804H65.3117C65.9387 32.4169 66.4089 32.8245 66.8478 33.2947C67.2553 33.7649 67.5688 34.2978 67.8196 34.8621C68.3212 35.9906 68.6033 37.2132 68.5093 38.4358C68.4779 38.7493 68.4466 39.0314 68.3839 39.3449C68.3212 39.627 68.2585 39.9405 68.1017 40.2226C67.8196 40.7869 67.1926 41.1631 66.5657 41.1631C65.3431 41.1631 64.1519 41.1631 62.9293 41.1631C60.5155 41.1944 58.1017 41.2571 55.6879 41.2258H55.249C55.0922 41.2258 54.9355 41.2258 54.7788 41.1944C54.4653 41.1317 54.1518 40.9436 53.9637 40.6615C53.7756 40.4107 53.6816 40.0659 53.6816 39.7524L53.6189 38.8433C53.6189 37.6834 53.4935 36.4609 53.3994 35.2696Z" fill="#075955"/>
<path d="M16.3128 40.5363C16.3128 40.5363 14.9962 45.646 16.8143 49.4078C18.6325 53.1696 24.3693 64.0787 24.3693 64.0787L36.0308 60.5364L28.9774 42.8247L16.3128 40.5363Z" fill="#F9F3E5"/>
<path d="M16.3138 40.5363C15.8749 42.6052 15.7495 44.7683 16.0944 46.8686C16.1257 47.1194 16.1884 47.4015 16.2511 47.6523C16.3138 47.9031 16.4078 48.1539 16.4705 48.4046C16.5332 48.6554 16.6586 48.9062 16.7527 49.1256C16.8467 49.3764 16.9721 49.5959 17.0975 49.8467L18.5709 52.668L24.4643 64.016L24.3076 63.9533L35.9691 60.411L35.875 60.5991L32.364 51.7275L28.8844 42.856L28.9471 42.9187L16.3138 40.5363ZM16.3138 40.5363L29.0098 42.7306H29.0725L29.1038 42.7933L32.6775 51.6335L36.2199 60.4737L36.2826 60.6304L36.1258 60.6931L24.4643 64.2355L24.3389 64.2668L24.2762 64.1728L18.4768 52.7934L17.0348 49.9407C16.5332 49.0003 16.1884 47.9658 16.0317 46.8999C15.6555 44.7996 15.8436 42.6366 16.3138 40.5363Z" fill="#075955"/>
<path d="M71.4858 23.4201C71.9874 23.8903 72.6144 24.1724 73.2413 24.3919C73.8683 24.6113 74.5266 24.768 75.1849 24.8934C76.5015 25.1129 77.8495 25.2383 79.1975 25.1129C80.5455 24.9875 81.8307 24.6426 83.0847 24.1724C84.3386 23.6708 85.5298 23.0125 86.6897 22.3229C86.1254 22.7304 85.5925 23.1066 84.9969 23.4514C84.4013 23.7962 83.8057 24.1097 83.1787 24.3919C81.9248 24.9561 80.5768 25.301 79.2288 25.4263C78.5392 25.489 77.8495 25.489 77.1599 25.4263C76.4702 25.3636 75.8119 25.2696 75.1222 25.1442C74.4639 24.9875 73.8056 24.7994 73.1786 24.5486C72.8652 24.4232 72.5517 24.2665 72.2695 24.0784C71.9874 23.8589 71.7053 23.6708 71.4858 23.4201Z" fill="#075955"/>
<path d="M85.9686 27.5265L85.5611 25.5516L85.6238 25.5829C83.8683 25.9904 82.0815 26.3666 80.326 26.7741L74.9968 27.9027L75.1222 27.7146L76.3761 33.6707L76.2194 33.5767C78.5078 33.0751 80.8275 32.6049 83.1473 32.1347C80.8589 32.7303 78.5705 33.2632 76.2821 33.8275L76.1567 33.8588L76.1253 33.7334L74.8087 27.7773L74.7773 27.6205L74.9341 27.5892L80.2633 26.492C82.0501 26.1472 83.8056 25.771 85.5925 25.4575H85.6552V25.5202L85.9686 27.5265Z" fill="#075955"/>
<path d="M108.1 84.6742L113.837 76.0221C114.527 74.9877 114.464 73.6397 113.712 72.6679L109.95 67.7149C109.543 67.2133 108.79 67.2133 108.414 67.7776L102.207 72.95L105.467 78.1225L104.966 81.5394C104.778 82.8874 105.373 84.2354 106.502 84.9877C107.035 85.3325 107.756 85.2072 108.1 84.6742Z" fill="#F9F3E5"/>
<path d="M108.07 84.6432C108.571 83.8595 109.073 83.1072 109.574 82.3548L111.048 80.0351C111.549 79.2513 112.051 78.499 112.553 77.7153C112.803 77.3391 113.054 76.9629 113.305 76.5554L113.681 75.9911C113.806 75.803 113.932 75.615 113.995 75.4269C114.339 74.6118 114.277 73.64 113.775 72.8877C113.274 72.1353 112.709 71.4143 112.145 70.6933C111.612 69.9723 111.048 69.2199 110.484 68.4989L110.076 67.966C109.919 67.7779 109.794 67.5898 109.606 67.5271C109.23 67.339 108.728 67.4644 108.509 67.8406C106.471 69.5961 104.402 71.3516 102.333 73.0758L102.364 72.8563L105.593 78.0288L105.625 78.0915V78.1542C105.531 78.9065 105.374 79.6902 105.28 80.4426L105.092 81.5711C105.029 81.9473 105.029 82.3235 105.092 82.6996C105.217 83.452 105.593 84.1417 106.126 84.6746C106.283 84.8 106.408 84.9254 106.565 85.0194C106.722 85.1135 106.91 85.1762 107.098 85.1762C107.505 85.1762 107.882 84.9881 108.07 84.6432ZM108.101 84.6746C107.882 85.0194 107.505 85.2075 107.098 85.2075C106.91 85.2075 106.69 85.1448 106.534 85.0508C106.377 84.9567 106.22 84.8313 106.063 84.7059C105.468 84.2044 105.06 83.4833 104.904 82.6996C104.81 82.3235 104.81 81.9159 104.841 81.5084L104.998 80.3485C105.092 79.5962 105.186 78.8125 105.311 78.0601L105.342 78.1542L102.082 73.0131L102.02 72.8877L102.145 72.7936C104.214 71.0695 106.314 69.3453 108.415 67.6839L108.383 67.7152C108.665 67.2764 109.261 67.151 109.7 67.4017C109.919 67.4958 110.076 67.7152 110.201 67.9033L110.609 68.4676C111.173 69.1886 111.706 69.9409 112.27 70.6619L113.117 71.7591C113.399 72.1353 113.681 72.4801 113.963 72.8563C114.496 73.64 114.621 74.6745 114.277 75.5836C114.183 75.8031 114.057 76.0225 113.932 76.2106L113.556 76.7748C113.305 77.151 113.054 77.5272 112.803 77.9347C112.302 78.6871 111.769 79.4394 111.267 80.1918L109.7 82.4489C109.136 83.1385 108.634 83.9222 108.101 84.6746Z" fill="#075955"/>
<path d="M110.014 81.4769L108.572 80.5051L107.13 82.6995C106.597 83.5146 106.816 84.5804 107.631 85.1133" fill="#F9F3E5"/>
<path d="M110.014 81.4768C109.763 81.3514 109.512 81.1947 109.23 81.0693C108.979 80.9125 108.728 80.7871 108.477 80.6304L108.634 80.5991C108.415 80.9752 108.164 81.3514 107.913 81.7276C107.662 82.1038 107.412 82.4799 107.161 82.8248C106.941 83.1696 106.847 83.6085 106.91 84.016C106.973 84.4235 107.192 84.8311 107.537 85.1132C107.13 84.8938 106.816 84.5176 106.691 84.0474C106.565 83.5771 106.628 83.0756 106.879 82.668C107.13 82.2919 107.349 81.9157 107.631 81.5395C107.882 81.1633 108.133 80.8185 108.383 80.4423L108.446 80.3483L108.54 80.411C108.791 80.5677 109.01 80.7558 109.23 80.9439C109.543 81.1006 109.794 81.2574 110.014 81.4768Z" fill="#075955"/>
<path d="M108.791 80.4424C109.136 79.7841 109.512 79.1571 109.92 78.5301C110.296 77.9032 110.703 77.2762 111.111 76.6806L111.424 76.2104C111.518 76.0536 111.644 75.8969 111.706 75.7715C111.863 75.458 111.989 75.1132 112.02 74.7684C112.051 74.4235 112.02 74.0474 111.894 73.7339C111.8 73.389 111.581 73.0756 111.393 72.7621C111.612 73.0442 111.863 73.3263 112.02 73.6712C112.177 74.016 112.239 74.3922 112.239 74.7997C112.239 75.1759 112.145 75.5834 111.957 75.9282C111.863 76.1163 111.769 76.2731 111.675 76.3985L111.362 76.8687C110.954 77.4957 110.547 78.0913 110.108 78.6869C109.7 79.2825 109.261 79.8781 108.791 80.4424Z" fill="#075955"/>
<path d="M109.795 75.1757C109.356 75.2071 108.917 75.3638 108.51 75.5519C108.102 75.74 107.726 75.9594 107.381 76.2415L107.13 76.4296L106.88 76.6491C106.691 76.7745 106.566 76.9625 106.378 77.1193L105.908 77.6209C105.751 77.7776 105.626 77.9657 105.438 78.1224C105.532 77.903 105.657 77.7149 105.782 77.5268C105.908 77.3387 106.033 77.1506 106.19 76.9625C106.472 76.6177 106.817 76.2729 107.193 75.9908C107.569 75.7086 107.977 75.4892 108.416 75.3324C108.854 75.1757 109.325 75.0817 109.795 75.1757Z" fill="#075955"/>
<path d="M108.414 75.3639C108.038 74.9877 107.756 74.5488 107.505 74.0786C107.255 73.6397 107.004 73.1695 106.878 72.6366C107.255 73.0128 107.537 73.4517 107.788 73.9219C108.007 74.3921 108.258 74.8623 108.414 75.3639Z" fill="#075955"/>
<path d="M105.312 76.2417C105.531 75.6774 105.845 75.1758 106.158 74.7056C106.472 74.2354 106.817 73.7652 107.256 73.3263C107.036 73.8906 106.754 74.3921 106.409 74.8624C106.064 75.3639 105.72 75.8341 105.312 76.2417Z" fill="#075955"/>
<path d="M67.036 88.1538L79.9827 88.0598C81.5815 88.0598 82.7414 86.5551 82.3652 85.019L80.8605 78.9375C81.0799 78.3105 80.6097 77.6836 79.9514 77.6836L70.8604 77.3074L71.8009 82.0096L67.851 83.7964C66.6284 84.3921 65.8447 85.646 65.8447 86.994C65.8761 87.6523 66.3776 88.1852 67.036 88.1538Z" fill="#F9F3E5"/>
<path d="M67.0358 88.1538L69.9825 88.0911L72.9293 87.9971C74.9042 87.9344 76.8791 87.903 78.8541 87.903H79.6064C79.8572 87.903 80.108 87.903 80.3274 87.8717C80.7977 87.809 81.2365 87.5896 81.5814 87.2761C81.9262 86.9626 82.177 86.5237 82.3024 86.0535C82.3651 85.8341 82.3651 85.5833 82.3651 85.3325C82.3337 85.0817 82.271 84.8623 82.2397 84.6115C81.7694 82.6993 81.2992 80.787 80.7977 78.8748V78.8434V78.8121C80.923 78.4046 80.735 77.9343 80.3588 77.7776C80.1707 77.6836 79.9513 77.7149 79.7318 77.6836L79.0108 77.7462L76.2835 77.6522L70.8603 77.4641L71.017 77.276L71.4872 79.6271C71.644 80.4108 71.8007 81.1945 71.9575 81.9782L71.9888 82.1036L71.8948 82.1663L69.575 83.2008L68.4151 83.7024C68.0076 83.8591 67.6314 84.0159 67.3179 84.2667C66.6596 84.7682 66.1581 85.4892 66.0013 86.3043C65.97 86.5237 65.9386 86.7118 65.9386 86.9313C65.9386 87.1507 65.97 87.3388 66.064 87.5269C66.1894 87.9031 66.5969 88.1538 67.0358 88.1538ZM67.0358 88.1852C66.5969 88.1852 66.1894 87.9344 65.97 87.5582C65.8759 87.3701 65.8132 87.1507 65.8446 86.9313C65.8446 86.7118 65.8759 86.4924 65.9073 86.3043C66.064 85.4579 66.5342 84.6742 67.1926 84.1413C67.3493 84.0159 67.5374 83.8905 67.7255 83.7964C67.9136 83.7024 68.1016 83.6084 68.2897 83.5143L69.4496 82.9814L71.738 81.9155L71.644 82.0723C71.4872 81.2886 71.3305 80.5049 71.1738 79.7212L70.7035 77.3701L70.6722 77.1506H70.8916L76.3149 77.4014L79.0422 77.5268L79.7318 77.5582L80.0766 77.5895C80.202 77.5895 80.3274 77.6209 80.4215 77.6836C80.6409 77.8089 80.829 77.997 80.923 78.2165C81.0171 78.4359 81.0171 78.718 80.9544 78.9375V78.9061C81.3933 80.8184 81.8635 82.7306 82.3651 84.6428C82.4278 84.8936 82.4905 85.1131 82.5218 85.3638C82.5532 85.6146 82.5218 85.8654 82.4905 86.1162C82.3964 86.6178 82.1456 87.088 81.7694 87.4328C81.3933 87.7777 80.923 88.0284 80.4215 88.1225C80.1707 88.1538 79.9199 88.1538 79.6691 88.1538H78.9168C76.9418 88.1852 74.9669 88.1852 72.992 88.1538L70.0452 88.1225L67.0358 88.1852Z" fill="#075955"/>
<path d="M70.7344 87.9658L70.7031 86.2103L68.0699 86.2417C67.0981 86.2417 66.3457 87.0567 66.3457 87.9972" fill="#F9F3E5"/>
<path d="M70.7345 87.9657C70.7031 87.6836 70.6718 87.3701 70.6405 87.088C70.6091 86.8058 70.6091 86.4923 70.5778 86.2102L70.7031 86.3356C70.2643 86.3669 69.8254 86.3669 69.3552 86.3669C68.9163 86.3669 68.4461 86.3669 68.0072 86.3669C67.5997 86.3669 67.1922 86.555 66.8787 86.8372C66.5652 87.1193 66.3771 87.5268 66.3144 87.9971C66.2517 87.5582 66.4085 87.0566 66.7219 86.7118C67.0354 86.3356 67.5056 86.1162 67.9759 86.0848C68.4461 86.0535 68.885 86.0535 69.3238 86.0535C69.7627 86.0535 70.2016 86.0535 70.6718 86.0848H70.7972V86.2102C70.7972 86.4923 70.7658 86.8058 70.7658 87.088C70.7972 87.3701 70.7658 87.6522 70.7345 87.9657Z" fill="#075955"/>
<path d="M70.9229 86.3669C71.6439 86.3042 72.3962 86.2415 73.1486 86.2101C73.9009 86.1788 74.6219 86.1474 75.3743 86.1474H75.9386C76.1266 86.1474 76.3147 86.1474 76.4715 86.1474C76.8163 86.1161 77.1611 86.022 77.4746 85.8339C77.7881 85.6772 78.0702 85.4264 78.2583 85.1443C78.4778 84.8621 78.6032 84.5173 78.7912 84.1725C78.6658 84.5173 78.5718 84.8935 78.3837 85.207C78.1956 85.5205 77.9135 85.8026 77.6 86.022C77.2865 86.2415 76.9104 86.3669 76.5028 86.4296C76.3147 86.4609 76.1266 86.4609 75.9386 86.4609H75.3743C74.6219 86.4609 73.9009 86.4609 73.1486 86.4609C72.3962 86.4609 71.6439 86.4296 70.9229 86.3669Z" fill="#075955"/>
<path d="M75.8438 84.2354C75.5617 83.8906 75.1855 83.6084 74.8093 83.389C74.4332 83.1695 74.0256 82.9815 73.6181 82.8247L73.3046 82.7307L72.9911 82.6366C72.7717 82.5739 72.5523 82.5426 72.3328 82.4799L71.6745 82.3545C71.4551 82.3231 71.2356 82.2918 70.9849 82.2604C71.2043 82.2291 71.4237 82.2291 71.6745 82.1978C71.894 82.1978 72.1447 82.1977 72.3642 82.2291C72.8344 82.2918 73.2733 82.3545 73.7122 82.5112C74.151 82.668 74.5586 82.8874 74.9347 83.1695C75.3109 83.4517 75.6244 83.8279 75.8438 84.2354Z" fill="#075955"/>
<path d="M74.9043 83.201C75.0297 82.6681 75.2178 82.1978 75.4372 81.7276C75.6567 81.2574 75.9074 80.8185 76.2523 80.3796C76.1269 80.9126 75.9388 81.3828 75.7194 81.853C75.4686 82.3232 75.2178 82.7934 74.9043 83.201Z" fill="#075955"/>
<path d="M72.4282 81.1319C73.0238 81.0065 73.5881 80.9752 74.1837 80.9438C74.7793 80.9438 75.3436 80.9752 75.9392 81.0692C75.3436 81.1946 74.7793 81.226 74.1837 81.2573C73.5881 81.2573 72.9925 81.2573 72.4282 81.1319Z" fill="#075955"/>
<path d="M68.7905 22.9499L71.9567 28.8434L70.3579 22.5737" fill="#F9F3E5"/>
<path d="M68.7905 22.9499C69.0727 23.4201 69.3548 23.8904 69.6683 24.3919L70.5147 25.8339C71.0789 26.8057 71.6119 27.7775 72.1448 28.7493L71.8626 28.8747C71.6119 27.8402 71.3297 26.7744 71.1103 25.7399C70.8595 24.7054 70.6401 23.6396 70.4206 22.5737C70.7341 23.6082 71.0476 24.6427 71.3297 25.6772C71.6119 26.7117 71.894 27.7462 72.1761 28.812L72.4896 30.0659L71.894 28.9374C71.3611 27.9656 70.8282 26.9625 70.3266 25.9907L69.5742 24.486C69.2607 23.953 69.01 23.4515 68.7905 22.9499Z" fill="#075955"/>
<path d="M42.6154 22.4793L47.0668 19.5012C47.3803 19.2818 47.8191 19.3759 48.0386 19.658C48.2894 19.9715 48.2267 20.4103 47.9132 20.6611L44.5589 23.2944L48.5715 20.9433C48.979 20.6925 49.4806 20.8179 49.7314 21.2254C49.9508 21.6016 49.8568 22.1031 49.4806 22.3539L45.6561 24.9872L49.4806 23.1063C49.8254 22.9495 50.2643 23.1063 50.3897 23.4511C50.5151 23.7646 50.3897 24.1094 50.1076 24.2662L47.0668 26.0844L49.1044 25.4887C49.512 25.3634 49.9195 25.6141 50.0135 26.0217C50.0762 26.3665 49.8568 26.7113 49.5119 26.8367L46.1577 27.7772C46.1577 27.7772 42.584 30.4104 40.6718 28.8116C38.7282 27.2129 39.2925 24.9872 39.2925 24.9872L42.6154 22.4793Z" fill="#F9F3E5"/>
<path d="M42.6145 22.4794L45.0596 20.8179L46.2822 20.0029L46.9092 19.5953C47.0032 19.5326 47.0973 19.4386 47.2227 19.4072C47.3481 19.3759 47.4735 19.3446 47.5989 19.3759C47.8496 19.4072 48.0691 19.5953 48.1631 19.8461C48.2572 20.0969 48.2258 20.379 48.0691 20.5671C48.0064 20.6612 47.881 20.7552 47.7869 20.8179L47.5048 21.0374L46.9405 21.5076L44.6208 23.3571L44.5581 23.2631L47.0973 21.7584L48.3826 21.006C48.4766 20.9433 48.602 20.8806 48.7274 20.8179C48.8528 20.7552 49.0095 20.7552 49.1349 20.7552C49.417 20.7866 49.6678 20.9433 49.8246 21.1627C49.9813 21.3822 50.044 21.6957 49.95 21.9778C49.9186 22.1032 49.8246 22.2286 49.7305 22.354C49.6992 22.4167 49.6365 22.448 49.5738 22.4794L49.417 22.5734L48.1945 23.4198L45.7493 25.1126L45.5926 24.8618L47.7869 23.7646L48.8841 23.2317C49.0722 23.1377 49.229 23.0436 49.4484 22.9496C49.6992 22.8555 49.95 22.8869 50.1694 23.0123C50.3888 23.1377 50.5456 23.3885 50.5456 23.6392C50.5769 23.89 50.4829 24.1408 50.2948 24.3289C50.2634 24.3603 50.2007 24.423 50.138 24.4543L50.0127 24.517L49.7619 24.6737L49.229 24.9872L47.0973 26.2411L47.0032 25.9904L48.8841 25.4574L49.1349 25.3947C49.229 25.3634 49.323 25.3634 49.417 25.3947C49.6051 25.4261 49.7932 25.5201 49.9186 25.6769C50.1694 25.959 50.1694 26.4292 49.9186 26.7114C49.7932 26.8681 49.6051 26.9622 49.4484 26.9935L48.9782 27.1189L48.0377 27.3697L46.1568 27.8713H46.1882C45.4672 28.3728 44.7148 28.7803 43.8998 29.0625C43.0847 29.3446 42.207 29.5327 41.3606 29.2819C41.1411 29.2192 40.953 29.1252 40.765 28.9998C40.5769 28.8744 40.4201 28.7176 40.2634 28.5923C39.9499 28.2788 39.6991 27.9339 39.511 27.5578C39.1348 26.7741 39.0408 25.8963 39.1975 25.0499L42.6145 22.4794ZM42.6145 22.4794L39.2916 24.9872C39.1348 25.8336 39.2289 26.7114 39.6051 27.4637C39.7932 27.8399 40.0439 28.1847 40.3574 28.4982C40.5142 28.655 40.6709 28.7803 40.859 28.9057C41.0471 29.0311 41.2352 29.1252 41.4233 29.1565C42.2383 29.4073 43.1161 29.1879 43.8998 28.9057C44.6835 28.5923 45.4358 28.1847 46.1255 27.6832L48.0064 27.1502L48.9468 26.8681L49.417 26.7427C49.5738 26.7114 49.6992 26.6487 49.7619 26.5233C49.95 26.3038 49.9186 25.959 49.7619 25.7709C49.6678 25.6769 49.5424 25.6142 49.417 25.5828C49.2917 25.5515 49.1663 25.6142 48.9782 25.6455L47.0973 26.2098L46.0628 26.5233L47.0032 25.959L49.1036 24.7051L49.6365 24.3916L49.8873 24.2349L50.0127 24.1408C50.044 24.1095 50.0754 24.1095 50.1067 24.0781C50.2321 23.9841 50.2948 23.796 50.2634 23.6392C50.2321 23.4825 50.1694 23.3258 50.0127 23.2631C49.8873 23.169 49.6992 23.169 49.5738 23.2317C49.417 23.2944 49.1976 23.4198 49.0409 23.4825L47.9437 24.0154L45.718 25.0813L45.5612 24.8305L48.0064 23.169L49.229 22.3226L49.3857 22.2286C49.417 22.1972 49.4797 22.1659 49.5111 22.1345C49.5738 22.0718 49.6365 21.9778 49.6678 21.8524C49.7305 21.6643 49.6992 21.4135 49.5738 21.2254C49.4484 21.0374 49.2603 20.912 49.0409 20.912C48.9468 20.912 48.8214 20.912 48.7274 20.9433C48.6333 20.9747 48.5393 21.0374 48.4139 21.1L47.1286 21.8524L44.5581 23.3258L44.4954 23.2317L46.8465 21.4449L47.4421 21.006L47.7242 20.7866C47.8183 20.7239 47.9123 20.6298 48.0064 20.5358C48.1631 20.3477 48.1945 20.0969 48.1004 19.8461C48.0064 19.6267 47.8183 19.4386 47.5675 19.4072C47.4421 19.3759 47.3167 19.3759 47.2227 19.4386C47.0973 19.4699 47.0032 19.564 46.9092 19.6267L46.2822 20.0342L45.0596 20.8493L42.6145 22.4794Z" fill="#075955"/>
<path d="M39.2925 26.1161L40.7031 21.6333L44.9665 18.8746C44.9665 18.8746 45.8442 20.1286 44.5903 21.163C43.3364 22.1975 43.3364 22.1975 43.3364 22.1975C43.3364 22.1975 44.7471 24.2665 43.3677 26.4295C41.9884 28.5926 40.8599 28.7493 40.8599 28.7493L39.2925 26.1161Z" fill="#F9F3E5"/>
<path d="M39.2925 26.1159C39.7314 24.6112 40.1389 23.1065 40.6091 21.6018V21.5704L40.6405 21.5391L42.7408 20.1284L44.8725 18.7491L44.9978 18.655L45.0605 18.7804C45.28 19.0939 45.374 19.4701 45.374 19.8463C45.374 20.2224 45.2173 20.5986 44.9978 20.9121C44.8725 21.0688 44.7471 21.1942 44.5903 21.2883L44.1828 21.6018L43.3677 22.2601L43.3991 22.072C43.7753 22.6676 43.9634 23.3259 44.026 24.0156C44.0887 24.7052 43.932 25.3949 43.6499 26.0218C43.5558 26.1786 43.4931 26.304 43.3991 26.4607L43.117 26.8682C42.9289 27.1504 42.7094 27.4012 42.49 27.6519C42.2706 27.9027 42.0198 28.1222 41.7376 28.3416C41.4555 28.5297 41.1734 28.7178 40.8285 28.8118H40.7658L40.7345 28.7805L39.2925 26.1159ZM39.2925 26.1159L40.8912 28.6551L40.8285 28.6237C41.1107 28.561 41.3928 28.373 41.6436 28.1849C41.8944 27.9968 42.1138 27.746 42.3333 27.5266C42.5527 27.2758 42.7408 27.025 42.9289 26.7429L43.211 26.3353C43.2737 26.1786 43.3677 26.0532 43.4304 25.9278C43.7126 25.3635 43.8066 24.7052 43.7753 24.0783C43.7126 23.4513 43.4931 22.8243 43.1797 22.2914L43.117 22.166L43.211 22.072L44.026 21.4137L44.4336 21.1002C44.559 20.9748 44.6844 20.8807 44.7784 20.7554C44.9978 20.5046 45.0919 20.2224 45.0919 19.8776C45.0919 19.5641 44.9978 19.2193 44.8411 18.9685L45.0292 18.9999L42.8975 20.3792L40.7345 21.7271L40.7658 21.6645C40.327 23.1378 39.8254 24.6112 39.2925 26.1159Z" fill="#075955"/>
<path d="M94.7791 30.2227L86.0957 26.649L86.4092 24.2979L95.2494 27.8402L94.7791 30.2227Z" fill="#075955"/>
<path d="M65.812 30.6302L72.1757 37.0252L73.0848 35.1443L66.6584 28.4358L65.812 30.6302Z" fill="#075955"/>
<path d="M82.4271 42.0097C81.4867 41.2574 80.6089 40.4423 79.7625 39.6273C78.9161 38.7809 78.0697 37.9345 77.3174 37.0254C78.2578 37.7777 79.1356 38.5928 79.982 39.4079C80.8284 40.2229 81.6434 41.0693 82.4271 42.0097Z" fill="#075955"/>
<path d="M55.4985 33.7336C55.7493 34.9562 55.9061 36.1788 56.0315 37.4014C56.1568 38.624 56.2509 39.8779 56.2509 41.1005C56.0001 39.8779 55.8434 38.6553 55.718 37.4327C55.5926 36.2101 55.4985 34.9562 55.4985 33.7336Z" fill="#075955"/>
<path d="M29.7625 27.5894L30.1074 45.9908L16.6277 43.1695L15.7812 16.5862L21.9568 14.7053L29.7625 27.5894Z" fill="#F9F3E5"/>
<path d="M29.7618 27.5893L30.0126 36.7743L30.2321 45.9593V46.0847H30.1067L16.627 43.2947L16.5329 43.2634V43.138L16.3135 36.4922L16.1254 29.8464L15.6865 16.5861V16.492L15.7806 16.4607L21.9562 14.5798L22.0189 14.5485L22.0502 14.6112L23.9938 17.84L25.9374 21.0689L29.7618 27.5893ZM29.7618 27.5893L25.812 21.1629L23.837 17.9654L21.8621 14.7366L21.9562 14.7679L15.8119 16.6801L15.8746 16.5861L16.3448 29.8777L16.5643 36.5235L16.7524 43.1693L16.627 43.0439L30.1067 45.8966L29.9813 45.9907L29.8245 36.8057L29.7618 27.5893Z" fill="#075955"/>
<path d="M25.3418 33.7336L28.0377 37.0251L34.182 30.9436L25.3418 33.7336Z" fill="#F9F3E5"/>
<path d="M25.3433 33.7334C26.2837 34.862 27.2241 35.8965 28.1332 36.9623H27.9765L29.4812 35.4262L31.0173 33.8902C32.0518 32.8557 33.0549 31.8526 34.0894 30.8494L34.2461 31.1002L32.0518 31.7899C31.3308 32.0093 30.5784 32.2287 29.8574 32.4482L25.3433 33.7334ZM25.3433 33.7334L29.7007 32.2601C30.453 32.0093 31.174 31.7585 31.9264 31.5077L34.1521 30.7867L34.7164 30.5986L34.2775 31.0375C33.2743 32.072 32.2399 33.0751 31.2054 34.0783L29.6693 35.583L28.1019 37.0877L28.0079 37.1504L27.9452 37.0564C27.0674 35.9592 26.1897 34.7993 25.3433 33.7334Z" fill="#075955"/>
<path d="M30.1084 26.8691L37.5066 24.2986C38.3216 24.0164 39.1994 24.3299 39.6382 25.0509L41.6445 28.1544C42.1774 29.0008 41.958 30.1293 41.1116 30.6936L34.4971 35.0196L30.1084 26.8691Z" fill="#F9F3E5"/>
<path d="M30.1074 26.8682L35.9068 24.7679L37.3802 24.2349C37.8818 24.0155 38.4774 24.0469 38.979 24.2663C39.2297 24.3917 39.4492 24.5484 39.6373 24.7679C39.8253 24.9873 39.9194 25.2067 40.0761 25.4262L40.9225 26.7114L41.7689 27.9967C42.0824 28.4356 42.2078 29.0312 42.0824 29.5955C42.0197 29.8776 41.8943 30.1284 41.7376 30.3478C41.5808 30.5673 41.3301 30.7554 41.1106 30.8808L39.8253 31.7272L34.6216 35.0814L34.4962 35.1441L34.4335 35.0187L32.2704 30.8808L30.1074 26.8682ZM30.1074 26.8682L32.3958 30.9434L34.6216 34.956L34.4335 34.9247L39.6059 31.5077L40.8912 30.6613C41.3301 30.4105 41.6435 30.0344 41.7376 29.5641C41.863 29.0939 41.7689 28.5923 41.4868 28.2162L40.6404 26.8995L39.794 25.5829C39.6686 25.3635 39.5119 25.144 39.3865 24.956C39.2297 24.7679 39.0416 24.6111 38.8222 24.5171C38.3833 24.2976 37.8818 24.2663 37.4115 24.4544L35.9695 24.956L30.1074 26.8682Z" fill="#075955"/>
<path d="M111.33 65.3955L101.11 53.0757C100.452 52.292 99.3235 52.1666 98.5398 52.8249L97.5367 53.64C98.4458 54.8626 98.0382 56.8061 96.5649 58.0287C95.0602 59.2513 93.0539 59.2826 92.0821 58.0601L91.173 58.7811C90.3266 59.4707 90.2012 60.7247 90.8909 61.5711L100.86 73.8909C101.487 74.6432 102.552 74.7686 103.305 74.173L111.048 68.1228C111.894 67.4332 112.02 66.2106 111.33 65.3955Z" fill="#F9F3E5"/>
<path d="M111.331 65.3952L104.873 57.6835L101.644 53.8277L101.236 53.3575C101.111 53.2007 100.986 53.044 100.829 52.9186C100.515 52.6678 100.108 52.5111 99.7318 52.5111C98.8854 52.4797 98.3211 53.2321 97.6628 53.7023L97.6941 53.5456C98.2271 54.2352 98.3211 55.207 98.1017 56.0221C97.8822 56.8371 97.3806 57.5895 96.7223 58.1224C96.064 58.6553 95.249 59.0315 94.3712 59.0628C93.5248 59.1255 92.5844 58.812 92.0515 58.091L92.2709 58.1224L91.3932 58.812C91.111 59.0315 90.9229 59.3136 90.7975 59.6271C90.6721 59.9406 90.6721 60.3168 90.7348 60.6302C90.7662 60.787 90.8289 60.9437 90.9229 61.1005C91.017 61.2572 91.111 61.3826 91.2364 61.5393L94.0264 65.019L99.6064 71.9783L100.986 73.7338C101.425 74.298 102.24 74.5488 102.929 74.298C103.274 74.1726 103.556 73.9219 103.838 73.7024L104.716 73.0128L106.472 71.6648L110.014 68.9375L110.892 68.2478C111.048 68.1224 111.205 68.0284 111.331 67.903C111.456 67.7776 111.581 67.6209 111.644 67.4641C111.895 66.8058 111.832 65.9594 111.331 65.3952ZM111.331 65.3952C111.801 65.9594 111.895 66.8372 111.55 67.4955C111.456 67.6522 111.362 67.809 111.237 67.9344C111.111 68.0597 110.954 68.1851 110.798 68.2792L109.92 68.9688L106.409 71.7275L104.653 73.1068L103.776 73.7965C103.494 74.0159 103.211 74.298 102.835 74.4234C102.114 74.7056 101.236 74.4548 100.766 73.8592L99.3556 72.135L93.7129 65.2384L90.8916 61.7901C90.7662 61.6647 90.6408 61.4766 90.5467 61.3199C90.4527 61.1318 90.39 60.9437 90.3273 60.7556C90.2333 60.3795 90.2646 59.9406 90.4214 59.5644C90.5467 59.1882 90.7975 58.8434 91.111 58.5926L91.9888 57.9029L92.1142 57.8089L92.2082 57.9343C92.6784 58.5613 93.4935 58.8434 94.3085 58.812C95.0922 58.7807 95.8759 58.4359 96.5029 57.9343C97.1299 57.4327 97.6001 56.7431 97.8195 55.9594C98.039 55.207 97.9763 54.3293 97.4747 53.6709L97.412 53.5769L97.4747 53.5142L98.4465 52.7305C98.7913 52.4484 99.2302 52.2916 99.6691 52.2916C100.108 52.2916 100.547 52.4484 100.892 52.7305C101.048 52.8559 101.205 53.044 101.331 53.2007L101.738 53.7023L104.936 57.5895L111.331 65.3952Z" fill="#075955"/>
<path d="M81.958 77.3387L80.3906 61.2571C80.3279 60.5675 79.795 60.0032 79.1053 59.9092L77.4439 59.6897V59.7211C77.3185 60.9123 75.8451 61.79 74.121 61.602C72.3968 61.4452 71.0802 60.3167 71.2056 59.1255C71.2056 59.0314 71.2369 58.9687 71.2369 58.8747L69.9203 58.7179C68.9799 58.5925 68.1648 59.3762 68.2589 60.348L69.8263 76.4296C69.889 77.1193 70.4219 77.6836 71.1116 77.7776L80.2966 78.9688C81.237 79.0942 82.0521 78.2792 81.958 77.3387Z" fill="#F9F3E5"/>
<path d="M80.4839 79.1255C80.4212 79.1255 80.3271 79.1255 80.2644 79.1255L71.0794 77.9343C70.3271 77.8403 69.7314 77.2447 69.6374 76.461L68.07 60.3794C68.0073 59.8778 68.1954 59.3762 68.5716 59.0314C68.9477 58.6866 69.418 58.5298 69.9195 58.5925L71.4242 58.7806L71.3929 58.9373C71.3615 59 71.3615 59.0627 71.3615 59.1568C71.2988 59.6897 71.5496 60.2226 72.0825 60.6615C72.6155 61.1004 73.3365 61.3825 74.1515 61.4765C74.9666 61.5392 75.7189 61.4138 76.3145 61.069C76.9102 60.7242 77.255 60.254 77.2863 59.721V59.5643H77.4431L79.1045 59.7837C79.8569 59.8778 80.4525 60.4734 80.5465 61.2571L82.114 77.3387C82.1767 77.8403 81.9886 78.3418 81.6124 78.6867C81.3303 78.9688 80.9227 79.1255 80.4839 79.1255ZM69.7001 58.906C69.3553 58.906 69.0104 59.0314 68.7596 59.2822C68.4775 59.5643 68.3208 59.9718 68.3521 60.3794L69.9195 76.461C69.9822 77.0879 70.4524 77.5895 71.0794 77.6522L80.2644 78.8434C80.6719 78.9061 81.0795 78.7494 81.3616 78.4672C81.6437 78.1851 81.8005 77.7776 81.7691 77.3701L80.2017 61.2885C80.139 60.6615 79.6688 60.1599 79.0418 60.0972L77.5371 59.9091C77.4431 60.5047 77.0356 61.0063 76.4086 61.3511C75.7503 61.7273 74.9039 61.8841 74.0575 61.79C73.1797 61.696 72.396 61.3825 71.8318 60.9123C71.2362 60.4107 70.954 59.7837 71.0167 59.1568C71.0167 59.1254 71.0167 59.0941 71.0167 59.0627L69.8568 58.906C69.8255 58.906 69.7628 58.906 69.7001 58.906Z" fill="#075955"/>
<path d="M90.4517 43.1379C91.4235 45.6771 92.3639 48.2163 93.3043 50.7555C94.2448 53.2947 95.1539 55.8653 96.0943 58.4045L96.063 58.3418L98.853 61.5393L101.643 64.7368L104.402 67.9343L107.129 71.1632L104.276 68.0284L101.455 64.8622L98.6335 61.696L95.8435 58.5299L95.8122 58.4985V58.4672C94.9031 55.8966 93.994 53.3574 93.1163 50.7869C92.2072 48.279 91.3294 45.7085 90.4517 43.1379Z" fill="#075955"/>
<path d="M79.637 44.0157L78.3204 48.4358L76.9724 52.8559L74.2451 61.6648V61.6021C74.5586 64.3921 74.8721 67.182 75.1542 70.0034C75.4364 72.7934 75.7498 75.6147 76.0006 78.4047C75.6244 75.6147 75.2796 72.8247 74.9348 70.0347C74.59 67.2447 74.2765 64.4548 73.9316 61.6334V61.6021V61.5707L76.7216 52.7619L78.1323 48.3731L79.637 44.0157Z" fill="#075955"/>
<path d="M24.0566 18.7177C29.2159 18.7177 33.3983 14.5352 33.3983 9.37593C33.3983 4.21662 29.2159 0.0341797 24.0566 0.0341797C18.8973 0.0341797 14.7148 4.21662 14.7148 9.37593C14.7148 14.5352 18.8973 18.7177 24.0566 18.7177Z" fill="#F9F3E5"/>
<path d="M15.4061 5.92775C14.497 8.21616 14.5284 10.8181 15.5315 13.0438C16.5033 15.2695 18.3842 17.0877 20.6413 17.9654C21.7698 18.4043 22.9924 18.6238 24.1836 18.5924C25.4062 18.5611 26.5974 18.3103 27.6946 17.8087C29.9203 16.8683 31.7072 14.9874 32.5849 12.7616C33.494 10.5359 33.4627 7.93403 32.5222 5.73966C32.052 4.64247 31.3623 3.60798 30.5159 2.76158C29.6695 1.91518 28.635 1.22552 27.5065 0.786651C25.2494 -0.122446 22.6475 -0.122446 20.3905 0.817999C18.1334 1.78979 16.3152 3.67068 15.4061 5.92775ZM15.4061 5.92775C16.2839 3.63933 18.1334 1.75844 20.3905 0.786651C21.4877 0.316428 22.7102 0.0342947 23.9328 0.00294659C25.1554 -0.0284016 26.4093 0.191036 27.5379 0.62991C29.8263 1.50766 31.7699 3.3572 32.7416 5.64561C33.7448 7.90268 33.7761 10.5986 32.867 12.887C31.9579 15.2068 30.0771 17.119 27.7886 18.0595C25.5002 19.0313 22.8356 19.0313 20.5786 18.0908C19.45 17.6206 18.3842 16.931 17.5064 16.0846C16.6287 15.2068 15.939 14.1723 15.4688 13.0751C14.497 10.8181 14.497 8.18482 15.4061 5.92775Z" fill="#075955"/>
<path d="M29.0412 1.47632C32.7716 3.82743 34.4331 8.59235 32.7403 12.8244C32.27 14.0156 31.549 15.0814 30.7026 15.9592C30.7026 15.9592 24.8719 15.9592 20.6712 11.6018C20.6712 11.6018 20.2637 10.4419 20.3264 10.2225C22.364 2.41676 29.0412 1.47632 29.0412 1.47632Z" fill="#0A726A"/>
<path d="M21.0825 13.7386C21.9119 13.4357 22.1894 12.1091 21.7023 10.7756C21.2152 9.44208 20.148 8.60665 19.3186 8.9096C18.4892 9.21254 18.2118 10.5391 18.6988 11.8726C19.1859 13.2061 20.2531 14.0416 21.0825 13.7386Z" fill="#F9F3E5"/>
<path d="M18.6958 11.8523C18.8839 12.3539 19.166 12.8554 19.5736 13.2316C19.7616 13.4197 20.0124 13.5764 20.2632 13.6705C20.514 13.7645 20.7961 13.7645 21.0469 13.6705C21.2977 13.5764 21.4858 13.357 21.6112 13.1376C21.7366 12.8868 21.7993 12.636 21.8306 12.3539C21.8933 11.8209 21.7993 11.2567 21.6112 10.7551C21.4231 10.2535 21.141 9.75197 20.7648 9.37579C20.5767 9.1877 20.3573 9.03096 20.1065 8.93692C19.8557 8.84287 19.5736 8.81152 19.3228 8.90557C19.072 8.99961 18.8526 9.1877 18.7272 9.43849C18.6018 9.68927 18.5077 9.94006 18.4764 10.2222C18.445 10.7865 18.5391 11.3507 18.6958 11.8523ZM18.6958 11.8523C18.5077 11.3194 18.4137 10.7865 18.4764 10.2222C18.5077 9.94006 18.5704 9.65792 18.6958 9.40714C18.8212 9.15635 19.0406 8.93692 19.3228 8.84287C19.6049 8.74883 19.887 8.74883 20.1692 8.84287C20.4513 8.93692 20.6707 9.09366 20.8902 9.31309C21.2977 9.68927 21.6112 10.1908 21.7993 10.7238C21.9874 11.2567 22.0814 11.8209 22.0187 12.3852C21.9874 12.6673 21.8933 12.9495 21.7679 13.2003C21.6112 13.4511 21.3918 13.6705 21.141 13.7645C20.8588 13.8586 20.5767 13.8272 20.2946 13.7332C20.0438 13.6391 19.793 13.4511 19.6049 13.263C19.166 12.8868 18.9152 12.3852 18.6958 11.8523Z" fill="#075955"/>
<path d="M19.6054 9.59558C19.4173 10.2225 19.4487 10.8495 19.6368 11.4451C19.7308 11.7273 19.8562 12.0094 20.0129 12.2915C20.0756 12.4169 20.1697 12.5737 20.2637 12.699C20.3578 12.8244 20.4518 12.9812 20.5459 13.1066C20.4205 13.0125 20.2951 12.8871 20.1697 12.7931C20.0443 12.6677 19.9502 12.5423 19.8249 12.4169C19.6368 12.1348 19.4487 11.8526 19.3546 11.5078C19.2606 11.1943 19.1979 10.8182 19.2606 10.4733C19.2606 10.1912 19.386 9.84637 19.6054 9.59558Z" fill="#075955"/>
<path d="M24.4322 8.65507C25.2112 8.65507 25.8428 8.0235 25.8428 7.24441C25.8428 6.46532 25.2112 5.83374 24.4322 5.83374C23.6531 5.83374 23.0215 6.46532 23.0215 7.24441C23.0215 8.0235 23.6531 8.65507 24.4322 8.65507Z" fill="#F9F3E5"/>
<path d="M22.6144 9.81504C22.9779 9.81504 23.2727 9.5203 23.2727 9.15672C23.2727 8.79315 22.9779 8.49841 22.6144 8.49841C22.2508 8.49841 21.9561 8.79315 21.9561 9.15672C21.9561 9.5203 22.2508 9.81504 22.6144 9.81504Z" fill="#F9F3E5"/>
<path d="M34.3409 30.9443L26.3158 34.2359C25.5321 34.5494 24.6543 34.1732 24.3408 33.4208L20.485 24.0477C19.4505 21.5085 20.6731 18.5932 23.2123 17.5587L23.4317 17.4646C25.9709 16.4301 28.8863 17.6214 29.9208 20.1606L34.3409 30.9443Z" fill="#F9F3E5"/>
<path d="M34.3391 30.9437L28.7591 33.3261L27.3484 33.9217L26.6274 34.2039C26.408 34.2979 26.1572 34.4233 25.8751 34.4547C25.3422 34.5173 24.7779 34.2666 24.4331 33.8277C24.339 33.7336 24.2763 33.6083 24.2136 33.4829L24.0569 33.138L23.7747 32.4484L21.4236 26.837C21.0475 25.8966 20.6399 24.9562 20.2638 24.0157C19.8876 23.0439 19.7935 21.9467 20.0757 20.9436C20.2011 20.442 20.3891 19.9405 20.6713 19.5016C20.9534 19.0627 21.2669 18.6552 21.6744 18.3104C22.0819 17.9655 22.5208 17.6834 22.991 17.4953C23.4613 17.2759 23.9628 17.1191 24.4644 17.0564C24.966 16.9624 25.4989 16.9937 26.0318 17.0564C26.5334 17.1505 27.0663 17.3072 27.5052 17.5266C27.9754 17.7774 28.4143 18.0596 28.7905 18.4357C29.1666 18.8119 29.4801 19.2194 29.7309 19.6897C31.3924 23.4201 32.8344 27.2132 34.3391 30.9437ZM34.3391 30.9437L31.9566 25.301L30.7654 22.511L30.1698 21.1317C29.9817 20.6615 29.7936 20.1912 29.5742 19.7524C29.3234 19.3135 29.0099 18.9373 28.6651 18.5925C28.3202 18.2477 27.8814 17.9655 27.4425 17.7461C27.0036 17.5266 26.5334 17.3699 26.0318 17.3072C25.5302 17.2445 25.06 17.2132 24.5585 17.3072C24.0569 17.3699 23.618 17.5266 23.1478 17.7461C22.6776 17.9342 22.27 18.2163 21.8939 18.5298C21.5177 18.8433 21.2042 19.2508 20.9534 19.6583C20.7026 20.0658 20.5145 20.5361 20.3891 21.0063C20.1384 21.9467 20.2011 22.9812 20.5459 23.8903C20.9221 24.8308 21.2982 25.7712 21.7058 26.7117L23.9942 32.3543L24.2763 33.0753L24.4331 33.4202C24.4958 33.5142 24.5271 33.6396 24.6211 33.7336C24.9033 34.1098 25.3735 34.3293 25.8751 34.2979C26.1259 34.2666 26.3453 34.1725 26.5647 34.0785L27.2544 33.7963L28.6651 33.2321L34.3391 30.9437Z" fill="#075955"/>
<path d="M42.5532 36.1791L41.9263 41.3202C41.8322 42.1039 41.0172 42.6055 40.2648 42.3547L26.9418 37.7152C26.4089 37.4957 26.3149 36.7747 26.7851 36.4299L34.1833 30.944L41.8636 34.9252C42.3338 35.1446 42.6159 35.6775 42.5532 36.1791Z" fill="#F9F3E5"/>
<path d="M42.5527 36.1788L42.0825 40.1914L41.9571 41.1945C41.9257 41.5394 41.8003 41.8842 41.5496 42.1036C41.2988 42.3231 40.9539 42.4798 40.6091 42.4484C40.421 42.4484 40.2643 42.3858 40.1075 42.3231L39.6373 42.1663L31.9884 39.5958L28.1639 38.2791L27.2235 37.9657L26.9727 37.8716C26.91 37.8403 26.7846 37.7776 26.7219 37.7462C26.5651 37.6208 26.4397 37.4327 26.4084 37.2447C26.377 37.0566 26.377 36.8371 26.4711 36.649C26.5024 36.555 26.5651 36.461 26.6592 36.3983C26.7532 36.3356 26.8159 36.2729 26.8786 36.2415L27.6937 35.6459C29.8567 34.0471 32.0511 32.4797 34.2141 30.9123L34.2454 30.881L34.2768 30.9123L38.7596 33.2948L41.0166 34.486L41.5809 34.7682C41.769 34.8622 41.9571 34.9562 42.1452 35.0816C42.4273 35.3011 42.6154 35.7713 42.5527 36.1788ZM42.5527 36.1788C42.6154 35.7713 42.4273 35.3011 42.0825 35.0503C41.9257 34.9249 41.7063 34.8309 41.5182 34.7368L40.9539 34.4547L38.6969 33.2948L34.1514 31.0064H34.2141C32.0824 32.6365 29.9194 34.2666 27.7564 35.8653L26.9413 36.461C26.7846 36.555 26.7219 36.649 26.6592 36.7744C26.5965 36.8998 26.5965 37.0252 26.6278 37.1506C26.6592 37.276 26.7219 37.4014 26.8473 37.4641C26.91 37.4954 26.9413 37.5268 27.0354 37.5581L27.2861 37.6522L28.2266 37.997L32.0197 39.345L39.606 42.0723L40.0762 42.229C40.2329 42.2917 40.3897 42.3544 40.5464 42.3544C40.8599 42.3858 41.2047 42.2604 41.4555 42.0409C41.7063 41.8215 41.8317 41.508 41.863 41.1632L41.9884 40.16L42.5527 36.1788Z" fill="#075955"/>
<path d="M23.9629 32.5109L33.4927 28.8432L32.521 26.5234L23.0225 30.2225L23.9629 32.5109Z" fill="#075955"/>
<path d="M41.0785 34.392C41.0472 35.0503 40.9531 35.7086 40.8904 36.3669C40.8277 37.0252 40.7024 37.6835 40.6083 38.3418C40.5143 39.0001 40.3889 39.6585 40.2635 40.2854L40.0754 41.2572C40.0127 41.5707 39.9187 41.9155 39.856 42.229C39.8873 41.8842 39.9187 41.5707 39.95 41.2259L40.0754 40.2541C40.1381 39.5958 40.2635 38.9375 40.3575 38.2791C40.4516 37.6208 40.577 36.9625 40.7024 36.3356C40.7964 35.6772 40.9218 35.0189 41.0785 34.392Z" fill="#075955"/>
<path d="M47.3497 43.7962C46.8168 44.1097 46.1585 43.9216 45.845 43.3886L44.7478 41.4764C44.4343 40.9435 44.6224 40.2852 45.1553 39.9717C45.6883 39.6582 46.3466 39.8463 46.6601 40.3792L47.7572 42.2915C48.0707 42.8244 47.8826 43.514 47.3497 43.7962Z" fill="#F9F3E5"/>
<path d="M47.3489 43.7962C46.9414 44.0469 46.3771 43.9843 46.0323 43.6394C45.8442 43.4827 45.7502 43.2632 45.6248 43.0752L45.2486 42.4795L44.8724 41.8839L44.6843 41.5704C44.6217 41.4764 44.559 41.351 44.5276 41.2256C44.3709 40.724 44.6217 40.1284 45.0919 39.8463C45.5621 39.5642 46.1891 39.6582 46.5652 40.0344C46.6593 40.1284 46.722 40.2538 46.7847 40.3479L46.9414 40.6613L47.2549 41.2883L47.5684 41.9153C47.6624 42.1347 47.8192 42.3228 47.8505 42.5736C48.0073 43.0438 47.7878 43.5767 47.3489 43.7962ZM47.3489 43.7962C47.7565 43.5767 47.9759 43.0438 47.8505 42.6049C47.7878 42.3855 47.6311 42.1974 47.5057 42.0093L47.1295 41.4137L46.7533 40.8181L46.5652 40.5046C46.5025 40.4106 46.4398 40.3165 46.3771 40.2538C46.0637 39.9717 45.5934 39.9403 45.2486 40.1284C44.9038 40.3165 44.6843 40.7554 44.7784 41.1629C44.8097 41.257 44.8411 41.351 44.8724 41.4451L45.0292 41.7585L45.3427 42.3855L45.6561 43.0125C45.7815 43.2319 45.8442 43.4513 46.0323 43.6081C46.3771 43.9529 46.9414 44.0469 47.3489 43.7962Z" fill="#075955"/>
<path d="M49.8566 43.4828C49.3236 43.7963 48.6653 43.6082 48.3518 43.0753L47.2547 41.1631C46.9412 40.6301 47.1293 39.9718 47.6622 39.6583C48.1951 39.3449 48.8534 39.533 49.1669 40.0659L50.2641 41.9781C50.5776 42.511 50.3895 43.2007 49.8566 43.4828Z" fill="#F9F3E5"/>
<path d="M49.8558 43.4827C49.4483 43.7335 48.884 43.6708 48.5392 43.3259C48.3511 43.1692 48.257 42.9498 48.1316 42.7617L47.7555 42.1661L47.3793 41.5705L47.1912 41.257C47.1285 41.1629 47.0658 41.0375 47.0344 40.9121C46.8777 40.4106 47.1285 39.815 47.5987 39.5328C48.0689 39.2507 48.6959 39.3447 49.0721 39.7209C49.1661 39.815 49.2288 39.9403 49.2915 40.0344L49.4482 40.3479L49.7617 40.9748L50.0752 41.6018C50.1693 41.8212 50.326 42.0093 50.3573 42.2601C50.5141 42.7303 50.2947 43.2632 49.8558 43.4827ZM49.8558 43.4827C50.2633 43.2632 50.4827 42.7303 50.3573 42.2915C50.2947 42.072 50.1379 41.8839 50.0125 41.6958L49.6363 41.1002L49.2602 40.5046L49.0721 40.1911C49.0094 40.0971 48.9467 40.003 48.884 39.9403C48.5705 39.6582 48.1003 39.6269 47.7555 39.815C47.4106 40.003 47.1912 40.4419 47.2852 40.8494C47.3166 40.9435 47.3479 41.0375 47.3793 41.1316L47.536 41.4451L47.8495 42.072L48.163 42.699C48.2884 42.9184 48.3511 43.1379 48.5392 43.2946C48.884 43.6394 49.4483 43.7335 49.8558 43.4827Z" fill="#075955"/>
<path d="M52.3653 43.1692C51.8324 43.4827 51.1741 43.2946 50.8606 42.7617L49.7634 40.8495C49.45 40.3165 49.6381 39.6582 50.171 39.3447C50.7039 39.0313 51.3622 39.2194 51.6757 39.7523L52.7729 41.6645C53.0864 42.1974 52.8983 42.8871 52.3653 43.1692Z" fill="#F9F3E5"/>
<path d="M52.3646 43.1692C51.957 43.42 51.3928 43.3573 51.0479 43.0125C50.8599 42.8557 50.7658 42.6363 50.6404 42.4482L50.2642 41.8526L49.8881 41.257L49.7 40.9435C49.6373 40.8494 49.5746 40.7241 49.5432 40.5987C49.3865 40.0971 49.6373 39.5015 50.1075 39.2193C50.5777 38.9372 51.2047 39.0313 51.5809 39.4074C51.6749 39.5015 51.7376 39.6269 51.8003 39.7209L51.957 40.0344L52.2705 40.6614L52.584 41.2883C52.678 41.5078 52.8348 41.6958 52.8661 41.9466C53.0229 42.4169 52.8034 42.9498 52.3646 43.1692ZM52.3646 43.1692C52.7721 42.9498 52.9915 42.4169 52.8661 41.978C52.8034 41.7585 52.6467 41.5705 52.5213 41.3824L52.1451 40.7868L51.769 40.1911L51.5809 39.8777C51.5182 39.7836 51.4555 39.6896 51.3928 39.6269C51.0793 39.3447 50.6091 39.3134 50.2642 39.5015C49.9194 39.6896 49.7 40.1284 49.794 40.536C49.8254 40.63 49.8567 40.7241 49.8881 40.8181L50.0448 41.1316L50.3583 41.7585L50.6718 42.3855C50.7972 42.6049 50.8599 42.8244 51.0479 42.9811C51.3928 43.326 51.957 43.42 52.3646 43.1692Z" fill="#075955"/>
<path d="M18.6331 16.1472V40.6615C18.6331 42.9185 17.2538 44.9562 15.1221 45.7712L12.9277 46.6176V18.561L18.6331 16.1472Z" fill="#199E8E"/>
<path d="M26.0317 79.8464L25.7183 86.022C25.8437 87.5894 27.1289 88.7807 28.6963 88.7807H42.8971C42.8971 88.7807 43.9315 86.3668 41.2669 84.9875C38.571 83.6082 35.1227 81.696 35.1227 81.696L34.966 77.4326L26.0317 79.8464Z" fill="#F9F3E5"/>
<path d="M42.9916 88.9061H28.6968C27.0667 88.9061 25.6874 87.6208 25.562 86.0221L25.8755 79.7211L35.0919 77.2133L35.2486 81.5707C35.7815 81.8528 38.885 83.5769 41.2988 84.8309C44.0888 86.2415 43.0229 88.8121 43.0229 88.8121L42.9916 88.9061ZM26.189 79.9405L25.8755 85.9907C26.0009 87.4328 27.2235 88.5613 28.6968 88.5613H42.7721C42.9289 88.1224 43.4305 86.2102 41.1734 85.0503C38.5088 83.7023 35.0605 81.7901 35.0292 81.7587L34.9665 81.7274L34.8097 77.5894L26.189 79.9405Z" fill="#075955"/>
<path d="M15.1551 89.158L2.27098 87.7474C0.703577 87.5593 -0.330912 85.9605 0.202007 84.4871L2.30233 78.5937C2.14559 77.9667 2.67851 77.3711 3.33682 77.4652L12.3964 77.9981L10.9858 82.5749L14.7162 84.7379C15.8761 85.4589 16.5344 86.7756 16.3777 88.1235C16.3463 88.7505 15.782 89.2207 15.1551 89.158Z" fill="#F9F3E5"/>
<path d="M15.1541 89.1569L12.2074 88.8747L9.26069 88.624C7.28576 88.4359 5.34217 88.2478 3.36724 88.0283L2.64623 87.9343C2.39544 87.903 2.14466 87.8716 1.89387 87.8089C1.3923 87.6835 0.95343 87.37 0.6086 86.9939C0.26377 86.6177 0.0756811 86.1161 0.0129848 85.6145C-0.0183633 85.3638 0.0129848 85.113 0.044333 84.8622C0.0756811 84.6114 0.201074 84.392 0.26377 84.1412C0.95343 82.2916 1.58039 80.4421 2.2387 78.5612V78.5925C2.17601 78.3418 2.20736 78.091 2.33275 77.8715C2.45814 77.6521 2.64623 77.464 2.86567 77.4013C2.99106 77.3386 3.11645 77.3386 3.24184 77.3386L3.58667 77.37L4.27633 77.4013L7.00362 77.5267L12.4269 77.8402H12.6463L12.5836 78.0283L11.8626 80.3167C11.6118 81.0691 11.3924 81.8528 11.1416 82.6051L11.0789 82.417L13.2419 83.7023L14.3391 84.3606C14.5272 84.486 14.7153 84.5801 14.872 84.7054C15.0601 84.8308 15.2168 84.9562 15.3736 85.113C16.0005 85.7086 16.3767 86.555 16.4394 87.4014C16.4708 87.6208 16.4708 87.8403 16.4394 88.0283C16.4394 88.2478 16.3767 88.4672 16.2513 88.624C16.0319 89.0001 15.593 89.2196 15.1541 89.1569ZM15.1541 89.1255C15.5617 89.1569 16.0005 88.9688 16.22 88.624C16.3454 88.4359 16.3767 88.2478 16.4081 88.0283C16.4394 87.8089 16.4081 87.6208 16.4081 87.4014C16.314 86.555 15.9065 85.7713 15.3109 85.2384C14.9974 84.9562 14.6526 84.7681 14.2764 84.5487L13.1792 83.9217L10.9848 82.6678L10.8908 82.6051L10.9221 82.4797C11.1416 81.7274 11.3924 80.9437 11.6118 80.1913L12.3015 77.9029L12.4582 78.1223L7.03497 77.7775L4.30768 77.5894L3.61802 77.5267C3.39859 77.5267 3.17915 77.464 2.99106 77.5581C2.58353 77.6835 2.33275 78.1223 2.42679 78.5612V78.5925V78.6239C1.73713 80.4734 1.07882 82.323 0.420511 84.2039C0.326466 84.4233 0.26377 84.6741 0.201074 84.8935C0.169726 85.1443 0.169726 85.3638 0.201074 85.6145C0.26377 86.0848 0.483207 86.555 0.796689 86.8998C1.11017 87.2446 1.54904 87.4954 1.98792 87.6208C2.20736 87.6835 2.45814 87.6835 2.70893 87.7149L3.42993 87.7776C5.40487 87.9657 7.34845 88.1851 9.29204 88.4672L12.2388 88.8434L15.1541 89.1255Z" fill="#075955"/>
<path d="M11.4556 88.5613L11.6437 86.8372L14.2456 87.1193C15.2173 87.2133 15.907 88.0911 15.7816 89.0629" fill="#F9F3E5"/>
<path d="M11.4565 88.5613C11.4565 88.2792 11.4565 87.9657 11.4879 87.6836C11.4879 87.4014 11.5192 87.0879 11.5506 86.8058V86.6804H11.676C12.1149 86.7118 12.5537 86.7431 13.024 86.8058C13.4628 86.8372 13.9017 86.8999 14.3719 86.9626C14.8421 87.0252 15.281 87.3074 15.5632 87.7149C15.8453 88.0911 15.9393 88.5927 15.8453 89.0315C15.8453 88.5927 15.6885 88.1538 15.4064 87.8403C15.1243 87.5268 14.7481 87.3074 14.3406 87.276C13.9017 87.2133 13.4628 87.182 13.024 87.1193C12.5851 87.0566 12.1462 86.9939 11.7073 86.9312L11.8327 86.8372C11.8014 87.1193 11.7387 87.4014 11.676 87.7149C11.5819 87.997 11.5506 88.2792 11.4565 88.5613Z" fill="#075955"/>
<path d="M11.4544 86.9941C10.7021 86.9627 9.98105 86.9314 9.2287 86.8687C8.50769 86.806 7.75534 86.7433 7.03433 86.6493L6.47006 86.5866C6.28197 86.5552 6.09388 86.5552 5.90579 86.4925C5.52962 86.3985 5.15344 86.2417 4.8713 85.9909C4.55782 85.7402 4.33839 85.4267 4.1503 85.1132C3.99356 84.7684 3.93086 84.3922 3.86816 84.0474C4.0249 84.3922 4.0876 84.737 4.30704 85.0505C4.49513 85.364 4.74591 85.6148 5.02805 85.8342C5.31018 86.0223 5.65501 86.179 5.99984 86.2417C6.15658 86.2731 6.34467 86.3044 6.53276 86.3044L7.09702 86.3671C7.81803 86.4612 8.57039 86.5239 9.2914 86.6493C10.0124 86.712 10.7334 86.8373 11.4544 86.9941Z" fill="#075955"/>
<path d="M6.78369 84.3608C7.00313 83.9533 7.37931 83.6398 7.78683 83.4204C8.19436 83.1696 8.63323 83.0128 9.07211 82.8875C9.51098 82.7621 9.9812 82.7307 10.4514 82.7307C10.6709 82.7307 10.9216 82.7621 11.1411 82.7621C11.3605 82.7934 11.58 82.8248 11.8307 82.8875C11.6113 82.9188 11.3605 82.8875 11.1411 82.9188L10.4828 82.9502C10.2633 82.9815 10.0439 82.9815 9.82446 83.0442L9.51098 83.1069L9.1975 83.1696C8.75862 83.2636 8.3511 83.4204 7.94357 83.6085C7.5047 83.7966 7.12852 84.0473 6.78369 84.3608Z" fill="#075955"/>
<path d="M7.81887 83.4204C7.53673 82.9815 7.3173 82.5113 7.12921 82.0097C6.94112 81.5082 6.81572 81.0066 6.72168 80.505C7.00381 80.9439 7.22325 81.4141 7.41134 81.9157C7.59943 82.3859 7.75617 82.8875 7.81887 83.4204Z" fill="#075955"/>
<path d="M10.4826 81.6022C9.88696 81.6649 9.32269 81.6336 8.72708 81.5709C8.16281 81.5082 7.5672 81.4142 7.00293 81.2261C7.59854 81.1634 8.16281 81.1947 8.75843 81.2574C9.35404 81.3201 9.91831 81.4142 10.4826 81.6022Z" fill="#075955"/>
<path d="M2.99072 14.1723L12.9281 18.5924L18.6335 16.1786L10.9218 12.4481C9.88732 11.9466 8.66474 11.9152 7.56755 12.3227L2.99072 14.1723Z" fill="#0A726A"/>
<path d="M2.99072 14.1722V36.7743C2.99072 38.7178 3.96252 40.536 5.56127 41.6019L12.9281 46.6176V18.561L2.99072 14.1722Z" fill="#6AD3C7"/>
<path d="M8.31992 41.1318L2.05029 37.0565V22.6364L8.31992 26.7116V41.1318Z" fill="#199E8E"/>
<path d="M43.9937 22.5737C44.5266 23.138 44.9654 23.765 45.373 24.3919C45.7805 25.0189 46.188 25.6772 46.5015 26.3669C45.9686 25.8026 45.5297 25.1756 45.1222 24.5487C44.7147 23.9531 44.3071 23.2947 43.9937 22.5737Z" fill="#075955"/>
<path d="M36.1263 59.6587C36.095 58.7496 35.2172 58.1539 34.3708 58.3734L32.2391 58.969C32.5213 60.1289 31.4241 61.4455 29.7313 61.853C28.1325 62.2605 26.6278 61.7276 26.2203 60.6618L23.9946 61.2888C23.3676 61.4768 22.9601 62.0411 22.9914 62.6994L24.0886 80.9441C24.1513 81.7905 24.935 82.4174 25.7814 82.2293L35.9069 79.9409C36.5652 79.7842 37.0041 79.1886 36.9727 78.5302L36.1263 59.6587Z" fill="#F9F3E5"/>
<path d="M25.4367 82.4798C25.0918 82.4798 24.7784 82.3858 24.4962 82.1664C24.1201 81.8842 23.9006 81.4767 23.8693 81.0378L22.7721 62.7932C22.7407 62.0722 23.1796 61.4139 23.9006 61.2258L26.2517 60.5675L26.3144 60.6929C26.6906 61.6647 28.164 62.1662 29.6373 61.7901C31.2361 61.3825 32.3019 60.1913 32.0198 59.0941L31.9884 58.9374L34.2769 58.2791C34.7471 58.1537 35.2173 58.2477 35.5935 58.4985C35.9697 58.7806 36.2204 59.2195 36.2204 59.6897L37.0668 78.5927C37.0982 79.345 36.5966 80.0033 35.8756 80.1601L25.7815 82.4485C25.6875 82.4798 25.5621 82.4798 25.4367 82.4798ZM26.095 60.9123L23.9947 61.5079C23.4304 61.6647 23.0542 62.1976 23.1169 62.7618L24.2141 81.0065C24.2454 81.3826 24.4022 81.6961 24.7157 81.9156C24.9978 82.135 25.374 82.1977 25.7188 82.135L35.8443 79.8466C36.4399 79.7212 36.8161 79.1883 36.8161 78.5927L35.9697 59.6897C35.9383 59.3135 35.7816 58.9687 35.4681 58.7493C35.1546 58.5298 34.7784 58.4671 34.4022 58.5612L32.396 59.1255C32.5841 60.348 31.4242 61.6333 29.7627 62.0722C28.164 62.4484 26.6279 61.9468 26.095 60.9123Z" fill="#075955"/>
<path d="M17.3804 62.4169C16.9729 63.2947 15.4995 63.6395 14.0262 63.1066C12.4588 62.5737 11.487 61.3511 11.8004 60.3793C11.8004 60.348 11.8318 60.3166 11.8318 60.2853L8.94776 59.1881C8.00732 58.8432 6.97283 59.3448 6.69069 60.2853L1.76903 76.0847C1.4869 76.9625 1.95712 77.8716 2.80352 78.2164L11.6751 81.508C12.5841 81.8528 13.6186 81.3512 13.9008 80.4421L18.9792 64.7994C19.2613 63.9216 18.8224 62.9812 17.976 62.6677L17.3804 62.4169Z" fill="#F9F3E5"/>
<path d="M12.2702 81.7588C12.0508 81.7588 11.8314 81.7275 11.6119 81.6335L2.74039 78.3419C1.79994 77.9971 1.29837 76.9939 1.61185 76.0221L6.53351 60.1913C6.69025 59.6898 7.03508 59.2822 7.50531 59.0628C7.97553 58.8433 8.50845 58.812 8.97867 59.0001L12.0194 60.16L11.9254 60.3481C11.9254 60.3794 11.894 60.3794 11.894 60.4108C11.7373 60.8496 11.894 61.3199 12.2702 61.7901C12.6778 62.2916 13.3047 62.6992 14.0257 62.95C15.4364 63.4202 16.8157 63.138 17.1919 62.323L17.2546 62.1976L17.9756 62.4797C18.916 62.8246 19.3863 63.8591 19.0728 64.7995L13.9944 80.4422C13.8376 80.9438 13.4928 81.32 13.0226 81.5394C12.8031 81.6962 12.5524 81.7588 12.2702 81.7588ZM8.32036 59.2195C8.10092 59.2195 7.85014 59.2822 7.6307 59.3763C7.22317 59.5644 6.94104 59.9092 6.81565 60.3167L1.92533 76.1162C1.67455 76.8999 2.08208 77.7463 2.86578 78.0284L11.7373 81.32C12.1448 81.4767 12.5837 81.4454 12.9599 81.2573C13.3361 81.0692 13.6182 80.7557 13.7749 80.3482L18.822 64.7055C19.0728 63.9217 18.6653 63.0753 17.9129 62.7619L17.474 62.6051C16.9411 63.4829 15.4677 63.765 13.9944 63.2634C13.2107 63.0127 12.5524 62.5424 12.1135 62.0095C11.6746 61.4766 11.5179 60.881 11.6746 60.3481L8.94732 59.2822C8.69654 59.2509 8.50845 59.2195 8.32036 59.2195Z" fill="#075955"/>
<path d="M18.1945 51.947C17.3794 54.3295 16.5644 56.6806 15.718 59.0317L13.1788 66.085L10.5456 73.1384L9.19758 76.6494L7.84961 80.1604L9.07219 76.618L10.3261 73.0757L12.8653 66.0223L15.4986 58.969C16.3763 56.5866 17.2854 54.2668 18.1945 51.947Z" fill="#075955"/>
<path d="M23.0221 30.2227L22.5832 37.3073L22.113 44.4234V44.3607L26.5331 52.9814C28.0064 55.8341 29.4485 58.7181 30.9218 61.6022V61.6335V61.6649C31.0786 64.8624 31.204 68.0285 31.3607 71.226C31.5174 74.4236 31.6115 77.5897 31.7369 80.7872C31.5488 77.5897 31.3293 74.4236 31.1726 71.226C30.9845 68.0285 30.8278 64.8624 30.671 61.6649V61.7276C29.1977 58.8435 27.7243 55.9908 26.2823 53.1068L21.9249 44.4861L21.8936 44.4547V44.4234L22.4578 37.3387L23.0221 30.2227Z" fill="#075955"/>
<path d="M37.0034 24.6738C37.7871 25.5829 38.4768 26.5861 39.1664 27.5579C39.8561 28.561 40.4831 29.5641 41.0787 30.63C40.295 29.7209 39.6053 28.7177 38.9157 27.7459C38.2573 26.7428 37.599 25.7083 37.0034 24.6738Z" fill="#075955"/>
<path d="M37.0986 88.4683L37.13 86.7128L39.7319 86.7755C40.7037 86.8068 41.456 87.5905 41.456 88.5623" fill="#F9F3E5"/>
<path d="M37.0975 88.4674C37.0661 88.1853 37.0661 87.8718 37.0348 87.5897C37.0348 87.3075 37.0034 86.9941 37.0034 86.7119V86.5865H37.1288C37.5677 86.5865 38.0379 86.5865 38.4768 86.5865C38.9157 86.5865 39.3545 86.5865 39.8248 86.6179C40.295 86.6492 40.7652 86.9 41.0787 87.2449C41.3922 87.621 41.5176 88.0913 41.4549 88.5301C41.4235 88.0913 41.2041 87.6837 40.9219 87.3703C40.6085 87.0881 40.2009 86.9 39.7934 86.9C39.3545 86.9 38.9157 86.9 38.4454 86.8687C38.0066 86.8687 37.5677 86.8373 37.0975 86.806L37.2229 86.6806C37.1915 86.9627 37.1915 87.2762 37.1602 87.5583C37.1602 87.8718 37.1602 88.1853 37.0975 88.4674Z" fill="#075955"/>
<path d="M36.9724 86.9C36.22 86.9627 35.499 86.9627 34.7467 86.9627C33.9943 86.9627 33.2733 86.9627 32.521 86.9627H31.9567C31.7686 86.9627 31.5805 86.9627 31.3924 86.9314C31.0162 86.8687 30.6401 86.7433 30.2952 86.5239C29.9818 86.3044 29.6996 86.0223 29.5115 85.7088C29.3234 85.364 29.2294 85.0191 29.104 84.6743C29.2921 84.9878 29.4175 85.364 29.6369 85.6461C29.8564 85.9282 30.1071 86.179 30.4206 86.3358C30.7341 86.4925 31.0789 86.6179 31.4238 86.6492C31.5805 86.6806 31.7686 86.6806 31.9567 86.6806H32.521C33.2733 86.7119 33.9943 86.7119 34.7467 86.7746C35.499 86.7746 36.22 86.806 36.9724 86.9Z" fill="#075955"/>
<path d="M32.0503 84.7057C32.2384 84.2981 32.5832 83.9533 32.9594 83.6712C33.3356 83.389 33.7744 83.2009 34.2133 83.0442C34.6522 82.8875 35.1224 82.8248 35.5613 82.7621C35.7807 82.7307 36.0315 82.7621 36.2509 82.7307C36.4704 82.7621 36.7212 82.7621 36.9406 82.7934C36.7212 82.8248 36.5017 82.8561 36.2509 82.8875L35.5926 82.9815C35.3732 83.0442 35.1538 83.0442 34.9343 83.1382L34.6208 83.2323L34.3074 83.3263C33.8998 83.4517 33.4923 83.6398 33.1161 83.8592C32.74 84.0787 32.3638 84.3608 32.0503 84.7057Z" fill="#075955"/>
<path d="M33.0218 83.6709C32.677 83.2634 32.4262 82.7932 32.2067 82.323C31.9873 81.8528 31.7992 81.3825 31.6738 80.8496C32.0187 81.2571 32.2694 81.7274 32.4889 82.1976C32.7083 82.6678 32.8964 83.138 33.0218 83.6709Z" fill="#075955"/>
<path d="M35.4993 81.6335C34.9037 81.7589 34.3394 81.7589 33.7438 81.7589C33.1482 81.7589 32.5839 81.6962 31.9883 81.5708C32.5839 81.4454 33.1482 81.4454 33.7438 81.4454C34.3394 81.4454 34.9037 81.4768 35.4993 81.6335Z" fill="#075955"/>
</svg>
