<svg width="115" height="35" viewBox="0 0 115 35" fill="none" xmlns="http://www.w3.org/2000/svg">
<path d="M32.4084 18.773C32.4084 18.773 30.666 23.0798 28.4943 22.8809C27.3123 22.773 26.9385 21.8031 26.9399 21.2099L26.9669 6.56226H21.0955V21.5706C21.0904 24.0177 22.8692 26.2564 26.0181 26.3999C28.9819 26.5355 32.4033 22.1623 32.4033 22.1623L32.3975 25.9299L38.2412 25.8818L38.2769 6.56517H32.4353L32.4084 18.773Z" fill="white"/>
<path d="M52.0184 6.64996C49.8679 6.64632 47.9747 7.71829 46.6739 9.34629L46.6527 6.5647H40.8345L40.79 33.4026L46.6345 33.4121L46.6469 23.6973C47.7196 25.2568 49.72 26.4468 51.982 26.4512C56.0243 26.4585 59.5543 22.3491 59.5652 16.5644C59.5762 10.7797 56.0607 6.65725 52.0184 6.64996ZM50.1703 23.9123C48.7238 23.9123 47.2066 22.1786 46.6527 20.7685L46.668 12.3152C47.227 10.9072 48.75 9.18159 50.1958 9.18159C52.2727 9.18524 53.2332 11.6199 53.2238 16.552C53.2143 21.4841 52.2465 23.9159 50.1703 23.9123Z" fill="white"/>
<path d="M61.6655 26.003H67.5042L67.5406 6.5647H61.6655V26.003Z" fill="white"/>
<path d="M89.7541 6.60608C83.8207 6.60608 80.1413 11.149 80.1348 16.4892C80.1239 22.2739 84.2383 26.1705 89.3497 26.4073C91.6889 26.5152 94.9435 25.0592 96.4913 23.4698L95.5432 22.099C92.4563 24.7655 91.0833 24.4426 91.0833 24.4426C87.2269 24.4361 86.5397 21.4301 86.5499 16.2757L97.8963 16.2961C97.5975 10.1579 94.0282 6.60535 89.7541 6.60608ZM92.2224 14.4866L86.5513 14.4764C86.5571 11.4354 87.4134 7.60737 89.7497 7.60737C91.5475 7.60737 92.4155 11.9973 92.2224 14.4866Z" fill="white"/>
<path d="M80.7194 6.46827L77.5006 6.45953L77.5108 0L69.0764 8.2974L71.5607 8.30323L71.5782 25.978H77.4511L77.4962 8.26169L80.7151 8.27044L80.7194 6.46827Z" fill="white"/>
<path d="M110.324 6.40201C108.513 6.9267 106.78 8.3696 105.593 9.82708L105.599 6.48655H99.7241V25.9249H102.824L105.568 25.93L105.587 13.3644V12.7814C106.379 11.4434 107.765 9.5385 109.183 9.66821C110.13 9.75566 110.918 10.7956 110.921 11.7539L114.998 7.76038C115.076 7.68167 112.744 5.70242 110.324 6.40201Z" fill="white"/>
<path d="M12.0762 25.4753C12.0762 28.2671 9.81359 30.5296 7.02182 30.5296C4.23005 30.5296 1.96747 28.2671 1.96747 25.4753C1.96747 25.398 1.97018 25.3213 1.97357 25.2453C2.05566 26.3885 3.00819 27.2901 4.17239 27.2901C5.35015 27.2901 6.31217 26.3668 6.37391 25.2039H6.3773V18.8266H0V25.2039H0.000678437C0.0189962 30.3214 4.17239 34.4646 9.29458 34.4646C14.4052 34.4646 18.5518 30.3397 18.5885 25.2378H18.5892V0H12.0762V25.17V25.4753Z" fill="white"/>
</svg>
