<svg width="111" height="32" viewBox="0 0 111 32" fill="none" xmlns="http://www.w3.org/2000/svg">
<path d="M31.1025 17.9799C31.1025 17.9799 29.4337 22.1048 27.3538 21.9142C26.2217 21.8109 25.8637 20.882 25.8651 20.3138L25.8909 6.28516H20.2676V20.6593C20.2627 23.003 21.9664 25.1471 24.9822 25.2846C27.8207 25.4144 31.0976 21.226 31.0976 21.226L31.092 24.8344L36.6888 24.7883L36.723 6.28795H31.1283L31.1025 17.9799Z" fill="white"/>
<path d="M49.8887 6.36877C47.8291 6.36528 46.0158 7.39196 44.77 8.95116L44.7497 6.28711H39.1773L39.1348 31.991L44.7323 32.0001L44.7441 22.6958C45.7715 24.1894 47.6874 25.3291 49.8538 25.3333C53.7253 25.3403 57.1061 21.4046 57.1166 15.8643C57.1271 10.324 53.7602 6.37575 49.8887 6.36877ZM48.1187 22.9017C46.7333 22.9017 45.2802 21.2413 44.7497 19.8907L44.7644 11.7946C45.2997 10.4462 46.7584 8.79343 48.1431 8.79343C50.1323 8.79692 51.0522 11.1287 51.0431 15.8524C51.034 20.5761 50.1071 22.9052 48.1187 22.9017Z" fill="white"/>
<path d="M59.1211 24.9048H64.713L64.7479 6.28784H59.1211V24.9048Z" fill="white"/>
<path d="M86.0254 6.3269C80.3427 6.3269 76.8188 10.6779 76.8125 15.7924C76.8021 21.3327 80.7426 25.0646 85.638 25.2914C87.8784 25.3947 90.9954 24.0002 92.4779 22.478L91.5698 21.1652C88.6133 23.719 87.2984 23.4098 87.2984 23.4098C83.6049 23.4035 82.9467 20.5245 82.9565 15.5879L93.8235 15.6075C93.5373 9.72868 90.1188 6.32621 86.0254 6.3269ZM88.3893 13.8745L82.9579 13.8647C82.9635 10.9522 83.7836 7.28588 86.0212 7.28588C87.743 7.28588 88.5743 11.4903 88.3893 13.8745Z" fill="white"/>
<path d="M77.3717 6.19495L74.2889 6.18658L74.2987 0L66.2207 7.94679L68.6 7.95237L68.6167 24.8803H74.2415L74.2847 7.91259L77.3676 7.92096L77.3717 6.19495Z" fill="white"/>
<path d="M105.725 6.13142C103.99 6.63393 102.33 8.01586 101.194 9.41175L101.199 6.21238H95.5723V24.8293H98.5413L101.169 24.8342L101.187 12.7996V12.2412C101.946 10.9598 103.273 9.13537 104.632 9.2596C105.539 9.34335 106.293 10.3393 106.296 11.2571L110.2 7.43238C110.275 7.357 108.042 5.46139 105.725 6.13142Z" fill="white"/>
<path d="M11.6927 5.24773C11.6822 8.46664 11.6724 20.4629 11.6619 23.6839C11.6529 26.6383 10.398 28.7091 7.53361 28.6931C4.03202 28.6714 2.89298 26.2 2.34649 23.3517C2.88237 23.7497 3.49033 24.04 4.13671 24.2067C4.38766 24.2683 4.64934 24.272 4.90194 24.2176C5.15454 24.1631 5.39143 24.0518 5.59467 23.8922C5.7979 23.7326 5.96215 23.5289 6.07498 23.2964C6.18781 23.064 6.24626 22.8089 6.2459 22.5504V17.0786H0V20.6597L0.0125625 20.68C0.309189 30.1636 6.25218 31.8896 9.19471 31.9678C9.87648 31.9871 10.5583 31.9311 11.2278 31.801C13.1388 31.4262 14.8774 30.3911 16.0367 28.8159C17.5512 26.7556 17.7676 24.2904 17.7731 21.8134C17.7787 18.7481 17.785 9.45982 17.7913 6.39585L17.8038 0.0124512H11.7087C11.7041 1.75731 11.6987 3.5024 11.6927 5.24773Z" fill="white"/>
</svg>
