<svg width="26" height="26" viewBox="0 0 26 26" fill="none" xmlns="http://www.w3.org/2000/svg">
<path d="M0.00195312 13.3977C0.00195312 6.43736 5.64439 0.794922 12.6047 0.794922C19.565 0.794922 25.2074 6.43736 25.2074 13.3977C25.2074 20.358 19.565 26.0004 12.6047 26.0004C5.64439 26.0004 0.00195312 20.358 0.00195312 13.3977Z" fill="#0077B5"/>
<path fill-rule="evenodd" clip-rule="evenodd" d="M9.09684 8.57855C9.09684 9.40251 8.47662 10.0618 7.48076 10.0618H7.46251C6.50366 10.0618 5.88379 9.40251 5.88379 8.57855C5.88379 7.73716 6.52254 7.09631 7.49958 7.09631C8.47662 7.09631 9.0783 7.73716 9.09684 8.57855ZM8.90859 11.2331V19.8143H6.05253V11.2331H8.90859ZM19.2086 19.8143L19.2087 14.8941C19.2087 12.2583 17.7998 11.0316 15.9203 11.0316C14.404 11.0316 13.7251 11.8645 13.346 12.4488V11.2333H10.4896C10.5272 12.0385 10.4896 19.8146 10.4896 19.8146H13.346V15.0221C13.346 14.7656 13.3645 14.5098 13.4401 14.3262C13.6465 13.8138 14.1164 13.2833 14.9055 13.2833C15.9394 13.2833 16.3527 14.0702 16.3527 15.2234V19.8143H19.2086Z" fill="white"/>
</svg>
