<svg width="26" height="26" viewBox="0 0 26 26" fill="none" xmlns="http://www.w3.org/2000/svg">
<path d="M12.6027 26.0004C19.563 26.0004 25.2055 20.358 25.2055 13.3977C25.2055 6.43736 19.563 0.794922 12.6027 0.794922C5.64244 0.794922 0 6.43736 0 13.3977C0 20.358 5.64244 26.0004 12.6027 26.0004Z" fill="#0971BD"/>
<path fill-rule="evenodd" clip-rule="evenodd" d="M6.72119 9.81407C6.72119 9.81407 11.7935 12.6905 12.7781 12.6905C13.81 12.6905 18.8274 9.86902 18.8274 9.86902L18.8354 9.36491C18.8354 8.80837 18.3838 8.35669 17.8257 8.35669H7.73042C7.17287 8.35669 6.72119 8.80837 6.72119 9.36491V9.81407ZM18.8274 11.3814C18.8274 11.3814 13.8574 14.0768 12.7781 14.0768C11.7935 14.0768 6.72875 11.3814 6.72926 11.3814L6.72119 17.4307C6.72119 17.9872 7.17338 18.4389 7.73042 18.4389H17.8257C18.3838 18.4389 18.8354 17.9872 18.8354 17.4307L18.8274 11.3814Z" fill="white"/>
</svg>
