<svg width="271" height="32" viewBox="0 0 271 32" fill="none" xmlns="http://www.w3.org/2000/svg">
<path d="M254.504 31C245.943 31 239.004 24.0604 239.004 15.5C239.004 6.93959 245.943 -1.31464e-06 254.504 -8.46908e-07C263.064 -3.79174e-07 270.004 6.93959 270.004 15.5C270.004 24.0604 263.064 31 254.504 31Z" fill="url(#paint0_linear)"/>
<path d="M251.514 4.33819C257.678 2.68656 264.013 6.34453 265.665 12.5085C267.317 18.6724 263.659 25.0082 257.495 26.6599C251.331 28.3115 244.995 24.6535 243.343 18.4896C241.692 12.3256 245.35 5.98982 251.514 4.33819Z" fill="url(#paint1_linear)"/>
<path d="M248.737 12.3074H246.631L246.153 13.6619H245.742L247.498 8.82812H247.871L249.626 13.6619H249.218L248.737 12.3074ZM246.752 11.9588H248.613L247.683 9.3261L246.752 11.9588Z" fill="white"/>
<path d="M250.789 13.6619H250.397V8.82812H250.789V13.6619Z" fill="white"/>
<path d="M255.336 12.1546C255.283 12.6637 255.108 13.0532 254.811 13.3232C254.515 13.5933 254.121 13.7283 253.628 13.7283C253.284 13.7283 252.979 13.6386 252.714 13.4594C252.451 13.2801 252.247 13.0267 252.102 12.6991C251.958 12.3693 251.884 11.9931 251.882 11.5703V10.9429C251.882 10.5135 251.955 10.1328 252.099 9.80084C252.243 9.46885 252.451 9.21322 252.72 9.03395C252.992 8.85246 253.304 8.76172 253.657 8.76172C254.154 8.76172 254.546 8.90226 254.833 9.18334C255.122 9.46221 255.29 9.84843 255.336 10.342H254.941C254.843 9.52087 254.415 9.11031 253.657 9.11031C253.236 9.11031 252.901 9.27409 252.65 9.60165C252.402 9.92921 252.277 10.3818 252.277 10.9595V11.5504C252.277 12.1082 252.398 12.553 252.641 12.885C252.885 13.217 253.214 13.383 253.628 13.383C254.038 13.383 254.347 13.2812 254.556 13.0776C254.764 12.8717 254.892 12.5641 254.941 12.1546H255.336Z" fill="white"/>
<path d="M256.681 11.6932V13.6619H256.289V8.82812H257.869C258.352 8.82812 258.732 8.95649 259.01 9.21322C259.291 9.46996 259.431 9.82297 259.431 10.2723C259.431 10.726 259.296 11.0768 259.026 11.3247C258.758 11.5703 258.37 11.6932 257.86 11.6932H256.681ZM256.681 11.3479H257.869C258.25 11.3479 258.54 11.2538 258.739 11.0657C258.939 10.8776 259.039 10.6153 259.039 10.2789C259.039 9.9447 258.939 9.67911 258.739 9.48213C258.542 9.28294 258.26 9.18113 257.895 9.1767H256.681V11.3479Z" fill="white"/>
<path d="M262.375 12.3074H260.269L259.791 13.6619H259.38L261.135 8.82812H261.508L263.264 13.6619H262.856L262.375 12.3074ZM260.39 11.9588H262.251L261.32 9.3261L260.39 11.9588Z" fill="white"/>
<path d="M251.455 20.3112C251.455 20.0433 251.365 19.832 251.184 19.6771C251.004 19.5199 250.674 19.3716 250.194 19.2322C249.713 19.0905 249.363 18.9367 249.142 18.7707C248.828 18.5361 248.67 18.2285 248.67 17.8478C248.67 17.4782 248.816 17.1783 249.107 16.9481C249.4 16.7157 249.774 16.5995 250.229 16.5995C250.537 16.5995 250.812 16.6615 251.054 16.7854C251.298 16.9094 251.487 17.082 251.621 17.3033C251.755 17.5247 251.822 17.7714 251.822 18.0437H251.427C251.427 17.7139 251.318 17.4494 251.102 17.2502C250.885 17.0488 250.594 16.9481 250.229 16.9481C249.874 16.9481 249.591 17.0311 249.381 17.1971C249.171 17.3609 249.066 17.5756 249.066 17.8412C249.066 18.0868 249.16 18.2871 249.349 18.4421C249.538 18.597 249.841 18.7342 250.257 18.8537C250.674 18.971 250.989 19.0939 251.204 19.2222C251.418 19.3484 251.58 19.5 251.688 19.6771C251.796 19.8541 251.85 20.0633 251.85 20.3045C251.85 20.6852 251.704 20.9906 251.411 21.2208C251.12 21.451 250.735 21.5661 250.257 21.5661C249.93 21.5661 249.63 21.5052 249.356 21.3835C249.084 21.2617 248.876 21.0913 248.734 20.8722C248.594 20.6531 248.524 20.4019 248.524 20.1186H248.916C248.916 20.4594 249.038 20.7283 249.282 20.9253C249.527 21.1223 249.852 21.2208 250.257 21.2208C250.618 21.2208 250.908 21.1378 251.127 20.9718C251.346 20.8058 251.455 20.5856 251.455 20.3112Z" fill="white"/>
<path d="M256.127 19.3451C256.127 19.7899 256.052 20.1806 255.903 20.517C255.757 20.8534 255.547 21.1123 255.273 21.2938C254.999 21.4753 254.682 21.5661 254.323 21.5661C253.781 21.5661 253.344 21.3647 253.01 20.9618C252.677 20.5568 252.51 20.0113 252.51 19.3251V18.8272C252.51 18.3867 252.584 17.9972 252.733 17.6586C252.884 17.3177 253.096 17.0566 253.37 16.8751C253.644 16.6914 253.96 16.5995 254.317 16.5995C254.674 16.5995 254.988 16.6892 255.26 16.8684C255.534 17.0477 255.745 17.3011 255.894 17.6287C256.043 17.9562 256.12 18.3358 256.127 18.7674V19.3451ZM255.735 18.8205C255.735 18.2384 255.608 17.7825 255.355 17.4527C255.103 17.123 254.756 16.9581 254.317 16.9581C253.885 16.9581 253.541 17.1241 253.284 17.456C253.029 17.7858 252.902 18.2473 252.902 18.8404V19.3451C252.902 19.9183 253.029 20.3731 253.284 20.7095C253.539 21.0437 253.885 21.2108 254.323 21.2108C254.767 21.2108 255.113 21.046 255.362 20.7162C255.61 20.3842 255.735 19.9227 255.735 19.3318V18.8205Z" fill="white"/>
<path d="M260.399 19.9924C260.346 20.5015 260.171 20.891 259.874 21.161C259.578 21.4311 259.184 21.5661 258.692 21.5661C258.347 21.5661 258.043 21.4764 257.777 21.2972C257.514 21.1179 257.31 20.8645 257.165 20.5369C257.021 20.2071 256.948 19.8309 256.945 19.4081V18.7807C256.945 18.3513 257.018 17.9706 257.162 17.6386C257.307 17.3067 257.514 17.051 257.783 16.8718C258.055 16.6903 258.368 16.5995 258.72 16.5995C259.217 16.5995 259.609 16.7401 259.896 17.0211C260.185 17.3 260.353 17.6862 260.399 18.1798H260.004C259.907 17.3587 259.479 16.9481 258.72 16.9481C258.3 16.9481 257.964 17.1119 257.713 17.4395C257.465 17.767 257.341 18.2196 257.341 18.7973V19.3882C257.341 19.946 257.462 20.3908 257.704 20.7228C257.948 21.0548 258.277 21.2208 258.692 21.2208C259.101 21.2208 259.411 21.119 259.619 20.9154C259.827 20.7095 259.955 20.4019 260.004 19.9924H260.399Z" fill="white"/>
<path d="M249.018 23.9553C249.008 23.9313 249.002 23.8957 249 23.8486C248.967 23.8872 248.925 23.9171 248.873 23.9384C248.823 23.9591 248.769 23.9694 248.712 23.9694C248.63 23.9694 248.564 23.949 248.514 23.908C248.464 23.867 248.438 23.8151 248.438 23.7525C248.438 23.678 248.473 23.6191 248.541 23.5758C248.61 23.5324 248.706 23.5108 248.829 23.5108H248.999V23.4238C248.999 23.3692 248.98 23.3263 248.942 23.2952C248.905 23.2636 248.851 23.2478 248.779 23.2478C248.714 23.2478 248.66 23.2629 248.617 23.2931C248.574 23.3232 248.553 23.3595 248.553 23.4019L248.459 23.4012C248.459 23.3404 248.49 23.2879 248.553 23.2436C248.616 23.1988 248.693 23.1764 248.784 23.1764C248.879 23.1764 248.953 23.1979 249.007 23.2408C249.062 23.2832 249.091 23.3425 249.092 23.4189V23.7807C249.092 23.8547 249.101 23.9101 249.118 23.9468V23.9553H249.018ZM248.723 23.8945C248.786 23.8945 248.842 23.8809 248.891 23.8535C248.94 23.8262 248.976 23.7897 248.999 23.744V23.5758H248.831C248.738 23.5767 248.664 23.5923 248.612 23.6224C248.559 23.6521 248.533 23.6931 248.533 23.7454C248.533 23.7883 248.55 23.8239 248.585 23.8521C248.621 23.8804 248.667 23.8945 248.723 23.8945Z" fill="white"/>
<path d="M249.448 23.9553H249.354V23.1906H249.448V23.9553ZM249.337 22.9694C249.337 22.9533 249.343 22.9399 249.355 22.9291C249.366 22.9178 249.382 22.9121 249.402 22.9121C249.422 22.9121 249.437 22.9178 249.449 22.9291C249.461 22.9399 249.467 22.9533 249.467 22.9694C249.467 22.9854 249.461 22.9988 249.449 23.0096C249.437 23.0205 249.422 23.0259 249.402 23.0259C249.382 23.0259 249.366 23.0205 249.355 23.0096C249.343 22.9988 249.337 22.9854 249.337 22.9694Z" fill="white"/>
<path d="M250.017 23.8981C250.082 23.8981 250.137 23.8816 250.181 23.8486C250.225 23.8151 250.249 23.772 250.253 23.7193H250.343C250.34 23.7659 250.324 23.8085 250.294 23.8472C250.265 23.8853 250.225 23.9153 250.175 23.9369C250.126 23.9586 250.073 23.9694 250.017 23.9694C249.906 23.9694 249.817 23.9346 249.752 23.8648C249.687 23.7951 249.655 23.7013 249.655 23.5835V23.5581C249.655 23.4827 249.669 23.416 249.699 23.3581C249.728 23.3001 249.77 23.2554 249.824 23.2238C249.879 23.1922 249.943 23.1764 250.016 23.1764C250.109 23.1764 250.186 23.2014 250.246 23.2514C250.306 23.3013 250.339 23.367 250.343 23.4486H250.253C250.249 23.3887 250.225 23.3404 250.181 23.3037C250.137 23.2669 250.082 23.2485 250.016 23.2485C249.931 23.2485 249.866 23.2761 249.819 23.3312C249.772 23.3864 249.749 23.4636 249.749 23.5631V23.5878C249.749 23.6853 249.772 23.7614 249.819 23.8161C249.866 23.8707 249.932 23.8981 250.017 23.8981Z" fill="white"/>
<path d="M251.213 23.5807C251.213 23.6999 251.184 23.7946 251.125 23.8648C251.067 23.9346 250.988 23.9694 250.89 23.9694C250.774 23.9694 250.685 23.9327 250.623 23.8592V24.2493H250.53V23.1906H250.617L250.622 23.2987C250.683 23.2172 250.772 23.1764 250.888 23.1764C250.989 23.1764 251.068 23.2111 251.126 23.2803C251.184 23.3496 251.213 23.4457 251.213 23.5687V23.5807ZM251.119 23.5659C251.119 23.4683 251.097 23.3913 251.052 23.3348C251.008 23.2782 250.946 23.2499 250.866 23.2499C250.809 23.2499 250.76 23.2624 250.718 23.2874C250.677 23.3124 250.645 23.3487 250.623 23.3963V23.7631C250.646 23.8069 250.678 23.8403 250.72 23.8634C250.762 23.8865 250.811 23.8981 250.868 23.8981C250.947 23.8981 251.008 23.8698 251.052 23.8133C251.097 23.7562 251.119 23.6738 251.119 23.5659Z" fill="white"/>
<path d="M251.957 23.9553C251.947 23.9313 251.941 23.8957 251.939 23.8486C251.906 23.8872 251.864 23.9171 251.812 23.9384C251.762 23.9591 251.708 23.9694 251.651 23.9694C251.569 23.9694 251.503 23.949 251.453 23.908C251.403 23.867 251.377 23.8151 251.377 23.7525C251.377 23.678 251.412 23.6191 251.48 23.5758C251.549 23.5324 251.645 23.5108 251.768 23.5108H251.938V23.4238C251.938 23.3692 251.919 23.3263 251.881 23.2952C251.844 23.2636 251.79 23.2478 251.718 23.2478C251.653 23.2478 251.599 23.2629 251.556 23.2931C251.513 23.3232 251.492 23.3595 251.492 23.4019L251.398 23.4012C251.398 23.3404 251.429 23.2879 251.492 23.2436C251.555 23.1988 251.632 23.1764 251.723 23.1764C251.818 23.1764 251.892 23.1979 251.946 23.2408C252.001 23.2832 252.029 23.3425 252.031 23.4189V23.7807C252.031 23.8547 252.04 23.9101 252.057 23.9468V23.9553H251.957ZM251.662 23.8945C251.725 23.8945 251.781 23.8809 251.83 23.8535C251.879 23.8262 251.915 23.7897 251.938 23.744V23.5758H251.77C251.677 23.5767 251.603 23.5923 251.551 23.6224C251.498 23.6521 251.471 23.6931 251.471 23.7454C251.471 23.7883 251.489 23.8239 251.524 23.8521C251.56 23.8804 251.605 23.8945 251.662 23.8945Z" fill="white"/>
<path d="M252.273 23.9044C252.273 23.8879 252.279 23.874 252.29 23.8627C252.302 23.8509 252.319 23.8451 252.34 23.8451C252.361 23.8451 252.377 23.8509 252.389 23.8627C252.401 23.874 252.407 23.8879 252.407 23.9044C252.407 23.9209 252.401 23.9346 252.389 23.9454C252.377 23.9558 252.361 23.961 252.34 23.961C252.319 23.961 252.302 23.9558 252.29 23.9454C252.279 23.9346 252.273 23.9209 252.273 23.9044Z" fill="white"/>
<path d="M252.614 23.5616C252.614 23.4881 252.63 23.4219 252.661 23.363C252.693 23.3041 252.738 23.2584 252.795 23.2259C252.853 23.1929 252.919 23.1764 252.992 23.1764C253.105 23.1764 253.196 23.2123 253.266 23.2839C253.336 23.355 253.371 23.4495 253.371 23.5673V23.585C253.371 23.6589 253.355 23.7256 253.323 23.785C253.292 23.8439 253.248 23.8893 253.19 23.9214C253.133 23.9534 253.067 23.9694 252.993 23.9694C252.881 23.9694 252.79 23.9339 252.719 23.8627C252.649 23.7911 252.614 23.6964 252.614 23.5786V23.5616ZM252.708 23.585C252.708 23.6764 252.734 23.7515 252.787 23.8104C252.839 23.8689 252.908 23.8981 252.993 23.8981C253.078 23.8981 253.147 23.8689 253.199 23.8104C253.252 23.7515 253.278 23.674 253.278 23.5779V23.5616C253.278 23.5032 253.266 23.4497 253.242 23.4012C253.218 23.3527 253.184 23.3152 253.141 23.2888C253.097 23.262 253.048 23.2485 252.992 23.2485C252.908 23.2485 252.84 23.2782 252.787 23.3376C252.735 23.3965 252.708 23.4738 252.708 23.5694V23.585Z" fill="white"/>
<path d="M253.957 23.2627C253.938 23.2594 253.916 23.2577 253.894 23.2577C253.835 23.2577 253.786 23.2726 253.745 23.3023C253.705 23.3315 253.676 23.3741 253.659 23.4302V23.9553H253.566V23.1906H253.657L253.659 23.3121C253.708 23.2217 253.788 23.1764 253.898 23.1764C253.924 23.1764 253.945 23.1795 253.96 23.1856L253.957 23.2627Z" fill="white"/>
<path d="M254.053 23.5659C254.053 23.4462 254.082 23.3515 254.141 23.2818C254.2 23.2115 254.28 23.1764 254.381 23.1764C254.496 23.1764 254.584 23.2179 254.644 23.3008L254.649 23.1906H254.736V23.9398C254.736 24.0382 254.706 24.1162 254.645 24.1737C254.584 24.2312 254.501 24.2599 254.396 24.2599C254.337 24.2599 254.281 24.2479 254.227 24.2239C254.174 24.2003 254.132 24.1688 254.101 24.1292L254.153 24.0783C254.22 24.1518 254.299 24.1886 254.39 24.1886C254.468 24.1886 254.53 24.1676 254.573 24.1256C254.617 24.0842 254.64 24.0265 254.642 23.9525V23.8564C254.582 23.9318 254.494 23.9694 254.379 23.9694C254.281 23.9694 254.202 23.9341 254.142 23.8634C254.083 23.7928 254.053 23.6973 254.053 23.5772V23.5659ZM254.148 23.5807C254.148 23.6783 254.17 23.7553 254.213 23.8118C254.256 23.8679 254.317 23.8959 254.396 23.8959C254.512 23.8959 254.594 23.8493 254.642 23.756V23.4005C254.62 23.3515 254.588 23.3143 254.547 23.2888C254.506 23.2629 254.456 23.2499 254.398 23.2499C254.319 23.2499 254.258 23.278 254.214 23.3341C254.17 23.3897 254.148 23.4719 254.148 23.5807Z" fill="white"/>
<path d="M254.968 24.0437H254.882L255.359 22.9262H255.443L254.968 24.0437Z" fill="white"/>
<path d="M256.127 23.7609C256.127 23.719 256.108 23.6853 256.07 23.6599C256.033 23.6344 255.977 23.6146 255.902 23.6005C255.827 23.5859 255.768 23.5694 255.726 23.551C255.685 23.5322 255.654 23.5093 255.634 23.4825C255.614 23.4556 255.604 23.4231 255.604 23.3849C255.604 23.3246 255.632 23.2749 255.688 23.2358C255.744 23.1962 255.815 23.1764 255.903 23.1764C255.997 23.1764 256.073 23.1976 256.13 23.2401C256.187 23.282 256.216 23.3369 256.216 23.4047H256.122C256.122 23.36 256.101 23.3227 256.059 23.2931C256.018 23.2634 255.966 23.2485 255.903 23.2485C255.841 23.2485 255.791 23.261 255.754 23.286C255.717 23.3105 255.698 23.3425 255.698 23.3821C255.698 23.4203 255.713 23.45 255.744 23.4712C255.776 23.4919 255.832 23.511 255.914 23.5284C255.997 23.5459 256.059 23.5645 256.099 23.5843C256.141 23.604 256.171 23.6278 256.191 23.6556C256.211 23.6834 256.221 23.7171 256.221 23.7567C256.221 23.8213 256.192 23.8729 256.134 23.9115C256.076 23.9501 256.001 23.9694 255.908 23.9694C255.809 23.9694 255.729 23.948 255.668 23.9051C255.606 23.8618 255.576 23.8071 255.576 23.7412H255.67C255.674 23.7906 255.697 23.8293 255.739 23.8571C255.782 23.8844 255.838 23.8981 255.908 23.8981C255.973 23.8981 256.026 23.8851 256.066 23.8592C256.107 23.8333 256.127 23.8005 256.127 23.7609Z" fill="white"/>
<path d="M256.381 23.5616C256.381 23.4881 256.396 23.4219 256.428 23.363C256.46 23.3041 256.504 23.2584 256.562 23.2259C256.62 23.1929 256.685 23.1764 256.758 23.1764C256.871 23.1764 256.963 23.2123 257.033 23.2839C257.103 23.355 257.138 23.4495 257.138 23.5673V23.585C257.138 23.6589 257.122 23.7256 257.09 23.785C257.059 23.8439 257.014 23.8893 256.957 23.9214C256.899 23.9534 256.834 23.9694 256.76 23.9694C256.648 23.9694 256.556 23.9339 256.486 23.8627C256.416 23.7911 256.381 23.6964 256.381 23.5786V23.5616ZM256.475 23.585C256.475 23.6764 256.501 23.7515 256.553 23.8104C256.606 23.8689 256.675 23.8981 256.76 23.8981C256.845 23.8981 256.913 23.8689 256.965 23.8104C257.018 23.7515 257.045 23.674 257.045 23.5779V23.5616C257.045 23.5032 257.033 23.4497 257.008 23.4012C256.984 23.3527 256.951 23.3152 256.907 23.2888C256.864 23.262 256.814 23.2485 256.758 23.2485C256.675 23.2485 256.607 23.2782 256.554 23.3376C256.501 23.3965 256.475 23.4738 256.475 23.5694V23.585Z" fill="white"/>
<path d="M257.646 23.8981C257.711 23.8981 257.766 23.8816 257.809 23.8486C257.854 23.8151 257.878 23.772 257.882 23.7193H257.972C257.969 23.7659 257.953 23.8085 257.923 23.8472C257.893 23.8853 257.854 23.9153 257.804 23.9369C257.755 23.9586 257.702 23.9694 257.646 23.9694C257.534 23.9694 257.446 23.9346 257.381 23.8648C257.316 23.7951 257.284 23.7013 257.284 23.5835V23.5581C257.284 23.4827 257.298 23.416 257.327 23.3581C257.357 23.3001 257.398 23.2554 257.453 23.2238C257.508 23.1922 257.572 23.1764 257.645 23.1764C257.738 23.1764 257.814 23.2014 257.874 23.2514C257.935 23.3013 257.967 23.367 257.972 23.4486H257.882C257.877 23.3887 257.853 23.3404 257.809 23.3037C257.766 23.2669 257.711 23.2485 257.645 23.2485C257.56 23.2485 257.494 23.2761 257.447 23.3312C257.401 23.3864 257.378 23.4636 257.378 23.5631V23.5878C257.378 23.6853 257.401 23.7614 257.447 23.8161C257.494 23.8707 257.56 23.8981 257.646 23.8981Z" fill="white"/>
<path d="M258.721 23.6238H258.899V23.6952H258.721V23.9553H258.627V23.6952H258.09V23.6472L258.618 22.9262H258.721V23.6238ZM258.205 23.6238H258.627V23.0358L258.585 23.1008L258.205 23.6238Z" fill="white"/>
<path d="M259.558 23.7609C259.558 23.719 259.539 23.6853 259.501 23.6599C259.464 23.6344 259.408 23.6146 259.333 23.6005C259.258 23.5859 259.199 23.5694 259.157 23.551C259.116 23.5322 259.085 23.5093 259.065 23.4825C259.045 23.4556 259.035 23.4231 259.035 23.3849C259.035 23.3246 259.063 23.2749 259.119 23.2358C259.175 23.1962 259.247 23.1764 259.334 23.1764C259.428 23.1764 259.504 23.1976 259.561 23.2401C259.619 23.282 259.647 23.3369 259.647 23.4047H259.553C259.553 23.36 259.532 23.3227 259.491 23.2931C259.449 23.2634 259.397 23.2485 259.334 23.2485C259.272 23.2485 259.222 23.261 259.185 23.286C259.148 23.3105 259.129 23.3425 259.129 23.3821C259.129 23.4203 259.145 23.45 259.175 23.4712C259.207 23.4919 259.263 23.511 259.346 23.5284C259.428 23.5459 259.49 23.5645 259.53 23.5843C259.572 23.604 259.602 23.6278 259.622 23.6556C259.642 23.6834 259.652 23.7171 259.652 23.7567C259.652 23.8213 259.623 23.8729 259.565 23.9115C259.507 23.9501 259.432 23.9694 259.339 23.9694C259.241 23.9694 259.16 23.948 259.099 23.9051C259.038 23.8618 259.007 23.8071 259.007 23.7412H259.101C259.105 23.7906 259.128 23.8293 259.17 23.8571C259.213 23.8844 259.269 23.8981 259.339 23.8981C259.405 23.8981 259.457 23.8851 259.498 23.8592C259.538 23.8333 259.558 23.8005 259.558 23.7609Z" fill="white"/>
<path d="M259.812 23.5616C259.812 23.4881 259.828 23.4219 259.859 23.363C259.891 23.3041 259.935 23.2584 259.993 23.2259C260.051 23.1929 260.116 23.1764 260.19 23.1764C260.302 23.1764 260.394 23.2123 260.464 23.2839C260.534 23.355 260.569 23.4495 260.569 23.5673V23.585C260.569 23.6589 260.553 23.7256 260.521 23.785C260.49 23.8439 260.445 23.8893 260.388 23.9214C260.33 23.9534 260.265 23.9694 260.191 23.9694C260.079 23.9694 259.987 23.9339 259.917 23.8627C259.847 23.7911 259.812 23.6964 259.812 23.5786V23.5616ZM259.906 23.585C259.906 23.6764 259.932 23.7515 259.984 23.8104C260.037 23.8689 260.106 23.8981 260.191 23.8981C260.276 23.8981 260.344 23.8689 260.396 23.8104C260.449 23.7515 260.476 23.674 260.476 23.5779V23.5616C260.476 23.5032 260.464 23.4497 260.44 23.4012C260.416 23.3527 260.382 23.3152 260.338 23.2888C260.295 23.262 260.245 23.2485 260.19 23.2485C260.106 23.2485 260.038 23.2782 259.985 23.3376C259.932 23.3965 259.906 23.4738 259.906 23.5694V23.585Z" fill="white"/>
<path fill-rule="evenodd" clip-rule="evenodd" d="M126.067 3.33622C118.099 3.79535 102.205 4.69884 102.096 4.69884C102.046 4.69884 102.004 4.73467 102.004 4.77839C102.004 4.89502 110.223 27.2531 110.292 27.3243C110.325 27.3574 112.579 26.6816 115.303 25.8224C118.027 24.9632 121.588 23.8438 123.217 23.3349C124.846 22.826 126.205 22.3848 126.238 22.3545C126.271 22.3242 126.182 22.1072 126.04 21.8723C125.898 21.6374 125.705 21.2011 125.61 20.9028L125.438 20.3604L124.586 20.3578C123.554 20.3545 122.482 20.2091 121.588 19.9514C119.839 19.4472 118.578 18.244 118.184 16.7045C118.041 16.1462 118.035 14.699 118.174 14.1783C118.495 12.9783 119.337 11.9292 120.526 11.2499C121.47 10.7105 123.012 10.3862 124.623 10.3881C125.76 10.3894 126.39 10.4588 127 10.6503L127.4 10.7758V12.0583C127.4 12.7637 127.39 13.3408 127.377 13.3408C127.364 13.3408 127.175 13.2549 126.957 13.1499C125.729 12.5587 124.077 12.532 123.126 13.0879C122.101 13.6875 121.612 14.9352 121.95 16.0931C122.248 17.1152 123.335 17.9141 124.607 18.045C125.262 18.1125 126.745 17.8955 127.419 17.6338C127.612 17.5587 127.622 17.5655 127.622 17.7656C127.622 17.9534 127.658 17.9857 127.949 18.0587C128.129 18.1038 128.495 18.2549 128.763 18.3943L129.251 18.648V14.591V10.534H131.102H132.953L132.957 13.5439C132.961 16.5111 132.963 16.5512 133.101 16.3692C133.178 16.2676 133.797 15.4034 134.476 14.4487C135.156 13.4941 135.81 12.5878 135.931 12.4349L136.151 12.1568L134.09 7.57839L132.029 3L131.806 3.00923C131.684 3.01426 129.101 3.16146 126.067 3.33622ZM132.028 5.53756C132.877 5.93309 133.257 6.47584 133.309 7.36625C133.339 7.88292 133.321 7.98951 133.145 8.34848C132.778 9.09523 132.132 9.50495 131.237 9.55828C130.534 9.60016 130.043 9.44416 129.57 9.02905C128.395 7.99689 128.662 6.25329 130.1 5.57478C130.697 5.293 131.471 5.27808 132.028 5.53756ZM153.648 6.57134C152.387 6.89863 151.688 7.7561 151.778 8.86707C151.798 9.11724 151.866 9.42252 151.93 9.54543C152.264 10.1888 153.125 10.688 154.521 11.0472C155.767 11.3675 156.054 11.5528 156.054 12.0351C156.054 12.3361 155.631 12.7455 155.302 12.7632C154.383 12.8124 153.964 12.5584 153.759 11.8261L153.663 11.4862L153.285 11.5252C153.077 11.5465 152.579 11.5849 152.177 11.6105L151.447 11.6569L151.493 11.9441C151.647 12.9027 152.255 13.7083 153.043 13.9973C154.216 14.4275 155.978 14.3822 156.938 13.8972C157.996 13.3621 158.556 12.1678 158.247 11.1058C157.96 10.1241 157.237 9.64322 155.338 9.17294C154.174 8.88443 153.905 8.74741 153.909 8.4445C153.916 7.95915 154.638 7.71481 155.277 7.98131C155.543 8.09203 155.831 8.47456 155.832 8.71705C155.832 8.84868 155.877 8.85444 156.554 8.80975C156.951 8.78353 157.455 8.76189 157.674 8.76167L158.073 8.7613L158.028 8.42936C157.922 7.65956 157.37 6.98711 156.6 6.69129C156.235 6.55088 155.991 6.51986 155.091 6.49955C154.375 6.48337 153.895 6.50723 153.648 6.57134ZM161.126 6.57001C160.268 6.78702 159.579 7.34631 159.353 8.00753C159.09 8.776 159.267 9.52157 159.839 10.0548C160.298 10.4837 160.881 10.7503 162.002 11.0448C163.252 11.3731 163.532 11.5541 163.532 12.0351C163.532 12.3359 163.11 12.7455 162.781 12.7634C161.877 12.8127 161.468 12.5762 161.268 11.8896L161.15 11.4852L160.768 11.5247C160.557 11.5463 160.056 11.585 159.654 11.6106L158.924 11.6571L158.969 11.9888C159.037 12.4844 159.413 13.2053 159.779 13.5418C160.718 14.4047 163.158 14.5626 164.503 13.8473C165.505 13.3146 166.027 12.1434 165.725 11.1058C165.44 10.1281 164.766 9.67402 162.891 9.19554C161.459 8.83021 161.253 8.68854 161.467 8.21892C161.704 7.70115 162.82 7.77582 163.16 8.33216C163.242 8.46659 163.31 8.63979 163.31 8.71705C163.31 8.84868 163.355 8.85444 164.032 8.80975C164.429 8.78353 164.929 8.76189 165.143 8.76167C165.503 8.7613 165.531 8.74837 165.531 8.58514C165.531 7.85308 164.874 6.99044 164.087 6.68996C163.712 6.5466 163.477 6.5169 162.57 6.49829C161.875 6.48411 161.365 6.50944 161.126 6.57001ZM143.837 10.3824V14.1533L145.818 14.152C147.969 14.1506 148.492 14.0887 149.147 13.758C149.658 13.4994 150.301 12.7853 150.501 12.2539C150.944 11.0769 150.89 9.34437 150.376 8.25837C150.099 7.67249 149.466 7.05824 148.908 6.83481C148.478 6.66227 148.396 6.65636 146.151 6.63427L143.837 6.61152V10.3824ZM147.724 8.50677C148.204 8.75229 148.383 9.19458 148.417 10.2229C148.446 11.1309 148.363 11.6134 148.116 11.959C147.907 12.2518 147.622 12.3558 146.854 12.4188L146.207 12.4719V10.3875V8.30298L146.817 8.32913C147.247 8.34759 147.516 8.40033 147.724 8.50677ZM141.294 9.55C140.904 9.61471 139.92 10.0732 139.451 10.4081C137.698 11.6626 135.8 14.0531 133.323 18.1271C131.628 20.9141 131.306 21.4329 131.206 21.5371C131.115 21.6315 131.012 21.5543 130.404 20.9385C129.531 20.0532 129.03 19.6251 128.469 19.2845C128.091 19.0547 127.985 19.0231 127.714 19.0584C126.942 19.1589 126.512 19.6035 126.512 20.3015C126.512 20.6836 126.541 20.7492 127 21.3971C128.183 23.0634 129.462 24.4735 130.013 24.7164C130.424 24.8979 131.408 24.9817 131.819 24.8703C132.388 24.7164 132.744 24.205 134.731 20.6901C136.305 17.9048 137.314 16.2231 138.232 14.855C139.892 12.3801 140.941 11.179 142.578 9.87899C142.729 9.75911 142.746 9.71428 142.669 9.63576C142.572 9.53723 141.698 9.48279 141.294 9.55ZM114.406 10.7413C115.737 11.1051 116.56 11.6943 116.983 12.5855C117.204 13.0502 117.219 13.1346 117.219 13.8948C117.219 14.6202 117.198 14.7522 117.022 15.1264C116.392 16.4677 114.854 17.1982 112.407 17.3189L111.444 17.3663L111.424 18.8251L111.404 20.2839H109.555H107.705V15.4039V10.5238L110.759 10.5516C113.624 10.5777 113.85 10.5894 114.406 10.7413ZM111.389 12.6438C111.358 12.6751 111.333 13.264 111.333 13.9526V15.2046L112.064 15.1752C112.713 15.1492 112.829 15.123 113.107 14.9397C113.678 14.5629 113.872 13.7106 113.503 13.2031C113.261 12.87 112.717 12.6522 112.042 12.6176C111.713 12.6008 111.419 12.6126 111.389 12.6438ZM144.763 15.4759C144.386 15.5692 144.214 15.6977 144.06 15.9994C143.76 16.586 143.924 17.3467 144.422 17.6788C144.725 17.8809 145.355 17.9073 145.695 17.732C145.891 17.6312 146.205 17.237 146.206 17.0922C146.206 17.0633 146.068 17.0024 145.898 16.9568C145.639 16.8872 145.58 16.8921 145.526 16.9872C145.203 17.563 144.652 17.3699 144.652 16.6811C144.652 16.4812 144.702 16.257 144.767 16.164C144.918 15.9486 145.27 15.9438 145.419 16.1551C145.511 16.287 145.573 16.3027 145.83 16.2594C145.999 16.2309 146.132 16.1669 146.132 16.1141C146.132 15.9933 145.862 15.6492 145.701 15.5648C145.506 15.4629 145.006 15.4155 144.763 15.4759ZM147.214 15.4816C146.54 15.6956 146.243 16.5304 146.587 17.2406C146.958 18.0048 148.218 18.0622 148.704 17.3369C149.047 16.8242 148.873 15.8959 148.379 15.6119C148.102 15.4521 147.514 15.3863 147.214 15.4816ZM149.242 16.6646V17.8464H149.538H149.835L149.841 17.0155C149.848 16.1166 149.832 16.1021 150.144 17.2779L150.297 17.8542L150.561 17.8319L150.824 17.8095L151.014 17.0709L151.204 16.3322L151.241 17.0709L151.278 17.8095H151.574H151.871L151.891 16.6428L151.911 15.4759L151.41 15.4979L150.908 15.5197L150.76 16.0862C150.587 16.7493 150.537 16.8249 150.475 16.517C150.45 16.3924 150.377 16.1088 150.312 15.8867L150.194 15.4828H149.718H149.242V16.6646ZM152.352 16.6646V17.8464H152.722H153.092V17.4124V16.9784L153.5 16.9446C154.173 16.8889 154.518 16.3887 154.246 15.8633C154.074 15.5317 153.926 15.4828 153.097 15.4828H152.352V16.6646ZM154.721 16.6669V17.851L155.628 17.8302L156.535 17.8095L156.558 17.5325L156.581 17.2555H156.021H155.462V16.3692V15.4828H155.091H154.721V16.6669ZM156.942 16.6687V17.8545L157.294 17.832L157.646 17.8095L157.666 16.6462L157.687 15.4828H157.315H156.942V16.6687ZM158.758 15.6087C158.455 16.3587 157.979 17.6624 157.979 17.7436C157.979 17.8164 158.078 17.8464 158.316 17.8464C158.624 17.8464 158.66 17.8273 158.731 17.6248C158.804 17.4162 158.831 17.4032 159.201 17.4032C159.571 17.4032 159.598 17.4162 159.671 17.6248C159.741 17.8256 159.779 17.8464 160.073 17.8464C160.252 17.8464 160.416 17.8281 160.439 17.8057C160.461 17.7833 160.287 17.2598 160.051 16.6424L159.623 15.5197L159.217 15.4979C158.884 15.4799 158.802 15.4995 158.758 15.6087ZM160.719 16.6646V17.8464H161.049H161.379L161.401 17.2181L161.422 16.5896L161.851 17.2181L162.28 17.8464H162.61H162.94V16.6646V15.4828H162.61H162.279L162.258 16.0922L162.236 16.7015L161.806 16.0922C161.377 15.4852 161.373 15.4828 161.047 15.4828H160.719V16.6646ZM163.25 15.7598C163.273 16.0338 163.277 16.037 163.622 16.0592L163.972 16.0816L163.993 16.9456L164.013 17.8095L164.365 17.832L164.717 17.8545V16.9641V16.0737H165.087H165.457V15.7783V15.4828H164.342H163.227L163.25 15.7598ZM147.983 16.1476C148.09 16.2543 148.131 16.3927 148.13 16.6462C148.129 17.0392 148.091 17.1223 147.859 17.2444C147.628 17.3658 147.555 17.3521 147.351 17.1481C147.083 16.8807 147.123 16.2548 147.421 16.0564C147.571 15.9561 147.834 15.9987 147.983 16.1476ZM153.574 16.2214C153.574 16.3758 153.534 16.4099 153.333 16.4292C153.108 16.4509 153.092 16.4375 153.092 16.2214C153.092 16.0054 153.108 15.9919 153.333 16.0137C153.534 16.033 153.574 16.0671 153.574 16.2214ZM159.368 16.8543C159.345 16.878 159.246 16.8865 159.149 16.8733C158.973 16.8493 158.973 16.8482 159.08 16.48L159.188 16.1106L159.3 16.461C159.361 16.6537 159.392 16.8307 159.368 16.8543ZM137.964 17.2571C137.64 17.6908 136.859 18.9605 136.895 18.9963C136.914 19.0156 138.421 18.5591 138.855 18.4025C138.917 18.3802 138.852 18.1578 138.643 17.6836C138.476 17.306 138.318 16.9723 138.291 16.9422C138.263 16.912 138.116 17.0537 137.964 17.2571Z" fill="#225E63"/>
<path fill-rule="evenodd" clip-rule="evenodd" d="M141.272 9.45212C140.883 9.51682 139.898 9.97529 139.43 10.3102C137.677 11.5647 135.779 13.9552 133.302 18.0292C131.607 20.8162 131.285 21.335 131.185 21.4392C131.094 21.5336 130.99 21.4564 130.383 20.8407C129.51 19.9553 129.009 19.5272 128.448 19.1866C128.07 18.9569 127.964 18.9252 127.693 18.9605C126.92 19.061 126.49 19.5056 126.49 20.2037C126.49 20.5857 126.52 20.6513 126.979 21.2992C128.161 22.9655 129.441 24.3756 129.992 24.6185C130.403 24.8 131.386 24.8838 131.798 24.7724C132.366 24.6185 132.723 24.1071 134.709 20.5923C136.284 17.807 137.293 16.1253 138.211 14.7571C139.871 12.2822 140.92 11.0811 142.557 9.7811C142.708 9.66122 142.725 9.61639 142.647 9.53787C142.55 9.43934 141.677 9.3849 141.272 9.45212Z" fill="#2BBC5D"/>
<path d="M192.747 8.8258V14.6514H195.692C198.907 14.6514 199.86 14.5806 200.69 14.2897C203.169 13.4092 204.502 10.7126 203.96 7.65439C203.595 5.62605 202.294 4.07729 200.426 3.45621C199.473 3.13387 198.907 3.07884 195.754 3.03953L192.747 3.00022V8.8258ZM199.217 4.77698C199.922 4.94208 200.783 5.36662 201.224 5.79115C201.658 6.19996 202.077 6.89966 202.286 7.57577C202.511 8.29906 202.511 9.68273 202.286 10.4139C201.844 11.8369 200.721 12.7881 199.217 13.0083C198.876 13.0554 197.637 13.1026 196.467 13.1105L194.336 13.1183L194.312 8.84152L194.297 4.57258L196.482 4.61189C198.071 4.64333 198.822 4.68264 199.217 4.77698Z" fill="#003F40"/>
<path d="M212.143 3.17787C211.965 3.20931 211.562 3.3351 211.252 3.44517C209.183 4.1999 207.765 5.99238 207.556 8.11506C207.269 10.9139 208.742 13.3824 211.206 14.2551C213.011 14.8919 215.251 14.6954 216.808 13.7677C217.715 13.2174 218.862 11.9123 218.862 11.4249C218.862 11.3777 218.559 11.3462 218.102 11.3462H217.335L216.831 11.8415C216.281 12.384 215.483 12.8478 214.786 13.0365C214.204 13.1859 212.926 13.1859 212.283 13.0365C211.539 12.8557 210.911 12.4862 210.299 11.8573C209.625 11.1733 209.307 10.5443 209.137 9.58521C208.819 7.72197 209.741 5.88232 211.407 5.05683C212.151 4.68733 212.593 4.58512 213.515 4.58512C214.917 4.58512 215.839 4.95463 216.754 5.89804L217.312 6.47195H218.087C218.66 6.47195 218.862 6.44836 218.862 6.36975C218.862 6.16534 218.265 5.25338 217.839 4.82098C217.048 4.00335 215.808 3.3351 214.762 3.16214C214.235 3.07566 212.593 3.08353 212.143 3.17787Z" fill="#003F40"/>
<path d="M204.449 8.85579V14.4141L205.79 14.3983L207.123 14.3748V8.84793V3.32896L205.782 3.30538L204.449 3.28966V8.85579Z" fill="#003F40"/>
<path d="M197.327 15.0307C194.801 15.5731 192.887 17.3499 192.19 19.8028C191.942 20.6833 191.942 22.2714 192.19 23.1519C192.833 25.4397 194.53 27.1221 196.839 27.7825C197.575 27.9947 199.234 28.0262 200.032 27.8532C203.038 27.185 205.262 24.3469 205.13 21.3201L205.107 20.7305L201.682 20.7069L198.249 20.6912L198.211 20.8641C198.187 20.9663 198.18 21.383 198.187 21.7918L198.211 22.5387L200.326 22.5072L202.434 22.4758V22.6566C202.434 22.9711 201.922 23.7808 201.411 24.2761C200.365 25.2982 198.962 25.707 197.668 25.3689C196.521 25.0623 195.398 24.1189 194.871 23.0104C194.569 22.3893 194.569 22.3736 194.569 21.4302V20.4789L194.91 19.7792C196.188 17.1612 199.505 16.6345 201.519 18.7336L202.031 19.276H203.395C204.146 19.276 204.758 19.2524 204.758 19.221C204.758 19.0402 204.115 17.9159 203.712 17.4049C202.93 16.3986 201.853 15.6675 200.497 15.2272C199.931 15.0385 199.683 15.0071 198.753 14.9835C198.156 14.9678 197.513 14.9914 197.327 15.0307Z" fill="#003F40"/>
<path d="M211.747 15.0377C208.609 15.7059 206.439 18.3475 206.439 21.4843C206.439 25.5961 210.12 28.6228 214.243 27.8917C216.265 27.53 217.977 26.2329 218.915 24.3224C219.419 23.3083 219.481 23.3712 217.931 23.3712H216.621L216.389 23.7092C215.653 24.802 214.343 25.4938 213.034 25.4938C211.864 25.4938 210.973 25.1165 210.143 24.2753C208.601 22.7186 208.539 20.4073 209.996 18.8113C210.833 17.8994 211.825 17.4513 213.018 17.4591C214.212 17.4591 215.196 17.9072 216.025 18.8192L216.451 19.283H217.807C218.698 19.283 219.171 19.2516 219.171 19.2044C219.171 19.0865 218.822 18.4025 218.497 17.8836C218.094 17.2468 217.125 16.3192 216.412 15.8868C216.071 15.6902 215.467 15.4072 215.064 15.2657C214.39 15.0377 214.235 15.0141 213.204 14.9905C212.584 14.9748 211.933 14.9984 211.747 15.0377Z" fill="#003F40"/>
<circle cx="213.138" cy="9.02379" r="1.92613" fill="#003F40"/>
<circle cx="197.73" cy="9.02379" r="1.92613" fill="#003F40"/>
<path fill-rule="evenodd" clip-rule="evenodd" d="M0.00390625 13.9832V27.9664H15.9978H31.9917V27.026V26.0856L21.3849 26.0512L10.778 26.0168L10.7379 25.2437L10.6977 24.4706H21.3509H32.0039L31.9644 23.563L31.9248 22.6555L21.3514 22.5882L10.778 22.521V21.7815V21.042L21.3849 21.0076L31.9917 20.9732V20.1008V19.2285L21.3849 19.1941L10.778 19.1597V18.3529V17.5462L21.3849 17.5118L31.9917 17.4774V16.605V15.7327L21.3849 15.6983L10.778 15.6639L10.7379 14.8908L10.6977 14.1176H21.3447H31.9917V7.05882V0H15.9978H0.00390625V13.9832ZM20.6766 1.50091C21.1611 1.72262 21.3217 2.46682 21.2622 4.21392C21.2144 5.61748 21.1978 5.68753 20.8395 5.99704C20.3623 6.40941 19.7969 6.40874 19.3179 5.99516C18.9538 5.68081 18.9408 5.6242 18.8963 4.15126C18.8704 3.29775 18.9139 2.41761 18.9957 2.14346C19.2081 1.4314 19.9256 1.15711 20.6766 1.50091ZM13.9858 2.45378C14.0352 2.98985 14.1615 3.94286 14.2667 4.57143C14.5383 6.19536 14.54 6.18487 13.9928 6.18487C13.5951 6.18487 13.514 6.13069 13.4389 5.81513C13.3905 5.6117 13.3238 5.39711 13.2906 5.33795C13.1813 5.14339 12.8526 5.53909 12.8526 5.86514C12.8526 6.14292 12.789 6.18487 12.3685 6.18487H11.8842L11.9732 5.14286C12.0873 3.80881 12.31 2.01761 12.3997 1.71429C12.4545 1.52834 12.6188 1.47899 13.1826 1.47899H13.8961L13.9858 2.45378ZM15.6632 3.83193V6.18487H15.1948H14.7263V3.83193V1.47899H15.1948H15.6632V3.83193ZM18.3163 3.73109C18.4806 4.96982 18.6133 6.03227 18.6113 6.0921C18.6093 6.15207 18.3819 6.18232 18.1058 6.15933C17.6672 6.12289 17.5984 6.07005 17.5608 5.73997C17.5037 5.23886 17.0857 5.29856 17.0262 5.81634C16.9889 6.14091 16.9272 6.18487 16.5085 6.18487H16.0333L16.1243 5.14286C16.2045 4.2236 16.2912 3.55751 16.5447 1.91597C16.6109 1.48706 16.6253 1.47899 17.3149 1.47899H18.0176L18.3163 3.73109ZM25.3727 1.80908C25.8102 2.24847 25.8379 3.14393 25.421 3.36807L25.1407 3.51879L25.421 3.81849C25.6474 4.06064 25.7012 4.28988 25.7012 5.0123C25.7012 6.10003 25.5954 6.18487 24.2378 6.18487H23.2921V3.83193V1.47899H24.1681C24.9199 1.47899 25.0908 1.52578 25.3727 1.80908ZM28.0305 1.78151C28.1021 2.1479 28.5164 5.78003 28.5138 6.01681C28.5127 6.11832 28.3297 6.18487 28.0523 6.18487C27.6509 6.18487 27.5874 6.13822 27.5504 5.81634C27.4891 5.28202 27.0884 5.25257 26.9743 5.77398C26.8951 6.13674 26.8296 6.18487 26.4161 6.18487C25.9757 6.18487 25.9522 6.16269 26.0239 5.81513C26.0659 5.6117 26.1623 4.74958 26.2383 3.89916C26.4664 1.34548 26.4105 1.47899 27.2527 1.47899C27.8913 1.47899 27.978 1.51274 28.0305 1.78151ZM30.842 1.65526C31.1912 1.9118 31.2871 2.98891 30.9998 3.42924C30.7979 3.73889 30.7963 3.7994 30.9827 4.06682C31.119 4.26232 31.1887 4.67092 31.1887 5.27368V6.18487H30.7202H30.2518V5.10924C30.2518 4.24282 30.2127 4.03361 30.051 4.03361C29.8894 4.03361 29.8503 4.24282 29.8503 5.10924V6.18487H29.3818H28.9134V3.83193V1.47899H29.7578C30.243 1.47899 30.7042 1.55402 30.842 1.65526ZM19.9043 2.10366C19.7449 2.26366 19.7973 5.35301 19.9611 5.45466C20.2244 5.61815 20.2808 5.30124 20.2762 3.68645C20.2719 2.21997 20.1795 1.82709 19.9043 2.10366ZM24.3287 2.64941C24.2579 3.2078 24.407 3.50521 24.6403 3.27086C24.8215 3.08881 24.7486 2.256 24.5455 2.18918C24.4567 2.15987 24.3666 2.35119 24.3287 2.64941ZM29.8503 2.7563C29.8503 3.19852 29.8997 3.36726 30.0176 3.32773C30.1126 3.29587 30.1849 3.04914 30.1849 2.7563C30.1849 2.46346 30.1126 2.21674 30.0176 2.18487C29.8997 2.14534 29.8503 2.31408 29.8503 2.7563ZM27.1285 3.28511C26.9919 4.28666 27.0166 4.57143 27.2404 4.57143C27.3946 4.57143 27.439 4.40753 27.4318 3.86555C27.4177 2.81156 27.2396 2.47072 27.1285 3.28511ZM13.0868 3.03597C13.0316 3.09163 12.9864 3.4599 12.9864 3.85439C12.9864 4.40215 13.0338 4.57143 13.1872 4.57143C13.4059 4.57143 13.4296 4.2841 13.2798 3.45062C13.2289 3.16692 13.1419 2.9803 13.0868 3.03597ZM17.1355 3.76471C17.1355 4.42098 17.1761 4.57143 17.3538 4.57143C17.5315 4.57143 17.5567 4.47785 17.4891 4.06723C17.4434 3.78998 17.4054 3.42682 17.4046 3.2605C17.4038 3.09419 17.3429 2.95798 17.2693 2.95798C17.1949 2.95798 17.1355 3.31657 17.1355 3.76471ZM22.8906 4.23529C22.8906 4.54279 22.8405 4.57143 22.3026 4.57143C21.8887 4.57143 21.6904 4.5081 21.633 4.35765C21.5011 4.0121 21.6643 3.89916 22.2962 3.89916C22.8409 3.89916 22.8906 3.92726 22.8906 4.23529ZM24.3549 4.12329C24.3507 4.18487 24.3299 4.45889 24.309 4.73224C24.2637 5.32733 24.4137 5.64975 24.6335 5.42897C24.8282 5.23334 24.7451 4.13741 24.5301 4.06642C24.4382 4.03603 24.3592 4.06158 24.3549 4.12329ZM12.9804 9.04202C12.9851 9.22582 13.1034 9.27731 13.5218 9.27731C14.1554 9.27731 14.2124 9.47899 13.6959 9.89271C13.3521 10.1682 13.3424 10.2079 13.4951 10.72C13.7439 11.5543 13.6947 11.6167 13.1374 11.1732L12.619 10.7609L12.2605 11.0947C12.0633 11.2784 11.8729 11.4286 11.8373 11.4286C11.8017 11.4286 11.8117 11.1329 11.8593 10.7716C11.9417 10.1488 11.9245 10.0987 11.5294 9.80518C11.3002 9.63496 11.1126 9.44659 11.1126 9.38649C11.1126 9.32639 11.3825 9.27731 11.7124 9.27731C12.2575 9.27731 12.3196 9.2437 12.394 8.90756C12.5979 7.98723 12.6139 7.96733 12.8012 8.40336C12.8965 8.62521 12.977 8.91254 12.9804 9.04202ZM17.2332 8.7395C17.3425 9.17338 17.3956 9.21331 17.9128 9.25136C18.2214 9.27422 18.4744 9.33472 18.4751 9.38582C18.4757 9.43704 18.2894 9.63321 18.0612 9.82185C17.657 10.1556 17.6502 10.1799 17.801 10.743C17.8863 11.061 17.9246 11.3529 17.886 11.3916C17.8475 11.4303 17.6241 11.2998 17.3895 11.1016L16.9631 10.7411L16.4973 11.1856L16.0315 11.6303L16.123 11.1165C16.1731 10.8339 16.2473 10.5164 16.2876 10.411C16.3299 10.3002 16.1853 10.0645 15.9451 9.85277C15.7165 9.65123 15.5294 9.43933 15.5294 9.38178C15.5294 9.32437 15.7706 9.27731 16.0653 9.27731C16.5871 9.27731 16.6053 9.26158 16.762 8.67308C16.9387 8.00941 17.0531 8.02555 17.2332 8.7395ZM21.5661 8.67227C21.7133 9.25929 21.7333 9.27731 22.2373 9.27731C22.8633 9.27731 22.8898 9.43005 22.3485 9.91785L21.9403 10.2857L22.1419 10.8571C22.2527 11.1715 22.3065 11.4286 22.2615 11.4286C22.2166 11.4286 21.9852 11.2795 21.7473 11.0973L21.315 10.766L20.9317 11.0971C20.4816 11.4858 20.2819 11.5228 20.4116 11.1933C20.4626 11.0638 20.5362 10.7673 20.5752 10.5342C20.6338 10.1838 20.5855 10.0706 20.2961 9.88007C19.7941 9.54972 19.8532 9.30124 20.4456 9.25177C20.9524 9.20941 20.9852 9.16719 21.2316 8.23529C21.3126 7.92928 21.4127 8.05997 21.5661 8.67227ZM25.9056 8.71691C26.0332 9.17459 26.0836 9.21304 26.6083 9.25136C27.2807 9.30057 27.3147 9.42696 26.7617 9.82252C26.4614 10.0372 26.3675 10.1948 26.415 10.4031C26.451 10.5604 26.5223 10.9008 26.5736 11.1597L26.667 11.6303L26.1856 11.1684L25.7043 10.7066L25.4016 10.9803C24.797 11.5273 24.7447 11.5074 24.8424 10.7675C24.9258 10.1361 24.9056 10.0613 24.5809 9.80477C24.0927 9.41903 24.1388 9.29936 24.7942 9.25136C25.3451 9.21116 25.3625 9.19516 25.4737 8.62656C25.6017 7.97257 25.7042 7.99408 25.9056 8.71691ZM30.1297 8.97479C30.2237 9.21896 30.3498 9.27731 30.7844 9.27731C31.0803 9.27731 31.3231 9.32276 31.3237 9.37815C31.3244 9.43355 31.1365 9.63455 30.9063 9.82467C30.5002 10.16 30.4916 10.1894 30.6212 10.7995C30.6947 11.1455 30.7256 11.4286 30.6899 11.4286C30.6543 11.4286 30.4457 11.277 30.2266 11.0918L29.8282 10.755L29.3448 11.1554C29.079 11.3755 28.848 11.5421 28.8315 11.5255C28.8149 11.509 28.8671 11.2071 28.9474 10.8549C29.0856 10.2481 29.0744 10.1944 28.7357 9.83933C28.5389 9.63308 28.378 9.42225 28.378 9.37076C28.378 9.3194 28.6177 9.27731 28.9109 9.27731C29.383 9.27731 29.453 9.23523 29.5256 8.90756C29.7281 7.99328 29.7439 7.96827 29.8847 8.33613C29.9555 8.52101 30.0658 8.80847 30.1297 8.97479ZM12.8526 12.2353C12.8526 12.3092 12.7923 12.3697 12.7187 12.3697C12.6451 12.3697 12.5849 12.3092 12.5849 12.2353C12.5849 12.1613 12.6451 12.1008 12.7187 12.1008C12.7923 12.1008 12.8526 12.1613 12.8526 12.2353ZM22.732 20.1342C21.4301 20.1562 19.2619 20.1562 17.9137 20.1343C16.5656 20.1124 17.6307 20.0944 20.2807 20.0943C22.9307 20.0943 24.0339 20.1123 22.732 20.1342ZM29.822 20.1328C29.4016 20.1595 28.6789 20.1596 28.216 20.1332C27.753 20.107 28.097 20.0852 28.9803 20.085C29.8637 20.0847 30.2424 20.1062 29.822 20.1328ZM22.8317 23.6175C22.1517 23.8272 21.0713 23.8118 18.2731 23.5528C17.2813 23.461 17.6359 23.4389 20.2807 23.4275C23.3415 23.4143 23.4617 23.4233 22.8317 23.6175ZM2.16743 28.7395C2.06009 28.948 1.59473 30.8986 1.59125 31.1544C1.58777 31.4151 1.89146 31.31 2.03105 31.0022C2.22592 30.5725 2.81455 30.5081 2.81455 30.9164C2.81455 31.2195 3.05319 31.4107 3.22089 31.2421C3.3459 31.1164 2.86006 28.9496 2.64457 28.6723C2.46443 28.4402 2.31038 28.462 2.16743 28.7395ZM5.15221 28.7781C4.99227 28.9557 4.88573 29.3256 4.84946 29.8295C4.80074 30.5053 4.83607 30.6568 5.11941 30.9877C5.38402 31.2967 5.51384 31.3513 5.80762 31.2772C6.24929 31.1658 6.55753 30.5968 6.31033 30.3493C6.18077 30.2196 6.09498 30.2529 5.90399 30.5068C5.56403 30.9588 5.35752 30.7563 5.35752 29.9711C5.35752 29.2309 5.6343 28.9538 5.94588 29.3818C6.13379 29.6399 6.42824 29.5508 6.42824 29.2358C6.42824 28.9613 5.93932 28.5042 5.64594 28.5042C5.51009 28.5042 5.28792 28.6275 5.15221 28.7781ZM8.44227 28.7408C7.89941 29.1825 7.90757 30.9093 8.45404 31.2031C8.8549 31.4186 9.36108 31.2414 9.51633 30.8315C9.71455 30.3076 9.4359 30.0816 9.11615 30.5068C8.98298 30.6837 8.81341 30.7909 8.73912 30.7449C8.52913 30.6145 8.42875 29.8849 8.56968 29.5126C8.71677 29.1239 8.93962 29.0815 9.17036 29.3987C9.34823 29.643 9.6404 29.5418 9.6404 29.2358C9.6404 28.9886 9.16286 28.5042 8.91914 28.5042C8.81688 28.5042 8.6022 28.6107 8.44227 28.7408ZM11.3036 28.6829C11.2662 28.7812 11.2529 29.4014 11.2745 30.061C11.3056 31.0202 11.3537 31.2605 11.5142 31.2605C11.6495 31.2605 11.7284 31.0963 11.7564 30.7563C11.8075 30.137 11.926 30.1179 12.1735 30.6891C12.3572 31.1135 12.5463 31.3214 12.7522 31.3257C12.9123 31.3289 12.8688 30.9425 12.6644 30.5455C12.5027 30.2314 12.5027 30.1435 12.6644 29.9213C13.1257 29.2875 12.6726 28.5042 11.8446 28.5042C11.5749 28.5042 11.3426 28.581 11.3036 28.6829ZM14.5186 28.6755C14.4795 28.7778 14.4651 29.4014 14.4866 30.061L14.5256 31.2605L15.2282 31.3011C15.8608 31.3377 15.9309 31.3143 15.9309 31.0658C15.9309 30.8401 15.8456 30.7899 15.4625 30.7899C15.052 30.7899 14.994 30.7482 14.994 30.4538C14.994 30.17 15.0565 30.1176 15.3955 30.1176C15.7078 30.1176 15.7971 30.058 15.7971 29.8487C15.7971 29.6395 15.7078 29.5798 15.3955 29.5798C15.1279 29.5798 14.994 29.5126 14.994 29.3782C14.994 29.2366 15.1363 29.1765 15.4718 29.1765C15.8906 29.1765 15.9443 29.1392 15.9068 28.874C15.8703 28.6157 15.7708 28.5654 15.2269 28.5304C14.7781 28.5015 14.5688 28.5444 14.5186 28.6755ZM17.5941 28.6829C17.5567 28.7812 17.5434 29.4014 17.565 30.061L17.6039 31.2605L18.1319 31.2429C18.8233 31.2198 19.1431 30.8359 19.1431 30.0289C19.1431 29.0141 18.7339 28.5124 17.9009 28.5061C17.7697 28.505 17.6317 28.5846 17.5941 28.6829ZM20.7491 29.916C20.7491 31.0036 20.7896 31.3366 20.9164 31.2941C21.0352 31.2543 21.0837 30.8542 21.0837 29.916C21.0837 28.9777 21.0352 28.5776 20.9164 28.5378C20.7896 28.4953 20.7491 28.8284 20.7491 29.916ZM22.7037 28.718C22.603 28.9819 22.7115 29.1765 22.9598 29.1765C23.1007 29.1765 23.1567 29.4341 23.1861 30.2185C23.2169 31.0376 23.2682 31.2605 23.4259 31.2605C23.5837 31.2605 23.635 31.0376 23.6658 30.2185C23.6952 29.4341 23.7512 29.1765 23.8921 29.1765C24.1404 29.1765 24.2489 28.9819 24.1481 28.718C24.0893 28.5638 23.888 28.5042 23.4259 28.5042C22.9639 28.5042 22.7626 28.5638 22.7037 28.718ZM25.7612 28.6755C25.7221 28.7778 25.7077 29.4014 25.7292 30.061L25.7682 31.2605L26.4708 31.3011C27.1033 31.3377 27.1735 31.3143 27.1735 31.0658C27.1735 30.8401 27.0882 30.7899 26.705 30.7899C26.2979 30.7899 26.2366 30.747 26.2366 30.4623C26.2366 30.1909 26.3113 30.1275 26.6716 30.0925C26.9504 30.0656 27.1066 29.978 27.1066 29.8487C27.1066 29.7195 26.9504 29.6319 26.6716 29.605C26.0488 29.5446 26.0856 29.1765 26.7144 29.1765C27.1332 29.1765 27.1869 29.1392 27.1494 28.874C27.1128 28.6157 27.0134 28.5654 26.4695 28.5304C26.0207 28.5015 25.8114 28.5444 25.7612 28.6755ZM28.8367 28.6829C28.7992 28.7812 28.786 29.4007 28.8075 30.0596C28.8496 31.353 28.9213 31.4561 29.6507 31.2722C30.2175 31.1293 30.3856 30.8309 30.3856 29.9675C30.3856 29.294 30.3326 29.111 30.0571 28.8343C29.6972 28.4726 28.9523 28.3802 28.8367 28.6829ZM12.292 29.4103C12.2249 29.7607 11.7818 29.7998 11.7818 29.4552C11.7818 29.2628 11.8678 29.1765 12.0593 29.1765C12.2508 29.1765 12.323 29.2489 12.292 29.4103ZM18.5807 29.934C18.6125 30.4838 18.5744 30.6395 18.3906 30.7103C18.1328 30.8098 17.9054 30.5517 18.0069 30.2747C18.0429 30.1763 18.0723 29.8844 18.0723 29.6262C18.0723 29.2518 18.1197 29.1659 18.3066 29.2015C18.4866 29.2359 18.55 29.4052 18.5807 29.934ZM29.7834 29.9832C29.7834 30.5771 29.7381 30.7278 29.5491 30.7644C29.3466 30.8035 29.3149 30.698 29.3149 29.9832C29.3149 29.2684 29.3466 29.1629 29.5491 29.202C29.7381 29.2386 29.7834 29.3893 29.7834 29.9832ZM2.49387 30.0812C2.35789 30.218 2.2456 30.0121 2.35722 29.8307C2.44154 29.6936 2.47312 29.6936 2.51836 29.8302C2.54941 29.9236 2.53831 30.0366 2.49387 30.0812ZM0.00390625 31.7647C0.00390625 31.9875 0.848839 32 15.8737 32C30.1414 32 31.7393 31.9789 31.7004 31.7915C31.6617 31.6047 30.0079 31.5801 15.8305 31.5562C0.83666 31.5308 0.00390625 31.5418 0.00390625 31.7647Z" fill="#1E4A71"/>
<rect x="58.4248" y="18.5894" width="19.3631" height="10.5852" fill="#620208"/>
<path d="M67.7313 2.30473C67.0909 2.00447 66.8757 0.956018 67.332 0.359117C67.8975 -0.380814 69.0789 0.103652 69.0789 1.07555C69.0789 1.58532 68.7643 2.1759 68.4356 2.2833C68.1812 2.36643 68.1703 2.42749 68.2425 3.35743C68.3849 5.1897 69.066 7.13144 69.8715 8.00149C70.3563 8.52494 71.0814 8.92602 71.543 8.92602C72.7424 8.92602 74.013 7.50709 75.2063 4.83484L75.5055 4.16462L75.24 3.81712C74.7679 3.19943 75.0219 2.04513 75.6665 1.87861C76.6319 1.62921 77.29 2.64461 76.7978 3.62413C76.6002 4.0172 76.3776 4.14978 75.9148 4.14978C75.6554 4.14978 75.5994 4.25033 75.4293 5.02112C74.6791 8.41857 74.8936 10.4872 76.0546 11.0542C77.0412 11.536 79.0458 10.9579 80.7129 9.71048C81.1676 9.37034 81.246 9.24409 81.246 8.85218C81.246 7.70769 82.1398 7.12318 82.8196 7.82296C83.2611 8.27722 83.2547 9.19413 82.8071 9.65485C82.542 9.92761 82.4121 9.97046 82.0574 9.90192L81.6282 9.81905L79.6806 13.8261L77.7331 17.8331H68.0754H58.4178L56.4764 13.839L54.5351 9.84473L54.1021 9.91715C53.7494 9.97602 53.609 9.92774 53.3461 9.65717C52.8961 9.19413 52.8886 8.27839 53.3313 7.82296C54.0267 7.10717 54.9049 7.68277 54.9049 8.85424C54.9049 9.2437 54.984 9.37085 55.4379 9.71048C56.4393 10.4597 57.9923 11.1462 58.8449 11.2167C60.3491 11.341 61.0091 10.6642 61.1416 8.8616C61.2561 7.30416 60.6956 4.06445 60.3363 4.20632C59.8798 4.38652 59.1696 3.63601 59.1696 2.9734C59.1696 1.85511 60.5133 1.39698 60.9931 2.35184C61.2516 2.86639 61.2211 3.41126 60.9109 3.81712L60.6454 4.16462L60.9446 4.83484C62.4318 8.16505 63.9396 9.46173 65.415 8.6792C66.7111 7.99155 67.6207 6.07692 67.9253 3.39487C68.0304 2.46931 68.0257 2.44272 67.7313 2.30473Z" fill="#CFAE56"/>
<path d="M58.2916 30.5697C58.2916 30.333 58.3292 30.1006 58.3752 30.0534C58.4211 30.006 62.8239 29.9673 68.1591 29.9673H77.8593V30.4837V31H68.0754H58.2916V30.5697Z" fill="#CFAE56"/>
<path d="M63.2505 14.4575C63.2505 14.1401 63.1548 13.8687 62.9683 13.6577C62.4415 13.0611 61.7847 13.1311 61.4382 13.8206C61.1924 14.3098 61.1923 14.648 61.4377 15.1365C61.9574 16.1706 63.2505 15.6863 63.2505 14.4575Z" fill="white"/>
<path d="M69.0976 14.2987C69.0656 14.0221 68.9363 13.6942 68.8104 13.57C68.301 13.0677 67.657 13.1769 67.3336 13.8206C67.0878 14.3098 67.0877 14.648 67.3331 15.1365C67.8907 16.2461 69.2483 15.6017 69.0976 14.2987Z" fill="white"/>
<path d="M74.8472 15.1365C75.09 14.6532 75.0926 14.3101 74.8569 13.8412C74.3476 12.8274 73.0344 13.2869 73.0344 14.479C73.0344 15.6885 74.3331 16.1594 74.8472 15.1365Z" fill="white"/>
<path d="M65.2853 20.7302C65.4872 20.8227 65.4865 20.7842 65.2739 20.139L65.0465 19.4489L64.368 19.4254C63.3505 19.3903 62.9155 19.5794 62.1123 20.406C61.2447 21.2989 60.9206 22.1883 61.0261 23.3862C61.2498 25.9259 63.7854 27.4561 65.8505 26.2978C66.9898 25.6587 66.9986 25.6333 66.5598 24.2516L66.1825 23.0634L64.9046 23.0266L63.6268 22.9898V23.5752V24.1606H64.9439C65.856 24.1606 66.2609 24.2064 66.2609 24.3097C66.2609 24.5998 65.2627 25.4387 64.8149 25.5252C63.3773 25.8027 62.1216 24.6335 62.1216 23.0174C62.1216 21.9379 62.8519 20.8156 63.6963 20.5974C64.0434 20.5078 64.9683 20.5852 65.2853 20.7302Z" fill="white"/>
<path d="M68.8322 23.2893C68.583 22.455 68.2226 21.2787 68.0313 20.6753L67.743 19.4945H66.9685C66.5572 19.4737 66.0649 19.4945 66.0649 19.4945L66.0097 20.6C66.0097 21.8181 66.1065 21.7968 66.5428 23.0634L67.0763 24.6124L67.1456 22.9343C67.1873 21.9262 67.2539 21.3593 67.3126 21.5143C67.3661 21.6563 67.7584 22.8472 68.184 24.1606L68.9578 26.5487H69.3864C69.8669 26.5487 69.7471 26.8286 70.9885 22.8052L71.4664 21.2561L71.5292 23.9024L71.5919 26.5487L72.125 26.5884L72.6581 26.6281V25.1867C72.6581 23.7576 72.6521 23.7282 71.9465 21.7263C71.5551 20.6157 71.1974 19.6613 71.1515 19.6054C71.1056 19.5494 70.7061 20.6963 70.2638 22.1541C69.8214 23.6119 69.4204 24.8049 69.3724 24.8053C69.3245 24.8057 69.0814 24.1236 68.8322 23.2893Z" fill="white"/>
<path d="M74.1608 19.7396C74.6634 19.9995 75.1668 20.7033 75.1668 21.1462C75.1668 21.4136 75.1078 21.4498 74.6719 21.4498C74.2555 21.4498 74.1509 21.3935 74.0125 21.0948C73.8902 20.8311 73.7412 20.7292 73.433 20.6987C72.9027 20.6462 72.6586 21.0173 72.6621 21.3687C72.6658 21.7493 72.7793 21.9689 73.0523 22.1629C73.2938 22.3344 73.4706 22.2918 73.9137 22.5198C74.7292 22.9395 75.3387 23.6188 75.2642 24.0251C75.2761 24.0602 75.3592 24.3998 75.2761 25.1363C75.2064 25.4161 75.0532 25.7657 74.9361 25.9131C74.6166 26.3147 74.0402 26.6691 73.9231 26.5357C73.7422 26.3296 73.5421 25.5806 73.6681 25.5806C73.8999 25.5806 74.2887 25.0597 74.2887 24.7493C74.2887 23.8783 73.6215 23.6824 73.3428 23.5253L72.7173 23.0634L72.4802 22.4261C71.8136 20.6342 71.8239 20.1448 72.5365 19.7515C73.077 19.4532 73.5995 19.4493 74.1608 19.7396Z" fill="white"/>
<path d="M62.5355 27.9042C62.5355 28.2947 62.559 28.4543 62.5877 28.2592C62.6164 28.064 62.6164 27.7444 62.5877 27.5492C62.559 27.354 62.5355 27.5137 62.5355 27.9042Z" fill="white"/>
<path d="M64.013 28.2914C63.9573 28.2914 63.7554 28.0591 63.5641 27.7751C63.3728 27.4911 63.1676 27.2587 63.108 27.2587C63.0484 27.2587 63.0085 27.5928 63.0193 28.001L63.039 28.7432L63.1134 28.117L63.1878 27.4908L63.6188 28.0848C63.8559 28.4113 64.0957 28.6787 64.1519 28.6787C64.2081 28.6787 64.2441 28.3446 64.232 27.9364C64.2131 27.2927 64.2038 27.267 64.1622 27.7428C64.1357 28.0446 64.0686 28.2914 64.013 28.2914Z" fill="white"/>
<path d="M65.1204 28.103C65.1833 27.5604 65.2427 27.449 65.5083 27.3735C65.7203 27.3133 65.5983 27.286 65.132 27.2892C64.7526 27.2918 64.5691 27.319 64.7244 27.3499C64.9705 27.3987 65.0091 27.4915 65.0263 28.0746L65.046 28.7432L65.1204 28.103Z" fill="white"/>
<path d="M66.1355 27.6533C66.1355 27.4522 66.2409 27.3928 66.6686 27.3532L67.2017 27.3038L66.6059 27.2813L66.0101 27.2587V27.9687V28.6787L66.6059 28.6561L67.2017 28.6336L66.6686 28.5842C66.2476 28.5451 66.1355 28.4838 66.1355 28.2922C66.1355 28.1152 66.2458 28.0356 66.5432 27.9975L66.9508 27.9455L66.5432 27.9248C66.2301 27.9089 66.1355 27.8461 66.1355 27.6533Z" fill="white"/>
<path d="M68.6018 28.0584C68.7015 27.9559 68.7659 27.7485 68.7449 27.5976C68.7125 27.3637 68.6098 27.3175 68.0484 27.2843L67.3898 27.2452L67.4044 27.9297C67.4124 28.3061 67.4448 28.5126 67.4763 28.3882C67.5562 28.0737 68.0035 28.1059 68.3725 28.4528C68.6358 28.7004 68.6621 28.7064 68.551 28.494C68.4539 28.3082 68.4668 28.1974 68.6018 28.0584Z" fill="white"/>
<path d="M69.1459 27.402L69.7417 27.3536L70.3375 27.3052L69.6725 27.282L69.0073 27.2587L69.0453 27.9364L69.0832 28.6141L69.6477 28.6247L70.2121 28.6352L69.679 28.5854L69.1459 28.5354V27.9687V27.402Z" fill="white"/>
<path d="M70.6762 27.6216C70.6442 27.4498 70.7505 27.3928 71.1764 27.3536L71.7173 27.3038L71.1215 27.2813L70.5257 27.2587V27.9687V28.6787L71.1215 28.6604L71.7173 28.642L71.2168 28.5635C70.8783 28.5105 70.7028 28.412 70.6745 28.2592C70.641 28.078 70.7279 28.0299 71.1123 28.0162L71.5919 27.9993L71.1542 27.9194C70.8843 27.8702 70.7012 27.7561 70.6762 27.6216Z" fill="white"/>
<path d="M73.0938 28.1169C73.2072 28.0722 73.2852 27.8817 73.2852 27.65C73.2852 27.2665 73.2727 27.2587 72.6581 27.2587H72.0309L72.048 28.001C72.0574 28.4092 72.0895 28.6126 72.1195 28.4528C72.1911 28.0702 72.7194 28.0561 72.9147 28.4316C72.9917 28.5797 73.0864 28.6682 73.1252 28.6283C73.1638 28.5885 73.1296 28.4741 73.0491 28.3742C72.9348 28.2324 72.9447 28.1759 73.0938 28.1169Z" fill="white"/>
<path d="M74.1407 28.0095C74.1614 27.4562 74.1925 27.4005 74.5082 27.3512C74.698 27.3216 74.5427 27.2967 74.1633 27.2956C73.7838 27.2947 73.5974 27.3186 73.7491 27.349C73.9774 27.3945 74.0327 27.5079 74.0715 28.0091L74.1181 28.6141L74.1407 28.0095Z" fill="white"/>
<defs>
<linearGradient id="paint0_linear" x1="267.552" y1="14.6684" x2="242.654" y2="16.1469" gradientUnits="userSpaceOnUse">
<stop stop-color="#2262AC"/>
<stop offset="1" stop-color="#15B9EE"/>
</linearGradient>
<linearGradient id="paint1_linear" x1="246.754" y1="18.7398" x2="268.595" y2="11.5535" gradientUnits="userSpaceOnUse">
<stop stop-color="#2262AC"/>
<stop offset="1" stop-color="#15B9EE"/>
</linearGradient>
</defs>
</svg>
