<svg width="1440" height="608" viewBox="0 0 1440 608" fill="none" xmlns="http://www.w3.org/2000/svg">
<g style="mix-blend-mode:color-dodge" opacity="0.75">
<path d="M958.931 104.083C959.244 103.77 959.212 103.232 958.861 102.881C958.509 102.529 957.971 102.498 957.658 102.81C957.346 103.122 957.378 103.661 957.729 104.012C958.081 104.363 958.619 104.395 958.931 104.083Z" fill="white"/>
<path d="M921.507 113.371C921.107 114.171 921.907 114.871 922.707 114.571C922.907 114.471 923.007 114.371 923.107 114.171C923.407 113.371 922.707 112.671 921.907 112.971C921.707 113.071 921.607 113.271 921.507 113.371Z" fill="white"/>
<path d="M829.206 59.5709C828.806 60.3709 829.606 61.0709 830.406 60.7709C830.606 60.6709 830.706 60.5709 830.806 60.3709C831.206 59.5709 830.406 58.8709 829.606 59.1709C829.406 59.2709 829.206 59.3709 829.206 59.5709Z" fill="white"/>
<path d="M867.606 19.1708C867.306 19.9708 868.006 20.6708 868.806 20.3708C869.006 20.2708 869.106 20.1708 869.206 19.9708C869.606 19.1708 868.806 18.4708 868.006 18.7708C867.806 18.8708 867.706 18.9708 867.606 19.1708Z" fill="white"/>
<path d="M123.307 114.471C122.907 115.271 123.707 115.971 124.507 115.671C124.707 115.571 124.807 115.471 124.907 115.271C125.207 114.471 124.507 113.771 123.707 114.071C123.507 114.171 123.407 114.271 123.307 114.471Z" fill="white"/>
<path d="M234.206 43.0709C233.806 43.8709 234.606 44.5709 235.406 44.2709C235.606 44.1709 235.706 44.0709 235.806 43.8709C236.106 43.0709 235.407 42.3709 234.607 42.6709C234.407 42.7709 234.306 42.8709 234.206 43.0709Z" fill="white"/>
<path d="M174.006 135.671C173.606 136.471 174.406 137.171 175.206 136.871C175.406 136.771 175.506 136.671 175.606 136.471C176.006 135.671 175.206 134.971 174.406 135.271C174.206 135.371 174.106 135.471 174.006 135.671Z" fill="white"/>
<path d="M93.1064 51.8709C92.7064 52.6709 93.5064 53.3709 94.3064 53.0709C94.5064 52.9709 94.6064 52.8709 94.7064 52.6709C95.1064 51.8709 94.3064 51.1709 93.5064 51.4709C93.3064 51.5709 93.2064 51.7709 93.1064 51.8709Z" fill="white"/>
<path d="M201.706 93.5709C201.306 94.3709 202.106 95.0709 202.906 94.7709C203.106 94.6709 203.206 94.5709 203.306 94.3709C203.606 93.5709 202.907 92.8709 202.107 93.1709C201.907 93.2709 201.806 93.3709 201.706 93.5709Z" fill="white"/>
<path d="M111.306 103.071C111.006 103.871 111.706 104.571 112.506 104.271C112.706 104.171 112.806 104.071 112.906 103.871C113.306 103.071 112.506 102.371 111.706 102.671C111.506 102.771 111.406 102.871 111.306 103.071Z" fill="white"/>
<path d="M70.3062 154.071C70.0062 154.871 70.7062 155.571 71.5062 155.271C71.7062 155.171 71.8062 155.071 71.9062 154.871C72.3062 154.071 71.5062 153.371 70.7062 153.671C70.5062 153.771 70.4062 153.871 70.3062 154.071Z" fill="white"/>
<path d="M99.7065 36.2709C99.3065 37.0709 100.106 37.7709 100.906 37.4709C101.106 37.3709 101.206 37.2709 101.306 37.0709C101.706 36.2709 100.906 35.5709 100.106 35.8709C99.9065 35.9709 99.7065 36.0709 99.7065 36.2709Z" fill="white"/>
<path d="M957.406 43.3709C957.006 44.1709 957.806 44.8709 958.606 44.5709C958.806 44.4709 958.906 44.3709 959.006 44.1709C959.306 43.3709 958.606 42.6709 957.806 42.9709C957.606 43.0709 957.506 43.1709 957.406 43.3709Z" fill="white"/>
<path d="M996.406 36.4709C996.006 37.2709 996.806 37.9709 997.606 37.6709C997.806 37.5709 997.906 37.4709 998.006 37.2709C998.406 36.4709 997.606 35.7709 996.806 36.0709C996.706 36.1709 996.506 36.3709 996.406 36.4709Z" fill="white"/>
<path d="M688.606 52.0709C688.206 52.8709 689.006 53.5709 689.806 53.2709C690.006 53.1709 690.106 53.0709 690.206 52.8709C690.506 52.0709 689.806 51.3709 689.006 51.6709C688.806 51.7709 688.706 51.9709 688.606 52.0709Z" fill="white"/>
<path d="M604.307 57.1708C603.907 57.9708 604.707 58.6708 605.507 58.3708C605.707 58.2708 605.807 58.1708 605.907 57.9708C606.307 57.1708 605.507 56.4708 604.707 56.7708C604.507 56.8708 604.407 57.0708 604.307 57.1708Z" fill="white"/>
<path d="M419.606 53.1708C419.206 53.9708 420.006 54.6708 420.806 54.3708C421.006 54.2708 421.106 54.1708 421.206 53.9708C421.606 53.1708 420.806 52.4708 420.006 52.7708C419.806 52.8708 419.706 53.0708 419.606 53.1708Z" fill="white"/>
<path d="M360.307 143.571C359.907 144.371 360.707 145.071 361.507 144.771C361.707 144.671 361.807 144.571 361.907 144.371C362.307 143.571 361.507 142.871 360.707 143.171C360.507 143.271 360.407 143.371 360.307 143.571Z" fill="white"/>
<path d="M380.807 147.471C380.407 148.271 381.207 148.971 382.007 148.671C382.207 148.571 382.307 148.471 382.407 148.271C382.807 147.471 382.007 146.771 381.207 147.071C381.007 147.171 380.907 147.371 380.807 147.471Z" fill="white"/>
<path d="M705.906 175.571C705.506 176.371 706.306 177.071 707.106 176.771C707.306 176.671 707.406 176.571 707.506 176.371C707.806 175.571 707.106 174.871 706.306 175.171C706.106 175.271 706.006 175.471 705.906 175.571Z" fill="white"/>
<path d="M1103.91 255.571C1103.51 256.371 1104.31 257.071 1105.11 256.771C1105.31 256.671 1105.41 256.571 1105.51 256.371C1105.81 255.571 1105.11 254.871 1104.31 255.171C1104.11 255.271 1104.01 255.471 1103.91 255.571Z" fill="white"/>
<path d="M744.106 177.671C743.706 178.471 744.506 179.171 745.306 178.871C745.506 178.771 745.606 178.671 745.706 178.471C746.106 177.671 745.306 176.971 744.506 177.271C744.306 177.371 744.106 177.471 744.106 177.671Z" fill="white"/>
<path d="M876.106 59.6708C875.706 60.4708 876.506 61.1708 877.306 60.8708C877.506 60.7708 877.606 60.6708 877.706 60.4708C878.006 59.6708 877.306 58.9708 876.506 59.2708C876.306 59.3708 876.206 59.4708 876.106 59.6708Z" fill="white"/>
<path d="M857.807 106.971C857.407 107.771 858.207 108.471 859.007 108.171C859.207 108.071 859.307 107.971 859.407 107.771C859.707 106.971 859.007 106.271 858.207 106.571C858.007 106.671 857.907 106.871 857.807 106.971Z" fill="white"/>
<path d="M801.106 138.771C800.706 139.571 801.506 140.271 802.306 139.971C802.506 139.871 802.606 139.771 802.706 139.571C803.106 138.771 802.306 138.071 801.506 138.371C801.306 138.471 801.206 138.571 801.106 138.771Z" fill="white"/>
<path d="M741.906 152.671C741.506 153.471 742.306 154.171 743.106 153.871C743.306 153.771 743.406 153.671 743.506 153.471C743.806 152.671 743.106 151.971 742.306 152.271C742.106 152.371 742.006 152.471 741.906 152.671Z" fill="white"/>
<path d="M685.006 222.171C684.606 222.971 685.406 223.671 686.206 223.371C686.406 223.271 686.506 223.171 686.606 222.971C687.006 222.171 686.206 221.471 685.406 221.771C685.206 221.871 685.106 222.071 685.006 222.171Z" fill="white"/>
<path d="M652.207 251.771C651.907 252.571 652.607 253.271 653.407 252.971C653.607 252.871 653.707 252.771 653.807 252.571C654.207 251.771 653.407 251.071 652.607 251.371C652.407 251.471 652.307 251.571 652.207 251.771Z" fill="white"/>
<path d="M553.606 284.971C553.206 285.771 554.006 286.471 554.806 286.171C555.006 286.071 555.106 285.971 555.206 285.771C555.606 284.971 554.806 284.271 554.006 284.571C553.806 284.671 553.706 284.871 553.606 284.971Z" fill="white"/>
<path d="M512.506 207.671C512.106 208.471 512.906 209.171 513.706 208.871C513.906 208.771 514.006 208.671 514.106 208.471C514.506 207.671 513.706 206.971 512.906 207.271C512.706 207.371 512.506 207.471 512.506 207.671Z" fill="white"/>
<path d="M507.506 182.371C507.206 183.171 507.906 183.871 508.706 183.571C508.906 183.471 509.006 183.371 509.106 183.171C509.506 182.371 508.706 181.671 507.906 181.971C507.706 182.071 507.606 182.271 507.506 182.371Z" fill="white"/>
<path d="M498.406 141.671C498.106 142.471 498.806 143.171 499.606 142.871C499.806 142.771 499.906 142.671 500.006 142.471C500.406 141.671 499.606 140.971 498.806 141.271C498.606 141.371 498.506 141.471 498.406 141.671Z" fill="white"/>
<path d="M645.307 135.971C644.907 136.771 645.707 137.471 646.507 137.171C646.707 137.071 646.807 136.971 646.907 136.771C647.307 135.971 646.507 135.271 645.707 135.571C645.507 135.671 645.307 135.771 645.307 135.971Z" fill="white"/>
<path d="M600.807 244.771C600.407 245.571 601.207 246.271 602.007 245.971C602.207 245.871 602.307 245.771 602.407 245.571C602.707 244.771 602.007 244.071 601.207 244.371C601.007 244.471 600.907 244.671 600.807 244.771Z" fill="white"/>
<path d="M751.506 351.871C751.206 352.671 751.906 353.371 752.706 353.071C752.906 352.971 753.006 352.871 753.106 352.671C753.506 351.871 752.706 351.171 751.906 351.471C751.706 351.571 751.506 351.671 751.506 351.871Z" fill="white"/>
<path d="M837.007 125.171C836.607 125.971 837.407 126.671 838.207 126.371C838.407 126.271 838.507 126.171 838.607 125.971C838.907 125.171 838.207 124.471 837.407 124.771C837.207 124.871 837.107 125.071 837.007 125.171Z" fill="white"/>
<path d="M1011.1 106.295C1011.41 105.983 1011.38 105.445 1011.03 105.093C1010.68 104.742 1010.14 104.71 1009.83 105.023C1009.52 105.335 1009.55 105.873 1009.9 106.225C1010.25 106.576 1010.79 106.608 1011.1 106.295Z" fill="white"/>
<path d="M1029.1 100.296C1029.41 99.9833 1029.38 99.445 1029.03 99.0936C1028.68 98.7421 1028.14 98.7105 1027.83 99.0229C1027.52 99.3353 1027.55 99.8735 1027.9 100.225C1028.25 100.576 1028.79 100.608 1029.1 100.296Z" fill="white"/>
<path d="M997.061 65.9189C997.374 65.6064 997.342 65.0683 996.99 64.7168C996.639 64.3653 996.101 64.3337 995.788 64.6461C995.476 64.9585 995.508 65.4967 995.859 65.8482C996.211 66.1997 996.749 66.2313 997.061 65.9189Z" fill="white"/>
<path d="M1006.31 199.471C1005.91 200.271 1006.71 200.971 1007.51 200.671C1007.71 200.571 1007.81 200.471 1007.91 200.271C1008.31 199.471 1007.51 198.771 1006.71 199.071C1006.51 199.171 1006.31 199.271 1006.31 199.471Z" fill="white"/>
<path d="M815.907 253.171C815.607 253.971 816.307 254.671 817.107 254.371C817.307 254.271 817.407 254.171 817.507 253.971C817.907 253.171 817.107 252.471 816.307 252.771C816.107 252.871 816.007 253.071 815.907 253.171Z" fill="white"/>
<path d="M805.906 228.471C805.506 229.271 806.306 229.971 807.106 229.671C807.306 229.571 807.406 229.471 807.506 229.271C807.906 228.471 807.106 227.771 806.306 228.071C806.106 228.171 806.006 228.271 805.906 228.471Z" fill="white"/>
<path d="M1068.91 295.471C1068.51 296.271 1069.31 296.971 1070.11 296.671C1070.31 296.571 1070.41 296.471 1070.51 296.271C1070.91 295.471 1070.11 294.771 1069.31 295.071C1069.11 295.171 1069.01 295.271 1068.91 295.471Z" fill="white"/>
<path d="M794.306 170.971C794.006 171.771 794.706 172.471 795.506 172.171C795.706 172.071 795.806 171.971 795.906 171.771C796.306 170.971 795.506 170.271 794.706 170.571C794.506 170.671 794.406 170.771 794.306 170.971Z" fill="white"/>
<path d="M1019.01 123.571C1018.61 124.371 1019.41 125.071 1020.21 124.771C1020.41 124.671 1020.51 124.571 1020.61 124.371C1021.01 123.571 1020.21 122.871 1019.41 123.171C1019.21 123.271 1019.11 123.371 1019.01 123.571Z" fill="white"/>
<path d="M1308.01 461.871C1307.61 462.671 1308.41 463.371 1309.21 463.071C1309.41 462.971 1309.51 462.871 1309.61 462.671C1310.01 461.871 1309.21 461.171 1308.41 461.471C1308.21 461.571 1308.01 461.671 1308.01 461.871Z" fill="white"/>
<path d="M631.606 391.471C631.206 392.271 632.006 392.971 632.806 392.671C633.006 392.571 633.106 392.471 633.206 392.271C633.606 391.471 632.806 390.771 632.006 391.071C631.806 391.171 631.706 391.371 631.606 391.471Z" fill="white"/>
<path d="M522.406 328.771C522.006 329.571 522.806 330.271 523.606 329.971C523.806 329.871 523.906 329.771 524.006 329.571C524.406 328.771 523.606 328.071 522.806 328.371C522.606 328.471 522.506 328.571 522.406 328.771Z" fill="white"/>
<path d="M638.606 298.771C638.206 299.571 639.006 300.271 639.806 299.971C640.006 299.871 640.106 299.771 640.206 299.571C640.606 298.771 639.806 298.071 639.006 298.371C638.806 298.471 638.606 298.671 638.606 298.771Z" fill="white"/>
<path d="M796.406 454.371C796.006 455.171 796.806 455.871 797.606 455.571C797.806 455.471 797.906 455.371 798.006 455.171C798.406 454.371 797.606 453.671 796.806 453.971C796.606 454.071 796.406 454.271 796.406 454.371Z" fill="white"/>
<path d="M288.307 387.271C287.907 388.071 288.707 388.771 289.507 388.471C289.707 388.371 289.807 388.271 289.907 388.071C290.307 387.271 289.507 386.571 288.707 386.871C288.507 386.971 288.307 387.171 288.307 387.271Z" fill="white"/>
<path d="M299.307 166.271C298.907 167.071 299.707 167.771 300.507 167.471C300.707 167.371 300.807 167.271 300.907 167.071C301.307 166.271 300.507 165.571 299.707 165.871C299.507 165.971 299.407 166.171 299.307 166.271Z" fill="white"/>
<path d="M153.806 284.071C153.506 284.871 154.206 285.571 155.006 285.271C155.206 285.171 155.306 285.071 155.406 284.871C155.806 284.071 155.006 283.371 154.206 283.671C154.006 283.771 153.806 283.871 153.806 284.071Z" fill="white"/>
<path d="M132.275 301.907C132.587 301.595 132.555 301.056 132.204 300.705C131.852 300.353 131.314 300.322 131.002 300.634C130.689 300.947 130.721 301.485 131.072 301.836C131.424 302.188 131.962 302.219 132.275 301.907Z" fill="white"/>
<path d="M103.207 412.371C102.907 413.171 103.607 413.871 104.407 413.571C104.607 413.471 104.707 413.371 104.807 413.171C105.207 412.371 104.407 411.671 103.607 411.971C103.407 412.071 103.207 412.171 103.207 412.371Z" fill="white"/>
<path d="M84.0063 282.171C83.6063 282.971 84.4063 283.671 85.2063 283.371C85.4063 283.271 85.5063 283.171 85.6063 282.971C86.0063 282.171 85.2063 281.471 84.4063 281.771C84.2063 281.871 84.1063 281.971 84.0063 282.171Z" fill="white"/>
<path d="M181.307 389.171C180.907 389.971 181.707 390.671 182.507 390.371C182.707 390.271 182.807 390.171 182.907 389.971C183.307 389.171 182.507 388.471 181.707 388.771C181.507 388.871 181.307 388.971 181.307 389.171Z" fill="white"/>
<path d="M241.307 224.171C240.907 224.971 241.707 225.671 242.507 225.371C242.707 225.271 242.807 225.171 242.907 224.971C243.307 224.171 242.507 223.471 241.707 223.771C241.507 223.871 241.407 224.071 241.307 224.171Z" fill="white"/>
<path d="M237.106 19.8709C236.706 20.6709 237.506 21.3709 238.306 21.0709C238.506 20.9709 238.606 20.8709 238.706 20.6709C239.106 19.8709 238.306 19.1709 237.506 19.4709C237.406 19.5709 237.206 19.6709 237.106 19.8709Z" fill="white"/>
<path d="M388.906 27.0709C388.506 27.8709 389.306 28.5709 390.106 28.2709C390.306 28.1709 390.406 28.0709 390.506 27.8709C390.906 27.0709 390.106 26.3709 389.306 26.6709C389.106 26.7709 389.006 26.8709 388.906 27.0709Z" fill="white"/>
<path d="M752.507 25.6708C752.107 26.4708 752.907 27.1708 753.707 26.8708C753.907 26.7708 754.007 26.6708 754.107 26.4708C754.507 25.6708 753.707 24.9708 752.907 25.2708C752.707 25.3708 752.607 25.4708 752.507 25.6708Z" fill="white"/>
<path d="M711.607 99.5709C711.307 100.371 712.007 101.071 712.807 100.771C713.007 100.671 713.107 100.571 713.207 100.371C713.607 99.5709 712.807 98.8709 712.007 99.1709C711.807 99.2709 711.707 99.3709 711.607 99.5709Z" fill="white"/>
<path d="M590.306 22.1708C590.006 22.9708 590.706 23.6708 591.506 23.3708C591.706 23.2708 591.806 23.1708 591.906 22.9708C592.306 22.1708 591.506 21.4708 590.706 21.7708C590.506 21.8708 590.406 21.9708 590.306 22.1708Z" fill="white"/>
<path d="M1094.51 54.0709C1094.21 54.8709 1094.91 55.5709 1095.71 55.2709C1095.91 55.1709 1096.01 55.0709 1096.11 54.8709C1096.51 54.0709 1095.71 53.3709 1094.91 53.6709C1094.71 53.7709 1094.61 53.8709 1094.51 54.0709Z" fill="white"/>
<path d="M1085.41 77.0709C1085.01 77.8709 1085.81 78.5709 1086.61 78.2709C1086.81 78.1709 1086.91 78.0709 1087.01 77.8709C1087.41 77.0709 1086.61 76.3709 1085.81 76.6709C1085.61 76.7709 1085.51 76.9709 1085.41 77.0709Z" fill="white"/>
<path d="M1112.21 158.971C1111.91 159.771 1112.61 160.471 1113.41 160.171C1113.61 160.071 1113.71 159.971 1113.81 159.771C1114.21 158.971 1113.41 158.271 1112.61 158.571C1112.41 158.671 1112.31 158.771 1112.21 158.971Z" fill="white"/>
<path d="M1101.21 186.471C1100.81 187.271 1101.61 187.971 1102.41 187.671C1102.61 187.571 1102.71 187.471 1102.81 187.271C1103.11 186.471 1102.41 185.771 1101.61 186.071C1101.41 186.171 1101.31 186.271 1101.21 186.471Z" fill="white"/>
<path d="M1005.41 29.0709C1005.11 29.8709 1005.81 30.5709 1006.61 30.2709C1006.81 30.1709 1006.91 30.0709 1007.01 29.8709C1007.41 29.0709 1006.61 28.3709 1005.81 28.6709C1005.61 28.7709 1005.41 28.8709 1005.41 29.0709Z" fill="white"/>
<path d="M1396.31 269.271C1395.91 270.071 1396.71 270.771 1397.51 270.471C1397.71 270.371 1397.81 270.271 1397.91 270.071C1398.31 269.271 1397.51 268.571 1396.71 268.871C1396.51 268.971 1396.41 269.071 1396.31 269.271Z" fill="white"/>
<path d="M153.506 55.5709C153.106 56.3709 153.906 57.0709 154.706 56.7709C154.906 56.6709 155.006 56.5709 155.106 56.3709C155.506 55.5709 154.706 54.8709 153.906 55.1709C153.706 55.2709 153.506 55.4709 153.506 55.5709Z" fill="white"/>
<path d="M294.606 218.171C294.206 218.971 295.006 219.671 295.806 219.371C296.006 219.271 296.106 219.171 296.206 218.971C296.606 218.171 295.806 217.471 295.006 217.771C294.806 217.871 294.706 217.971 294.606 218.171Z" fill="white"/>
<path d="M82.3066 155.071C81.9066 155.871 82.7066 156.571 83.5066 156.271C83.7066 156.171 83.8066 156.071 83.9066 155.871C84.3066 155.071 83.5066 154.371 82.7066 154.671C82.5066 154.771 82.3066 154.971 82.3066 155.071Z" fill="white"/>
<path d="M22.2065 112.271C21.8065 113.071 22.6065 113.771 23.4065 113.471C23.6065 113.371 23.7065 113.271 23.8065 113.071C24.1065 112.271 23.4065 111.571 22.6065 111.871C22.4065 111.971 22.3065 112.071 22.2065 112.271Z" fill="white"/>
<path d="M28.2065 317.171C27.8065 317.971 28.6065 318.671 29.4065 318.371C29.6065 318.271 29.7065 318.171 29.8065 317.971C30.2065 317.171 29.4065 316.471 28.6065 316.771C28.4065 316.871 28.2065 316.971 28.2065 317.171Z" fill="white"/>
<path d="M27.9062 225.771C27.5062 226.571 28.3062 227.271 29.1062 226.971C29.3062 226.871 29.4062 226.771 29.5062 226.571C29.9062 225.771 29.1062 225.071 28.3062 225.371C28.1062 225.471 27.9062 225.571 27.9062 225.771Z" fill="white"/>
<path d="M66.3066 373.671C65.9066 374.471 66.7066 375.171 67.5066 374.871C67.7066 374.771 67.8066 374.671 67.9066 374.471C68.3066 373.671 67.5066 372.971 66.7066 373.271C66.5066 373.371 66.3066 373.571 66.3066 373.671Z" fill="white"/>
<path d="M119.906 347.071C119.506 347.871 120.306 348.571 121.106 348.271C121.306 348.171 121.406 348.071 121.506 347.871C121.806 347.071 121.106 346.371 120.306 346.671C120.106 346.771 119.906 346.871 119.906 347.071Z" fill="white"/>
<path d="M123.406 232.371C123.006 233.171 123.806 233.871 124.606 233.571C124.806 233.471 124.906 233.371 125.006 233.171C125.406 232.371 124.606 231.671 123.806 231.971C123.606 232.071 123.406 232.271 123.406 232.371Z" fill="white"/>
<path d="M153.506 304.771C153.106 305.571 153.906 306.271 154.706 305.971C154.906 305.871 155.006 305.771 155.106 305.571C155.506 304.771 154.706 304.071 153.906 304.371C153.706 304.471 153.606 304.571 153.506 304.771Z" fill="white"/>
<path d="M143.206 185.471C142.806 186.271 143.606 186.971 144.406 186.671C144.606 186.571 144.706 186.471 144.806 186.271C145.106 185.471 144.407 184.771 143.607 185.071C143.407 185.171 143.306 185.371 143.206 185.471Z" fill="white"/>
<path d="M134.206 211.471C133.806 212.271 134.606 212.971 135.406 212.671C135.606 212.571 135.706 212.471 135.806 212.271C136.106 211.471 135.407 210.771 134.607 211.071C134.407 211.171 134.306 211.371 134.206 211.471Z" fill="white"/>
<path d="M316.807 36.8709C316.407 37.6709 317.207 38.3709 318.007 38.0709C318.207 37.9709 318.307 37.8709 318.407 37.6709C318.707 36.8709 318.007 36.1709 317.207 36.4709C317.007 36.5709 316.807 36.7709 316.807 36.8709Z" fill="white"/>
<path d="M297.106 39.3709C296.706 40.1709 297.506 40.8709 298.306 40.5709C298.506 40.4709 298.606 40.3709 298.706 40.1709C299.106 39.3709 298.306 38.6709 297.506 38.9709C297.306 39.0709 297.206 39.1709 297.106 39.3709Z" fill="white"/>
<path d="M395.307 33.3709C394.907 34.1709 395.707 34.8709 396.507 34.5709C396.707 34.4709 396.807 34.3709 396.907 34.1709C397.307 33.3709 396.507 32.6709 395.707 32.9709C395.507 33.0709 395.307 33.2709 395.307 33.3709Z" fill="white"/>
<path d="M401.706 71.8709C401.306 72.6709 402.106 73.3709 402.906 73.0709C403.106 72.9709 403.206 72.8709 403.306 72.6709C403.706 71.8709 402.906 71.1709 402.106 71.4709C401.906 71.5709 401.806 71.6709 401.706 71.8709Z" fill="white"/>
<path d="M365.154 69.7923C365.466 69.4799 365.435 68.9417 365.083 68.5902C364.732 68.2388 364.194 68.2071 363.881 68.5195C363.569 68.832 363.6 69.3701 363.952 69.7216C364.303 70.0731 364.841 70.1047 365.154 69.7923Z" fill="white"/>
<path d="M553.307 19.1708C552.907 19.9708 553.707 20.6708 554.507 20.3708C554.707 20.2708 554.807 20.1708 554.907 19.9708C555.307 19.1708 554.507 18.4708 553.707 18.7708C553.507 18.8708 553.407 18.9708 553.307 19.1708Z" fill="white"/>
<path d="M864.406 77.8709C864.006 78.6709 864.806 79.3709 865.606 79.0709C865.806 78.9709 865.906 78.8709 866.006 78.6709C866.306 77.8709 865.606 77.1709 864.806 77.4709C864.606 77.5709 864.506 77.7709 864.406 77.8709Z" fill="white"/>
<path d="M823.506 91.2709C823.206 92.0709 823.906 92.7709 824.706 92.4709C824.906 92.3709 825.006 92.2709 825.106 92.0709C825.506 91.2709 824.706 90.5709 823.906 90.8709C823.706 90.9709 823.506 91.0709 823.506 91.2709Z" fill="white"/>
<path d="M910.707 106.871C910.407 107.671 911.107 108.371 911.907 108.071C912.107 107.971 912.207 107.871 912.307 107.671C912.707 106.871 911.907 106.171 911.107 106.471C910.907 106.571 910.707 106.771 910.707 106.871Z" fill="white"/>
<path d="M924.206 101.371C923.806 102.171 924.606 102.871 925.406 102.571C925.606 102.471 925.706 102.371 925.806 102.171C926.206 101.371 925.406 100.671 924.606 100.971C924.406 101.071 924.206 101.171 924.206 101.371Z" fill="white"/>
<path d="M988.807 242.971C988.407 243.771 989.207 244.471 990.007 244.171C990.207 244.071 990.307 243.971 990.407 243.771C990.707 242.971 990.007 242.271 989.207 242.571C989.007 242.671 988.807 242.871 988.807 242.971Z" fill="white"/>
<path d="M794.106 342.371C793.806 343.171 794.506 343.871 795.306 343.571C795.506 343.471 795.606 343.371 795.706 343.171C796.106 342.371 795.306 341.671 794.506 341.971C794.406 342.071 794.206 342.171 794.106 342.371Z" fill="white"/>
<path d="M812.906 223.471C812.506 224.271 813.306 224.971 814.106 224.671C814.306 224.571 814.406 224.471 814.506 224.271C814.806 223.471 814.106 222.771 813.306 223.071C813.106 223.271 812.906 223.371 812.906 223.471Z" fill="white"/>
<path d="M881.407 211.071C881.107 211.871 881.807 212.571 882.607 212.271C882.807 212.171 882.907 212.071 883.007 211.871C883.407 211.071 882.607 210.371 881.807 210.671C881.607 210.771 881.507 210.871 881.407 211.071Z" fill="white"/>
<path d="M854.906 209.571C854.506 210.371 855.306 211.071 856.106 210.771C856.306 210.671 856.406 210.571 856.506 210.371C856.906 209.571 856.106 208.871 855.306 209.171C855.106 209.271 855.006 209.371 854.906 209.571Z" fill="white"/>
<path d="M970.807 205.671C970.407 206.471 971.207 207.171 972.007 206.871C972.207 206.771 972.307 206.671 972.407 206.471C972.707 205.671 972.007 204.971 971.207 205.271C971.007 205.371 970.907 205.471 970.807 205.671Z" fill="white"/>
<path d="M961.007 207.671C960.607 208.471 961.407 209.171 962.207 208.871C962.407 208.771 962.507 208.671 962.607 208.471C963.007 207.671 962.207 206.971 961.407 207.271C961.207 207.371 961.007 207.471 961.007 207.671Z" fill="white"/>
<path d="M1128.01 468.671C1127.61 469.471 1128.41 470.171 1129.21 469.871C1129.41 469.771 1129.51 469.671 1129.61 469.471C1130.01 468.671 1129.21 467.971 1128.41 468.271C1128.21 468.371 1128.01 468.471 1128.01 468.671Z" fill="white"/>
<path d="M974.507 129.271C974.107 130.071 974.907 130.771 975.707 130.471C975.907 130.371 976.007 130.271 976.107 130.071C976.507 129.271 975.707 128.571 974.907 128.871C974.707 128.971 974.607 129.071 974.507 129.271Z" fill="white"/>
<path d="M1032.91 166.271C1032.51 167.071 1033.31 167.771 1034.11 167.471C1034.31 167.371 1034.41 167.271 1034.51 167.071C1034.81 166.271 1034.11 165.571 1033.31 165.871C1033.11 165.971 1032.91 166.071 1032.91 166.271Z" fill="white"/>
<path d="M1352.51 177.271C1352.21 178.071 1352.91 178.771 1353.71 178.471C1353.91 178.371 1354.01 178.271 1354.11 178.071C1354.51 177.271 1353.71 176.571 1352.91 176.871C1352.81 176.971 1352.61 177.171 1352.51 177.271Z" fill="white"/>
<path d="M1059.51 197.571C1059.11 198.371 1059.91 199.071 1060.71 198.771C1060.91 198.671 1061.01 198.571 1061.11 198.371C1061.51 197.571 1060.71 196.871 1059.91 197.171C1059.71 197.271 1059.61 197.371 1059.51 197.571Z" fill="white"/>
<path d="M1052.71 246.571C1052.31 247.371 1053.11 248.071 1053.91 247.771C1054.11 247.671 1054.21 247.571 1054.31 247.371C1054.71 246.571 1053.91 245.871 1053.11 246.171C1052.91 246.271 1052.81 246.371 1052.71 246.571Z" fill="white"/>
<path d="M1138.71 444.571C1138.31 445.371 1139.11 446.071 1139.91 445.771C1140.11 445.671 1140.21 445.571 1140.31 445.371C1140.71 444.571 1139.91 443.871 1139.11 444.171C1138.91 444.271 1138.81 444.371 1138.71 444.571Z" fill="white"/>
<path d="M1063.71 276.171C1063.31 276.971 1064.11 277.671 1064.91 277.371C1065.11 277.271 1065.21 277.171 1065.31 276.971C1065.71 276.171 1064.91 275.471 1064.11 275.771C1063.91 275.871 1063.71 275.971 1063.71 276.171Z" fill="white"/>
<path d="M1355.71 541.171C1355.31 541.971 1356.11 542.671 1356.91 542.371C1357.11 542.271 1357.21 542.171 1357.31 541.971C1357.71 541.171 1356.91 540.471 1356.11 540.771C1355.91 540.871 1355.71 540.971 1355.71 541.171Z" fill="white"/>
<path d="M705.706 275.071C705.306 275.871 706.107 276.571 706.907 276.271C707.107 276.171 707.206 276.071 707.306 275.871C707.706 275.071 706.906 274.371 706.106 274.671C705.906 274.771 705.806 274.971 705.706 275.071Z" fill="white"/>
<path d="M1076.61 284.871C1076.21 285.671 1077.01 286.371 1077.81 286.071C1078.01 285.971 1078.11 285.871 1078.21 285.671C1078.61 284.871 1077.81 284.171 1077.01 284.471C1076.81 284.571 1076.61 284.671 1076.61 284.871Z" fill="white"/>
<path d="M1034.71 280.071C1034.31 280.871 1035.11 281.571 1035.91 281.271C1036.11 281.171 1036.21 281.071 1036.31 280.871C1036.71 280.071 1035.91 279.371 1035.11 279.671C1034.91 279.771 1034.81 279.971 1034.71 280.071Z" fill="white"/>
<path d="M633.706 215.371C633.306 216.171 634.107 216.871 634.907 216.571C635.107 216.471 635.206 216.371 635.306 216.171C635.706 215.371 634.906 214.671 634.106 214.971C633.906 215.071 633.706 215.171 633.706 215.371Z" fill="white"/>
<path d="M565.006 141.871C564.606 142.671 565.406 143.371 566.206 143.071C566.406 142.971 566.506 142.871 566.606 142.671C567.006 141.871 566.206 141.171 565.406 141.471C565.206 141.571 565.006 141.671 565.006 141.871Z" fill="white"/>
<path d="M563.307 104.071C562.907 104.871 563.707 105.571 564.507 105.271C564.707 105.171 564.807 105.071 564.907 104.871C565.307 104.071 564.507 103.371 563.707 103.671C563.507 103.771 563.307 103.971 563.307 104.071Z" fill="white"/>
<path d="M729.206 103.571C728.806 104.371 729.607 105.071 730.407 104.771C730.607 104.671 730.706 104.571 730.806 104.371C731.106 103.571 730.406 102.871 729.606 103.171C729.406 103.271 729.206 103.371 729.206 103.571Z" fill="white"/>
<path d="M751.106 89.5709C750.706 90.3709 751.506 91.0709 752.306 90.7709C752.506 90.6709 752.606 90.5709 752.706 90.3709C753.006 89.5709 752.306 88.8709 751.506 89.1709C751.306 89.2709 751.206 89.3709 751.106 89.5709Z" fill="white"/>
<path d="M774.106 36.0709C773.706 36.8709 774.506 37.5709 775.306 37.2709C775.506 37.1709 775.606 37.0709 775.706 36.8709C776.106 36.0709 775.306 35.3709 774.506 35.6709C774.306 35.7709 774.206 35.9709 774.106 36.0709Z" fill="white"/>
<path d="M769.206 66.0709C768.806 66.8709 769.606 67.5709 770.406 67.2709C770.606 67.1709 770.706 67.0709 770.806 66.8709C771.206 66.0709 770.406 65.3709 769.606 65.6709C769.406 65.7709 769.206 65.9709 769.206 66.0709Z" fill="white"/>
<path d="M706.906 154.171C706.606 154.971 707.306 155.671 708.106 155.371C708.306 155.271 708.406 155.171 708.506 154.971C708.906 154.171 708.106 153.471 707.306 153.771C707.106 153.871 707.006 154.071 706.906 154.171Z" fill="white"/>
<path d="M610.606 122.171C610.206 122.971 611.006 123.671 611.806 123.371C612.006 123.271 612.106 123.171 612.206 122.971C612.506 122.171 611.806 121.471 611.006 121.771C610.806 121.871 610.706 121.971 610.606 122.171Z" fill="white"/>
<path d="M522.906 79.9709C522.606 80.7709 523.306 81.4709 524.106 81.1709C524.306 81.0709 524.406 80.9709 524.506 80.7709C524.906 79.9709 524.106 79.2709 523.306 79.5709C523.106 79.6709 522.906 79.7709 522.906 79.9709Z" fill="white"/>
<path d="M456.106 98.6708C455.706 99.4708 456.506 100.171 457.306 99.8708C457.506 99.7708 457.606 99.6708 457.706 99.4708C458.006 98.6708 457.306 97.9708 456.506 98.2708C456.306 98.3708 456.206 98.4708 456.106 98.6708Z" fill="white"/>
<path d="M299.906 74.8709C299.506 75.6709 300.306 76.3709 301.106 76.0709C301.306 75.9709 301.406 75.8709 301.506 75.6709C301.806 74.8709 301.106 74.1709 300.306 74.4709C300.106 74.5709 300.006 74.6709 299.906 74.8709Z" fill="white"/>
<path d="M478.506 166.071C478.206 166.871 478.906 167.571 479.706 167.271C479.906 167.171 480.006 167.071 480.106 166.871C480.506 166.071 479.706 165.371 478.906 165.671C478.706 165.771 478.606 165.971 478.506 166.071Z" fill="white"/>
<path d="M423.506 193.871C423.106 194.671 423.906 195.371 424.706 195.071C424.906 194.971 425.006 194.871 425.106 194.671C425.506 193.871 424.706 193.171 423.906 193.471C423.706 193.571 423.606 193.671 423.506 193.871Z" fill="white"/>
<path d="M421.906 243.771C421.506 244.571 422.306 245.271 423.106 244.971C423.306 244.871 423.406 244.771 423.506 244.571C423.806 243.771 423.106 243.071 422.306 243.371C422.106 243.471 422.006 243.571 421.906 243.771Z" fill="white"/>
<path d="M448.307 266.171C447.907 266.971 448.707 267.671 449.507 267.371C449.707 267.271 449.807 267.171 449.907 266.971C450.207 266.171 449.507 265.471 448.707 265.771C448.507 265.871 448.407 265.971 448.307 266.171Z" fill="white"/>
<path d="M460.607 299.271C460.307 300.071 461.007 300.771 461.807 300.471C462.007 300.371 462.107 300.271 462.207 300.071C462.607 299.271 461.807 298.571 461.007 298.871C460.807 298.971 460.707 299.071 460.607 299.271Z" fill="white"/>
<path d="M280.996 254.998C281.308 254.685 281.276 254.147 280.925 253.796C280.574 253.444 280.035 253.412 279.723 253.725C279.41 254.037 279.442 254.575 279.794 254.927C280.145 255.278 280.683 255.31 280.996 254.998Z" fill="white"/>
<path d="M249.006 271.271C248.606 272.071 249.406 272.771 250.206 272.471C250.406 272.371 250.506 272.271 250.606 272.071C251.006 271.271 250.206 270.571 249.406 270.871C249.206 270.971 249.006 271.071 249.006 271.271Z" fill="white"/>
<path d="M297.006 285.871C296.606 286.671 297.406 287.371 298.206 287.071C298.406 286.971 298.506 286.871 298.606 286.671C299.006 285.871 298.206 285.171 297.406 285.471C297.206 285.571 297.006 285.671 297.006 285.871Z" fill="white"/>
<path d="M226.706 196.171C226.306 196.971 227.106 197.671 227.906 197.371C228.106 197.271 228.206 197.171 228.306 196.971C228.706 196.171 227.907 195.471 227.107 195.771C226.907 195.871 226.806 196.071 226.706 196.171Z" fill="white"/>
<path d="M320.106 113.171C319.706 113.971 320.506 114.671 321.306 114.371C321.506 114.271 321.606 114.171 321.706 113.971C322.106 113.171 321.306 112.471 320.506 112.771C320.306 112.871 320.106 112.971 320.106 113.171Z" fill="white"/>
<path d="M337.206 186.171C336.806 186.971 337.606 187.671 338.406 187.371C338.606 187.271 338.706 187.171 338.806 186.971C339.206 186.171 338.406 185.471 337.606 185.771C337.406 185.871 337.306 185.971 337.206 186.171Z" fill="white"/>
<path d="M266.807 92.2709C266.407 93.0709 267.207 93.7709 268.007 93.4709C268.207 93.3709 268.307 93.2709 268.407 93.0709C268.807 92.2709 268.007 91.5709 267.207 91.8709C267.007 91.9709 266.807 92.0709 266.807 92.2709Z" fill="white"/>
<path d="M262.906 131.371C262.506 132.171 263.306 132.871 264.106 132.571C264.306 132.471 264.406 132.371 264.506 132.171C264.906 131.371 264.106 130.671 263.306 130.971C263.106 131.071 263.006 131.171 262.906 131.371Z" fill="white"/>
<path d="M197.406 162.271C197.006 163.071 197.806 163.771 198.606 163.471C198.806 163.371 198.906 163.271 199.006 163.071C199.406 162.271 198.606 161.571 197.806 161.871C197.606 161.971 197.506 162.071 197.406 162.271Z" fill="white"/>
<path d="M220.106 144.071C219.706 144.871 220.506 145.571 221.306 145.271C221.506 145.171 221.606 145.071 221.706 144.871C222.106 144.071 221.306 143.371 220.506 143.671C220.406 143.771 220.206 143.871 220.106 144.071Z" fill="white"/>
<path d="M188.506 246.971C188.106 247.771 188.906 248.471 189.706 248.171C189.906 248.071 190.006 247.971 190.106 247.771C190.406 246.971 189.706 246.271 188.906 246.571C188.706 246.671 188.606 246.771 188.506 246.971Z" fill="white"/>
<path d="M213.506 311.971C213.106 312.771 213.906 313.471 214.706 313.171C214.906 313.071 215.006 312.971 215.106 312.771C215.406 311.971 214.706 311.271 213.906 311.571C213.706 311.671 213.606 311.771 213.506 311.971Z" fill="white"/>
<path d="M210.006 289.471C209.606 290.271 210.406 290.971 211.206 290.671C211.406 290.571 211.506 290.471 211.606 290.271C211.906 289.471 211.206 288.771 210.406 289.071C210.306 289.171 210.106 289.371 210.006 289.471Z" fill="white"/>
<path d="M228.406 321.771C228.006 322.571 228.806 323.271 229.606 322.971C229.806 322.871 229.906 322.771 230.006 322.571C230.306 321.771 229.606 321.071 228.806 321.371C228.606 321.471 228.506 321.571 228.406 321.771Z" fill="white"/>
<path d="M604.506 431.371C604.106 432.171 604.906 432.871 605.706 432.571C605.906 432.471 606.006 432.371 606.106 432.171C606.506 431.371 605.706 430.671 604.906 430.971C604.706 431.071 604.606 431.271 604.506 431.371Z" fill="white"/>
<path d="M751.206 606.671C750.806 607.471 751.607 608.171 752.407 607.871C752.607 607.771 752.706 607.671 752.806 607.471C753.106 606.671 752.406 605.971 751.606 606.271C751.406 606.371 751.206 606.471 751.206 606.671Z" fill="white"/>
<path d="M364.006 498.471C363.606 499.271 364.406 499.971 365.206 499.671C365.406 499.571 365.506 499.471 365.606 499.271C366.006 498.471 365.206 497.771 364.406 498.071C364.206 498.271 364.106 498.371 364.006 498.471Z" fill="white"/>
<path d="M446.706 417.971C446.306 418.771 447.106 419.471 447.906 419.171C448.106 419.071 448.206 418.971 448.306 418.771C448.706 417.971 447.906 417.271 447.106 417.571C446.906 417.671 446.706 417.771 446.706 417.971Z" fill="white"/>
<path d="M628.906 231.971C628.506 232.771 629.306 233.471 630.106 233.171C630.306 233.071 630.406 232.971 630.506 232.771C630.906 231.971 630.106 231.271 629.306 231.571C629.106 231.671 629.006 231.871 628.906 231.971Z" fill="white"/>
<path d="M579.006 302.671C578.706 303.471 579.406 304.171 580.206 303.871C580.406 303.771 580.506 303.671 580.606 303.471C581.006 302.671 580.206 301.971 579.406 302.271C579.206 302.371 579.006 302.471 579.006 302.671Z" fill="white"/>
<path d="M709.506 204.271C709.106 205.071 709.906 205.771 710.706 205.471C710.906 205.371 711.006 205.271 711.106 205.071C711.406 204.271 710.706 203.571 709.906 203.871C709.706 203.971 709.606 204.071 709.506 204.271Z" fill="white"/>
<path d="M727.206 243.871C726.806 244.671 727.607 245.371 728.407 245.071C728.607 244.971 728.706 244.871 728.806 244.671C729.206 243.871 728.406 243.171 727.606 243.471C727.406 243.571 727.306 243.771 727.206 243.871Z" fill="white"/>
<path d="M769.406 223.271C769.006 224.071 769.806 224.771 770.606 224.471C770.806 224.371 770.906 224.271 771.006 224.071C771.406 223.271 770.606 222.571 769.806 222.871C769.706 222.971 769.506 223.171 769.406 223.271Z" fill="white"/>
<path d="M688.606 169.671C688.206 170.471 689.006 171.171 689.806 170.871C690.006 170.771 690.106 170.671 690.206 170.471C690.606 169.671 689.806 168.971 689.006 169.271C688.806 169.371 688.606 169.471 688.606 169.671Z" fill="white"/>
<path d="M620.406 112.971C620.006 113.771 620.806 114.471 621.606 114.171C621.806 114.071 621.906 113.971 622.006 113.771C622.406 112.971 621.606 112.271 620.806 112.571C620.606 112.671 620.506 112.771 620.406 112.971Z" fill="white"/>
<path d="M620.307 54.9709C619.907 55.7709 620.707 56.4709 621.507 56.1709C621.707 56.0709 621.807 55.9709 621.907 55.7709C622.307 54.9709 621.507 54.2709 620.707 54.5709C620.507 54.6709 620.407 54.7709 620.307 54.9709Z" fill="white"/>
<path d="M666.506 76.2709C666.106 77.0709 666.906 77.7709 667.706 77.4709C667.906 77.3709 668.006 77.2709 668.106 77.0709C668.406 76.2709 667.706 75.5709 666.906 75.8709C666.706 75.9709 666.606 76.0709 666.506 76.2709Z" fill="white"/>
<path d="M671.506 96.5709C671.106 97.3709 671.906 98.0709 672.706 97.7709C672.906 97.6709 673.006 97.5709 673.106 97.3709C673.406 96.5709 672.706 95.8709 671.906 96.1709C671.706 96.2709 671.506 96.3709 671.506 96.5709Z" fill="white"/>
<path d="M668.706 32.3709C668.306 33.1709 669.107 33.8709 669.907 33.5709C670.107 33.4709 670.206 33.3709 670.306 33.1709C670.706 32.3709 669.906 31.6709 669.106 31.9709C668.906 32.0709 668.806 32.1709 668.706 32.3709Z" fill="white"/>
<path d="M533.006 30.4709C532.606 31.2709 533.406 31.9709 534.206 31.6709C534.406 31.5709 534.506 31.4709 534.606 31.2709C534.906 30.4709 534.206 29.7709 533.406 30.0709C533.206 30.1709 533.106 30.2709 533.006 30.4709Z" fill="white"/>
<path d="M463.506 34.1708C463.206 34.9708 463.906 35.6708 464.706 35.3708C464.906 35.2708 465.006 35.1708 465.106 34.9708C465.506 34.1708 464.706 33.4708 463.906 33.7708C463.706 33.8708 463.606 34.0708 463.506 34.1708Z" fill="white"/>
<path d="M33.9278 65.0922C34.2402 64.7798 34.2086 64.2416 33.8571 63.8902C33.5056 63.5387 32.9675 63.507 32.655 63.8195C32.3426 64.1319 32.3743 64.6701 32.7257 65.0215C33.0772 65.373 33.6154 65.4047 33.9278 65.0922Z" fill="white"/>
<path d="M56.4062 114.971C56.0062 115.771 56.8062 116.471 57.6062 116.171C57.8062 116.071 57.9062 115.971 58.0062 115.771C58.4062 114.971 57.6062 114.271 56.8062 114.571C56.6062 114.671 56.5062 114.771 56.4062 114.971Z" fill="white"/>
<path d="M77.7065 88.3709C77.3065 89.1709 78.1065 89.8709 78.9065 89.5709C79.1065 89.4709 79.2065 89.3709 79.3065 89.1709C79.7065 88.3709 78.9065 87.6709 78.1065 87.9709C77.9065 88.0709 77.8065 88.2709 77.7065 88.3709Z" fill="white"/>
<path d="M51.9062 186.871C51.5062 187.671 52.3062 188.371 53.1062 188.071C53.3062 187.971 53.4062 187.871 53.5062 187.671C53.9062 186.871 53.1062 186.171 52.3062 186.471C52.1062 186.571 52.0062 186.671 51.9062 186.871Z" fill="white"/>
<path d="M84.8066 240.271C84.4066 241.071 85.2066 241.771 86.0066 241.471C86.2066 241.371 86.3066 241.271 86.4066 241.071C86.8066 240.271 86.0066 239.571 85.2066 239.871C85.0066 239.971 84.8066 240.071 84.8066 240.271Z" fill="white"/>
<path d="M1257.81 0.470895C1257.41 1.27089 1258.21 1.97089 1259.01 1.67089C1259.21 1.57089 1259.31 1.47089 1259.41 1.27089C1259.71 0.470894 1259.01 -0.229106 1258.21 0.0708945C1258.01 0.170895 1257.91 0.270895 1257.81 0.470895Z" fill="white"/>
<path d="M1275.61 57.2709C1275.31 58.0709 1276.01 58.7709 1276.81 58.4709C1277.01 58.3709 1277.11 58.2709 1277.21 58.0709C1277.61 57.2709 1276.81 56.5709 1276.01 56.8709C1275.81 56.9709 1275.71 57.1709 1275.61 57.2709Z" fill="white"/>
<path d="M1267.31 157.471C1266.91 158.271 1267.71 158.971 1268.51 158.671C1268.71 158.571 1268.81 158.471 1268.91 158.271C1269.21 157.471 1268.51 156.771 1267.71 157.071C1267.51 157.171 1267.41 157.271 1267.31 157.471Z" fill="white"/>
<path d="M1378.21 86.0709C1377.81 86.8709 1378.61 87.5709 1379.41 87.2709C1379.61 87.1709 1379.71 87.0709 1379.81 86.8709C1380.11 86.0709 1379.41 85.3709 1378.61 85.6709C1378.41 85.7709 1378.31 85.8709 1378.21 86.0709Z" fill="white"/>
<path d="M1318.01 178.671C1317.61 179.471 1318.41 180.171 1319.21 179.871C1319.41 179.771 1319.51 179.671 1319.61 179.471C1320.01 178.671 1319.21 177.971 1318.41 178.271C1318.21 178.371 1318.11 178.471 1318.01 178.671Z" fill="white"/>
<path d="M1237.11 94.8709C1236.71 95.6709 1237.51 96.3709 1238.31 96.0709C1238.51 95.9709 1238.61 95.8709 1238.71 95.6709C1239.11 94.8709 1238.31 94.1709 1237.51 94.4709C1237.31 94.5709 1237.21 94.7709 1237.11 94.8709Z" fill="white"/>
<path d="M1345.71 136.571C1345.31 137.371 1346.11 138.071 1346.91 137.771C1347.11 137.671 1347.21 137.571 1347.31 137.371C1347.61 136.571 1346.91 135.871 1346.11 136.171C1345.91 136.271 1345.81 136.371 1345.71 136.571Z" fill="white"/>
<path d="M1255.31 146.071C1255.01 146.871 1255.71 147.571 1256.51 147.271C1256.71 147.171 1256.81 147.071 1256.91 146.871C1257.31 146.071 1256.51 145.371 1255.71 145.671C1255.51 145.771 1255.41 145.871 1255.31 146.071Z" fill="white"/>
<path d="M1243.71 79.2709C1243.31 80.0709 1244.11 80.7709 1244.91 80.4709C1245.11 80.3709 1245.21 80.2709 1245.31 80.0709C1245.71 79.2709 1244.91 78.5709 1244.11 78.8709C1243.91 78.9709 1243.71 79.0709 1243.71 79.2709Z" fill="white"/>
<path d="M1297.81 327.071C1297.51 327.871 1298.21 328.571 1299.01 328.271C1299.21 328.171 1299.31 328.071 1299.41 327.871C1299.81 327.071 1299.01 326.371 1298.21 326.671C1298.01 326.771 1297.81 326.871 1297.81 327.071Z" fill="white"/>
<path d="M1315.81 348.071C1315.51 348.871 1316.21 349.571 1317.01 349.271C1317.21 349.171 1317.31 349.071 1317.41 348.871C1317.81 348.071 1317.01 347.371 1316.21 347.671C1316.01 347.771 1315.81 347.871 1315.81 348.071Z" fill="white"/>
<path d="M1228.01 325.171C1227.61 325.971 1228.41 326.671 1229.21 326.371C1229.41 326.271 1229.51 326.171 1229.61 325.971C1230.01 325.171 1229.21 324.471 1228.41 324.771C1228.21 324.871 1228.11 324.971 1228.01 325.171Z" fill="white"/>
<path d="M1385.31 267.171C1384.91 267.971 1385.71 268.671 1386.51 268.371C1386.71 268.271 1386.81 268.171 1386.91 267.971C1387.31 267.171 1386.51 266.471 1385.71 266.771C1385.51 266.871 1385.41 267.071 1385.31 267.171Z" fill="white"/>
<path d="M1381.11 62.8709C1380.71 63.6709 1381.51 64.3709 1382.31 64.0709C1382.51 63.9709 1382.61 63.8709 1382.71 63.6709C1383.11 62.8709 1382.31 62.1709 1381.51 62.4709C1381.41 62.5709 1381.21 62.6709 1381.11 62.8709Z" fill="white"/>
<path d="M1299.61 19.6708C1299.31 20.4708 1300.01 21.1708 1300.81 20.8708C1301.01 20.7708 1301.11 20.6708 1301.21 20.4708C1301.61 19.6708 1300.81 18.9708 1300.01 19.2708C1299.81 19.3708 1299.71 19.4708 1299.61 19.6708Z" fill="white"/>
<path d="M1293.61 53.4709C1293.31 54.2709 1294.01 54.9709 1294.81 54.6709C1295.01 54.5709 1295.11 54.4709 1295.21 54.2709C1295.61 53.4709 1294.81 52.7709 1294.01 53.0709C1293.81 53.2709 1293.61 53.3709 1293.61 53.4709Z" fill="white"/>
<path d="M1297.51 98.5709C1297.11 99.3709 1297.91 100.071 1298.71 99.7709C1298.91 99.6709 1299.01 99.5709 1299.11 99.3709C1299.51 98.5709 1298.71 97.8709 1297.91 98.1709C1297.71 98.2709 1297.51 98.4709 1297.51 98.5709Z" fill="white"/>
<path d="M1256.11 53.2709C1255.71 54.0709 1256.51 54.7709 1257.31 54.4709C1257.51 54.3709 1257.61 54.2709 1257.71 54.0709C1258.11 53.2709 1257.31 52.5709 1256.51 52.8709C1256.31 52.9709 1256.21 53.0709 1256.11 53.2709Z" fill="white"/>
<path d="M1438.61 261.171C1438.21 261.971 1439.01 262.671 1439.81 262.371C1440.01 262.271 1440.11 262.171 1440.21 261.971C1440.61 261.171 1439.81 260.471 1439.01 260.771C1438.81 260.871 1438.71 260.971 1438.61 261.171Z" fill="white"/>
<path d="M1200.41 37.1708C1200.01 37.9708 1200.81 38.6708 1201.61 38.3708C1201.81 38.2708 1201.91 38.1708 1202.01 37.9708C1202.41 37.1708 1201.61 36.4708 1200.81 36.7708C1200.61 36.8708 1200.41 36.9708 1200.41 37.1708Z" fill="white"/>
<path d="M1226.31 198.071C1225.91 198.871 1226.71 199.571 1227.51 199.271C1227.71 199.171 1227.81 199.071 1227.91 198.871C1228.31 198.071 1227.51 197.371 1226.71 197.671C1226.51 197.771 1226.31 197.971 1226.31 198.071Z" fill="white"/>
<path d="M1166.21 155.271C1165.81 156.071 1166.61 156.771 1167.41 156.471C1167.61 156.371 1167.71 156.271 1167.81 156.071C1168.11 155.271 1167.41 154.571 1166.61 154.871C1166.41 154.971 1166.31 155.071 1166.21 155.271Z" fill="white"/>
<path d="M1171.91 268.771C1171.51 269.571 1172.31 270.271 1173.11 269.971C1173.31 269.871 1173.41 269.771 1173.51 269.571C1173.91 268.771 1173.11 268.071 1172.31 268.371C1172.11 268.471 1171.91 268.571 1171.91 268.771Z" fill="white"/>
<path d="M1267.41 275.371C1267.01 276.171 1267.81 276.871 1268.61 276.571C1268.81 276.471 1268.91 276.371 1269.01 276.171C1269.41 275.371 1268.61 274.671 1267.81 274.971C1267.61 275.071 1267.41 275.271 1267.41 275.371Z" fill="white"/>
<path d="M1287.21 228.471C1286.81 229.271 1287.61 229.971 1288.41 229.671C1288.61 229.571 1288.71 229.471 1288.81 229.271C1289.11 228.471 1288.41 227.771 1287.61 228.071C1287.41 228.171 1287.31 228.371 1287.21 228.471Z" fill="white"/>
<path d="M1424.99 298.005C1425.3 297.693 1425.27 297.154 1424.92 296.803C1424.57 296.452 1424.03 296.42 1423.72 296.732C1423.4 297.045 1423.43 297.583 1423.79 297.934C1424.14 298.286 1424.68 298.317 1424.99 298.005Z" fill="white"/>
<path d="M1393.01 314.271C1392.61 315.071 1393.41 315.771 1394.21 315.471C1394.41 315.371 1394.51 315.271 1394.61 315.071C1395.01 314.271 1394.21 313.571 1393.41 313.871C1393.21 313.971 1393.01 314.071 1393.01 314.271Z" fill="white"/>
<path d="M1382.01 421.271C1381.61 422.071 1382.41 422.771 1383.21 422.471C1383.41 422.371 1383.51 422.271 1383.61 422.071C1384.01 421.271 1383.21 420.571 1382.41 420.871C1382.21 420.971 1382.01 421.071 1382.01 421.271Z" fill="white"/>
<path d="M1370.71 239.171C1370.31 239.971 1371.11 240.671 1371.91 240.371C1372.11 240.271 1372.21 240.171 1372.31 239.971C1372.71 239.171 1371.91 238.471 1371.11 238.771C1370.91 238.871 1370.81 239.071 1370.71 239.171Z" fill="white"/>
<path d="M1410.81 135.271C1410.41 136.071 1411.21 136.771 1412.01 136.471C1412.21 136.371 1412.31 136.271 1412.41 136.071C1412.81 135.271 1412.01 134.571 1411.21 134.871C1411.01 134.971 1410.81 135.071 1410.81 135.271Z" fill="white"/>
<path d="M1406.91 174.371C1406.51 175.171 1407.31 175.871 1408.11 175.571C1408.31 175.471 1408.41 175.371 1408.51 175.171C1408.91 174.371 1408.11 173.671 1407.31 173.971C1407.11 174.071 1407.01 174.171 1406.91 174.371Z" fill="white"/>
<path d="M1341.41 205.271C1341.01 206.071 1341.81 206.771 1342.61 206.471C1342.81 206.371 1342.91 206.271 1343.01 206.071C1343.41 205.271 1342.61 204.571 1341.81 204.871C1341.61 204.971 1341.51 205.071 1341.41 205.271Z" fill="white"/>
<path d="M1364.11 187.071C1363.71 187.871 1364.51 188.571 1365.31 188.271C1365.51 188.171 1365.61 188.071 1365.71 187.871C1366.11 187.071 1365.31 186.371 1364.51 186.671C1364.41 186.771 1364.21 186.871 1364.11 187.071Z" fill="white"/>
<path d="M1332.51 289.971C1332.11 290.771 1332.91 291.471 1333.71 291.171C1333.91 291.071 1334.01 290.971 1334.11 290.771C1334.41 289.971 1333.71 289.271 1332.91 289.571C1332.71 289.671 1332.61 289.771 1332.51 289.971Z" fill="white"/>
<path d="M1302.51 358.971C1302.11 359.771 1302.91 360.471 1303.71 360.171C1303.91 360.071 1304.01 359.971 1304.11 359.771C1304.41 358.971 1303.71 358.271 1302.91 358.571C1302.71 358.671 1302.61 358.771 1302.51 358.971Z" fill="white"/>
<path d="M1390.91 35.8709C1390.61 36.6709 1391.31 37.3709 1392.11 37.0709C1392.31 36.9709 1392.41 36.8709 1392.51 36.6709C1392.91 35.8709 1392.11 35.1709 1391.31 35.4709C1391.11 35.5709 1391.01 35.6709 1390.91 35.8709Z" fill="white"/>
<path d="M1374.41 48.0709C1374.01 48.8709 1374.81 49.5709 1375.61 49.2709C1375.81 49.1709 1375.91 49.0709 1376.01 48.8709C1376.41 48.0709 1375.61 47.3709 1374.81 47.6709C1374.61 47.7709 1374.41 47.9709 1374.41 48.0709Z" fill="white"/>
<path d="M1177.92 108.1C1178.23 107.787 1178.2 107.249 1177.85 106.898C1177.5 106.546 1176.96 106.514 1176.65 106.827C1176.33 107.139 1176.37 107.678 1176.72 108.029C1177.07 108.38 1177.61 108.412 1177.92 108.1Z" fill="white"/>
<path d="M1200.41 157.971C1200.01 158.771 1200.81 159.471 1201.61 159.171C1201.81 159.071 1201.91 158.971 1202.01 158.771C1202.41 157.971 1201.61 157.271 1200.81 157.571C1200.61 157.671 1200.51 157.771 1200.41 157.971Z" fill="white"/>
<path d="M1221.71 131.371C1221.31 132.171 1222.11 132.871 1222.91 132.571C1223.11 132.471 1223.21 132.371 1223.31 132.171C1223.71 131.371 1222.91 130.671 1222.11 130.971C1221.91 131.071 1221.81 131.271 1221.71 131.371Z" fill="white"/>
<path d="M1195.91 229.871C1195.51 230.671 1196.31 231.371 1197.11 231.071C1197.31 230.971 1197.41 230.871 1197.51 230.671C1197.91 229.871 1197.11 229.171 1196.31 229.471C1196.11 229.571 1196.01 229.671 1195.91 229.871Z" fill="white"/>
<path d="M1138.11 222.571C1137.71 223.371 1138.51 224.071 1139.31 223.771C1139.51 223.671 1139.61 223.571 1139.71 223.371C1140.01 222.571 1139.31 221.871 1138.51 222.171C1138.31 222.271 1138.21 222.471 1138.11 222.571Z" fill="white"/>
<path d="M1228.81 283.271C1228.41 284.071 1229.21 284.771 1230.01 284.471C1230.21 284.371 1230.31 284.271 1230.41 284.071C1230.81 283.271 1230.01 282.571 1229.21 282.871C1229.01 282.971 1228.81 283.071 1228.81 283.271Z" fill="white"/>
<path d="M171.307 537.071C170.907 537.871 171.707 538.571 172.507 538.271C172.707 538.171 172.807 538.071 172.907 537.871C173.307 537.071 172.507 536.371 171.707 536.671C171.507 536.771 171.407 536.871 171.307 537.071Z" fill="white"/>
<path d="M85.5063 337.471C85.1063 338.271 85.9063 338.971 86.7063 338.671C86.9063 338.571 87.0063 338.471 87.1063 338.271C87.5063 337.471 86.7063 336.771 85.9063 337.071C85.7063 337.271 85.5063 337.371 85.5063 337.471Z" fill="white"/>
<path d="M335.207 372.671C334.907 373.471 335.607 374.171 336.407 373.871C336.607 373.771 336.707 373.671 336.807 373.471C337.207 372.671 336.407 371.971 335.607 372.271C335.407 372.371 335.207 372.571 335.207 372.671Z" fill="white"/>
<path d="M368.106 305.171C367.706 305.971 368.506 306.671 369.306 306.371C369.506 306.271 369.606 306.171 369.706 305.971C370.106 305.171 369.306 304.471 368.506 304.771C368.306 304.871 368.206 304.971 368.106 305.171Z" fill="white"/>
<path d="M392.606 276.671C392.206 277.471 393.006 278.171 393.806 277.871C394.006 277.771 394.106 277.671 394.206 277.471C394.606 276.671 393.806 275.971 393.006 276.271C392.806 276.371 392.706 276.571 392.606 276.671Z" fill="white"/>
<path d="M381.93 261.394C382.243 261.081 382.211 260.543 381.86 260.192C381.508 259.84 380.97 259.808 380.657 260.121C380.345 260.433 380.377 260.971 380.728 261.323C381.08 261.674 381.618 261.706 381.93 261.394Z" fill="white"/>
<path d="M502.106 285.271C501.706 286.071 502.506 286.771 503.306 286.471C503.506 286.371 503.606 286.271 503.706 286.071C504.106 285.271 503.306 284.571 502.506 284.871C502.306 284.971 502.206 285.171 502.106 285.271Z" fill="white"/>
<path d="M581.006 230.071C580.706 230.871 581.406 231.571 582.206 231.271C582.406 231.171 582.506 231.071 582.606 230.871C583.006 230.071 582.206 229.371 581.406 229.671C581.306 229.771 581.106 229.871 581.006 230.071Z" fill="white"/>
<path d="M586.006 209.471C585.606 210.271 586.406 210.971 587.206 210.671C587.406 210.571 587.506 210.471 587.606 210.271C587.906 209.471 587.206 208.771 586.406 209.071C586.206 209.171 586.106 209.371 586.006 209.471Z" fill="white"/>
<path d="M130.006 234.471C129.606 235.271 130.406 235.971 131.206 235.671C131.406 235.571 131.506 235.471 131.606 235.271C131.906 234.471 131.206 233.771 130.406 234.071C130.206 234.171 130.106 234.371 130.006 234.471Z" fill="white"/>
</g>
<g style="mix-blend-mode:color-dodge">
<path d="M134.607 189.17C135.276 189.17 135.796 198.755 135.796 210.57C135.796 222.385 135.276 231.97 134.607 231.97C133.938 231.97 133.418 222.385 133.418 210.57C133.344 198.755 133.938 189.17 134.607 189.17Z" fill="url(#paint0_radial)"/>
<path d="M113.207 210.495C113.207 209.827 122.792 209.307 134.607 209.307C146.422 209.307 156.007 209.827 156.007 210.495C156.007 211.164 146.422 211.684 134.607 211.684C122.792 211.759 113.207 211.164 113.207 210.495Z" fill="url(#paint1_radial)"/>
<g opacity="0.6" filter="url(#filter0_f)">
<circle cx="134.607" cy="210.421" r="4.45842" fill="#27ABA7"/>
</g>
<g filter="url(#filter1_f)">
<circle r="1.48614" transform="matrix(1 0 0 -1 134.608 210.421)" fill="#4BD2E4"/>
</g>
</g>
<g style="mix-blend-mode:color-dodge">
<path d="M415.007 335.371C415.607 335.371 416.107 344.371 416.107 355.471C416.107 366.571 415.607 375.571 415.007 375.571C414.407 375.571 413.907 366.571 413.907 355.471C413.907 344.371 414.307 335.371 415.007 335.371Z" fill="url(#paint2_radial)"/>
<path d="M415.007 356.571C426.108 356.571 435.107 356.078 435.107 355.471C435.107 354.863 426.108 354.371 415.007 354.371C403.906 354.371 394.907 354.863 394.907 355.471C394.907 356.078 403.906 356.571 415.007 356.571Z" fill="url(#paint3_radial)"/>
<g opacity="0.6" filter="url(#filter2_f)">
<circle cx="415.007" cy="354.97" r="7" fill="#27ABA7"/>
</g>
<g filter="url(#filter3_f)">
<circle r="3" transform="matrix(1 0 0 -1 415.007 354.97)" fill="#4BD2E4"/>
</g>
</g>
<g style="mix-blend-mode:color-dodge">
<path d="M973.306 448.271C973.693 448.271 974.006 442.809 974.006 436.071C974.006 429.333 973.693 423.871 973.306 423.871C972.92 423.871 972.606 429.333 972.606 436.071C972.606 442.809 972.92 448.271 973.306 448.271Z" fill="url(#paint4_radial)"/>
<path d="M961.106 436.071C961.106 435.671 966.506 435.371 973.306 435.371C980.106 435.371 985.506 435.671 985.506 436.071C985.506 436.471 980.106 436.771 973.306 436.771C966.506 436.771 961.106 436.471 961.106 436.071Z" fill="url(#paint5_radial)"/>
<g opacity="0.6" filter="url(#filter4_f)">
<circle cx="973.007" cy="435.97" r="5" fill="#27ABA7"/>
</g>
<g filter="url(#filter5_f)">
<circle r="2" transform="matrix(1 0 0 -1 973.007 435.97)" fill="#4BD2E4"/>
</g>
</g>
<g style="mix-blend-mode:color-dodge">
<path d="M1057.81 224.271C1058.19 224.271 1058.51 218.809 1058.51 212.071C1058.51 205.333 1058.19 199.871 1057.81 199.871C1057.42 199.871 1057.11 205.333 1057.11 212.071C1057.11 218.809 1057.42 224.271 1057.81 224.271Z" fill="url(#paint6_radial)"/>
<path d="M1045.61 212.071C1045.61 211.671 1051.01 211.371 1057.81 211.371C1064.51 211.371 1070.01 211.671 1070.01 212.071C1070.01 212.471 1064.61 212.771 1057.81 212.771C1051.11 212.771 1045.61 212.471 1045.61 212.071Z" fill="url(#paint7_radial)"/>
<g opacity="0.6" filter="url(#filter6_f)">
<circle cx="1058.01" cy="211.97" r="5" fill="#27ABA7"/>
</g>
<g filter="url(#filter7_f)">
<circle r="2" transform="matrix(1 0 0 -1 1058.01 211.97)" fill="#4BD2E4"/>
</g>
</g>
<g style="mix-blend-mode:color-dodge">
<path d="M1171.81 280.271C1172.19 280.271 1172.51 274.809 1172.51 268.071C1172.51 261.333 1172.19 255.871 1171.81 255.871C1171.42 255.871 1171.11 261.333 1171.11 268.071C1171.11 274.809 1171.42 280.271 1171.81 280.271Z" fill="url(#paint8_radial)"/>
<path d="M1159.61 268.071C1159.61 267.671 1165.01 267.371 1171.81 267.371C1178.51 267.371 1184.01 267.671 1184.01 268.071C1184.01 268.471 1178.61 268.771 1171.81 268.771C1165.11 268.771 1159.61 268.471 1159.61 268.071Z" fill="url(#paint9_radial)"/>
<g opacity="0.6" filter="url(#filter8_f)">
<circle cx="1172.01" cy="267.97" r="5" fill="#27ABA7"/>
</g>
<g filter="url(#filter9_f)">
<circle r="2" transform="matrix(1 0 0 -1 1172.01 267.97)" fill="#4BD2E4"/>
</g>
</g>
<g style="mix-blend-mode:color-dodge">
<path d="M814.806 118.271C815.193 118.271 815.506 112.809 815.506 106.071C815.506 99.333 815.193 93.8708 814.806 93.8708C814.42 93.8708 814.106 99.333 814.106 106.071C814.106 112.809 814.42 118.271 814.806 118.271Z" fill="url(#paint10_radial)"/>
<path d="M802.606 106.071C802.606 105.671 808.006 105.371 814.806 105.371C821.506 105.371 827.006 105.671 827.006 106.071C827.006 106.471 821.606 106.771 814.806 106.771C808.106 106.771 802.606 106.471 802.606 106.071Z" fill="url(#paint11_radial)"/>
<g opacity="0.6" filter="url(#filter10_f)">
<circle cx="815.007" cy="105.97" r="5" fill="#27ABA7"/>
</g>
<g filter="url(#filter11_f)">
<circle r="2" transform="matrix(1 0 0 -1 815.007 105.97)" fill="#4BD2E4"/>
</g>
</g>
<path d="M951.008 188.471L993.008 159.971L953.008 191.471L951.008 188.471Z" fill="url(#paint12_linear)"/>
<circle cx="952.008" cy="189.971" r="2" fill="white"/>
<defs>
<filter id="filter0_f" x="115.149" y="190.963" width="38.9168" height="38.9168" filterUnits="userSpaceOnUse" color-interpolation-filters="sRGB">
<feFlood flood-opacity="0" result="BackgroundImageFix"/>
<feBlend mode="normal" in="SourceGraphic" in2="BackgroundImageFix" result="shape"/>
<feGaussianBlur stdDeviation="7.5" result="effect1_foregroundBlur"/>
</filter>
<filter id="filter1_f" x="131.122" y="206.935" width="6.97228" height="6.97228" filterUnits="userSpaceOnUse" color-interpolation-filters="sRGB">
<feFlood flood-opacity="0" result="BackgroundImageFix"/>
<feBlend mode="normal" in="SourceGraphic" in2="BackgroundImageFix" result="shape"/>
<feGaussianBlur stdDeviation="1" result="effect1_foregroundBlur"/>
</filter>
<filter id="filter2_f" x="393.007" y="332.97" width="44" height="44" filterUnits="userSpaceOnUse" color-interpolation-filters="sRGB">
<feFlood flood-opacity="0" result="BackgroundImageFix"/>
<feBlend mode="normal" in="SourceGraphic" in2="BackgroundImageFix" result="shape"/>
<feGaussianBlur stdDeviation="7.5" result="effect1_foregroundBlur"/>
</filter>
<filter id="filter3_f" x="410.007" y="349.97" width="10" height="10" filterUnits="userSpaceOnUse" color-interpolation-filters="sRGB">
<feFlood flood-opacity="0" result="BackgroundImageFix"/>
<feBlend mode="normal" in="SourceGraphic" in2="BackgroundImageFix" result="shape"/>
<feGaussianBlur stdDeviation="1" result="effect1_foregroundBlur"/>
</filter>
<filter id="filter4_f" x="953.007" y="415.97" width="40" height="40" filterUnits="userSpaceOnUse" color-interpolation-filters="sRGB">
<feFlood flood-opacity="0" result="BackgroundImageFix"/>
<feBlend mode="normal" in="SourceGraphic" in2="BackgroundImageFix" result="shape"/>
<feGaussianBlur stdDeviation="7.5" result="effect1_foregroundBlur"/>
</filter>
<filter id="filter5_f" x="969.007" y="431.97" width="8" height="8" filterUnits="userSpaceOnUse" color-interpolation-filters="sRGB">
<feFlood flood-opacity="0" result="BackgroundImageFix"/>
<feBlend mode="normal" in="SourceGraphic" in2="BackgroundImageFix" result="shape"/>
<feGaussianBlur stdDeviation="1" result="effect1_foregroundBlur"/>
</filter>
<filter id="filter6_f" x="1038.01" y="191.97" width="40" height="40" filterUnits="userSpaceOnUse" color-interpolation-filters="sRGB">
<feFlood flood-opacity="0" result="BackgroundImageFix"/>
<feBlend mode="normal" in="SourceGraphic" in2="BackgroundImageFix" result="shape"/>
<feGaussianBlur stdDeviation="7.5" result="effect1_foregroundBlur"/>
</filter>
<filter id="filter7_f" x="1054.01" y="207.97" width="8" height="8" filterUnits="userSpaceOnUse" color-interpolation-filters="sRGB">
<feFlood flood-opacity="0" result="BackgroundImageFix"/>
<feBlend mode="normal" in="SourceGraphic" in2="BackgroundImageFix" result="shape"/>
<feGaussianBlur stdDeviation="1" result="effect1_foregroundBlur"/>
</filter>
<filter id="filter8_f" x="1152.01" y="247.97" width="40" height="40" filterUnits="userSpaceOnUse" color-interpolation-filters="sRGB">
<feFlood flood-opacity="0" result="BackgroundImageFix"/>
<feBlend mode="normal" in="SourceGraphic" in2="BackgroundImageFix" result="shape"/>
<feGaussianBlur stdDeviation="7.5" result="effect1_foregroundBlur"/>
</filter>
<filter id="filter9_f" x="1168.01" y="263.97" width="8" height="8" filterUnits="userSpaceOnUse" color-interpolation-filters="sRGB">
<feFlood flood-opacity="0" result="BackgroundImageFix"/>
<feBlend mode="normal" in="SourceGraphic" in2="BackgroundImageFix" result="shape"/>
<feGaussianBlur stdDeviation="1" result="effect1_foregroundBlur"/>
</filter>
<filter id="filter10_f" x="795.007" y="85.9705" width="40" height="40" filterUnits="userSpaceOnUse" color-interpolation-filters="sRGB">
<feFlood flood-opacity="0" result="BackgroundImageFix"/>
<feBlend mode="normal" in="SourceGraphic" in2="BackgroundImageFix" result="shape"/>
<feGaussianBlur stdDeviation="7.5" result="effect1_foregroundBlur"/>
</filter>
<filter id="filter11_f" x="811.007" y="101.97" width="8" height="8" filterUnits="userSpaceOnUse" color-interpolation-filters="sRGB">
<feFlood flood-opacity="0" result="BackgroundImageFix"/>
<feBlend mode="normal" in="SourceGraphic" in2="BackgroundImageFix" result="shape"/>
<feGaussianBlur stdDeviation="1" result="effect1_foregroundBlur"/>
</filter>
<radialGradient id="paint0_radial" cx="0" cy="0" r="1" gradientUnits="userSpaceOnUse" gradientTransform="translate(134.595 210.163) rotate(-90) scale(19.9338 1.08758)">
<stop stop-color="white"/>
<stop offset="1"/>
</radialGradient>
<radialGradient id="paint1_radial" cx="0" cy="0" r="1" gradientUnits="userSpaceOnUse" gradientTransform="translate(134.209 210.503) rotate(180) scale(19.9338 1.08757)">
<stop stop-color="white"/>
<stop offset="1"/>
</radialGradient>
<radialGradient id="paint2_radial" cx="0" cy="0" r="1" gradientUnits="userSpaceOnUse" gradientTransform="translate(414.982 355.104) rotate(-90) scale(18.7442 1.02267)">
<stop stop-color="white"/>
<stop offset="1"/>
</radialGradient>
<radialGradient id="paint3_radial" cx="0" cy="0" r="1" gradientUnits="userSpaceOnUse" gradientTransform="translate(414.618 355.424) rotate(180) scale(18.7442 1.02267)">
<stop stop-color="white"/>
<stop offset="1"/>
</radialGradient>
<radialGradient id="paint4_radial" cx="0" cy="0" r="1" gradientUnits="userSpaceOnUse" gradientTransform="translate(973.307 435.905) rotate(-90) scale(11.3461 0.619045)">
<stop stop-color="white"/>
<stop offset="1"/>
</radialGradient>
<radialGradient id="paint5_radial" cx="0" cy="0" r="1" gradientUnits="userSpaceOnUse" gradientTransform="translate(973.087 436.099) rotate(180) scale(11.3465 0.619051)">
<stop stop-color="white"/>
<stop offset="1"/>
</radialGradient>
<radialGradient id="paint6_radial" cx="0" cy="0" r="1" gradientUnits="userSpaceOnUse" gradientTransform="translate(1057.81 211.905) rotate(-90) scale(11.3461 0.619045)">
<stop stop-color="white"/>
<stop offset="1"/>
</radialGradient>
<radialGradient id="paint7_radial" cx="0" cy="0" r="1" gradientUnits="userSpaceOnUse" gradientTransform="translate(1057.59 212.099) rotate(180) scale(11.3465 0.619058)">
<stop stop-color="white"/>
<stop offset="1"/>
</radialGradient>
<radialGradient id="paint8_radial" cx="0" cy="0" r="1" gradientUnits="userSpaceOnUse" gradientTransform="translate(1171.81 267.905) rotate(-90) scale(11.3461 0.619045)">
<stop stop-color="white"/>
<stop offset="1"/>
</radialGradient>
<radialGradient id="paint9_radial" cx="0" cy="0" r="1" gradientUnits="userSpaceOnUse" gradientTransform="translate(1171.59 268.099) rotate(180) scale(11.3465 0.619058)">
<stop stop-color="white"/>
<stop offset="1"/>
</radialGradient>
<radialGradient id="paint10_radial" cx="0" cy="0" r="1" gradientUnits="userSpaceOnUse" gradientTransform="translate(814.807 105.905) rotate(-90) scale(11.3461 0.619045)">
<stop stop-color="white"/>
<stop offset="1"/>
</radialGradient>
<radialGradient id="paint11_radial" cx="0" cy="0" r="1" gradientUnits="userSpaceOnUse" gradientTransform="translate(814.586 106.1) rotate(180) scale(11.3465 0.619055)">
<stop stop-color="white"/>
<stop offset="1"/>
</radialGradient>
<linearGradient id="paint12_linear" x1="952.008" y1="189.971" x2="1002.01" y2="148.971" gradientUnits="userSpaceOnUse">
<stop offset="0.0001" stop-color="#27ABA7"/>
<stop offset="0.953125" stop-color="#013132" stop-opacity="0"/>
</linearGradient>
</defs>
</svg>
