<svg width="32" height="32" viewBox="0 0 32 32" fill="none" xmlns="http://www.w3.org/2000/svg">
<path d="M16 32C24.8366 32 32 24.8366 32 16C32 7.16344 24.8366 0 16 0C7.16344 0 0 7.16344 0 16C0 24.8366 7.16344 32 16 32Z" fill="#1D9BF0"/>
<path d="M13.073 24.4391C20.1674 24.4391 24.0474 18.5615 24.0474 13.4647C24.0474 13.2983 24.0436 13.1322 24.0362 12.9663C24.791 12.4191 25.4425 11.7419 25.9602 10.9663C25.2561 11.2779 24.5095 11.4826 23.745 11.5735C24.55 11.0914 25.1525 10.3332 25.4402 9.43994C24.6831 9.88908 23.855 10.2056 22.9914 10.3759C22.4102 9.75603 21.6406 9.34527 20.8022 9.20739C19.9637 9.06952 19.1031 9.21224 18.354 9.6134C17.6049 10.0146 17.0092 10.6518 16.6592 11.4261C16.3093 12.2004 16.2247 13.0686 16.4186 13.8959C14.8849 13.8194 13.3845 13.421 12.0147 12.7268C10.645 12.0326 9.43668 11.058 8.46816 9.86634C7.9749 10.7154 7.82376 11.7205 8.04551 12.6771C8.26726 13.6336 8.84523 14.4697 9.66176 15.0151C9.0493 14.9975 8.45006 14.8329 7.91456 14.5351C7.91456 14.5511 7.91456 14.5671 7.91456 14.5847C7.91502 15.4753 8.22347 16.3383 8.7876 17.0274C9.35174 17.7165 10.1368 18.1892 11.0098 18.3655C10.4417 18.5207 9.84558 18.5435 9.26736 18.4319C9.51375 19.1978 9.99308 19.8676 10.6385 20.3479C11.2838 20.8282 12.063 21.095 12.8674 21.1111C11.5016 22.1819 9.81562 22.7626 8.08016 22.7599C7.77273 22.7602 7.46554 22.7425 7.16016 22.7071C8.92404 23.8399 10.9767 24.4412 13.073 24.4391" fill="white"/>
</svg>
