<svg width="26" height="26" viewBox="0 0 26 26" fill="none" xmlns="http://www.w3.org/2000/svg">
<path d="M-0.000488281 13.3977C-0.000488281 6.43736 5.64195 0.794922 12.6023 0.794922C19.5626 0.794922 25.205 6.43736 25.205 13.3977C25.205 20.358 19.5626 26.0004 12.6023 26.0004C5.64195 26.0004 -0.000488281 20.358 -0.000488281 13.3977Z" fill="#FF0000"/>
<path d="M19.0433 10.2854C18.8887 9.69147 18.4332 9.2238 17.8548 9.06507C16.8065 8.77661 12.6028 8.77661 12.6028 8.77661C12.6028 8.77661 8.39907 8.77661 7.35075 9.06507C6.77232 9.2238 6.31679 9.69147 6.1622 10.2854C5.88135 11.3618 5.88135 13.6077 5.88135 13.6077C5.88135 13.6077 5.88135 15.8535 6.1622 16.9299C6.31679 17.5238 6.77232 17.9915 7.35075 18.1503C8.39907 18.4387 12.6028 18.4387 12.6028 18.4387C12.6028 18.4387 16.8065 18.4387 17.8548 18.1503C18.4332 17.9915 18.8887 17.5238 19.0433 16.9299C19.3243 15.8535 19.3243 13.6077 19.3243 13.6077C19.3243 13.6077 19.3243 11.3618 19.0433 10.2854Z" fill="white"/>
<path d="M11.3423 15.9183V11.7174L14.703 13.8179L11.3423 15.9183Z" fill="#FF0000"/>
</svg>
